<?xml version="1.0" standalone="no"?>
<!DOCTYPE svg PUBLIC "-//W3C//DTD SVG 20010904//EN"
 "http://www.w3.org/TR/2001/REC-SVG-20010904/DTD/svg10.dtd">
<svg version="1.0" xmlns="http://www.w3.org/2000/svg"
 width="300.000000pt" height="375.000000pt" viewBox="0 0 300.000000 375.000000"
 preserveAspectRatio="xMidYMid meet">
<metadata>
Created by potrace 1.10, written by Peter Selinger 2001-2011
</metadata>
<g transform="translate(0.000000,375.000000) scale(0.050000,-0.050000)"
fill="#432d2d" stroke="none">
<path d="M2994 5408 c-6 -7 -7 -38 -1 -70 27 -131 -3 -184 -132 -234 -261
-102 -386 -304 -378 -615 4 -126 14 -204 31 -220 37 -38 32 -54 -13 -39 -48
15 -121 -52 -121 -112 0 -35 -5 -39 -29 -19 -39 32 -108 -5 -119 -65 -19 -104
-11 -139 29 -128 47 12 53 -16 7 -34 -64 -25 -109 -12 -128 38 -11 28 -35 50
-55 50 -102 0 -195 143 -197 301 -2 229 -84 357 -284 447 -87 39 -94 56 -87
197 2 30 -6 55 -17 55 -11 0 -19 -7 -18 -15 23 -142 -3 -194 -128 -255 -183
-90 -257 -218 -251 -436 3 -86 11 -160 18 -165 8 -4 10 -29 6 -54 -15 -85 13
-97 238 -101 116 -2 207 3 202 11 -5 8 0 15 12 15 11 0 21 -10 21 -21 0 -12 9
-16 20 -9 31 19 24 142 -10 170 -41 34 -65 -31 -32 -85 20 -32 20 -38 -1 -31
-15 5 -32 35 -37 67 -13 74 -79 94 -81 25 l-2 -46 -18 47 c-14 35 -30 45 -61
37 -51 -14 -102 3 -87 28 6 10 1 18 -11 18 -14 0 -18 -16 -10 -40 14 -43 -3
-50 -47 -22 -19 12 -21 21 -5 31 13 8 18 21 12 31 -23 38 287 71 410 44 57
-13 76 -8 106 25 l36 41 -21 -44 c-26 -54 -28 -173 -2 -157 16 10 121 -70 121
-92 0 -5 -18 -10 -40 -12 -22 -1 -56 -18 -75 -37 -40 -40 -56 -175 -19 -163
13 5 24 39 24 76 0 46 10 70 31 74 39 8 127 -66 111 -93 -7 -10 -4 -24 6 -31
11 -6 25 7 32 30 11 34 19 37 43 17 26 -22 25 -27 -4 -44 -27 -15 -28 -22 -7
-35 15 -10 38 -7 52 5 14 11 26 13 26 3 0 -9 9 -3 20 13 18 28 31 -9 22 -65
-3 -24 68 -17 94 9 19 19 24 18 24 -1 0 -39 40 -5 62 51 15 42 24 46 48 26 24
-20 30 -19 30 8 0 29 45 43 115 33 14 -1 25 8 25 20 0 15 -18 19 -50 11 -45
-12 -50 -7 -50 48 0 33 -9 60 -20 60 -11 0 -20 -25 -20 -55 -1 -37 -6 -46 -17
-29 -39 62 19 155 90 142 118 -21 147 0 150 107 4 100 4 101 12 20 10 -116 37
-107 52 18 6 56 27 125 45 154 24 35 27 53 11 59 -33 11 -8 44 33 44 19 1 56
17 82 38 l48 37 -93 -14 c-100 -16 -110 -7 -97 81 5 37 17 52 36 44 18 -7 28
4 28 30 0 58 21 106 42 93 10 -6 12 3 6 20 -8 20 -1 31 18 31 17 0 35 -11 40
-25 4 -14 5 -5 1 20 -4 25 1 45 13 45 11 0 18 -10 15 -22 -3 -13 11 -25 30
-29 19 -3 31 2 25 11 -6 10 -1 23 10 30 12 7 16 31 9 52 -6 21 -2 38 10 38 11
0 21 -14 21 -31 0 -18 10 -25 22 -18 12 7 17 29 12 49 -7 26 0 32 28 25 22 -6
35 -25 32 -49 -3 -27 13 -47 45 -59 48 -18 48 -18 12 22 -40 44 -20 55 29 15
33 -27 49 -74 24 -74 -8 0 -15 -18 -15 -40 0 -22 7 -40 15 -40 9 0 16 9 16 20
0 12 23 6 50 -12 33 -21 50 -25 50 -9 0 13 9 18 20 11 12 -7 16 -21 10 -30 -6
-9 -2 -23 10 -30 28 -17 25 -97 -5 -127 -20 -20 -19 -29 5 -44 20 -12 22 -18
5 -19 -13 0 -35 17 -48 38 -13 21 -36 33 -51 28 -14 -6 -26 -1 -26 10 0 11
-14 25 -31 32 -18 6 -26 3 -19 -8 7 -11 -5 -20 -27 -20 -74 0 -103 23 -103 82
0 32 -9 58 -20 58 -11 0 -20 -31 -20 -69 0 -48 -10 -71 -35 -77 -19 -5 8 -10
60 -12 112 -2 227 -69 282 -162 20 -34 45 -55 57 -47 13 7 16 4 9 -9 -8 -11
-8 -70 -1 -129 14 -121 39 -140 213 -164 53 -8 95 -24 95 -37 0 -14 19 -36 42
-51 32 -19 37 -32 20 -49 -12 -12 -22 -35 -22 -51 0 -16 -16 -41 -35 -55 -32
-24 -29 -27 25 -30 33 -1 69 -5 80 -7 11 -3 31 -6 44 -8 13 -2 29 -22 37 -46
12 -39 16 -40 33 -9 11 19 14 48 7 66 -9 23 -2 28 29 20 22 -6 40 -3 40 6 0 8
18 20 40 26 43 11 58 -37 16 -51 -13 -4 -16 -18 -8 -32 12 -19 22 -17 41 9 17
24 29 27 39 11 21 -34 48 -28 45 11 -4 49 -56 106 -82 91 -11 -7 -10 1 4 18
13 17 19 37 11 44 -7 7 2 13 21 13 18 0 33 14 33 32 0 20 11 28 30 21 16 -7
50 -4 75 6 41 17 42 19 5 20 -39 2 -39 3 -2 31 21 16 45 24 54 19 8 -5 21 -1
28 11 25 41 50 18 50 -45 l0 -65 175 -6 c96 -3 208 -9 248 -12 72 -6 73 -6 86
86 58 381 5 555 -200 665 -146 79 -155 90 -144 191 7 59 3 85 -12 80 -12 -4
-23 -33 -25 -65 -1 -33 -4 -79 -5 -102 -2 -31 -23 -50 -69 -66 -182 -60 -289
-225 -297 -461 -4 -117 -13 -156 -41 -176 -20 -15 -36 -38 -36 -53 0 -15 -34
-35 -75 -45 -48 -11 -82 -33 -95 -62 -37 -84 -89 -34 -90 88 0 50 -90 141
-109 110 -21 -35 -51 -26 -51 15 0 45 -61 103 -108 103 -22 0 -29 9 -19 24 20
33 35 178 33 329 -2 224 -158 433 -390 521 -108 41 -171 184 -113 258 26 33
-19 66 -49 36z m-1422 -956 c6 -15 38 -33 71 -40 33 -6 54 -20 48 -30 -6 -10
-2 -22 8 -25 11 -4 22 -29 25 -57 l6 -50 -209 -4 c-205 -4 -311 16 -238 44 19
8 29 27 23 49 -5 20 2 43 15 52 18 11 20 7 8 -13 -14 -24 -12 -24 17 -1 27 22
34 22 34 2 0 -17 13 -13 40 11 35 32 40 32 40 4 0 -27 8 -24 45 12 28 27 38
50 25 59 -12 9 -10 15 6 15 14 0 30 -12 36 -28z m3058 -55 c57 -7 110 -39 110
-67 0 -7 -11 -6 -25 2 -20 11 -20 8 0 -13 48 -52 29 -76 -54 -68 -44 5 -145 0
-224 -10 -158 -20 -217 -4 -217 58 0 38 50 69 80 51 10 -6 29 7 44 28 29 40
143 63 196 40 17 -8 57 -17 90 -21z m25 -190 c108 -13 156 -64 107 -113 -14
-14 -22 -15 -22 -1 0 49 -150 17 -157 -34 -7 -48 -6 -48 34 -12 26 24 55 33
77 24 30 -11 31 -16 5 -32 -24 -15 -23 -18 6 -19 19 0 35 -13 35 -30 0 -88
-170 -23 -183 70 -9 63 -63 66 -67 4 -4 -53 -43 -98 -65 -75 -8 9 -4 20 10 25
71 26 26 105 -55 98 -72 -6 -80 -2 -80 39 0 66 119 84 355 56z m-3284 -184
c23 4 40 -7 45 -28 6 -29 -8 -35 -75 -35 -66 0 -81 7 -81 38 0 42 43 67 62 37
7 -10 29 -15 49 -12z"/>
<path d="M2894 4455 c-41 -24 -74 -55 -74 -69 0 -14 -10 -26 -22 -26 -12 0
-18 -12 -12 -28 6 -15 2 -36 -10 -48 -25 -25 -4 -64 35 -64 42 0 36 -40 -6
-41 -27 0 -23 -7 15 -28 49 -27 105 1 59 30 -11 6 5 32 34 58 38 33 50 37 41
14 -8 -21 -2 -33 16 -33 16 0 24 -12 18 -28 -6 -15 0 -35 14 -43 16 -10 19 -7
9 9 -8 13 -6 35 5 48 10 13 16 39 13 58 -3 22 5 29 24 22 16 -6 24 -25 18 -41
-8 -21 -2 -26 20 -17 18 6 41 12 51 12 45 0 12 36 -43 47 -40 8 -57 21 -47 36
8 14 6 18 -7 10 -12 -7 -42 -6 -66 4 -38 14 -40 18 -12 29 18 7 33 4 33 -6 0
-10 14 -13 31 -7 26 10 26 15 -3 36 -27 20 -29 28 -8 41 17 11 21 8 12 -7 -8
-13 -4 -23 8 -23 13 0 19 11 15 25 -5 14 -24 24 -42 22 -18 -1 -28 5 -22 14
22 37 -27 33 -97 -6z"/>
<path d="M3113 4427 c-30 -31 -12 -71 27 -61 22 6 40 3 40 -6 0 -8 18 -20 40
-26 22 -6 40 -3 40 7 0 18 -80 50 -108 42 -10 -3 -7 9 7 26 27 32 -15 49 -46
18z"/>
<path d="M489 4152 c-22 -16 -35 -50 -33 -89 1 -57 -5 -63 -57 -63 -57 0 -58
-2 -46 -86 19 -143 -86 -272 -118 -144 -10 39 -10 39 -13 -1 -1 -23 -29 -62
-63 -87 -34 -24 -70 -68 -80 -96 -16 -42 -25 -46 -49 -26 -26 21 -30 13 -30
-59 0 -50 8 -78 20 -71 11 7 20 25 20 41 0 71 37 20 43 -59 6 -75 3 -85 -22
-65 -22 18 -25 17 -14 -2 9 -14 7 -25 -4 -25 -11 0 -24 11 -30 25 -6 15 -10
11 -11 -10 -2 -29 16 -35 102 -35 81 0 99 5 80 24 -41 41 -28 46 115 47 79 0
137 -8 135 -19 -5 -22 139 -39 184 -22 26 10 26 15 3 29 -15 10 -41 12 -57 6
-20 -8 -26 -4 -16 12 8 12 43 24 78 26 41 2 25 8 -46 17 l-110 13 96 4 c86 3
94 6 67 33 -37 36 -93 39 -93 5 0 -15 -6 -17 -15 -5 -20 26 -71 26 -89 -1 -7
-11 -57 -19 -110 -16 -53 3 -127 6 -166 8 -38 2 -54 8 -35 13 20 5 30 17 24
28 -11 18 59 28 146 20 45 -4 93 67 71 104 -19 31 15 114 46 114 26 0 31 -18
25 -90 -7 -85 -4 -90 43 -90 50 0 50 0 40 155 -7 107 -18 154 -34 150 -14 -2
-20 8 -14 23 6 16 21 26 34 24 46 -6 72 -34 61 -63 -7 -18 1 -29 21 -29 26 0
32 -24 32 -128 0 -89 9 -135 30 -152 26 -21 30 -13 30 59 0 68 6 82 35 78 36
-6 165 78 165 107 0 20 -88 21 -107 2 -49 -48 -73 -19 -73 88 0 93 -6 111 -40
120 -23 6 -40 27 -40 50 0 93 -71 152 -131 108z"/>
<path d="M5435 4158 c-21 -12 -35 -44 -35 -79 0 -46 -12 -65 -50 -79 -45 -17
-50 -30 -50 -130 0 -102 -23 -144 -47 -85 -8 20 -10 20 -11 0 -1 -14 -12 -25
-23 -25 -12 0 -15 10 -8 22 8 13 -2 20 -24 17 -73 -7 -86 2 -110 86 -41 145
-157 202 -157 78 0 -19 -10 -45 -22 -57 -15 -15 -8 -18 26 -12 53 10 135 -60
97 -83 -11 -7 -21 1 -21 18 0 17 -9 31 -20 31 -11 0 -20 -16 -20 -37 0 -20
-14 -36 -31 -36 -21 0 -29 12 -22 36 5 21 1 37 -9 37 -10 0 -18 -9 -18 -20 0
-11 -17 -20 -38 -20 -21 0 -43 -11 -49 -25 -5 -14 -12 2 -14 35 -2 36 -7 46
-13 25 -12 -48 -39 -44 -52 7 -14 52 -53 32 -56 -28 0 -24 -6 -33 -11 -19 -6
14 -19 20 -29 14 -10 -6 -19 9 -20 35 l-2 46 -14 -49 c-18 -65 -62 -77 -62
-18 -1 36 -5 40 -19 18 -21 -33 -81 -46 -81 -18 0 11 -13 33 -30 50 -27 27
-30 23 -30 -31 0 -48 10 -64 48 -73 27 -7 69 -34 94 -61 42 -45 93 -68 70 -32
-5 9 28 14 74 11 46 -2 84 -6 84 -8 0 -1 38 -4 84 -5 48 -1 89 -13 94 -27 7
-17 30 -6 71 35 60 60 111 69 111 20 0 -14 16 -37 35 -51 19 -14 29 -31 21
-38 -7 -7 -3 -13 9 -13 12 0 36 14 53 30 36 37 72 -11 72 -94 -1 -92 -23 -102
-193 -87 -134 13 -225 31 -150 31 13 0 23 10 23 23 0 13 -18 7 -41 -14 -35
-32 -44 -33 -59 -9 -10 16 -25 22 -33 13 -9 -8 -3 -23 13 -33 39 -24 -23 -49
-83 -33 -25 6 -35 3 -25 -7 10 -9 59 -20 108 -24 50 -3 97 -15 105 -26 9 -13
14 -12 15 2 0 12 25 17 59 12 33 -4 58 -14 55 -21 -2 -7 5 -13 16 -13 11 0 18
7 15 15 -3 8 9 15 25 15 17 0 28 -11 25 -24 -3 -13 6 -26 20 -28 14 -1 34 -4
44 -5 11 -2 15 -16 8 -33 -6 -16 -1 -30 12 -30 13 0 18 8 12 19 -7 10 4 28 24
39 30 19 31 24 5 41 -25 16 -26 27 -5 60 14 22 25 99 25 170 0 71 9 134 20
141 12 8 20 -26 20 -89 0 -55 9 -101 20 -101 12 0 20 65 20 155 1 107 7 146
20 125 13 -20 19 -22 20 -5 0 14 14 25 30 25 17 0 30 14 30 30 0 38 28 39 58
2 19 -22 16 -27 -12 -25 -31 3 -37 -17 -42 -152 l-6 -155 53 0 c50 0 52 3 47
110 -6 133 10 157 43 63 16 -44 35 -65 52 -59 17 7 27 -5 27 -32 0 -29 13 -42
40 -42 22 0 40 -8 40 -17 0 -9 36 -33 80 -53 44 -20 80 -43 80 -51 0 -53 -346
-42 -357 11 -4 20 -18 28 -36 21 -17 -6 -42 -11 -55 -11 -43 0 -28 -60 16 -63
23 -2 2 -9 -48 -17 l-90 -14 75 -5 c41 -4 84 -8 95 -11 11 -3 31 -6 45 -8 19
-2 19 -7 -2 -20 -21 -13 -21 -19 4 -28 16 -6 34 0 40 15 6 16 50 27 122 28 76
2 109 -4 100 -18 -7 -12 -26 -17 -41 -11 -15 6 -28 2 -28 -9 0 -10 21 -19 48
-19 26 0 73 -5 105 -12 l59 -11 5 145 c4 123 1 141 -24 121 -23 -19 -33 -12
-53 37 -14 33 -51 76 -82 94 -31 19 -60 52 -64 75 -8 38 -9 38 -11 -4 -8 -132
-103 2 -103 146 0 82 -4 89 -50 89 -42 0 -50 10 -50 57 0 31 -16 72 -37 90
-42 38 -42 38 -88 11z"/>
<path d="M2970 4060 c-67 -12 -71 -15 -20 -16 33 0 101 6 150 15 81 14 83 16
20 16 -38 -1 -106 -7 -150 -15z"/>
<path d="M2775 4041 c-42 -8 -82 -21 -89 -29 -21 -20 160 10 183 31 21 19 16
19 -94 -2z"/>
<path d="M995 4005 c-17 -19 -38 -69 -46 -110 -7 -41 -21 -75 -31 -75 -10 0
-18 -12 -18 -26 0 -15 -27 -52 -60 -84 -33 -32 -60 -72 -60 -90 0 -17 -11 -43
-24 -56 -17 -17 -18 -24 -1 -24 12 0 29 10 36 21 7 12 25 17 40 11 15 -6 33
-1 40 10 8 13 22 12 39 -2 20 -17 30 -12 40 19 8 25 22 36 36 27 14 -8 12 1
-3 20 -16 19 -21 34 -13 34 8 0 4 14 -10 30 -33 40 15 42 71 2 32 -22 63 -24
148 -9 141 26 238 8 259 -49 l16 -43 14 43 c23 73 127 148 189 136 29 -6 42
-5 28 2 -14 6 -25 29 -25 50 0 21 -13 38 -30 38 -16 0 -30 -9 -30 -20 0 -11
-13 -20 -30 -20 -16 0 -30 9 -30 20 0 11 -9 20 -20 20 -11 0 -20 -13 -20 -30
0 -46 -33 -36 -50 15 l-15 45 -9 -45 c-11 -56 -58 -59 -72 -5 -6 22 -20 40
-32 40 -12 0 -22 -18 -22 -40 0 -49 -34 -53 -46 -5 -8 30 -10 29 -12 -5 -2
-33 -6 -35 -22 -10 -13 20 -19 22 -20 5 0 -14 -13 -25 -30 -25 -16 0 -30 9
-30 20 0 11 -9 20 -20 20 -11 0 -20 -13 -20 -30 0 -42 -26 -37 -55 9 -20 33
-18 41 16 51 49 16 50 73 2 117 -34 31 -39 31 -68 -2z m499 -237 c-21 -22
-214 -28 -214 -7 0 10 51 19 113 19 63 0 108 -6 101 -12z"/>
<path d="M2500 3940 c0 -33 9 -60 19 -60 11 0 14 -16 7 -35 -8 -24 -5 -28 8
-15 24 23 10 170 -16 170 -10 0 -18 -27 -18 -60z"/>
<path d="M2620 3942 c0 -43 10 -62 31 -62 20 0 26 9 16 25 -11 19 -8 20 14 4
42 -32 119 -31 119 1 0 67 -22 88 -74 68 -35 -13 -59 -12 -78 4 -23 19 -28 11
-28 -40z"/>
<path d="M2816 3940 c5 -33 17 -60 26 -60 10 0 18 27 18 60 0 37 -10 60 -27
60 -18 0 -23 -19 -17 -60z"/>
<path d="M2900 3940 c0 -42 9 -60 25 -55 14 5 25 29 25 55 0 26 -11 50 -25 55
-16 5 -25 -13 -25 -55z"/>
<path d="M2993 3987 c-26 -27 -13 -107 17 -107 20 0 30 20 30 60 0 57 -18 75
-47 47z"/>
<path d="M3068 3972 c-17 -43 6 -97 37 -87 14 5 25 29 25 55 0 55 -45 78 -62
32z"/>
<path d="M3185 3987 c-14 -6 -25 -31 -25 -55 0 -50 153 -68 185 -23 17 24 59
-27 43 -53 -6 -9 10 -16 36 -15 42 0 43 2 11 27 -19 14 -35 52 -35 83 0 42 -6
51 -22 35 -13 -13 -35 -18 -50 -12 -16 6 -28 -2 -29 -17 0 -18 -7 -15 -21 8
-20 35 -46 41 -93 22z"/>
<path d="M3480 3942 c0 -37 10 -62 26 -62 32 0 30 105 -3 116 -14 4 -23 -16
-23 -54z"/>
<path d="M3613 3986 c-31 -31 -12 -106 27 -106 26 0 40 13 40 38 0 41 -46 89
-67 68z"/>
<path d="M4260 3850 c0 -56 8 -88 20 -80 11 7 20 43 20 80 0 37 -9 73 -20 80
-12 8 -20 -24 -20 -80z"/>
<path d="M1880 3740 c-20 -13 -22 -19 -5 -20 14 0 25 -14 25 -31 0 -19 9 -26
23 -17 17 10 19 3 9 -24 -11 -30 -9 -33 11 -13 36 35 40 90 6 77 -15 -5 -33
-2 -38 7 -6 10 0 22 14 28 14 5 16 10 5 11 -11 1 -33 -7 -50 -18z"/>
<path d="M4353 3710 c8 -21 -3 -26 -41 -19 -47 9 -52 4 -52 -52 0 -49 7 -60
35 -51 19 5 59 16 89 23 48 11 51 18 32 60 -23 51 -82 87 -63 39z"/>
<path d="M1660 3674 c0 -17 -11 -35 -25 -40 -20 -7 -20 -14 0 -35 15 -17 25
-18 25 -5 0 12 15 27 32 34 23 9 29 4 21 -16 -6 -16 0 -34 13 -39 17 -7 15
-16 -6 -31 -26 -18 -25 -21 5 -22 28 0 35 17 35 80 0 44 -8 80 -18 80 -10 0
-33 5 -50 12 -21 8 -32 1 -32 -18z"/>
<path d="M2236 3650 c36 -62 77 -110 94 -110 9 0 1 17 -18 38 -36 40 -13 77
31 50 15 -9 18 -5 8 10 -8 14 -29 19 -46 13 -16 -6 -44 0 -61 14 -27 22 -28
20 -8 -15z"/>
<path d="M4058 3680 c-16 -52 -9 -101 14 -92 15 6 32 2 39 -9 6 -10 2 -19 -10
-19 -37 0 -22 -37 21 -50 60 -20 71 4 24 55 -22 25 -50 63 -63 85 -12 22 -23
36 -25 30z"/>
<path d="M3520 3610 c-15 -18 -17 -30 -4 -30 11 0 25 11 30 25 6 15 18 4 30
-25 17 -42 22 -45 34 -16 28 69 -42 104 -90 46z"/>
<path d="M1255 3565 c-31 -15 -75 -31 -99 -36 -24 -4 -50 -18 -57 -31 -9 -15
-80 -24 -187 -25 -143 -2 -172 -8 -167 -33 3 -16 26 -29 51 -28 52 1 61 -31 9
-34 -19 -2 -42 -2 -50 0 -8 1 -15 -9 -15 -23 -1 -17 -7 -15 -22 5 -14 20 -19
21 -14 4 4 -15 14 -26 22 -25 7 0 46 1 85 1 56 0 70 7 65 35 -5 29 8 35 74 33
137 -4 153 -7 140 -28 -7 -11 8 -20 34 -20 34 1 39 5 18 18 -21 14 -18 21 16
31 23 8 38 22 32 31 -6 10 7 28 30 40 23 12 36 31 29 41 -19 31 38 13 66 -21
23 -27 25 -27 20 0 -4 23 12 29 71 24 74 -6 75 -5 41 35 -26 29 -39 34 -50 16
-12 -18 -25 -19 -51 -4 -26 15 -51 14 -91 -6z"/>
<path d="M2840 3574 c0 -9 11 -14 25 -13 88 12 104 1 60 -41 -49 -45 -85 -52
-86 -15 0 14 -9 9 -21 -10 -11 -19 -38 -35 -59 -35 -55 0 -49 -39 6 -42 36 -2
38 -5 9 -12 -22 -6 -32 -21 -26 -38 6 -15 3 -28 -7 -28 -43 0 -70 -216 -31
-245 48 -35 70 -13 70 70 0 104 56 202 142 246 152 79 318 -52 318 -250 0 -61
8 -81 32 -81 19 0 28 -11 22 -27 -6 -15 -1 -39 10 -55 15 -22 17 -20 8 8 -7
22 1 40 22 48 27 11 26 15 -11 29 -24 9 -43 30 -43 48 0 20 9 26 25 16 17 -10
16 -3 -3 20 -24 30 -23 33 10 22 37 -12 37 -11 2 18 -36 28 -36 30 0 51 20 11
25 21 11 21 -14 1 -25 20 -25 42 0 23 9 36 20 29 11 -7 20 -5 20 5 0 9 -34 37
-75 61 -41 24 -65 43 -52 44 12 0 28 14 35 31 9 23 -1 29 -43 25 -33 -4 -53 3
-51 17 3 14 -11 19 -35 13 -27 -7 -39 -1 -39 22 0 27 -6 29 -41 7 -30 -19 -44
-19 -55 -2 -16 25 -144 27 -144 1z"/>
<path d="M1571 3538 c5 -8 -17 -21 -49 -28 -32 -7 -64 -27 -71 -45 -14 -36 26
-69 66 -55 14 6 44 10 65 10 21 0 38 14 38 30 0 17 -11 30 -24 30 -36 0 7 35
54 44 29 6 22 11 -24 19 -35 5 -60 3 -55 -5z"/>
<path d="M1880 3521 c-46 -36 -47 -40 -13 -53 38 -14 72 18 73 67 0 32 0 32
-60 -14z"/>
<path d="M4709 3538 c-7 -12 -30 -17 -51 -12 -24 7 -38 0 -38 -18 0 -39 78
-35 94 5 11 29 15 29 39 -4 15 -20 32 -30 39 -23 12 11 -38 74 -59 74 -6 0
-17 -10 -24 -22z"/>
<path d="M4401 3486 c-47 -16 -97 -24 -113 -18 -20 8 -28 -6 -28 -49 l0 -59
131 0 c83 0 127 7 119 20 -7 11 -30 20 -52 20 -22 0 -35 9 -28 20 8 13 27 12
55 -3 32 -17 45 -17 51 0 4 13 40 24 81 26 l73 3 -65 8 c-36 5 -65 16 -65 25
0 32 -75 35 -159 7z"/>
<path d="M1706 3464 c-13 -8 -33 -37 -44 -65 -17 -42 -20 -44 -21 -9 -2 39 -3
39 -31 2 -22 -30 -35 -33 -57 -15 -21 18 -34 16 -55 -10 -25 -30 -24 -33 7
-21 19 7 35 4 35 -8 0 -12 26 -15 65 -8 126 24 145 27 164 28 10 1 9 12 -4 25
-18 18 -31 17 -54 -2 -26 -22 -31 -20 -31 7 0 17 7 31 15 30 41 -7 65 5 65 32
0 33 -17 37 -54 14z"/>
<path d="M2435 3464 c-19 -4 -35 -16 -35 -27 0 -10 9 -14 20 -7 11 7 31 6 44
-2 16 -10 11 -20 -15 -30 -36 -14 -35 -15 6 -17 25 0 45 9 45 21 0 13 17 18
39 13 25 -7 35 -2 28 15 -11 28 -77 46 -132 34z"/>
<path d="M4012 3449 c-6 -16 -2 -29 9 -29 13 0 13 -14 -1 -39 -27 -52 36 -92
76 -49 21 24 21 31 -6 41 -19 7 -27 25 -20 47 14 43 -42 70 -58 29z"/>
<path d="M2360 3445 c0 -14 -15 -25 -32 -25 -24 0 -27 -7 -12 -25 25 -31 -1
-193 -35 -214 -21 -14 -17 -95 12 -188 10 -35 34 -30 40 9 6 48 13 42 27 -22
14 -68 15 -67 17 26 2 68 -6 99 -27 107 -36 14 -40 47 -5 47 14 0 37 18 50 40
31 49 99 52 148 7 26 -23 37 -26 37 -8 0 15 15 22 37 16 20 -5 36 1 36 13 0
13 -16 23 -36 23 -20 0 -37 -7 -37 -16 0 -10 -10 -11 -21 -4 -12 7 -18 24 -12
37 6 17 -21 24 -88 24 -53 0 -92 -8 -86 -16 5 -9 0 -16 -12 -16 -24 0 -26 29
-8 95 6 24 20 40 29 34 24 -15 22 13 -2 51 -13 20 -19 22 -20 5z"/>
<path d="M3485 3395 c0 -55 12 -63 82 -56 20 2 53 -11 74 -30 20 -18 48 -28
63 -23 17 7 14 11 -9 12 -19 1 -35 12 -35 23 0 12 9 16 20 9 11 -7 20 1 20 16
0 37 -160 44 -161 8 0 -13 -13 3 -27 36 l-26 60 -1 -55z"/>
<path d="M1300 3385 c0 -14 -23 -25 -51 -25 -28 0 -46 -8 -40 -19 6 -10 -40
-24 -104 -31 -163 -18 -174 -27 -35 -28 66 -1 150 -4 186 -8 37 -3 71 0 76 9
5 8 36 12 69 7 32 -4 59 1 59 11 0 11 -34 20 -75 22 -72 2 -73 3 -15 15 61 12
91 55 39 55 -16 0 -29 -9 -29 -21 0 -12 -9 -8 -20 8 -17 27 -19 27 -20 0 -1
-27 -3 -27 -20 0 -13 20 -19 22 -20 5z"/>
<path d="M1936 3339 c-27 -30 -29 -41 -9 -53 34 -21 58 -86 31 -86 -11 0 -7
-13 9 -30 17 -16 42 -30 57 -30 17 1 19 6 5 15 -31 21 -52 85 -28 85 10 0 19
32 19 70 0 78 -30 89 -84 29z"/>
<path d="M5340 3360 c0 -11 9 -21 20 -22 68 -9 88 -5 95 17 5 14 -5 25 -22 25
-16 0 -34 -11 -40 -25 -8 -20 -10 -20 -11 0 -2 29 -42 34 -42 5z"/>
<path d="M2911 3278 c-39 -47 -52 -84 -51 -145 1 -46 -3 -114 -10 -153 -6 -38
-16 -108 -22 -155 l-10 -85 -90 7 c-49 4 -94 0 -100 -10 -6 -9 34 -17 89 -17
111 0 117 -10 127 -195 2 -47 11 -85 21 -85 9 0 11 -32 4 -70 -12 -62 -8 -70
28 -70 71 0 66 -35 -7 -49 -93 -17 -88 -38 15 -65 93 -25 218 -13 172 16 -19
12 -8 18 33 20 l60 3 -60 14 c-33 8 -69 7 -79 -3 -32 -27 -48 -18 -37 22 8 31
20 35 78 22 85 -20 82 -25 99 191 18 233 28 249 141 249 50 0 86 7 80 16 -5 9
-51 15 -100 13 -50 -1 -86 5 -80 15 6 10 3 29 -8 42 -11 13 -26 116 -34 228
-20 293 -130 396 -259 244z m120 -73 c-6 -22 12 -62 48 -104 68 -80 56 -98
-69 -98 -66 0 -171 31 -130 38 6 1 26 5 45 9 19 3 31 -1 25 -9 -5 -9 26 -17
70 -17 44 -1 80 7 80 18 0 11 -10 14 -23 6 -15 -9 -18 -5 -8 10 10 17 0 20
-37 11 -40 -10 -52 -6 -52 19 0 18 16 32 35 32 21 0 26 6 14 15 -12 8 -23 51
-24 94 -1 61 3 71 18 45 11 -19 14 -50 8 -69z m-52 -296 c-12 -15 -17 -37 -10
-48 8 -12 -1 -21 -18 -21 -17 0 -31 -10 -31 -21 0 -12 -9 -16 -19 -9 -11 6 -2
29 19 50 22 22 34 53 27 70 -8 22 -2 27 21 18 25 -10 28 -19 11 -39z m111
-169 c8 -12 -25 -20 -84 -20 -69 1 -88 6 -66 20 39 25 134 25 150 0z m-10
-164 c0 -77 -2 -81 -28 -45 -17 23 -21 44 -9 51 10 6 18 20 16 30 -5 27 0 48
11 48 6 0 10 -38 10 -84z m-40 -80 c0 -9 18 -16 40 -16 42 0 48 -20 27 -96 -8
-31 -22 -42 -43 -34 -17 6 -38 0 -47 -14 -13 -20 -16 -20 -17 -1 0 14 -22 25
-50 25 -37 0 -50 11 -50 40 0 30 13 40 51 40 28 0 46 8 40 18 -6 10 -31 14
-56 9 -40 -9 -42 -7 -12 17 35 30 117 38 117 12z"/>
<path d="M624 3289 c15 -15 297 -15 311 0 7 6 -63 11 -155 11 -92 0 -162 -5
-156 -11z"/>
<path d="M3533 3287 c-27 -28 -12 -48 23 -29 37 19 87 2 88 -30 2 -35 26 -78
47 -82 13 -2 18 19 14 50 -10 70 -130 132 -172 91z"/>
<path d="M2130 3260 c-7 -11 -2 -20 10 -20 12 0 16 -10 8 -23 -9 -14 -5 -18 9
-9 14 9 23 2 23 -17 0 -17 -14 -31 -31 -31 -17 0 -26 -9 -19 -20 24 -39 70
-20 70 28 0 92 -39 142 -70 92z"/>
<path d="M4013 3200 c-35 -71 3 -85 82 -29 41 29 45 28 57 -22 9 -38 18 -45
30 -27 8 15 7 37 -3 49 -10 13 -15 27 -9 32 5 5 -16 9 -46 9 -30 1 -62 -9 -71
-21 -10 -12 -12 -2 -7 24 14 61 3 56 -33 -15z"/>
<path d="M1700 3176 c1 -80 32 -142 48 -95 27 77 21 148 -13 155 -28 5 -35 -7
-35 -60z"/>
<path d="M4254 3227 c-8 -7 -4 -25 9 -40 17 -21 15 -27 -9 -27 -23 0 -29 -17
-24 -65 3 -36 2 -54 -3 -40 -6 14 -28 25 -49 25 -22 0 -38 14 -38 32 0 21 -11
28 -32 20 -17 -7 -35 -12 -40 -12 -4 0 -8 -10 -8 -22 0 -15 12 -13 34 5 25 20
30 21 18 1 -10 -16 1 -41 29 -65 25 -21 35 -39 22 -39 -13 0 -51 25 -85 55
-34 30 -70 56 -80 58 -10 1 -26 3 -37 5 -10 1 -22 27 -27 57 -4 30 -9 -51 -11
-180 -2 -172 -10 -235 -28 -237 -14 -1 -68 0 -120 2 -137 4 -118 -37 20 -44
l115 -6 6 -150 c3 -82 15 -159 25 -169 12 -12 19 -10 19 5 0 16 36 24 101 24
63 0 97 -8 89 -20 -7 -11 7 -20 30 -20 27 0 37 8 28 23 -10 16 -4 20 19 11 32
-12 44 29 35 127 -2 18 5 54 16 80 l19 49 4 -55 c7 -93 12 -124 27 -159 9 -18
11 -50 6 -70 -6 -23 -10 -17 -12 19 -4 105 -42 54 -42 -57 0 -86 -6 -110 -27
-102 -65 25 -263 38 -242 16 12 -12 59 -23 105 -25 196 -8 43 -23 -188 -19
-176 3 -248 -2 -239 -17 7 -11 62 -21 121 -21 159 0 156 -37 -4 -46 -75 -4
-41 -6 74 -4 116 3 233 10 260 17 28 8 38 8 24 1 -19 -8 -10 -21 27 -40 66
-35 109 -36 109 -3 1 17 7 15 21 -5 18 -25 20 -23 15 10 -5 32 -20 39 -76 36
l-70 -4 65 19 c58 18 92 59 48 59 -39 0 5 104 51 121 27 11 43 28 35 41 -21
34 -31 522 -10 509 10 -7 23 -3 30 7 6 10 -1 22 -15 28 -39 15 -31 155 11 182
58 36 105 -9 108 -105 2 -69 -4 -83 -35 -83 -31 0 -38 -15 -38 -80 0 -67 7
-80 40 -80 33 0 40 13 40 71 0 43 8 66 20 59 41 -25 55 11 35 90 -29 118 70
204 122 105 28 -53 5 -165 -34 -165 -29 0 -32 -23 -25 -175 6 -140 11 -161 23
-106 9 38 12 111 7 162 -6 71 -2 92 21 92 22 0 29 -34 29 -161 0 -101 -6 -151
-17 -133 -11 17 -13 -21 -7 -95 8 -84 4 -133 -14 -154 -21 -25 -17 -30 28 -30
28 0 52 11 53 25 0 14 1 184 1 379 1 377 15 433 95 383 32 -20 56 -188 26
-184 -68 9 -73 -3 -66 -165 7 -191 30 -195 32 -4 2 240 42 163 46 -92 4 -213
1 -240 -30 -248 -30 -8 -29 -10 5 -12 33 -2 35 -6 10 -22 -27 -17 -27 -19 0
-20 27 -1 27 -3 0 -20 -24 -16 -21 -19 16 -20 52 0 118 52 82 64 -64 21 -41
596 23 596 22 0 39 13 39 29 0 47 -44 60 -73 20 -32 -43 -37 -4 -6 52 46 86
150 14 128 -88 -21 -98 -20 -103 4 -99 12 3 27 -13 33 -35 6 -21 2 -39 -8 -39
-27 0 -22 -55 7 -67 18 -7 18 -10 1 -11 -16 -1 -20 -26 -12 -75 9 -55 6 -69
-12 -58 -18 11 -23 -12 -20 -92 2 -59 1 -120 -4 -137 -5 -19 6 -30 32 -30 30
0 39 12 35 45 -3 29 6 45 25 45 39 0 39 58 0 73 -45 17 -36 71 20 124 34 32
50 69 50 115 0 93 -40 86 -41 -7 -1 -58 -5 -66 -18 -35 -8 22 -8 61 2 86 25
69 21 104 -13 104 -45 0 -36 62 10 74 44 12 48 23 22 64 -10 15 -28 21 -40 13
-34 -21 -26 21 9 50 59 49 115 -36 92 -139 -19 -84 -19 -86 29 -77 47 9 48 7
49 -143 0 -114 5 -143 21 -117 11 20 19 60 16 90 -9 125 1 165 42 165 22 0 40
-13 40 -30 0 -16 -9 -30 -20 -30 -11 0 -20 -32 -20 -71 0 -39 8 -66 18 -60 21
13 17 -249 -4 -283 -14 -23 39 -53 65 -37 8 5 13 30 11 55 -2 25 6 53 18 61
15 10 14 14 -3 15 -30 0 -34 72 -5 90 32 20 24 144 -10 157 -19 8 -29 35 -27
77 l3 66 8 -65 c5 -36 17 -65 27 -65 29 0 23 135 -6 146 -20 7 -20 18 1 53 20
33 21 51 3 72 -12 15 -17 37 -10 48 17 27 85 27 102 0 22 -36 10 -666 -14
-681 -14 -9 -12 -17 6 -24 15 -6 0 -13 -33 -15 -33 -3 21 -12 120 -20 175 -16
221 -11 178 17 -11 8 -23 97 -26 199 l-5 185 61 0 62 0 0 -181 c0 -138 -7
-183 -29 -191 -42 -17 -15 -65 30 -53 44 11 62 545 19 545 -11 0 -20 -22 -20
-50 0 -42 -9 -50 -60 -50 l-59 0 1 149 c1 102 11 157 30 173 40 33 89 -12 86
-79 l-2 -53 -16 50 c-15 47 -16 47 -18 6 -1 -24 7 -49 17 -55 11 -7 14 -25 8
-42 -7 -18 1 -29 21 -29 26 0 32 25 32 140 0 157 -24 179 -170 151 -40 -7 -70
-5 -70 6 0 11 -18 15 -40 9 -22 -6 -35 -18 -29 -27 5 -9 -1 -23 -14 -31 -14
-9 -18 -6 -9 9 13 20 0 27 -41 21 -7 -1 -20 10 -29 25 -13 21 -29 22 -80 2
-35 -13 -71 -20 -79 -14 -26 16 -368 18 -394 2 -16 -10 -25 -4 -25 16 0 17 -9
31 -20 31 -11 0 -20 -7 -20 -16 0 -21 -239 -6 -284 18 -24 13 -36 12 -36 -1 0
-13 -17 -14 -47 -2 -26 10 -59 10 -74 0 -16 -10 -33 -9 -40 3 -8 13 -31 12
-65 -4 -29 -13 -47 -33 -41 -43 7 -11 0 -27 -14 -36 -14 -9 -28 -52 -30 -95
-7 -145 -89 -186 -89 -45 0 63 6 77 30 68 24 -9 30 7 30 81 0 87 -27 119 -66
79z m1175 -146 c65 -72 -14 -217 -92 -169 -26 16 -20 157 7 184 32 32 44 30
85 -15z m349 -9 c13 -16 19 -62 13 -110 -6 -48 -2 -82 9 -82 42 0 20 -101 -25
-119 -35 -14 -37 -19 -10 -20 46 -1 42 -312 -4 -340 -21 -13 -18 -19 11 -27
23 -6 12 -10 -27 -12 l-65 -2 0 166 c0 91 9 175 21 187 14 14 14 38 0 76 -20
51 -24 262 -6 296 12 24 58 17 83 -13z m-1569 -136 c37 -43 57 -147 35 -184
-5 -10 -11 -60 -12 -110 -1 -60 -10 -90 -26 -87 -13 2 -74 6 -135 9 -83 3
-112 12 -114 35 -23 223 -13 311 33 294 16 -6 34 -2 42 9 7 12 35 15 64 8 43
-11 47 -8 26 17 -20 25 -17 28 22 20 37 -8 40 -6 16 11 -16 12 -21 22 -9 22
11 0 37 -20 58 -44z"/>
<path d="M1350 3200 c-7 -11 -47 -15 -90 -10 -68 9 -77 6 -68 -25 10 -31 8
-31 -15 -5 -38 43 -78 47 -63 6 9 -22 5 -28 -11 -18 -14 9 -23 2 -23 -18 0
-18 -10 -26 -21 -19 -12 7 -17 26 -11 41 9 22 1 21 -38 -4 -26 -17 -57 -26
-68 -19 -11 7 -32 -8 -46 -33 -14 -25 -39 -46 -56 -46 -17 0 -30 -18 -30 -40
0 -42 99 -61 101 -20 6 132 171 163 168 32 0 -27 -5 -26 -29 6 -34 44 -96 28
-86 -23 5 -25 25 -34 71 -33 36 2 65 -5 65 -15 0 -9 -10 -17 -22 -17 -13 0
-16 -22 -8 -60 8 -38 5 -60 -8 -60 -12 0 -22 18 -22 40 0 22 -13 40 -30 40
-17 0 -30 -18 -30 -40 0 -31 -13 -40 -59 -40 -45 0 -57 7 -48 30 6 17 23 30
38 30 15 0 25 17 24 37 -4 52 -134 -9 -135 -62 0 -24 -17 -36 -55 -37 -30 -2
-88 -4 -129 -6 -68 -3 -74 0 -63 42 6 25 13 83 14 129 4 98 50 141 103 97 25
-21 30 -45 20 -99 -17 -87 -22 -93 -57 -63 -22 18 -31 16 -40 -7 -7 -19 -1
-31 16 -31 16 0 32 -16 37 -35 9 -33 9 -33 12 0 1 25 19 35 64 35 47 0 58 6
45 25 -61 83 -1 235 76 194 49 -27 47 -8 -4 47 -49 52 -80 56 -115 15 -20 -24
-29 -25 -37 -6 -16 38 -53 30 -39 -8 10 -26 7 -28 -14 -10 -15 12 -34 16 -43
8 -8 -8 -11 -3 -8 12 5 19 -18 28 -78 30 -47 2 -85 -4 -85 -12 0 -23 -76 -18
-90 5 -7 12 -21 16 -31 10 -9 -6 -61 -12 -113 -13 -171 -3 -186 -17 -186 -167
0 -106 6 -130 32 -130 20 0 28 11 21 29 -6 17 -3 35 8 42 10 6 18 27 18 45 -2
28 -5 27 -19 -6 -15 -36 -17 -35 -19 13 -1 69 47 112 89 77 47 -39 42 -273 -5
-274 -19 0 -43 10 -52 22 -9 13 -12 1 -5 -28 6 -27 12 -66 12 -85 0 -22 15
-35 40 -35 57 0 62 -279 5 -281 -30 -2 -29 -4 5 -19 22 -9 29 -18 16 -19 -29
-1 -11 -61 17 -61 11 0 14 9 7 20 -7 11 1 20 17 20 16 0 34 -11 40 -25 8 -20
10 -20 11 0 2 30 96 34 106 4 5 -15 23 -15 63 0 35 13 68 14 90 3 19 -11 64
-12 104 -2 59 14 62 16 17 18 -51 2 -53 6 -56 137 -1 74 -8 151 -14 170 -7 23
0 35 19 35 21 0 33 -25 38 -75 l8 -75 4 82 c3 70 63 131 63 63 0 -9 9 -12 20
-5 11 7 21 1 21 -14 1 -14 11 -6 23 19 27 56 56 58 56 5 0 -22 13 -40 30 -40
17 0 30 9 30 20 0 11 14 20 30 20 17 0 31 19 32 45 2 39 4 40 12 6 17 -66 62
-99 97 -70 46 38 51 17 33 -148 -18 -165 -9 -201 43 -182 33 13 46 49 18 49
-8 0 -17 68 -19 151 -3 131 1 151 30 148 107 -11 124 -1 124 71 0 68 -2 70
-80 70 -56 0 -80 9 -80 29 0 45 35 55 58 16 19 -30 24 -31 41 -5 29 43 26 61
-9 47 -18 -7 -30 0 -30 19 0 16 -13 35 -30 41 -42 16 -37 67 11 118 64 69 110
26 107 -102 -1 -68 7 -104 25 -111 15 -6 27 0 27 14 1 13 17 3 38 -24 l36 -47
14 55 c8 30 9 60 3 66 -6 6 -11 0 -11 -14 0 -13 -9 -19 -20 -12 -12 7 -16 20
-10 30 6 9 -1 20 -15 25 -36 12 -31 79 11 124 48 54 104 19 104 -65 0 -40 7
-55 21 -43 12 9 41 12 65 6 35 -9 44 -3 44 29 0 49 -57 75 -73 33 -8 -22 -21
-12 -44 36 -22 42 -45 63 -68 59 -23 -4 -34 7 -33 30 0 21 5 25 11 11 8 -18
21 -19 50 -3 29 15 47 14 68 -3 23 -19 29 -17 29 9 0 36 -148 48 -170 12z
m-1028 -199 c15 -116 1 -177 -44 -192 -23 -7 -33 -21 -24 -35 8 -13 17 -37 19
-54 3 -16 14 -32 26 -36 12 -4 21 -72 21 -166 l0 -158 -65 2 c-36 0 -56 5 -45
10 24 10 14 230 -12 257 -26 27 -22 86 7 99 20 10 20 14 0 24 -31 14 -33 128
-2 128 15 0 18 26 10 79 -10 58 -5 86 19 110 49 49 77 27 90 -68z m174 75 c13
-13 23 -42 23 -65 -2 -41 -2 -41 -21 -1 -15 33 -17 29 -10 -20 12 -85 -8 -170
-40 -170 -34 0 -36 -24 -4 -56 19 -19 19 -24 0 -24 -13 0 -24 -13 -24 -30 0
-16 14 -30 30 -30 17 0 30 -16 30 -35 1 -30 3 -31 20 -5 14 21 17 12 8 -33 -7
-35 -13 -102 -15 -150 -3 -78 -8 -88 -56 -93 l-53 -6 -3 269 -2 270 45 -12
c27 -6 39 -3 29 7 -9 10 -26 18 -38 18 -12 0 -26 30 -30 66 -11 101 53 158
111 100z"/>
<path d="M3495 3198 c-26 -15 -32 -57 -33 -221 -1 -112 -11 -214 -23 -228 -15
-18 -15 -29 0 -38 12 -8 21 -89 21 -191 0 -98 9 -183 20 -190 41 -26 18 -50
-49 -50 -102 0 -105 -35 -3 -43 49 -4 84 0 79 8 -5 8 6 15 25 15 19 0 29 6 21
13 -7 8 1 30 19 49 18 20 32 70 32 112 0 42 8 87 19 99 27 33 24 377 -4 429
-13 24 -18 70 -11 102 19 98 -43 173 -113 134z"/>
<path d="M2073 3177 c-9 -19 -18 -48 -21 -65 -6 -43 -32 -65 -32 -28 0 20 -23
35 -60 40 -43 7 -54 3 -40 -14 11 -13 15 -29 8 -35 -6 -6 8 -17 30 -25 23 -7
42 -20 42 -29 0 -10 -22 -7 -50 6 -27 13 -50 30 -50 38 0 8 -18 15 -40 15 -49
0 -54 -59 -5 -61 30 -2 29 -4 -5 -18 -29 -11 -44 -6 -54 17 -7 17 -15 23 -18
12 -2 -11 -6 -29 -9 -40 -2 -11 -5 -32 -7 -46 -1 -17 -16 -22 -42 -14 -47 15
-120 -4 -120 -31 0 -11 23 -19 50 -19 42 0 50 -9 48 -55 -2 -34 -6 -42 -12
-20 -5 20 -18 30 -29 23 -44 -27 -114 10 -102 55 7 28 4 39 -10 30 -12 -8 -28
-5 -35 7 -19 31 -70 24 -70 -9 0 -18 12 -25 30 -18 21 8 30 -2 30 -31 0 -31
-12 -42 -50 -42 -27 0 -50 -10 -50 -23 0 -14 -16 -9 -38 11 -46 42 -60 24 -52
-68 3 -38 7 -99 8 -135 2 -61 33 -95 37 -40 7 112 45 238 45 148 0 -18 14 -33
32 -33 20 0 28 11 21 29 -6 15 2 38 17 51 23 19 29 6 34 -72 4 -59 17 -98 34
-104 15 -5 22 -1 16 9 -18 30 18 73 67 81 41 6 43 1 31 -76 -11 -71 -9 -81 19
-70 18 6 36 12 41 12 4 0 9 25 10 55 l3 55 15 -60 c19 -76 24 -40 22 163 -2
179 28 240 86 181 17 -16 26 -33 22 -37 -4 -5 9 -8 29 -8 21 0 34 7 28 15 -5
9 6 16 25 16 30 0 28 7 -12 50 -26 28 -40 50 -31 50 17 0 92 -90 95 -114 1 -9
15 -25 31 -37 48 -35 52 -269 4 -269 -9 0 -20 16 -25 35 -9 33 -9 33 -12 0 -3
-52 -62 -43 -64 10 -1 35 -6 30 -20 -20 -11 -36 -32 -65 -49 -65 -16 0 -29 -9
-29 -20 0 -11 -7 -19 -15 -18 -49 8 -67 -8 -25 -22 48 -15 48 -16 5 -18 -34
-2 -45 -14 -45 -53 0 -30 9 -46 20 -39 12 7 15 21 9 31 -6 11 2 19 19 19 19 0
26 -11 19 -30 -8 -21 2 -30 33 -30 38 0 41 5 20 30 -21 25 -17 30 27 30 40 0
49 -8 39 -33 -10 -27 -3 -31 41 -23 30 6 59 3 65 -7 30 -49 47 1 52 158 l6
175 135 6 c125 5 135 3 135 -35 0 -23 9 -41 20 -41 12 0 20 -67 20 -160 l0
-160 70 0 c39 0 71 7 71 15 3 37 19 378 19 405 -1 153 -13 259 -30 255 -11 -3
-18 -10 -16 -16 2 -6 -12 -10 -31 -10 -20 0 -36 16 -38 35 -2 25 12 36 44 36
55 0 87 86 49 132 -75 91 -133 15 -136 -181 -1 -87 -11 -165 -23 -171 -11 -7
-15 -27 -9 -44 12 -30 0 -31 -274 -17 -8 1 -17 102 -20 226 -4 136 -13 212
-23 192z m-376 -512 c-2 -67 -5 -77 -12 -35 -4 33 -16 69 -27 79 -27 28 -22
51 12 51 23 0 29 -23 27 -95z"/>
<path d="M3870 3180 c7 -11 -2 -20 -19 -20 -23 0 -31 -21 -31 -80 0 -44 -7
-80 -17 -80 -9 0 -16 -14 -16 -31 0 -70 103 -25 105 46 1 36 -5 65 -13 65 -18
0 -13 53 7 73 21 21 17 47 -7 47 -12 0 -16 -9 -9 -20z"/>
<path d="M2120 3069 c1 -45 5 -52 20 -29 13 20 19 22 20 5 0 -35 53 -31 67 5
8 20 0 30 -24 30 -19 0 -46 11 -59 24 -19 19 -24 11 -24 -35z"/>
<path d="M4453 3047 c-24 -25 -13 -67 17 -67 17 0 30 18 30 40 0 40 -21 52
-47 27z"/>
<path d="M4970 2805 c3 -52 7 -118 8 -147 3 -81 62 -67 62 15 0 37 -9 67 -21
67 -12 0 -10 12 5 28 22 23 28 18 38 -35 l13 -63 2 75 c2 41 -6 75 -17 75 -11
0 -20 18 -20 40 0 26 -13 40 -38 40 -34 0 -38 -13 -32 -95z"/>
<path d="M4538 2800 c-5 -33 -23 -52 -53 -56 -53 -8 -64 -103 -16 -150 16 -16
24 -35 17 -42 -7 -6 -4 -12 6 -12 27 0 31 -89 8 -149 -13 -36 -34 -51 -70 -51
-27 0 -50 -9 -50 -19 0 -11 55 -18 125 -16 120 4 124 6 90 40 -29 29 -33 56
-24 145 10 89 6 112 -20 122 -18 7 -30 34 -29 65 l2 53 14 -50 c21 -70 40 45
21 120 l-13 50 -8 -50z"/>
<path d="M18 2810 c-29 -47 -19 -463 11 -463 16 0 34 12 40 26 5 15 -1 27 -15
27 -15 0 -13 8 6 20 19 12 21 20 6 20 -17 0 -26 59 -30 195 -3 107 -12 186
-18 175z"/>
<path d="M5276 2736 c30 -30 32 -116 2 -116 -14 0 -18 -36 -12 -100 5 -55 2
-105 -7 -111 -10 -6 -12 -23 -6 -40 6 -17 0 -29 -16 -29 -23 -1 -23 -3 0 -18
20 -12 13 -20 -27 -30 -30 -8 -64 -6 -77 4 -13 10 -48 25 -79 32 -66 16 -112
-4 -71 -30 22 -15 22 -21 -3 -38 -21 -13 20 -19 135 -20 103 0 165 8 165 21 0
12 10 15 22 8 12 -7 89 -7 172 1 198 18 165 56 -42 47 -146 -7 -197 7 -112 29
41 10 57 54 20 54 -12 0 -20 73 -20 180 0 156 -5 180 -34 180 -26 0 -29 -5
-10 -24z"/>
<path d="M682 2515 c-2 -133 -3 -135 -57 -137 -42 -2 -45 -5 -15 -12 22 -6 48
-18 58 -27 28 -26 89 16 82 56 -4 19 -8 78 -8 131 -1 53 -10 91 -20 85 -10 -6
-23 0 -29 14 -5 14 -11 -36 -11 -110z"/>
<path d="M880 2582 c0 -54 -21 -102 -43 -102 -11 0 -14 9 -7 20 7 11 3 20 -9
20 -38 0 -22 -64 20 -74 28 -8 37 -22 29 -47 -7 -20 -1 -42 12 -50 16 -10 19
-7 9 10 -12 19 -4 22 31 13 27 -6 37 -6 23 0 -16 7 -25 54 -25 130 0 65 -9
118 -20 118 -11 0 -20 -17 -20 -38z"/>
<path d="M1260 2519 c0 -56 -9 -118 -20 -139 -26 -48 22 -65 120 -41 39 9 54
18 34 19 -65 4 -94 54 -94 161 0 55 -9 101 -20 101 -11 0 -20 -46 -20 -101z"/>
<path d="M1450 2481 c1 -50 8 -102 16 -115 8 -12 3 -26 -11 -31 -16 -5 -10
-16 16 -30 26 -14 52 -15 70 -4 23 14 20 18 -14 19 -50 0 -52 46 -4 85 43 34
62 95 30 95 -14 0 -34 -9 -46 -21 -14 -14 -18 -2 -12 37 6 40 0 57 -19 57 -20
0 -27 -26 -26 -92z"/>
<path d="M2153 2515 c5 -8 27 -15 48 -15 22 0 39 -10 39 -21 0 -12 9 -16 20
-9 11 7 20 3 20 -8 0 -11 -38 -23 -85 -27 l-85 -8 90 -4 c66 -3 82 -9 60 -23
-24 -16 -21 -19 16 -20 26 0 41 -8 35 -18 -6 -10 7 -14 29 -8 49 13 52 40 5
52 -33 9 -33 9 0 12 43 3 47 62 5 62 -16 0 -30 8 -30 18 0 10 -40 21 -88 25
-49 4 -84 0 -79 -8z"/>
<path d="M3800 2520 c0 -11 -25 -21 -55 -23 -47 -2 -49 -4 -10 -11 61 -12 57
-46 -5 -46 -27 0 -50 -8 -50 -19 0 -29 36 -44 44 -18 5 14 42 23 87 21 74 -3
79 0 83 56 4 52 -3 60 -45 60 -27 0 -49 -9 -49 -20z"/>
<path d="M1715 2400 c-18 -76 -10 -160 15 -160 13 0 19 29 15 75 -12 121 -18
138 -30 85z"/>
<path d="M2724 2330 c-21 -46 -116 -69 -212 -51 -10 1 -43 -6 -74 -17 -35 -12
-62 -12 -69 -1 -6 10 -67 15 -135 10 -68 -4 -200 -10 -294 -12 -125 -3 -154
-8 -110 -19 43 -11 16 -16 -96 -15 -86 0 -161 -6 -168 -13 -7 -6 56 -12 141
-12 84 0 153 -7 153 -17 0 -9 -29 -13 -65 -10 -57 5 -55 3 15 -15 44 -11 107
-15 140 -9 32 7 118 17 190 22 71 6 148 14 170 19 22 4 103 0 180 -10 114 -14
143 -12 156 11 9 16 43 29 75 29 65 0 79 28 24 49 -33 13 -33 15 0 40 19 14
35 36 35 48 0 40 -33 25 -56 -27z"/>
<path d="M1096 2297 c-19 -12 -17 -16 9 -17 19 0 35 -8 35 -17 0 -10 -25 -14
-55 -9 -47 7 -50 5 -20 -14 35 -22 385 3 411 29 19 20 -245 7 -283 -13 -31
-16 -35 -13 -25 19 13 41 -24 52 -72 22z"/>
<path d="M3655 2284 c-31 -4 -50 -15 -44 -26 6 -10 -3 -24 -21 -31 -27 -10
-28 -16 -7 -29 44 -28 72 -21 83 22 8 33 27 40 107 40 53 0 110 9 127 19 28
18 -105 21 -245 5z"/>
<path d="M4660 2278 c0 -10 17 -18 38 -18 21 0 42 -18 48 -40 11 -42 -14 -55
-37 -18 -7 12 -35 16 -61 9 -50 -12 -67 17 -23 38 14 6 -19 7 -73 1 -54 -5
-125 -10 -158 -10 -33 0 -55 -5 -49 -12 7 -6 60 -12 119 -12 83 0 96 -4 60
-18 -25 -9 -77 -14 -114 -9 -38 5 -74 1 -80 -8 -13 -22 270 -49 361 -35 63 10
69 7 69 -37 0 -44 -8 -49 -85 -50 -115 0 -844 -55 -950 -71 -89 -14 -126 25
-45 46 22 6 40 19 40 29 0 32 -63 44 -82 15 -14 -23 -17 -22 -18 4 0 40 -154
59 -448 56 l-202 -3 302 -34 c323 -38 348 -45 348 -97 0 -24 -35 -45 -111 -69
l-110 -35 -81 59 c-79 57 -271 134 -290 116 -5 -5 47 -37 116 -70 70 -33 148
-84 176 -114 l49 -54 -159 16 c-88 9 -274 16 -414 17 -239 0 -255 2 -260 40
-9 63 -76 64 -76 1 0 -43 -9 -51 -60 -51 -128 0 -46 -54 137 -91 37 -7 116
-35 176 -61 59 -26 137 -47 173 -47 59 2 56 4 -33 32 -136 41 -104 53 76 28
85 -11 205 -21 267 -21 137 0 124 -21 -76 -129 -123 -67 -127 -70 -64 -71 78
0 196 57 292 141 77 67 194 68 247 1 23 -29 24 -29 13 2 -10 31 3 34 118 30
71 -2 120 -10 108 -17 -26 -17 107 -44 159 -33 58 12 -101 109 -233 142 -100
26 -111 34 -116 88 l-6 60 266 13 c146 7 347 27 446 44 99 17 232 38 295 46
l115 16 0 -145 0 -145 -115 10 c-63 5 -131 13 -150 16 -19 4 -35 0 -35 -10 0
-9 52 -20 115 -23 130 -7 112 -13 -169 -57 -114 -18 -141 -28 -132 -52 6 -17
17 -22 24 -11 7 10 71 25 144 33 73 7 187 25 255 39 111 23 182 4 83 -22 -22
-6 -40 -18 -40 -28 0 -9 -16 -12 -35 -5 -30 9 -30 7 -5 -11 38 -27 127 -29
110 -2 -7 11 1 15 17 8 17 -6 48 7 71 30 22 22 45 33 51 23 27 -44 134 -45
173 -3 24 25 64 42 100 42 33 0 78 9 99 21 27 14 39 14 39 0 0 -12 -9 -21 -20
-21 -11 0 -20 -22 -20 -50 0 -27 9 -50 20 -50 11 0 20 10 20 23 0 25 218 14
290 -15 33 -13 36 -10 18 13 -25 33 -30 102 -6 88 9 -6 24 6 35 25 49 88 85
-9 81 -222 -3 -160 2 -202 24 -202 21 0 28 36 28 145 0 80 -5 145 -11 145 -19
0 -10 109 11 131 11 12 38 32 60 44 38 21 37 23 -13 35 -47 12 -76 56 -77 117
0 9 45 12 99 7 l100 -9 -3 69 c-3 76 -51 109 -147 101 -49 -4 -71 -35 -24 -35
18 -1 17 -6 -3 -18 -15 -10 -22 -32 -16 -50 7 -18 4 -32 -7 -32 -10 0 -19 17
-19 39 0 21 -16 42 -35 47 -33 9 -33 9 0 12 19 1 35 10 35 20 0 21 -210 9
-337 -20 -47 -11 -155 -14 -240 -7 -141 11 -150 9 -114 -20 36 -29 32 -31 -66
-31 -62 0 -100 -8 -94 -19 7 -11 37 -19 67 -18 192 5 699 -6 737 -16 85 -21
66 -139 -24 -156 -70 -13 -126 -88 -98 -133 6 -10 3 -18 -8 -18 -11 0 -26 27
-33 59 l-13 60 -45 -49 c-55 -60 -142 -49 -125 15 10 39 -320 40 -420 1 -17
-7 -26 0 -23 17 4 17 -16 29 -52 34 -46 5 -55 0 -45 -25 7 -20 1 -32 -15 -32
-21 0 -31 55 -42 219 -15 236 -10 260 56 263 41 2 41 3 -6 18 -45 14 -42 16
25 18 132 4 80 32 -65 35 -77 2 -140 -4 -140 -15z m-1040 -418 c0 -60 -1 -60
-85 -47 -121 18 -126 78 -8 93 35 4 70 9 78 11 8 2 15 -24 15 -57z"/>
<path d="M5760 2280 c0 -11 -47 -21 -105 -22 -135 -3 -236 -27 -195 -45 30
-13 214 -4 290 14 22 6 47 11 55 11 29 3 15 62 -15 62 -16 0 -30 -9 -30 -20z"/>
<path d="M930 2269 c-11 -3 -72 -12 -135 -19 -64 -7 -110 -21 -104 -31 6 -11
-41 -19 -111 -19 -78 0 -118 -7 -110 -20 15 -24 523 -4 570 22 18 10 -17 14
-90 10 -66 -4 -86 -3 -45 2 41 4 75 16 75 26 0 22 -24 36 -50 29z"/>
<path d="M190 2240 l-80 -14 70 -6 c153 -12 364 -2 352 16 -12 21 -234 23
-342 4z"/>
<path d="M5814 2187 c-28 -27 13 -47 97 -47 66 0 89 8 89 30 0 31 -158 45
-186 17z"/>
<path d="M0 2159 c0 -14 34 -18 92 -11 129 14 135 32 11 32 -59 0 -103 -9
-103 -21z"/>
<path d="M4855 2166 c36 -5 90 -5 120 0 30 4 1 8 -65 8 -66 0 -91 -4 -55 -8z"/>
<path d="M2300 2142 c0 -13 27 -28 60 -35 33 -7 60 -18 60 -25 0 -21 -104 -24
-128 -3 -12 10 -141 16 -285 15 -145 -2 -260 2 -255 9 7 11 -13 11 -72 -2 -5
-1 7 -15 29 -32 38 -28 38 -29 -4 -29 -23 0 -45 15 -49 33 -7 36 -176 61 -176
26 0 -11 25 -20 55 -21 l55 -1 -60 -20 c-96 -30 -247 -40 -287 -19 -25 14 -44
13 -60 -3 -17 -17 -23 -17 -23 0 0 14 -14 18 -33 11 -54 -21 40 -47 202 -56
78 -5 161 -14 186 -22 29 -8 45 -4 45 11 0 14 11 20 25 15 14 -5 42 0 62 11
29 14 34 13 22 -6 -12 -19 1 -22 53 -11 143 29 445 40 430 15 -8 -13 -35 -23
-61 -23 -49 0 -149 -68 -129 -89 6 -6 47 3 90 21 132 56 207 73 159 37 -32
-24 -33 -29 -6 -29 18 0 44 12 59 27 14 14 53 34 86 42 l60 17 -50 15 c-33 10
-8 14 75 12 98 -2 123 -9 120 -33 -6 -36 110 -57 385 -69 165 -7 174 -6 70 9
-66 9 -142 12 -170 7 -40 -8 -44 -6 -20 11 24 18 20 21 -20 17 -30 -3 -48 5
-46 18 4 17 -12 19 -50 8 -29 -8 -72 -9 -93 -1 -59 20 27 39 189 41 134 2 269
35 154 38 -31 0 -71 15 -88 33 -21 20 -47 26 -74 17 -23 -8 -91 -19 -150 -24
-73 -6 -99 -15 -80 -27 19 -12 2 -17 -52 -16 -68 2 -73 4 -30 17 53 17 37 29
-60 47 -27 5 -66 15 -85 24 -21 9 -35 5 -35 -8z m520 -62 c-27 -9 -90 -16
-140 -15 l-90 1 90 14 c50 8 113 14 140 15 l50 1 -50 -16z m-700 -25 c0 -8
-56 -14 -125 -14 -79 1 -111 7 -86 17 49 19 211 17 211 -3z"/>
<path d="M936 2113 c-37 -37 -286 -59 -406 -35 -142 28 -470 42 -470 20 0 -10
-13 -18 -30 -18 -17 0 -30 -7 -30 -17 0 -9 29 -13 65 -10 l65 6 -65 -20 c-36
-11 -65 -33 -65 -49 0 -17 12 -24 30 -17 16 6 30 2 30 -9 0 -12 -16 -25 -35
-30 -19 -5 -6 -10 30 -12 73 -2 81 -16 30 -54 -23 -18 -26 -27 -9 -27 15 -1
21 -10 14 -21 -7 -11 1 -14 19 -8 17 7 31 2 31 -10 0 -12 -16 -23 -35 -24 -19
0 1 -12 45 -26 44 -13 83 -17 87 -8 10 25 79 19 90 -9 7 -19 15 -18 30 4 26
37 -11 65 -62 49 -19 -6 -35 -3 -35 7 0 32 95 71 144 58 25 -6 60 -3 76 8 21
13 3 18 -64 19 -51 0 -99 -9 -106 -20 -21 -34 -70 -22 -145 35 l-72 55 108 13
c60 7 271 15 469 17 325 3 353 6 290 30 -62 24 -65 27 -20 29 80 3 113 31 81
69 -32 39 -50 40 -85 5z"/>
<path d="M1795 1938 c36 -11 65 -28 65 -39 0 -10 14 -19 32 -19 20 0 28 11 21
29 -6 16 3 32 23 37 19 5 -20 10 -86 10 -107 0 -113 -2 -55 -18z"/>
<path d="M807 1911 c8 -21 -9 -33 -62 -43 -48 -9 -76 -6 -81 9 -4 13 -17 23
-28 23 -11 0 -15 -13 -9 -29 8 -22 -15 -32 -98 -42 -60 -7 -109 -20 -109 -28
0 -22 210 -8 257 17 51 28 89 28 73 2 -13 -21 1 -28 95 -49 35 -7 54 -24 53
-46 0 -19 -5 -25 -10 -14 -5 13 -53 18 -121 13 -77 -5 -107 -1 -98 14 15 25
-51 26 -129 3 l-50 -16 50 -22 c43 -19 31 -22 -80 -19 l-130 4 -6 -77 -7 -76
70 13 c41 8 75 5 83 -7 7 -12 3 -21 -9 -21 -53 0 -13 -30 44 -33 36 -2 52 2
35 10 -47 21 -42 54 9 58 27 3 52 -9 59 -26 25 -66 87 2 82 90 l-5 81 103 -9
c91 -8 395 -16 471 -12 67 3 -18 43 -121 56 l-108 14 90 13 c87 12 86 12 -34
15 -110 3 -244 33 -224 51 34 28 123 32 99 3 -35 -42 7 -41 49 2 28 28 60 30
216 19 220 -17 221 6 0 28 -145 13 -148 15 -46 18 61 1 124 11 140 22 40 26
14 26 -166 0 -99 -15 -148 -14 -180 3 -40 22 -42 21 -16 -11 26 -31 22 -33
-45 -29 -44 3 -73 15 -73 31 0 14 -10 26 -22 26 -12 0 -17 -13 -11 -29z"/>
<path d="M4560 1909 c-38 -14 -90 -21 -115 -15 -97 23 -195 -51 -111 -83 16
-6 23 -2 16 9 -7 11 -3 20 9 20 11 0 21 -8 21 -18 0 -10 13 -23 29 -29 19 -7
25 -1 18 18 -9 24 13 29 119 29 155 0 224 18 163 42 -36 14 -36 15 -3 17 20 0
31 10 24 21 -16 26 -82 22 -170 -11z"/>
<path d="M5055 1906 c-19 -5 -35 -16 -35 -25 0 -22 125 -40 150 -22 11 8 105
8 210 -1 117 -10 197 -9 209 3 12 12 -21 20 -90 20 -79 1 -98 6 -69 19 42 18
-308 24 -375 6z"/>
<path d="M3830 1847 c132 -38 406 -46 419 -12 5 14 3 26 -5 27 -195 21 -502
11 -414 -15z"/>
<path d="M1040 1820 c0 -11 43 -20 95 -20 69 1 87 6 65 20 -40 26 -160 26
-160 0z"/>
<path d="M1710 1743 c-22 -4 -44 -14 -50 -22 -5 -8 -27 -24 -47 -35 -29 -15 1
-23 130 -31 190 -13 237 -26 237 -70 0 -17 -16 -43 -35 -57 -19 -15 -24 -27
-11 -27 13 -1 29 8 36 19 8 13 26 13 53 -2 30 -16 47 -16 63 0 16 16 10 22
-21 22 -23 0 -48 8 -54 18 -16 26 44 82 85 81 30 0 29 -4 -5 -30 -21 -16 -30
-29 -20 -28 28 1 90 51 78 64 -6 5 30 16 80 24 115 17 99 51 -25 52 -72 1 -84
6 -54 19 39 17 -350 19 -440 3z"/>
<path d="M986 1648 c7 -7 -1 -25 -16 -41 -44 -44 -14 -87 60 -87 73 0 80 62
14 115 -32 25 -82 36 -58 13z"/>
<path d="M2375 1644 c-41 -4 -75 -11 -75 -17 0 -56 199 -82 437 -57 179 19
130 57 -82 64 -91 3 -174 8 -185 11 -11 3 -54 3 -95 -1z"/>
<path d="M90 1620 c7 -11 30 -20 51 -20 22 0 39 -13 39 -30 0 -16 9 -30 20
-30 11 0 20 23 20 50 0 44 -9 50 -71 50 -43 0 -66 -8 -59 -20z"/>
<path d="M4972 1617 c10 -16 4 -20 -19 -11 -18 7 -33 4 -33 -7 0 -10 33 -19
74 -19 69 0 71 2 35 29 -47 36 -77 40 -57 8z"/>
<path d="M3620 1574 c0 -14 10 -36 22 -48 40 -40 -2 -72 -44 -34 -22 20 -38
25 -38 11 0 -13 10 -23 21 -23 12 0 15 -10 7 -23 -8 -14 -5 -18 7 -10 12 7 26
-2 31 -22 9 -33 9 -33 12 0 3 54 38 42 73 -27 38 -74 26 -92 -39 -63 -59 27
-69 19 -57 -45 10 -54 45 -69 45 -20 0 17 10 30 21 30 12 0 16 -9 9 -19 -6
-11 13 -26 44 -33 31 -7 68 -27 84 -45 25 -30 26 -30 15 2 -10 30 1 35 73 35
104 1 159 29 91 47 -26 7 -80 13 -121 13 -106 0 -193 97 -91 102 36 2 33 5
-13 15 -32 7 -62 24 -66 36 -5 15 7 20 33 13 36 -9 82 40 58 63 -33 34 -116
32 -106 -2 6 -20 -3 -12 -20 18 -35 60 -51 69 -51 29z"/>
<path d="M4000 1580 c17 -11 55 -20 85 -20 30 0 55 -10 55 -22 0 -15 -21 -19
-60 -10 -33 6 -88 18 -122 25 -54 11 -61 8 -55 -25 7 -32 26 -38 122 -38 108
0 156 -30 90 -57 -16 -6 -13 -10 8 -11 27 -2 32 -23 28 -122 -5 -129 9 -150
45 -70 13 28 37 50 53 50 23 0 27 15 17 63 -8 44 -5 59 10 49 12 -7 17 -29 10
-48 -9 -26 -6 -29 13 -11 31 29 10 100 -29 100 -17 0 -30 -8 -30 -17 0 -10
-13 -6 -28 8 -15 14 -24 33 -19 41 5 8 -2 15 -17 15 -19 1 -18 5 3 19 19 12
39 11 55 -3 19 -15 26 -14 26 2 0 12 20 21 45 21 43 -2 43 -3 5 -19 -35 -15
-34 -17 15 -19 30 0 55 -10 55 -21 0 -11 23 -20 50 -20 62 0 65 32 5 51 -25 8
-50 22 -56 31 -5 9 -57 19 -115 22 -73 4 -101 13 -95 31 7 18 -19 25 -95 25
-74 -1 -95 -6 -74 -20z"/>
<path d="M5570 1568 c-37 -29 -127 -31 -230 -5 -17 4 -28 -5 -24 -20 4 -21
-10 -24 -60 -13 -83 18 -314 19 -332 1 -32 -32 62 -50 259 -51 170 0 215 -6
224 -30 12 -32 73 -42 73 -13 0 10 55 29 123 44 96 20 116 30 93 47 -16 12
-26 33 -21 47 12 35 -57 30 -105 -7z"/>
<path d="M5878 1584 c24 -17 24 -21 0 -29 -15 -6 -5 -7 24 -4 29 4 62 -3 75
-16 17 -17 23 -15 23 11 0 19 -11 34 -25 34 -14 0 -47 6 -75 12 -36 8 -42 6
-22 -8z"/>
<path d="M4810 1516 c0 -37 9 -53 25 -47 14 5 25 1 25 -10 0 -10 -13 -19 -30
-19 -16 0 -30 -10 -30 -22 0 -16 -8 -17 -25 -3 -51 41 -208 55 -175 15 16 -19
32 -25 35 -14 5 15 26 15 66 1 76 -27 63 -45 -55 -77 -118 -32 -172 -75 -158
-128 11 -43 -37 -90 -93 -91 -19 -1 -35 14 -35 32 0 47 -159 19 -202 -36 -38
-50 -250 -35 -292 21 -14 18 -25 26 -25 19 -1 -8 -48 4 -106 25 -57 21 -111
38 -120 38 -31 0 -13 -38 24 -50 22 -7 34 -24 28 -39 -5 -16 9 -38 33 -51 24
-13 39 -28 33 -33 -5 -6 -27 -1 -47 10 -73 39 -101 -8 -39 -66 58 -53 51 -112
-16 -138 -17 -6 -25 -24 -20 -40 7 -17 -6 -32 -35 -40 -67 -18 -76 -16 -64 15
9 23 -2 25 -56 13 -99 -24 -236 -83 -236 -103 0 -9 -13 -12 -29 -6 -15 6 -59
-3 -96 -21 -45 -21 -83 -27 -113 -16 l-44 17 42 54 c32 40 55 51 88 43 98 -25
330 115 304 183 -27 70 -362 -35 -455 -141 -24 -27 -51 -45 -60 -39 -9 6 -17
1 -17 -11 0 -28 26 -27 56 3 52 52 84 34 42 -23 -31 -42 -54 -53 -94 -46 -43
6 -48 4 -24 -13 17 -12 22 -22 13 -22 -24 0 27 -60 51 -60 10 0 12 10 4 23 -8
13 -3 19 14 13 15 -5 37 -28 48 -52 14 -32 37 -44 83 -44 94 0 147 -22 96 -40
-55 -20 178 -63 396 -74 207 -11 494 21 580 64 34 16 63 30 66 30 7 0 89 -140
89 -152 0 -6 -9 -5 -20 2 -11 7 -20 5 -20 -4 0 -9 19 -25 43 -36 72 -34 211
-310 156 -310 -12 0 -16 9 -9 20 7 11 3 20 -9 20 -33 0 -25 -40 11 -54 18 -6
39 0 48 13 12 20 17 20 25 -2 5 -15 15 -22 21 -16 6 5 -43 100 -110 210 -181
296 -272 455 -280 489 -3 17 -15 37 -26 45 -12 8 -8 15 10 16 22 1 21 6 -6 16
-20 8 -72 80 -116 160 l-81 145 127 -14 c69 -8 144 -26 166 -40 82 -52 276
-45 290 12 11 48 122 140 168 140 12 0 -9 -19 -48 -43 -219 -132 15 -220 286
-107 35 14 118 32 184 40 177 20 446 66 562 97 90 25 108 24 167 -7 92 -47 84
-49 -384 -101 -228 -26 -410 -51 -405 -56 11 -11 417 28 710 69 186 26 212 26
232 -1 25 -35 48 -20 48 30 0 25 -11 32 -38 25 -49 -12 -204 66 -162 82 17 6
65 24 109 38 43 15 83 39 87 53 6 18 -1 20 -29 5 -168 -89 -370 -73 -447 35
-14 21 -102 41 -90 21 6 -9 64 -42 130 -73 174 -83 172 -84 -280 -156 -104
-17 -215 -35 -245 -40 -39 -7 -55 -2 -55 20 0 39 -94 38 -190 -2 -41 -17 -79
-27 -84 -22 -21 21 19 53 95 76 109 32 132 64 91 126 -40 61 -40 89 -3 130 38
42 21 105 -35 132 -40 19 -44 15 -44 -35z m45 -195 c21 -34 16 -39 -61 -51
-46 -7 -127 -27 -180 -43 -53 -17 -102 -26 -108 -20 -30 31 24 75 128 104 64
19 124 41 133 50 24 22 59 6 88 -40z m-926 -334 c7 -19 1 -41 -13 -50 -19 -12
-17 -16 8 -17 36 0 73 -53 87 -125 4 -23 16 -47 26 -54 16 -11 123 -173 123
-187 0 -4 -56 1 -125 11 -149 21 -481 6 -491 -23 -4 -11 -17 -16 -30 -11 -24
8 -256 24 -399 27 -55 2 -75 11 -75 34 0 26 15 29 80 18 151 -26 434 28 605
115 185 95 198 125 45 109 l-111 -11 40 50 c21 27 33 64 27 81 -10 26 -2 30
41 22 29 -6 69 2 88 16 46 35 58 34 74 -5z m-309 -266 c0 -21 -78 -50 -94 -34
-5 6 -4 20 3 32 16 26 91 28 91 2z m-179 -240 c-26 -7 -80 -8 -120 -3 -63 8
-65 10 -22 21 26 7 80 8 120 3 63 -8 65 -10 22 -21z"/>
<path d="M1380 1540 c-341 -41 -433 -129 -122 -117 98 4 185 0 194 -8 21 -21
53 -19 40 2 -6 10 43 24 110 32 137 15 223 47 212 79 -9 27 -255 33 -434 12z"/>
<path d="M2369 1444 c3 -31 19 -57 38 -60 18 -4 33 -15 33 -25 0 -11 20 -20
45 -21 31 -1 23 -7 -25 -18 -38 -10 -74 -9 -80 0 -6 9 -35 23 -65 31 -66 16
-67 17 -10 74 l45 45 -57 7 c-73 8 -109 -24 -74 -66 29 -35 15 -91 -23 -91
-17 1 -19 6 -5 15 24 17 25 45 3 80 -9 14 -11 34 -4 45 7 11 -6 20 -29 20 -22
0 -41 -9 -41 -19 0 -11 -12 -15 -26 -10 -14 6 -61 2 -105 -8 l-79 -17 56 -23
c74 -30 197 -31 154 -2 -25 18 -23 20 10 15 68 -11 48 -66 -23 -66 -35 0 -70
-7 -79 -15 -43 -43 -149 -16 -136 35 14 56 -13 64 -101 30 -116 -44 -44 -80
262 -133 l63 -11 -101 -158 c-55 -86 -109 -152 -121 -145 -12 8 -14 3 -6 -10
19 -31 -89 -203 -128 -203 -23 -1 -24 -5 -5 -17 19 -12 15 -26 -15 -58 -22
-24 -40 -51 -40 -61 0 -10 -22 -42 -50 -72 -27 -30 -50 -63 -50 -74 0 -10 -13
-24 -30 -31 -16 -6 -30 -27 -30 -47 0 -19 -13 -46 -28 -59 -16 -12 -62 -76
-104 -141 -92 -145 -143 -169 -318 -151 -72 8 -127 20 -122 28 4 7 -34 14 -85
15 -105 2 -279 23 -301 37 -7 4 -26 1 -40 -8 -18 -11 -10 -20 27 -29 29 -7 48
-21 41 -31 -6 -10 0 -25 13 -33 14 -8 18 -6 10 7 -7 11 2 27 21 34 18 7 38 4
44 -6 7 -10 50 -17 96 -15 46 3 81 -1 77 -7 -28 -47 446 -21 484 27 22 28 45
46 52 41 7 -5 9 -3 4 4 -17 22 29 87 61 87 17 0 25 8 19 18 -14 23 92 188 108
167 18 -24 81 -29 81 -6 0 12 -19 21 -42 21 -43 0 -44 48 -1 53 13 1 34 3 48
5 19 2 18 7 -2 20 -33 21 27 142 70 142 14 0 31 10 39 23 9 14 5 18 -9 9 -38
-24 -27 0 69 149 l92 142 118 -6 c65 -4 118 0 118 8 0 8 -45 15 -100 15 -122
0 -123 9 -24 180 73 125 79 130 162 136 64 5 83 13 74 35 -14 38 16 37 48 -1
57 -69 464 11 453 89 -7 59 -87 88 -297 107 l-133 12 6 -54z"/>
<path d="M3 1372 l4 -89 112 -12 c61 -7 179 -3 261 8 83 11 236 20 340 21 171
1 186 4 151 31 -21 16 -63 29 -92 29 -29 0 -82 15 -118 33 -113 56 -241 61
-231 10 9 -47 -12 -54 -72 -22 -21 11 -50 14 -63 6 -17 -10 -8 -20 25 -31 43
-13 40 -14 -16 -9 -47 5 -63 -1 -56 -20 6 -14 3 -30 -7 -36 -35 -22 -44 94 -9
127 31 29 33 29 21 -3 -11 -33 -8 -33 48 -5 84 44 79 46 -122 48 l-181 3 5
-89z"/>
<path d="M1092 1320 c-17 -102 -15 -164 6 -151 21 13 37 -45 27 -94 -10 -44
-45 -46 -45 -2 0 28 -19 31 -135 22 l-135 -11 100 26 c98 26 98 26 30 30 l-70
5 60 13 c56 13 57 14 15 26 -56 15 -60 76 -5 76 39 0 116 91 94 112 -16 17
-94 -11 -94 -33 0 -11 9 -19 20 -19 92 0 -10 -33 -114 -37 -74 -2 -144 -13
-157 -24 -12 -10 -28 -13 -34 -7 -19 18 -97 -13 -84 -33 18 -30 123 -22 156
11 33 33 163 42 143 10 -7 -11 -33 -15 -59 -9 -29 8 -49 2 -57 -17 -6 -15 -37
-34 -70 -40 -65 -13 -101 -71 -60 -97 151 -94 911 -78 975 21 6 9 31 23 56 31
99 30 12 99 -150 119 -58 8 -120 19 -139 26 -22 9 -28 5 -18 -11 8 -13 3 -23
-12 -23 -19 -1 -18 -6 4 -20 25 -16 23 -20 -10 -21 -40 -2 -40 -2 0 -19 25
-11 29 -17 10 -17 -44 0 -119 34 -78 36 17 0 31 14 31 31 0 19 -8 23 -21 12
-14 -11 -32 -7 -48 10 -16 18 -18 28 -4 28 12 0 17 9 10 20 -7 11 9 20 38 20
27 0 55 9 62 20 7 11 -5 20 -25 20 -21 0 -44 6 -51 13 -49 49 -151 15 -162
-53z"/>
<path d="M3390 1340 c-33 -8 -115 -16 -182 -18 -166 -3 -309 -24 -297 -43 5
-9 1 -22 -11 -29 -11 -7 -20 -30 -20 -51 0 -21 -22 -53 -50 -71 -141 -92 154
-90 344 3 l107 53 40 -50 c21 -28 81 -65 133 -82 114 -39 126 -39 126 -4 0 16
11 32 25 37 15 5 8 17 -19 32 -34 18 -41 34 -30 68 48 150 -4 198 -166 155z"/>
<path d="M1820 1241 c-12 -23 -16 -41 -10 -41 6 0 0 -20 -14 -45 -24 -44 -28
-56 -33 -94 -2 -10 -21 -24 -44 -31 -30 -10 -35 -20 -21 -38 16 -19 0 -24 -69
-23 -70 2 -89 -5 -89 -31 0 -35 -127 -41 -180 -8 -17 11 -21 8 -12 -7 9 -14 2
-23 -17 -23 -17 0 -31 8 -31 18 0 23 -119 40 -132 19 -5 -8 20 -23 56 -33 44
-11 64 -28 61 -49 -4 -22 17 -35 75 -45 44 -7 80 -22 80 -32 0 -31 55 -20 68
13 6 17 21 26 32 19 11 -7 15 1 8 17 -11 30 -41 33 -83 6 -14 -9 -25 -6 -25 6
0 24 -1 24 125 33 107 7 216 61 202 99 -6 14 8 31 30 38 41 13 66 76 73 186 6
79 -20 102 -50 46z"/>
<path d="M45 1156 c-94 -46 -65 -56 278 -97 107 -13 205 -20 220 -15 14 5 -73
20 -193 34 -121 14 -241 30 -268 37 l-47 11 47 26 c57 32 27 35 -37 4z"/>
<path d="M2459 1097 c-27 -100 -13 -153 31 -117 17 14 30 37 30 51 0 14 11 30
25 36 19 7 18 15 -5 31 -26 19 -16 30 23 25 7 -1 17 9 23 23 5 15 -13 26 -48
28 -51 4 -59 -4 -79 -77z"/>
<path d="M4833 956 c-31 -23 -82 -43 -113 -44 -31 -1 -52 -8 -48 -16 5 -7 0
-19 -12 -26 -11 -7 -20 -4 -20 5 0 34 -57 18 -67 -18 -19 -74 326 41 356 118
15 38 -32 29 -96 -19z"/>
<path d="M2495 925 c-57 -35 -74 -85 -30 -86 15 0 11 -11 -10 -27 -48 -37 -44
-49 15 -43 32 3 50 -5 50 -22 0 -15 10 -27 21 -27 12 0 16 9 9 20 -7 11 5 20
27 20 37 0 117 -93 96 -113 -14 -15 -96 33 -85 50 5 8 -20 11 -57 7 -36 -4
-94 7 -128 25 -68 35 -85 57 -28 37 24 -8 29 -5 15 10 -47 50 -444 98 -454 54
-3 -11 44 -39 104 -63 61 -24 135 -54 166 -67 31 -13 85 -19 120 -12 90 17
246 -31 238 -73 -3 -18 13 -45 36 -61 39 -27 34 -31 -84 -74 -77 -28 -127 -37
-131 -24 -9 27 -84 5 -235 -71 -66 -33 -156 -71 -200 -84 -235 -70 -248 -101
-43 -101 292 0 581 71 748 184 94 64 116 110 31 66 -29 -15 -61 -23 -70 -18
-9 6 -16 0 -16 -13 0 -13 -13 -18 -30 -12 -19 7 -30 0 -30 -19 0 -20 -12 -27
-36 -19 -20 6 -54 -2 -75 -18 -55 -42 -77 -38 -35 7 62 64 264 144 369 145 53
1 97 10 97 20 0 11 -9 14 -19 7 -21 -13 -101 58 -101 90 0 11 14 20 31 20 17
0 27 -8 21 -17 -6 -9 2 -34 18 -55 19 -26 29 -29 29 -11 2 58 150 -193 173
-292 24 -103 -28 -130 -65 -34 -6 16 -18 24 -27 19 -19 -12 -46 123 -30 150 7
11 -3 20 -21 20 -21 0 -29 11 -22 30 7 17 3 30 -8 30 -11 0 -14 -32 -7 -77 7
-44 3 -96 -10 -119 -44 -83 110 -198 311 -232 93 -15 137 27 137 132 0 108
-78 251 -102 186 -8 -22 -25 -48 -37 -57 -13 -10 -8 -13 12 -6 47 15 59 -32
26 -95 -15 -29 -27 -58 -26 -64 5 -85 -65 33 -78 131 -11 82 -49 162 -93 200
-18 14 -27 32 -22 40 5 8 -5 32 -22 53 -29 36 -29 35 -16 -12 13 -45 9 -44
-43 18 -31 37 -87 80 -123 95 -90 37 -84 81 14 107 98 26 99 39 9 118 -82 72
-185 82 -274 27z"/>
<path d="M4210 914 c68 -47 133 -56 126 -17 -4 23 -31 35 -86 39 -74 6 -77 4
-40 -22z"/>
<path d="M4371 885 c-6 -16 -11 -31 -11 -35 0 -4 35 -12 78 -20 81 -13 127
-122 91 -215 -6 -17 -2 -37 11 -45 16 -10 21 35 17 158 -4 141 -10 172 -36
172 -25 -1 -26 -4 -4 -18 15 -9 19 -22 9 -28 -20 -13 -68 12 -73 37 -5 29 -71
24 -82 -6z"/>
<path d="M343 808 c-19 -22 -21 -38 -7 -52 27 -27 70 0 56 35 -5 14 1 31 14
36 15 6 13 10 -6 11 -16 0 -42 -13 -57 -30z"/>
<path d="M5230 803 c6 -5 -5 -26 -23 -46 -22 -24 -25 -37 -9 -37 14 0 18 -10
10 -23 -10 -16 -3 -20 20 -10 20 7 39 13 44 13 5 0 0 18 -12 40 -15 27 -15 40
-1 40 12 0 21 8 21 17 0 9 -13 16 -30 16 -16 0 -25 -4 -20 -10z"/>
<path d="M5400 796 c0 -11 14 -15 31 -8 17 6 35 -1 41 -16 6 -15 32 -26 57
-25 54 3 47 33 -7 33 -19 0 -42 6 -49 14 -23 23 -73 24 -73 2z"/>
<path d="M714 765 c12 -31 9 -32 -20 -8 -19 16 -34 23 -34 18 0 -22 60 -124
61 -105 6 72 39 151 39 93 0 -12 15 -23 34 -23 29 0 29 4 -5 29 -54 41 -91 39
-75 -4z"/>
<path d="M949 762 c6 -10 -2 -23 -18 -29 -16 -6 -33 0 -38 13 -6 14 -11 9 -11
-10 -2 -24 12 -33 47 -30 28 2 50 11 50 19 2 47 -1 55 -20 55 -12 0 -16 -8
-10 -18z"/>
<path d="M4872 717 c5 -8 -3 -18 -17 -24 -17 -7 -15 -10 5 -11 17 0 57 12 90
26 l60 26 -73 -2 c-40 -1 -69 -8 -65 -15z"/>
<path d="M50 602 c-59 -14 -59 -14 -13 -30 32 -11 53 -8 63 8 9 14 26 18 41 9
16 -10 20 -7 11 8 -8 13 -21 22 -28 21 -8 -2 -41 -9 -74 -16z"/>
<path d="M283 602 c-23 -14 -23 -19 0 -28 19 -8 16 -11 -8 -12 -19 -1 -35 -12
-35 -24 0 -12 -12 -18 -27 -12 -14 6 -26 -3 -26 -18 0 -65 121 8 125 76 2 20
2 36 0 36 -1 0 -14 -8 -29 -18z"/>
<path d="M2090 589 c-66 -15 -165 -27 -220 -28 -129 -2 -182 -31 -99 -55 92
-25 471 -15 539 14 33 15 91 29 128 32 97 9 129 48 41 50 -38 0 -114 4 -169 7
-55 3 -154 -6 -220 -20z"/>
<path d="M5332 599 c-32 -10 -66 -13 -75 -7 -9 6 -17 1 -17 -11 0 -11 11 -21
25 -21 17 -1 15 -7 -5 -20 -29 -19 -26 -22 23 -27 13 -2 30 -21 39 -43 12 -32
15 -33 17 -6 0 18 -8 39 -19 46 -30 19 -4 50 31 37 16 -6 41 -3 54 8 37 29 95
23 95 -11 0 -18 -14 -25 -39 -19 -25 7 -35 2 -29 -14 8 -19 29 -20 90 -4 57
16 84 16 94 0 8 -11 28 -26 44 -32 25 -10 25 -12 -3 -13 -17 -1 -44 -18 -59
-37 -22 -30 -22 -31 2 -10 36 32 108 34 88 2 -9 -14 -5 -18 9 -9 13 8 23 3 23
-10 0 -14 5 -19 12 -13 6 6 2 30 -10 52 -18 32 -15 42 13 49 21 6 12 10 -22
12 -31 1 -81 19 -110 39 -48 34 -100 55 -183 73 -16 3 -56 -2 -88 -11z"/>
<path d="M974 547 c-20 -26 -45 -43 -55 -36 -11 6 -19 -4 -19 -22 0 -28 -14
-32 -85 -23 -47 6 -69 6 -50 1 20 -6 31 -18 25 -27 -27 -43 105 -4 154 45 56
57 96 71 96 34 0 -12 9 -16 20 -9 30 19 24 46 -15 67 -27 14 -44 7 -71 -30z"/>
<path d="M1100 560 c24 -45 51 -51 72 -17 8 14 5 18 -8 10 -11 -8 -26 -5 -33
5 -6 11 4 23 24 28 21 6 14 10 -21 12 -49 2 -53 -2 -34 -38z"/>
<path d="M1213 567 c-23 -24 -14 -47 18 -47 18 0 30 -15 28 -35 -8 -74 0 -94
25 -69 38 38 34 108 -7 119 -20 5 -32 18 -26 27 13 21 -18 24 -38 5z"/>
<path d="M5830 538 c-31 -11 -32 -16 -7 -17 17 0 46 -21 63 -46 28 -42 30 -42
25 -5 -3 22 3 46 14 52 30 20 -51 33 -95 16z"/>
<path d="M1003 454 c-17 -20 -5 -26 53 -28 41 -1 58 2 39 7 -19 6 -35 18 -35
28 0 27 -32 23 -57 -7z"/>
<path d="M420 431 c1 -38 29 -61 80 -65 28 -3 39 0 25 6 -40 18 -29 48 18 48
72 0 22 27 -53 29 -39 1 -70 -7 -70 -18z"/>
<path d="M957 393 c21 -25 22 -40 5 -61 -20 -23 -10 -27 55 -25 51 2 75 -5 69
-20 -5 -13 1 -29 13 -36 12 -8 21 -7 19 3 -1 9 -1 21 1 26 24 61 15 77 -32 59
-70 -27 -93 -24 -80 11 7 18 -6 39 -33 53 -40 21 -41 20 -17 -10z"/>
<path d="M829 379 c-7 -12 -8 -27 -1 -34 7 -6 12 -1 12 12 0 12 10 23 22 23
14 0 11 -18 -9 -48 -29 -45 -29 -47 8 -38 21 6 34 18 29 27 -6 8 1 20 15 26
19 7 18 15 -5 31 -38 27 -54 27 -71 1z"/>
<path d="M184 363 c-34 -22 21 -83 72 -82 30 0 29 4 -4 29 -37 28 -37 30 10
48 l48 19 -50 1 c-27 1 -62 -6 -76 -15z"/>
<path d="M3545 313 c-1 -13 -7 -46 -13 -74 -10 -46 -5 -51 58 -56 40 -2 70 5
70 18 0 12 -8 16 -18 10 -54 -33 -106 54 -55 91 9 7 4 17 -12 23 -16 6 -29 1
-30 -12z"/>
<path d="M3838 312 c10 -12 21 -44 25 -72 7 -50 43 -56 212 -36 30 3 33 29 5
46 -11 7 -20 3 -20 -9 0 -32 -33 -25 -72 14 -32 31 -34 31 -23 2 8 -22 0 -36
-25 -43 -35 -9 -93 86 -68 111 4 5 -5 8 -22 8 -19 0 -23 -8 -12 -21z"/>
<path d="M4860 279 c0 -12 -7 -17 -16 -11 -9 5 -28 -10 -43 -34 -25 -40 -24
-42 6 -17 18 15 44 23 59 17 15 -5 27 6 29 28 1 21 -6 38 -16 38 -11 0 -19
-10 -19 -21z"/>
<path d="M5950 240 c7 -12 -12 -15 -52 -7 -43 9 -60 6 -51 -8 7 -11 -1 -26
-19 -33 -46 -18 -72 -15 -59 7 6 10 3 24 -9 31 -11 7 -20 -1 -20 -17 0 -39
-55 -57 -100 -33 -52 28 -66 25 -53 -10 8 -21 -1 -30 -29 -30 -22 0 -35 8 -29
19 6 10 3 24 -9 31 -11 7 -20 -4 -20 -24 0 -27 -18 -37 -74 -41 -40 -3 -94 -9
-120 -14 -27 -5 -46 2 -46 15 -1 15 -7 14 -18 -4 -10 -16 -44 -30 -75 -32 -31
-3 -97 -11 -147 -19 -49 -8 -121 -18 -160 -23 -285 -37 -308 -45 -110 -34 110
5 246 11 303 13 57 2 99 9 95 16 -4 7 39 19 97 26 58 7 184 26 281 42 126 21
187 23 215 8 27 -14 39 -14 39 0 0 12 -11 22 -25 23 -14 1 29 13 95 27 66 15
127 22 135 18 8 -5 15 9 15 32 0 24 -13 41 -31 41 -17 0 -26 -9 -19 -20z"/>
<path d="M367 224 c8 -11 4 -27 -7 -34 -11 -7 -15 -21 -9 -31 14 -23 30 -24
-170 11 -157 27 -264 26 -125 -2 35 -7 59 -20 53 -29 -5 -9 1 -23 14 -31 15
-9 18 -5 7 11 -12 21 6 24 82 15 262 -31 296 -34 273 -22 -14 6 -20 21 -13 32
7 11 -7 10 -31 -4 -50 -26 -86 -8 -40 21 21 14 22 18 3 19 -15 0 -21 8 -15 19
6 10 1 25 -12 33 -14 8 -18 6 -10 -8z"/>
<path d="M1579 128 c-15 -28 -44 -60 -63 -70 -20 -11 -36 -30 -36 -44 0 -15 8
-13 20 6 17 26 23 26 38 2 14 -22 20 -18 25 19 l7 48 46 -49 c28 -30 44 -38
40 -20 -7 33 69 31 81 -2 10 -29 92 -21 134 13 37 30 37 30 -9 8 -26 -13 -53
-15 -60 -6 -14 20 -53 31 -122 34 -67 4 -102 35 -75 68 11 14 16 30 11 35 -5
6 -22 -13 -37 -42z"/>
<path d="M3820 113 c0 -42 -8 -54 -30 -46 -25 10 -25 5 -5 -28 23 -37 113 -56
116 -24 1 8 6 38 11 65 6 37 3 42 -11 21 -10 -16 -15 -35 -10 -43 5 -8 -5 -19
-23 -26 -47 -18 -49 -16 -29 35 10 27 10 58 0 75 -13 20 -18 12 -19 -29z"/>
<path d="M4109 119 c-7 -12 -8 -27 -1 -34 7 -6 12 -1 12 12 0 13 14 23 30 23
17 0 30 -10 30 -21 0 -12 -9 -16 -20 -9 -11 7 -20 3 -20 -9 0 -11 10 -21 22
-21 12 0 17 -13 11 -30 -8 -20 1 -30 28 -30 21 0 40 7 40 15 1 8 6 38 11 65 6
37 3 42 -11 21 -10 -16 -14 -36 -9 -44 5 -8 0 -20 -12 -27 -12 -7 -20 12 -20
49 0 62 -60 89 -91 40z"/>
<path d="M4660 90 c0 -20 20 -30 62 -30 55 0 59 4 37 31 -20 25 -29 26 -42 5
-13 -20 -16 -20 -17 -1 0 14 -9 25 -20 25 -11 0 -20 -13 -20 -30z"/>
<path d="M25 75 c6 -29 113 -80 143 -67 12 5 6 10 -13 10 -19 1 -35 11 -35 22
0 11 -13 20 -30 20 -16 0 -30 9 -30 20 0 11 -9 20 -20 20 -11 0 -18 -11 -15
-25z"/>
<path d="M3568 26 c-32 -23 -27 -26 38 -26 51 0 74 9 74 29 0 34 -63 33 -112
-3z"/>
<path d="M4050 40 c-7 -12 -21 -16 -30 -10 -9 6 -23 2 -30 -10 -17 -28 57 -25
86 4 19 19 24 19 24 0 0 -13 9 -24 19 -24 11 0 15 13 8 30 -13 34 -58 40 -77
10z"/>
</g>
</svg>
