<?xml version="1.0" standalone="no"?>
<!DOCTYPE svg PUBLIC "-//W3C//DTD SVG 20010904//EN"
 "http://www.w3.org/TR/2001/REC-SVG-20010904/DTD/svg10.dtd">
<svg version="1.0" xmlns="http://www.w3.org/2000/svg"
 width="300.000000pt" height="200.000000pt" viewBox="0 0 300.000000 200.000000"
 preserveAspectRatio="xMidYMid meet">
<metadata>
Created by potrace 1.10, written by Peter Selinger 2001-2011
</metadata>
<g transform="translate(0.000000,200.000000) scale(0.050000,-0.050000)"
fill="aliceblue" stroke="none">
<path d="M780 3982 c0 -9 18 -22 40 -28 22 -6 40 -3 40 7 0 9 34 20 75 24 56
6 45 9 -40 12 -63 1 -115 -5 -115 -15z"/>
<path d="M615 3956 c-9 -23 3 -35 46 -43 68 -14 124 2 107 30 -7 11 -25 15
-40 9 -15 -6 -28 -1 -28 11 0 15 -9 15 -28 -1 -22 -18 -30 -18 -36 1 -6 17
-12 15 -21 -7z"/>
<path d="M1340 3965 c-61 -11 -103 -43 -89 -67 21 -33 93 -18 153 32 62 52 53
57 -64 35z"/>
<path d="M4430 3920 c-22 -9 -72 -12 -112 -6 -46 6 -94 -1 -130 -21 -52 -28
-42 -40 25 -31 7 1 20 -11 29 -25 10 -16 18 -18 18 -5 0 15 49 21 144 18 104
-3 153 4 174 25 52 52 -53 85 -148 45z"/>
<path d="M4774 3918 c-19 -11 -62 -21 -95 -22 -32 -1 -69 -14 -82 -29 -18 -22
-1 -25 96 -18 137 10 180 24 195 63 13 34 -59 38 -114 6z"/>
<path d="M920 3814 c-64 -33 -76 -74 -16 -61 33 8 38 5 19 -9 -14 -10 -26 -24
-25 -31 6 -42 -3 -53 -41 -53 -24 0 -38 -5 -32 -12 7 -7 44 -12 84 -12 39 0
71 -7 71 -16 0 -9 18 -12 40 -6 26 7 40 1 40 -17 1 -21 5 -21 22 3 16 23 24
24 31 5 6 -14 24 -25 40 -25 16 0 25 7 20 15 -5 9 20 14 56 12 72 -3 129 22
104 46 -33 33 -249 35 -288 3 -21 -18 -37 -13 -71 22 -41 42 -42 46 -9 70 69
52 33 105 -45 66z"/>
<path d="M3122 3518 c-22 -21 -46 -72 -54 -113 -7 -41 -17 -82 -22 -91 -5 -8
-9 -101 -8 -205 0 -104 2 -529 3 -944 2 -415 9 -728 16 -695 7 33 13 373 13
755 0 382 7 695 15 695 8 0 15 -387 15 -860 0 -779 -3 -860 -32 -860 -24 0
-29 -12 -21 -45 7 -25 13 -56 13 -70 0 -15 25 -24 65 -23 l65 2 -55 22 c-65
26 -74 55 -12 39 28 -7 39 -4 30 10 -17 27 5 85 32 85 12 0 10 -12 -4 -29 -14
-16 -19 -39 -12 -50 25 -40 51 -20 51 39 0 49 -8 60 -46 60 -66 0 -68 76 -3
92 66 17 62 63 -6 74 l-55 8 60 4 c52 4 55 7 20 22 -34 15 -35 17 -5 19 23 1
35 16 34 46 -2 38 -4 39 -16 10 -13 -33 -16 -33 -48 5 -46 53 -44 60 15 60 32
0 50 11 50 31 0 17 -9 26 -20 19 -11 -7 -36 -3 -55 8 -30 18 -27 21 20 21 l55
1 0 289 c0 258 -4 289 -35 297 -33 9 -33 9 0 12 25 1 35 19 35 63 0 34 -8 56
-19 50 -10 -6 -24 -3 -31 9 -7 11 2 20 19 20 26 0 31 37 31 250 0 229 25 334
46 195 6 -39 9 -30 11 30 2 64 -5 85 -27 85 -17 0 -30 18 -30 40 0 22 10 40
21 40 12 0 15 10 8 21 -23 38 -24 119 -1 119 12 0 9 9 -8 20 -26 16 -26 19 -1
20 22 0 24 5 5 24 -18 18 -16 32 9 60 31 34 30 36 -30 36 -65 0 -94 66 -38 85
19 7 19 16 -2 42 -25 29 -22 33 26 33 59 0 54 29 -7 45 -23 6 -56 -5 -80 -27z
m-18 -400 c-4 -100 -11 -177 -17 -172 -19 20 -17 354 3 354 12 0 18 -70 14
-182z"/>
<path d="M2430 3395 c-10 -63 -6 -116 10 -156 31 -73 9 -841 -23 -861 -11 -7
-17 -29 -14 -50 4 -22 -3 -36 -18 -33 -19 4 -26 -117 -27 -545 -2 -302 -4
-565 -5 -583 -3 -33 59 -56 76 -29 5 8 36 13 70 10 33 -2 61 4 61 14 0 10 -9
18 -21 18 -13 0 -19 179 -18 529 1 291 -4 539 -11 550 -12 20 48 31 145 26 28
-2 45 9 45 27 0 16 -11 28 -25 25 -84 -16 -113 22 -119 159 -5 107 -10 125
-26 90 -14 -30 -20 74 -22 350 -1 306 -8 412 -32 474 l-31 80 -15 -95z"/>
<path d="M2268 3255 c6 -19 1 -35 -10 -35 -11 0 -15 -9 -8 -20 7 -11 3 -20 -9
-20 -11 0 -21 -19 -21 -41 0 -29 11 -40 35 -35 42 8 57 100 25 150 -21 34 -22
34 -12 1z"/>
<path d="M4473 3247 c-7 -8 -13 -30 -13 -50 0 -42 -31 -50 -48 -12 -12 26 4
-91 21 -150 7 -25 -2 -35 -32 -35 -32 0 -41 -13 -41 -60 0 -33 -9 -60 -20 -60
-11 0 -20 -48 -20 -107 0 -59 -6 -162 -13 -229 l-12 -122 -73 -6 -72 -6 -10
-128 c-13 -164 -54 -188 -66 -38 -5 58 -7 -152 -4 -468 4 -547 -2 -616 -53
-616 -8 0 -17 25 -21 55 -9 83 -84 77 -92 -7 l-6 -63 156 -10 c86 -6 159 -2
163 7 13 35 86 19 79 -17 -8 -43 -277 -62 -349 -24 -23 13 -55 19 -70 13 -18
-8 -12 -16 18 -25 25 -8 45 -20 45 -28 0 -7 103 -13 228 -12 131 0 223 -7 217
-17 -6 -10 0 -11 14 -3 16 10 21 40 14 84 l-10 67 201 0 202 0 -14 145 c-12
131 -10 141 17 105 37 -49 70 -14 56 59 -5 25 1 52 13 60 12 7 23 4 25 -8 2
-22 9 -51 17 -76 3 -8 4 -22 2 -30 -1 -8 8 -15 20 -15 13 0 18 -18 12 -40 -7
-28 0 -40 23 -41 24 -1 21 -8 -12 -24 -38 -18 -51 -15 -75 17 -29 37 -30 37
-19 -2 9 -30 4 -27 -20 10 -30 49 -31 48 -26 -50 l5 -100 90 0 c83 0 90 -4 96
-55 4 -30 15 -55 26 -55 31 0 56 87 34 115 -11 13 -32 175 -46 360 -27 344
-36 392 -84 447 -30 36 -48 130 -103 567 -29 228 -33 308 -16 338 18 29 17 40
-2 47 -14 5 -26 33 -27 63 -2 43 -7 36 -32 -37 -30 -91 -25 -1050 7 -1315 13
-110 -23 -156 -39 -50 -4 30 -9 -15 -11 -100 -3 -151 -4 -155 -53 -155 -33 0
-50 -11 -50 -33 0 -19 -6 -28 -13 -21 -19 19 -23 314 -4 314 9 0 19 -47 20
-105 3 -93 5 -96 12 -26 11 111 -14 236 -36 181 -9 -23 -17 136 -18 362 0 221
-7 408 -15 415 -7 8 -11 59 -8 113 3 55 -2 100 -12 100 -9 0 -13 50 -9 111 4
71 -4 134 -24 176 -22 46 -28 101 -21 189 10 123 7 137 -19 111z m-53 -1100
c0 -395 1 -409 38 -398 44 14 79 -26 43 -48 -26 -17 -27 -40 -1 -71 34 -42 47
-330 15 -330 -39 0 -66 280 -29 304 18 12 18 15 -1 16 -14 0 -25 23 -25 50 0
28 -10 50 -21 50 -15 0 -18 -47 -11 -140 6 -77 2 -140 -7 -140 -62 0 -112 906
-55 964 15 14 26 59 25 99 -1 41 5 70 13 64 9 -5 16 -194 16 -420z m-174 -132
c-4 -8 7 -15 25 -15 25 0 28 -7 13 -25 -14 -17 -19 -140 -15 -340 5 -295 -5
-365 -39 -280 -18 44 -28 686 -13 885 l11 150 13 -180 c8 -99 10 -187 5 -195z
m132 -760 c1 -64 -6 -95 -23 -95 -17 0 -25 35 -26 105 0 58 -3 186 -6 285 -10
329 2 364 28 80 14 -154 26 -323 27 -375z"/>
<path d="M2360 3175 c1 -55 38 -124 41 -75 1 17 6 50 10 75 6 30 -1 45 -21 45
-18 0 -30 -18 -30 -45z"/>
<path d="M2182 3062 c-35 -23 -47 -265 -14 -287 15 -10 14 -14 -3 -15 -14 0
-25 -25 -25 -58 0 -61 -62 -95 -128 -70 -28 11 -32 -15 -32 -200 0 -147 7
-212 23 -212 18 0 20 -136 10 -539 -13 -512 -12 -540 24 -565 48 -33 53 -56
20 -81 -20 -14 -17 -16 10 -7 20 7 47 12 60 12 13 0 11 8 -6 19 -17 10 -23 26
-14 34 19 20 55 -34 39 -59 -6 -10 6 -13 28 -6 24 8 54 -3 82 -29 59 -55 57
-59 -35 -59 -60 0 -77 7 -69 28 6 15 1 34 -11 41 -11 7 -21 6 -21 -3 0 -14
-767 -28 -1755 -32 -201 -1 -365 -9 -365 -18 0 -9 11 -16 25 -16 17 -1 15 -7
-5 -20 -21 -14 2 -19 80 -17 92 1 100 4 50 17 -52 13 -46 15 40 16 125 1 175
-16 151 -54 -9 -15 -31 -22 -49 -16 -18 7 -32 3 -32 -9 0 -13 -18 -16 -45 -8
-112 33 -229 25 -172 -11 21 -14 19 -17 -8 -18 -19 0 -35 -10 -35 -22 0 -25
296 -8 403 23 32 9 137 14 233 10 96 -4 210 1 254 10 70 14 182 22 320 20 97
-1 119 2 139 18 12 10 60 10 107 2 66 -12 93 -9 117 15 42 42 248 51 283 12
25 -27 -94 -43 -225 -28 -33 3 -35 -1 -14 -26 15 -19 17 -35 6 -42 -11 -7 -24
-1 -30 13 -8 20 -10 20 -11 0 -1 -14 -15 -25 -32 -25 -16 0 -30 -8 -30 -18 0
-25 83 -3 125 34 19 17 35 22 35 12 0 -10 8 -6 17 8 13 20 26 20 69 -2 31 -16
97 -25 157 -22 70 3 95 -1 76 -13 -33 -21 -40 -19 131 -25 68 -3 98 -12 95
-29 -3 -15 16 -25 47 -25 62 0 189 -56 222 -99 20 -26 22 -23 12 19 -12 49
-12 49 29 13 36 -31 72 -46 130 -51 8 -1 15 -11 15 -22 0 -12 -18 -12 -51 0
-69 27 -78 25 -51 -8 25 -30 -98 -72 -212 -72 -44 -1 -50 -5 -26 -21 27 -18
27 -20 0 -17 -67 7 -142 -3 -133 -18 6 -8 -31 -17 -80 -19 -74 -4 -89 1 -80
26 10 23 1 27 -43 16 -73 -17 -81 -27 -23 -27 43 0 40 -6 -30 -53 -47 -32 -82
-45 -86 -32 -8 25 -125 -8 -125 -35 0 -19 -52 -14 -73 6 -7 8 -56 14 -108 14
-84 0 -95 5 -103 48 -7 35 -2 46 22 41 18 -3 37 -7 42 -8 6 -1 -3 -10 -20 -21
-26 -17 -26 -19 3 -20 34 0 63 47 42 68 -6 7 -27 12 -46 12 -19 0 -40 14 -46
30 -7 17 -28 30 -47 30 -31 -1 -32 -4 -6 -22 24 -17 19 -19 -20 -10 -27 6 -57
12 -65 12 -8 0 -15 9 -15 20 0 24 193 27 208 3 6 -9 40 -14 76 -10 60 5 61 4
16 -11 -42 -15 -44 -18 -10 -20 29 -2 33 -7 14 -19 -33 -21 177 -60 228 -42
28 9 20 16 -33 26 -91 19 -41 54 54 39 55 -9 67 -5 67 24 0 29 -5 31 -30 10
-25 -20 -30 -19 -30 8 0 23 18 32 62 32 43 0 59 -8 52 -26 -7 -18 8 -25 48
-22 38 3 58 -6 58 -24 0 -18 20 -27 55 -26 30 0 43 6 29 12 -20 7 -20 16 -2
38 19 23 8 28 -70 28 -84 0 -138 38 -57 41 26 1 23 6 -12 20 -26 11 -56 13
-68 6 -12 -8 -15 -4 -7 10 8 13 2 23 -14 23 -43 0 -83 53 -50 67 14 5 2 9 -28
7 -37 -2 -48 -9 -35 -25 10 -13 12 -29 4 -38 -8 -8 -5 -11 8 -8 13 4 23 -1 23
-11 0 -10 11 -24 25 -32 13 -9 -12 -19 -59 -23 -57 -6 -82 0 -82 17 0 15 -16
27 -35 28 -26 1 -23 5 9 15 45 13 45 13 -6 37 -43 20 -50 19 -40 -5 6 -18 -1
-29 -20 -29 -17 0 -25 9 -18 19 19 31 -131 11 -153 -20 -15 -22 -22 -23 -30
-4 -6 14 -30 25 -54 26 -42 0 -42 1 -4 30 49 37 19 73 -46 56 -35 -9 -40 -17
-20 -29 20 -13 15 -17 -17 -18 -24 0 -52 -15 -62 -33 -13 -23 -38 -30 -91 -24
-87 11 -71 -13 21 -30 36 -6 66 -3 70 9 4 13 30 15 67 6 56 -14 54 -16 -51
-41 -135 -31 -166 -33 -150 -7 7 11 3 20 -9 20 -57 0 24 -110 91 -123 51 -10
46 -46 -7 -53 -25 -4 -45 -19 -45 -33 0 -15 -13 -32 -28 -37 -20 -8 -27 4 -24
45 l4 56 -65 -42 c-63 -42 -63 -44 -26 -78 44 -41 60 -44 52 -10 -4 14 -3 18
2 10 12 -21 85 -19 85 3 0 9 35 26 78 37 69 17 78 16 69 -13 -9 -28 -7 -28 16
-2 16 18 51 27 85 23 44 -5 52 -11 30 -24 -23 -15 -22 -18 7 -19 19 0 35 -8
35 -17 0 -10 -22 -13 -50 -8 -27 5 -45 18 -39 27 6 10 2 18 -10 18 -11 0 -21
-8 -21 -18 0 -10 -26 -14 -58 -9 -32 5 -64 -1 -71 -12 -8 -12 -41 -21 -75 -21
-54 0 -58 -4 -34 -32 17 -21 29 -24 34 -10 4 12 18 16 30 8 12 -7 52 -12 88
-9 68 4 90 -24 35 -45 -21 -8 -26 -4 -16 13 12 20 8 20 -16 0 -17 -13 -37 -19
-44 -11 -7 7 -13 2 -13 -11 0 -18 -10 -19 -39 -3 -22 11 -46 19 -55 18 -51 -9
-94 4 -69 20 21 13 21 18 -3 28 -16 6 -40 0 -53 -13 -18 -18 -22 -16 -17 7 7
34 -67 43 -77 10 -13 -42 30 -73 107 -77 45 -2 94 -18 114 -38 19 -19 59 -36
88 -38 30 -1 72 -4 94 -6 22 -2 61 -6 86 -8 31 -2 42 -11 32 -28 -11 -20 -8
-20 13 0 31 29 79 33 79 7 0 -31 -105 -47 -123 -18 -13 21 -16 21 -17 -1 0
-23 -6 -23 -30 -3 -21 17 -30 18 -30 2 0 -12 -29 -23 -65 -24 -157 -5 -160
-34 -4 -36 143 -2 334 34 399 75 30 18 139 21 150 3 6 -8 42 -21 80 -27 l70
-13 -70 29 c-55 22 -60 28 -26 29 24 1 50 12 58 25 10 16 1 20 -29 12 -59 -15
-54 10 7 38 28 13 45 16 40 6 -6 -9 16 -9 48 0 32 10 66 11 75 4 10 -7 9 -4 0
7 -19 23 -25 24 -131 28 -69 2 -77 7 -75 51 3 46 6 47 47 20 51 -33 94 -38 76
-9 -7 12 -23 14 -36 6 -13 -7 -11 2 4 21 16 19 39 31 52 26 43 -17 85 24 50
47 -26 17 -25 19 5 20 19 0 35 -13 35 -29 0 -19 13 -26 35 -19 19 6 1 -10 -40
-36 -94 -58 -94 -76 0 -76 41 0 111 -5 155 -12 65 -9 73 -6 44 12 -63 40 -4
85 92 69 56 -9 75 -7 65 9 -7 12 -32 22 -54 22 -29 0 -38 9 -29 32 7 17 12 35
12 40 0 4 11 8 23 8 13 0 18 -6 11 -13 -24 -23 29 -67 81 -67 48 0 48 2 18 48
-28 43 -28 49 -1 60 45 17 48 15 35 -18 -14 -38 7 -39 45 -1 22 22 42 25 79
11 28 -11 49 -11 49 -1 0 10 27 24 60 31 33 7 65 21 71 32 16 26 -126 22 -177
-5 -39 -21 -41 -20 -18 8 14 17 59 36 100 41 238 34 278 43 316 67 22 15 48
21 56 13 8 -8 21 -3 30 11 10 16 35 21 69 12 57 -14 73 -49 23 -49 -16 0 -30
-10 -30 -21 0 -12 9 -16 20 -9 11 7 15 0 9 -14 -5 -15 -30 -36 -54 -47 -25
-11 -42 -32 -39 -47 3 -16 -6 -23 -22 -16 -15 5 -38 -8 -52 -30 -21 -34 -38
-38 -106 -28 -75 12 -80 10 -70 -28 9 -34 4 -39 -30 -29 -34 11 -38 6 -27 -29
12 -35 5 -42 -39 -42 -29 0 -48 -8 -42 -17 6 -9 -13 -28 -41 -41 -29 -13 -48
-28 -43 -33 17 -17 145 38 176 76 20 24 43 33 66 24 28 -11 30 -20 12 -42 -28
-33 -26 -35 52 -63 34 -12 45 -22 25 -22 -19 -1 -35 -11 -35 -21 0 -11 11 -16
25 -12 88 27 164 29 131 5 -30 -24 -30 -28 10 -53 39 -24 41 -24 19 3 -43 51
67 58 189 13 58 -22 114 -34 124 -28 11 6 24 3 31 -7 6 -11 -4 -23 -24 -28
-19 -4 138 -10 349 -11 211 -2 388 4 393 12 6 9 -113 16 -263 15 -312 -3 -364
4 -364 42 0 16 -9 29 -20 31 -11 1 -30 3 -42 5 -11 1 -33 18 -47 37 -14 19
-47 36 -73 36 -45 2 -45 3 -8 19 41 18 23 26 -55 25 -24 0 -30 7 -17 23 13 15
4 23 -30 25 -26 1 -44 -3 -39 -11 4 -7 -9 -13 -29 -13 -29 0 -33 6 -16 25 11
14 13 26 3 26 -9 0 -3 9 13 20 20 13 22 19 5 20 -14 0 -25 9 -25 21 0 14 12
14 39 0 49 -26 81 -27 81 -1 0 11 -13 20 -30 20 -79 0 15 87 114 106 41 8 40
9 -8 11 -51 3 -103 43 -56 43 38 0 84 55 55 65 -14 5 -36 -6 -49 -23 -23 -29
-25 -29 -25 0 -1 17 22 42 50 55 28 13 47 16 42 7 -6 -8 6 -17 25 -18 19 -2
35 8 35 21 0 14 -26 27 -58 29 -88 7 -147 73 -80 90 19 5 8 10 -25 11 -110 3
-139 9 -168 39 -20 20 -56 25 -117 18 -50 -5 -81 -2 -71 8 9 9 64 19 121 21
57 2 100 9 96 16 -5 7 23 9 61 5 56 -7 66 -3 56 23 -10 28 68 31 745 31 416 1
1034 1 1372 1 l615 1 0 88 c0 52 -10 93 -25 99 -19 8 -19 14 2 29 35 24 10
111 -27 97 -16 -6 -24 3 -21 23 3 20 22 33 43 30 37 -3 37 -2 2 24 -36 26 -36
27 0 48 34 20 34 21 -4 22 -35 1 -36 5 -10 26 23 18 30 71 30 229 l0 205 -127
0 -127 0 12 -205 c7 -113 18 -275 25 -360 l11 -155 60 0 c72 0 132 -52 99 -85
-17 -17 -23 -17 -23 1 0 16 -40 24 -120 24 -93 0 -120 7 -120 30 0 17 14 30
30 30 35 0 40 62 8 94 -13 13 -19 89 -15 194 l7 174 -60 -6 -60 -6 -3 -190
c-3 -236 -3 -236 -27 -200 -11 17 -20 75 -20 130 -1 55 -9 133 -18 173 -13 58
-11 72 9 64 27 -11 70 51 68 97 -1 14 -11 6 -23 -19 -17 -35 -39 -45 -99 -45
-42 0 -77 -9 -77 -20 0 -11 15 -20 32 -20 27 0 28 -5 8 -30 -14 -17 -28 -96
-31 -175 -5 -127 -4 -134 11 -55 16 87 17 85 12 -35 -3 -77 4 -126 17 -127 11
-2 64 -1 116 0 74 3 95 -3 95 -27 0 -22 -21 -31 -75 -32 -82 -2 -187 -35 -119
-38 20 0 31 -10 25 -20 -22 -35 -71 3 -73 56 -2 31 -6 39 -12 19 -9 -36 -371
-63 -418 -31 -13 9 -34 2 -48 -15 -31 -38 -100 -39 -100 -2 0 37 -112 52 -155
21 -23 -17 -49 -19 -82 -6 -42 16 -47 13 -38 -21 7 -27 2 -36 -17 -28 -16 5
-28 23 -28 38 0 33 -18 35 -60 8 -25 -16 -23 -20 10 -21 144 -6 -89 -39 -258
-37 -315 4 -889 19 -1032 26 -123 7 -124 7 -20 -5 167 -20 57 -40 -229 -42
-149 -1 -244 -10 -253 -24 -9 -15 -16 -14 -21 2 -6 17 -64 24 -183 23 -101 -1
-174 7 -174 18 0 11 58 20 130 20 117 0 130 4 130 40 0 37 -13 40 -188 40
-104 0 -203 5 -219 12 -27 10 -31 103 -30 745 0 404 8 711 17 683 12 -38 17
-19 22 80 l5 130 13 -150 c12 -144 13 -140 16 83 4 243 28 314 84 247 19 -23
22 -136 12 -495 -31 -1079 -32 -1215 -12 -1215 12 0 21 117 23 305 2 168 4
379 5 470 1 91 10 165 19 165 10 0 7 14 -7 30 -14 17 -17 30 -7 30 9 0 17 135
17 300 0 186 8 300 20 300 13 0 13 6 -1 15 -11 8 -19 60 -19 115 2 123 -58
169 -148 112z m3686 -1527 c15 -9 12 -14 -7 -15 -24 0 -23 -4 3 -25 55 -44 63
-155 12 -155 -34 0 -39 5 -20 24 41 41 31 121 -14 107 -35 -12 -38 -1 -38 133
l1 146 20 -100 c12 -55 31 -107 43 -115z m-5193 -610 c-41 -4 -109 -4 -150 0
-41 5 -7 8 75 8 83 0 116 -3 75 -8z m1948 -57 c30 2 50 -4 44 -12 -5 -9 23
-16 63 -16 43 0 67 -8 60 -20 -7 -11 6 -20 29 -20 22 0 39 10 36 23 -3 12 9
27 25 32 17 6 23 3 15 -5 -8 -9 1 -28 20 -42 33 -25 33 -27 -1 -27 -20 -1 -32
-9 -26 -18 6 -10 -13 -13 -42 -7 -41 8 -48 4 -35 -18 14 -23 11 -24 -16 -2
-18 15 -60 27 -94 28 -33 1 -61 10 -61 20 0 10 9 13 20 6 11 -7 20 -3 20 9 0
11 -20 17 -45 12 -25 -4 -58 -9 -75 -11 -18 -1 -12 -10 16 -21 29 -11 41 -28
32 -42 -10 -16 -4 -20 19 -11 18 7 33 4 33 -7 0 -35 -52 -20 -99 30 -25 27
-58 43 -74 37 -19 -7 -33 4 -40 30 -6 23 -30 46 -54 51 -37 8 -36 10 7 9 88
-1 103 4 89 26 -8 12 7 9 34 -8 26 -16 71 -28 100 -26z m365 28 c-6 -9 -62
-15 -124 -14 -86 2 -99 6 -54 15 88 19 190 18 178 -1z m-2468 -16 c0 -11 -38
-19 -85 -18 -72 2 -77 4 -35 18 72 23 120 23 120 0z m458 11 c-14 -14 -418
-17 -432 -4 -7 7 89 13 214 13 125 0 223 -4 218 -9z m657 -264 c25 -6 45 -23
45 -37 0 -35 53 -53 112 -38 27 7 48 4 48 -8 0 -25 -87 -48 -127 -32 -17 6
-101 22 -187 36 l-156 24 90 32 c109 37 118 39 175 23z m-362 -92 c0 -14 -25
-26 -56 -27 -58 -2 -77 21 -32 39 47 19 88 13 88 -12z m996 -193 c-10 -9 -55
-23 -99 -31 -75 -13 -77 -12 -40 17 42 32 173 46 139 14z m-696 -52 c0 -20
-18 -29 -51 -28 -43 2 -45 5 -12 13 40 10 40 10 0 26 -36 14 -34 16 12 18 33
0 51 -10 51 -29z m118 -19 c37 -29 37 -30 -14 -30 -29 -1 -58 13 -64 29 -15
38 28 39 78 1z m5 -75 c19 -19 24 -19 24 0 0 13 16 23 35 22 24 -1 27 -4 8
-12 -23 -9 -23 -14 0 -28 18 -12 4 -18 -43 -18 -38 0 -92 -5 -120 -10 -40 -8
-38 -6 9 13 54 21 56 25 20 39 -38 15 -38 15 2 17 23 0 52 -10 65 -23z"/>
<path d="M2472 833 c6 -17 29 -23 59 -18 60 12 44 45 -22 45 -32 0 -44 -9 -37
-27z"/>
<path d="M2367 3001 c1 -34 9 -61 16 -61 8 0 19 -16 24 -35 5 -19 8 5 6 53 -1
49 -13 92 -26 96 -14 5 -21 -16 -20 -53z"/>
<path d="M4863 2960 c2 -55 12 -100 21 -100 10 0 16 -11 15 -25 -8 -55 2 -95
22 -95 14 0 20 49 16 135 -3 74 0 144 7 156 8 12 -8 22 -36 25 -48 4 -50 -1
-45 -96z"/>
<path d="M5015 3015 c-8 -24 21 -94 48 -115 11 -9 26 -277 38 -680 2 -60 8
-94 13 -75 5 19 17 35 26 35 23 0 49 79 43 130 -4 33 -1 35 16 10 17 -25 20
-23 21 13 0 60 43 88 138 92 45 2 82 12 82 22 0 10 15 6 33 -10 26 -21 35 -21
42 -2 10 31 98 33 117 2 10 -17 20 -15 36 5 12 15 38 28 57 28 19 0 33 9 30
20 -5 22 -10 22 -357 2 -280 -15 -291 -8 -259 165 0 5 13 -2 28 -15 27 -22 92
-10 114 20 21 32 139 40 139 11 0 -33 111 -55 167 -34 34 12 33 17 -15 48 -45
29 -52 30 -52 3 0 -37 -10 -38 -66 -1 -24 16 -80 32 -124 35 -74 6 -120 36
-129 86 -2 11 -18 36 -36 55 -17 19 -22 35 -10 35 14 0 14 16 -2 50 -27 59
-44 62 -71 15 -18 -30 -21 -27 -21 20 -1 56 -31 75 -46 30z"/>
<path d="M3349 2945 c-34 -82 -36 -1825 -2 -1825 30 0 42 -23 35 -65 -1 -8 30
-15 68 -15 39 0 70 9 70 19 0 11 -12 15 -27 9 -15 -6 -32 2 -38 16 -8 20 19
26 112 23 159 -4 153 -3 141 -34 -7 -19 14 -27 81 -30 54 -2 91 6 91 18 0 12
-28 19 -64 15 -49 -4 -67 3 -72 29 -5 24 6 35 35 35 39 0 42 10 37 155 -2 85
1 259 7 385 6 127 8 179 3 117 -6 -89 -16 -115 -45 -123 -21 -5 -42 -31 -47
-57 -5 -26 -11 164 -14 423 -3 266 -11 444 -20 410 -14 -54 -16 -50 -18 35 -1
64 6 95 23 95 17 1 15 7 -5 20 -65 42 -220 24 -218 -25 2 -34 5 -36 12 -10 5
21 28 35 57 35 33 0 49 -11 49 -35 1 -30 3 -31 20 -5 14 22 19 7 20 -55 0
-102 -4 -117 -30 -110 -11 3 -5 -6 13 -20 29 -23 34 -91 43 -496 6 -258 15
-525 21 -594 10 -122 9 -125 -39 -125 -37 0 -48 11 -48 46 0 25 -11 57 -24 70
-15 15 -16 24 -3 24 14 0 20 46 16 125 -3 69 -6 145 -7 170 -1 25 -11 45 -22
45 -12 0 -20 -96 -20 -247 0 -243 -1 -246 -45 -243 l-45 3 -2 464 c-2 256 -8
470 -15 476 -6 7 -4 27 6 45 27 50 26 66 -2 85 -17 11 -20 22 -7 32 23 17 25
65 4 98 -8 13 -3 28 11 34 20 8 19 14 -2 29 -14 10 -26 25 -26 34 0 9 12 24
26 34 22 15 22 21 1 29 -20 8 -20 17 -3 39 13 15 18 41 12 58 -9 23 3 30 49
30 33 0 55 8 49 19 -7 10 -31 15 -53 11 -38 -8 -41 0 -35 81 7 88 -42 134 -69
64 -6 -14 -7 13 -3 60 7 89 -17 129 -42 70z"/>
<path d="M1352 2834 c-6 -57 -22 -243 -35 -412 -19 -252 -30 -315 -60 -345
-36 -36 -37 -34 -37 52 0 49 -10 95 -21 102 -12 7 -17 26 -11 41 6 16 -2 28
-19 28 -16 0 -29 -13 -29 -30 0 -16 7 -30 15 -30 8 0 15 -166 15 -370 0 -203
-7 -370 -15 -370 -8 0 -15 -71 -15 -157 l0 -157 55 9 c86 15 150 14 209 -3
l54 -16 0 192 c0 160 -4 188 -27 167 -14 -14 -21 -29 -14 -35 12 -9 15 -71 6
-137 -2 -16 -16 -22 -33 -16 -21 8 -30 -2 -31 -33 -2 -42 -3 -42 -18 -4 -23
56 15 771 50 953 5 26 13 124 19 217 14 221 27 280 61 280 15 0 24 -11 19 -25
-4 -14 -13 -149 -18 -301 -6 -152 -16 -284 -22 -294 -6 -9 -3 -22 7 -28 20
-13 42 191 44 418 1 88 10 178 20 200 12 26 14 -17 7 -120 -15 -200 -40 -1404
-32 -1465 4 -26 21 -45 40 -45 26 -1 28 -5 8 -17 -14 -9 -64 -11 -112 -3 -47
7 -103 7 -123 0 -62 -22 59 -44 226 -42 98 2 145 -5 145 -21 0 -30 30 -1 31
30 0 13 -9 30 -20 38 -14 10 -10 22 9 35 20 13 22 19 5 20 -19 0 -25 113 -25
498 0 380 -6 501 -25 509 -15 6 -11 10 10 11 30 2 34 23 33 163 -2 135 -7 160
-32 150 -16 -6 -34 -11 -39 -11 -5 0 -4 -9 4 -21 7 -11 -3 -44 -21 -72 -22
-34 -31 -81 -27 -138 6 -72 3 -83 -19 -62 -24 25 -19 138 19 433 9 65 -29 200
-56 200 -15 0 -27 16 -27 36 0 22 -28 50 -69 69 l-68 33 -11 -104z"/>
<path d="M2223 2839 c-1 -43 6 -79 17 -79 24 0 27 133 3 148 -9 6 -18 -25 -20
-69z"/>
<path d="M2407 2620 c0 -104 4 -147 8 -95 4 52 4 138 0 190 -4 52 -8 10 -8
-95z"/>
<path d="M5840 2742 c0 -12 -20 -22 -45 -22 -68 -1 -135 -22 -135 -44 0 -11
33 -15 75 -8 41 6 118 11 170 11 71 1 95 9 95 31 0 18 -19 30 -48 30 -27 0
-63 5 -80 12 -18 7 -32 2 -32 -10z"/>
<path d="M2779 2621 c-155 -47 -196 -174 -87 -274 l51 -48 -6 -590 c-4 -324
-1 -589 7 -589 8 0 10 -13 4 -29 -9 -23 12 -29 109 -28 l121 0 12 84 c7 45 9
178 5 293 l-7 210 -4 -249 c-3 -180 -10 -243 -26 -227 -14 14 -25 245 -31 689
-5 388 -16 674 -28 686 -10 10 -19 35 -19 55 0 38 -20 42 -101 17z m15 -386
c-4 -36 -8 -11 -8 55 0 66 4 95 8 65 5 -30 5 -84 0 -120z"/>
<path d="M3520 2472 c0 -68 9 -112 25 -119 20 -8 20 -10 0 -11 -14 -1 -25 -24
-25 -52 0 -27 11 -50 25 -50 17 -1 18 -6 4 -15 -33 -23 -27 -445 5 -445 20 0
26 89 26 400 0 342 -4 400 -30 400 -23 0 -30 -25 -30 -108z"/>
<path d="M3862 2522 c-43 -62 -77 -231 -35 -173 43 59 75 -89 56 -264 -8 -80
-10 -145 -4 -145 6 0 12 -65 12 -145 4 -339 10 -461 22 -449 7 7 12 139 12
293 -1 254 20 368 40 226 5 -30 8 46 6 170 -1 169 5 225 24 225 14 0 25 23 25
50 0 57 -32 67 -48 15 -5 -19 -7 13 -2 72 10 138 22 147 53 40 23 -78 26 -81
32 -33 17 128 -125 215 -193 118z m98 -442 c0 -44 -8 -80 -17 -80 -10 0 -17
36 -16 80 1 44 9 80 18 80 8 0 15 -36 15 -80z"/>
<path d="M5800 2498 c0 -43 63 -63 116 -37 30 14 61 24 69 22 8 -1 15 6 15 17
0 11 -13 20 -30 20 -16 0 -30 -9 -30 -20 0 -11 -14 -20 -31 -20 -17 0 -26 9
-19 20 7 11 -9 18 -39 16 -28 -3 -51 -11 -51 -18z"/>
<path d="M2160 1801 c0 -329 7 -603 16 -609 9 -5 18 264 20 599 3 399 -3 609
-16 609 -13 0 -20 -209 -20 -599z"/>
<path d="M1020 2270 c0 -16 -7 -30 -17 -30 -20 0 -16 59 -34 -580 -16 -581
-22 -624 -75 -571 -27 27 -29 42 -12 75 16 30 16 37 0 27 -29 -18 -28 15 1 44
41 41 3 90 -60 76 -42 -9 -61 -5 -69 17 -14 36 36 50 111 30 55 -15 55 -14 55
83 l0 99 -127 0 -126 0 -4 -79 c-2 -55 7 -85 30 -97 50 -28 17 -58 -52 -48
-37 5 -61 0 -61 -14 0 -12 -13 -22 -29 -22 -23 0 -27 24 -20 118 10 144 -11
169 -129 150 l-82 -13 0 -163 0 -162 -104 -3 c-58 -2 -108 -13 -112 -25 -9
-28 -64 -29 -64 -2 0 11 11 20 24 20 18 0 19 5 0 24 -33 33 -39 20 -47 -94
l-7 -100 210 0 c176 0 209 5 205 30 -4 23 1 22 22 -5 17 -22 53 -35 95 -33 38
1 162 0 277 -2 124 -2 213 5 217 17 4 12 28 8 60 -9 47 -24 55 -24 60 2 8 33
44 42 44 10 0 -11 23 -20 51 -20 42 0 46 5 25 28 -14 15 -32 24 -40 20 -7 -5
-19 1 -26 13 -8 11 -32 18 -56 15 -46 -7 -68 43 -72 159 -1 37 -13 65 -27 65
-17 1 -16 6 4 19 46 29 51 136 7 147 -33 9 -33 10 -1 12 42 2 52 142 10 142
-18 1 -18 5 -3 15 36 23 49 545 15 545 -40 0 -33 76 8 86 22 6 14 10 -20 12
-37 1 -55 -8 -55 -28z m-520 -977 c0 -32 -85 -29 -96 4 -4 13 14 23 44 23 30
0 52 -11 52 -27z m-29 -134 c4 -38 2 -58 -4 -44 -16 38 -43 30 -57 -17 -8 -22
-18 -37 -23 -31 -6 5 3 35 19 66 16 31 24 69 19 85 -6 15 1 23 15 19 14 -5 28
-40 31 -78z m609 9 c0 -6 -15 -38 -34 -70 -34 -57 -86 -79 -86 -37 0 12 7 17
15 12 8 -5 27 4 41 19 16 17 17 28 4 28 -14 0 -12 11 4 29 27 30 56 40 56 19z"/>
<path d="M5039 2266 c27 -56 27 -72 -2 -54 -17 11 -19 -16 -8 -104 9 -65 23
-212 31 -328 14 -204 14 -200 15 123 1 265 -4 341 -28 370 -27 35 -28 34 -8
-7z"/>
<path d="M2684 2263 c-42 -27 -57 -1143 -15 -1143 26 0 31 38 33 245 2 135 6
396 9 580 4 184 5 335 3 335 -2 0 -16 -8 -30 -17z"/>
<path d="M1837 2247 c-36 -10 -63 -130 -33 -149 11 -7 16 -170 12 -395 -4
-211 0 -383 8 -383 9 0 16 180 16 400 0 220 7 400 15 400 8 0 13 -207 11 -460
-3 -289 2 -460 15 -460 10 0 19 17 19 38 0 21 11 43 25 49 16 6 14 10 -7 11
-22 2 -29 18 -25 57 15 139 20 784 7 806 -9 13 -26 18 -38 10 -12 -7 -22 -4
-22 8 0 11 18 21 39 21 27 0 36 10 28 30 -12 31 -14 31 -70 17z"/>
<path d="M3820 2060 c0 -59 4 -103 8 -98 15 15 20 176 6 190 -8 8 -14 -33 -14
-92z"/>
<path d="M3535 1735 c-12 -32 3 -75 27 -75 10 0 18 23 18 50 0 52 -29 68 -45
25z"/>
<path d="M1768 1420 c0 -159 3 -225 7 -145 4 80 4 210 0 290 -4 80 -7 15 -7
-145z"/>
<path d="M5170 1580 c-7 -44 -22 -85 -32 -91 -10 -7 -13 -21 -6 -33 7 -11 2
-27 -11 -36 -27 -16 -42 -220 -17 -220 8 0 10 -25 4 -55 l-11 -55 140 7 140 6
-9 64 c-5 34 -13 86 -17 113 -4 28 -10 113 -12 190 -3 109 -7 127 -19 80 -15
-57 -16 -58 -30 -15 -8 25 -23 45 -32 45 -10 0 -18 18 -18 40 0 75 -56 43 -70
-40z"/>
<path d="M1800 1169 c0 -19 23 -27 70 -25 39 1 70 13 70 25 0 13 -31 24 -70
25 -47 1 -70 -7 -70 -25z"/>
<path d="M1800 1080 c0 -11 46 -20 101 -20 63 0 97 8 89 20 -7 11 -52 20 -101
20 -49 0 -89 -9 -89 -20z"/>
<path d="M2660 1052 c31 -19 92 -30 160 -28 l110 2 -120 14 c-66 7 -138 20
-160 28 -25 9 -21 3 10 -16z"/>
<path d="M4480 860 c0 -24 0 -24 145 -27 97 -3 110 1 82 22 -41 30 -61 31 -76
6 -7 -11 -36 -11 -76 0 -79 23 -75 23 -75 -1z"/>
<path d="M3180 840 c0 -11 42 -20 93 -20 111 0 108 10 -8 27 -53 9 -85 6 -85
-7z"/>
<path d="M5550 840 c-7 -11 2 -26 19 -32 19 -8 26 -22 17 -36 -9 -13 -1 -8 17
12 18 20 45 37 60 37 15 1 9 10 -13 19 -55 24 -85 24 -100 0z"/>
<path d="M1364 820 c-100 -23 -98 -37 4 -33 50 3 102 15 116 29 28 28 -13 30
-120 4z"/>
<path d="M5268 809 c18 -18 52 -23 100 -15 110 17 101 36 -20 39 -90 3 -103
-1 -80 -24z"/>
<path d="M487 795 c-5 -8 -3 -25 4 -37 10 -16 -7 -18 -53 -10 l-68 13 60 -27
60 -28 -98 -2 c-96 -3 -184 -42 -101 -46 23 -1 12 -9 -27 -21 -36 -10 -60 -27
-54 -38 7 -10 -10 -19 -37 -19 -27 0 -53 -12 -59 -28 -7 -17 -30 -23 -62 -17
-41 8 -52 2 -52 -28 1 -31 4 -32 19 -7 15 24 24 25 44 5 14 -14 16 -25 6 -25
-10 0 -5 -10 11 -22 23 -16 19 -18 -18 -7 -32 9 -43 6 -33 -9 17 -28 85 -29
102 0 8 13 40 17 81 9 55 -10 65 -7 56 18 -7 17 -20 26 -30 20 -10 -6 -34 -2
-53 9 -31 18 -29 21 15 22 40 0 44 5 20 20 -26 17 -25 19 4 20 19 0 43 -16 54
-35 19 -32 21 -32 22 5 0 26 6 32 16 16 9 -14 26 -17 42 -7 21 13 19 21 -11
40 -35 23 -35 23 3 11 72 -24 180 -29 148 -7 -20 14 -3 17 56 13 47 -4 78 0
70 8 -9 9 -58 17 -110 19 -105 4 -167 46 -79 53 29 2 59 14 67 27 8 13 30 17
50 9 31 -12 32 -17 7 -33 -24 -16 -24 -18 5 -19 42 0 65 33 31 46 -18 7 -14
18 13 39 36 27 35 29 -20 25 -32 -3 -42 -1 -23 4 19 5 35 16 35 25 0 21 -100
17 -113 -4z"/>
<path d="M4523 780 l-68 -10 40 -49 40 -49 14 44 c14 45 54 43 43 -2 -3 -13
-2 -17 3 -9 9 16 65 21 65 7 0 -49 -30 -69 -87 -60 -59 10 -60 9 -26 -19 20
-17 49 -26 63 -20 14 5 32 0 39 -12 9 -13 -12 -21 -58 -21 -39 0 -71 10 -71
21 0 12 -14 7 -32 -10 -25 -25 -38 -27 -61 -9 -39 33 -55 10 -27 -42 29 -54
12 -74 -35 -41 -19 14 -5 -1 31 -34 44 -40 83 -57 117 -54 28 3 64 1 79 -5 32
-12 38 -66 8 -66 -11 0 -20 -11 -20 -23 0 -13 5 -19 11 -13 6 6 42 4 80 -4 38
-9 74 -8 80 2 6 10 -12 18 -40 18 -28 0 -51 9 -51 20 0 12 21 15 51 8 37 -9
49 -5 45 15 -6 28 18 28 162 5 57 -9 65 -6 55 22 -7 18 -13 37 -13 42 0 4 -10
8 -21 8 -12 0 -16 -9 -9 -20 7 -12 -18 -19 -64 -18 -42 2 -58 7 -36 12 22 6
49 19 60 30 14 14 4 16 -28 6 -41 -12 -46 -9 -35 23 11 30 6 28 -25 -8 -40
-47 -75 -62 -50 -22 9 14 5 18 -9 9 -13 -8 -23 -27 -23 -43 0 -34 -52 -39 -71
-7 -8 12 -2 30 13 40 22 14 22 17 2 18 -15 0 -21 9 -14 20 7 11 -1 15 -18 8
-17 -7 -29 -22 -26 -35 2 -13 -9 -19 -26 -15 -16 4 -55 6 -85 5 -30 -2 -55 6
-55 18 0 12 9 16 20 9 11 -7 20 -3 20 9 0 12 -13 27 -30 34 -43 16 -37 38 10
42 23 1 36 -5 30 -15 -10 -16 4 -16 80 0 11 3 25 3 30 1 39 -16 91 -16 100 -1
6 10 31 13 55 7 25 -6 40 -19 35 -27 -21 -34 73 7 97 42 16 23 43 34 70 29 23
-5 43 0 43 10 0 11 20 19 43 19 60 0 30 25 -33 28 -27 1 -48 11 -45 22 3 10
22 17 42 13 21 -3 32 2 26 12 -6 10 1 18 17 18 16 0 25 -6 20 -13 -12 -19 113
-20 160 -1 22 9 63 25 90 36 45 18 41 20 -36 19 -64 -2 -83 -9 -75 -30 7 -16
1 -24 -14 -18 -14 5 -23 20 -20 33 4 14 -4 18 -18 9 -42 -26 -238 -27 -224 -1
7 13 1 12 -15 -3 -17 -16 -20 -31 -8 -40 38 -27 31 -79 -12 -90 -23 -6 -36
-21 -29 -33 8 -13 -6 -19 -36 -17 -28 3 -46 11 -42 18 9 14 -67 45 -97 40 -10
-2 -12 5 -5 16 6 10 0 22 -13 27 -17 5 -18 12 -2 22 13 7 36 0 53 -17 17 -16
40 -30 52 -30 11 0 21 -9 21 -20 0 -11 9 -20 20 -20 11 0 20 14 20 30 0 17
-12 30 -26 30 -15 0 -44 13 -65 29 -37 28 -37 29 11 26 28 -2 56 -11 63 -22 7
-10 23 1 36 24 12 24 15 44 7 44 -9 1 2 10 24 19 35 15 33 17 -14 14 -29 -1
-48 -11 -41 -22 7 -11 -3 -13 -27 -3 -54 23 -148 28 -148 8 0 -21 -54 -23 -63
-2 -4 9 -37 11 -74 5z"/>
<path d="M4340 739 c-25 -17 -24 -20 8 -15 21 3 42 -5 46 -18 9 -25 -67 -25
-108 0 -15 9 -19 0 -12 -26 6 -22 19 -35 28 -29 10 6 18 1 18 -12 0 -17 10
-16 33 4 26 21 35 21 42 2 14 -41 43 -28 35 16 -4 22 1 35 11 28 10 -6 19 -2
19 9 0 43 -78 70 -120 41z"/>
<path d="M3632 725 c-7 -6 -12 -28 -12 -48 0 -20 -14 -37 -31 -37 -50 0 -191
-80 -179 -101 7 -10 17 -19 22 -19 6 0 5 9 -2 19 -6 11 38 34 99 52 61 17 111
41 111 53 0 12 15 32 33 46 29 21 29 25 2 35 -17 7 -36 7 -43 0z"/>
<path d="M5611 722 c-14 -23 83 -54 104 -34 7 7 35 -9 64 -36 47 -46 54 -47
91 -18 31 24 32 29 6 20 -19 -7 -40 -3 -47 7 -7 11 -5 19 5 17 44 -8 64 5 53
34 -7 17 -18 23 -25 12 -19 -32 -93 -36 -127 -8 -22 18 -35 19 -45 4 -10 -16
-21 -16 -40 0 -18 15 -31 15 -39 2z"/>
<path d="M3764 692 c15 -16 38 -22 56 -13 17 9 44 21 60 27 17 6 -9 12 -56 12
-72 2 -82 -2 -60 -26z"/>
<path d="M5318 694 c-2 -13 -2 -31 0 -39 1 -8 -25 -15 -58 -15 -33 0 -60 -9
-60 -20 0 -11 -17 -20 -38 -20 -21 0 -42 -11 -47 -24 -5 -15 -41 -23 -96 -20
-65 3 -81 -1 -59 -15 23 -16 15 -20 -36 -21 -37 0 -62 -7 -57 -16 15 -24 133
-27 133 -3 0 13 17 16 41 9 26 -9 55 -2 76 17 43 39 228 67 333 51 72 -11 47
-28 -33 -22 -18 2 -44 -10 -57 -27 -18 -20 -18 -29 -2 -29 12 0 22 11 22 24 0
17 6 18 21 3 28 -28 179 12 179 47 0 30 -86 56 -130 39 -48 -19 -35 6 15 28
35 15 26 17 -45 10 l-90 -9 100 26 c95 24 97 26 40 37 -98 18 -150 14 -152
-11z"/>
<path d="M2212 677 c10 -16 -1 -19 -34 -11 -27 7 -62 4 -78 -7 -34 -21 -20
-24 85 -19 52 2 79 -7 87 -28 8 -22 38 -32 91 -32 48 0 74 8 67 20 -7 11 -32
20 -56 20 -24 1 -66 18 -94 40 -56 44 -90 52 -68 17z"/>
<path d="M829 622 c-10 -10 -37 -22 -59 -28 -22 -5 -3 -10 43 -12 57 -1 86 7
94 28 13 34 -46 43 -78 12z"/>
<path d="M4160 572 c0 -17 -13 -32 -30 -32 -16 0 -30 -9 -30 -20 0 -11 -25
-20 -56 -20 -31 0 -72 -12 -92 -26 -29 -21 -10 -22 109 -6 80 11 134 24 122
28 -34 11 -28 40 10 48 31 6 31 8 0 33 -28 24 -33 23 -33 -5z"/>
<path d="M3854 553 c-12 -31 23 -53 88 -53 52 0 48 31 -5 35 -24 2 -50 13 -57
26 -10 15 -18 13 -26 -8z"/>
<path d="M560 540 c23 -15 17 -19 -28 -20 -84 0 -52 -20 37 -24 41 -1 81 7 88
18 7 11 27 25 43 31 24 10 24 12 -4 13 -18 1 -39 -7 -46 -18 -7 -11 -21 -20
-32 -20 -11 0 -15 9 -8 20 7 11 -8 20 -34 20 -37 -1 -40 -4 -16 -20z"/>
<path d="M2340 540 c0 -11 27 -17 60 -13 89 10 98 33 13 33 -40 0 -73 -9 -73
-20z"/>
<path d="M5189 518 c-14 -23 38 -32 91 -17 28 8 46 17 40 20 -26 11 -124 9
-131 -3z"/>
<path d="M687 489 c-7 -17 -25 -26 -41 -20 -15 6 -23 2 -16 -9 17 -28 150 -25
150 2 0 14 -18 18 -45 11 -43 -11 -44 -10 -6 18 34 26 35 29 4 29 -19 0 -40
-14 -46 -31z"/>
<path d="M895 506 c25 -5 45 -18 45 -28 0 -13 12 -13 33 -2 18 10 51 14 73 8
27 -7 36 -3 26 13 -8 13 -58 22 -118 20 -57 -1 -84 -6 -59 -11z"/>
<path d="M3455 488 c-7 -7 -7 -24 -2 -39 9 -23 16 -23 42 3 16 17 43 25 59 19
15 -6 23 -2 16 9 -13 22 -96 27 -115 8z"/>
<path d="M5240 450 c-14 -16 -40 -30 -57 -30 -28 -1 -29 -3 -4 -19 16 -10 35
-15 43 -10 7 5 18 -9 24 -31 7 -26 26 -39 57 -38 26 0 36 6 22 11 -14 6 -25
19 -25 29 0 25 95 23 110 -2 21 -34 50 -22 50 20 0 38 -59 54 -155 41 -38 -4
-30 35 10 45 28 7 26 10 -8 12 -23 1 -53 -11 -67 -28z"/>
<path d="M5555 456 c31 -16 64 -16 110 -1 62 20 60 21 -45 22 -93 0 -103 -3
-65 -21z"/>
<path d="M4240 438 c0 -9 10 -22 22 -29 16 -10 14 -19 -5 -31 -17 -11 18 -17
93 -17 94 0 112 5 84 21 -20 12 -59 16 -85 9 -39 -9 -49 -4 -49 25 0 21 -13
37 -30 37 -16 0 -30 -7 -30 -15z"/>
<path d="M460 420 c25 -17 25 -23 3 -38 -15 -9 -29 -45 -30 -80 -3 -61 -49
-99 -91 -73 -11 6 -25 3 -32 -9 -14 -23 71 -27 167 -8 45 9 63 24 63 52 0 30
-10 36 -45 26 -44 -12 -44 -11 -6 19 38 31 38 31 0 33 -26 1 -20 7 19 19 32 9
67 12 78 5 11 -7 14 -2 6 11 -8 13 -4 23 8 23 12 0 17 9 10 20 -7 11 -50 20
-96 20 -62 -1 -76 -6 -54 -20z"/>
<path d="M0 360 c0 -73 21 -75 90 -12 43 41 46 47 14 39 -22 -6 -46 -1 -53 11
-25 41 -51 22 -51 -38z"/>
<path d="M5010 400 c7 -12 20 -16 28 -11 9 5 33 -3 54 -19 57 -43 82 -36 33
10 -44 41 -138 57 -115 20z"/>
<path d="M5480 398 c0 -25 60 -38 61 -12 0 13 12 8 28 -12 17 -23 32 -29 40
-15 17 27 111 28 111 1 0 -11 20 -20 45 -20 37 1 40 4 15 21 -24 17 -20 20 20
18 101 -7 200 1 200 16 0 8 -117 16 -260 16 -143 1 -260 -5 -260 -13z"/>
<path d="M200 386 c-55 -20 -148 -124 -101 -112 23 6 41 17 41 26 0 18 145 12
177 -8 14 -9 23 -2 23 17 0 17 -11 31 -25 32 -14 0 -8 13 14 30 41 31 -55 42
-129 15z"/>
<path d="M820 365 c-86 -10 -121 -39 -80 -66 22 -14 10 -18 -45 -15 -41 2 -85
-6 -96 -17 -16 -16 4 -20 69 -16 55 4 92 -2 92 -15 0 -14 9 -14 27 1 15 13 34
16 43 8 9 -8 10 -4 2 10 -9 16 -2 25 18 25 18 0 26 10 19 21 -7 12 6 27 29 33
45 11 59 48 17 43 -14 -2 -56 -7 -95 -12z"/>
<path d="M3496 356 c21 -21 147 -30 204 -15 35 9 8 16 -84 21 -74 4 -128 2
-120 -6z"/>
<path d="M4519 355 c-2 -8 -5 -25 -6 -38 -2 -13 -16 -28 -31 -33 -15 -5 -23
-1 -17 8 6 10 -10 18 -37 18 -26 0 -48 -11 -48 -25 0 -15 27 -25 69 -25 49 0
76 -12 91 -40 12 -22 42 -40 68 -40 42 0 46 -8 41 -80 -4 -48 2 -76 13 -69 11
7 33 2 49 -12 23 -19 29 -19 29 1 0 20 6 20 30 0 26 -22 29 -20 18 7 -7 18
-20 33 -30 33 -10 0 -16 11 -13 24 3 13 -5 25 -18 25 -32 1 -60 31 -29 31 13
0 19 9 12 20 -7 11 -5 20 4 20 28 -1 68 -33 65 -52 -12 -62 49 -79 145 -39 19
8 43 9 54 2 10 -6 25 -3 32 9 7 11 21 20 32 20 11 0 4 -22 -16 -48 -30 -40
-50 -47 -121 -41 -47 3 -85 0 -85 -8 0 -24 676 -26 690 -3 11 18 -15 29 -55
22 -37 -5 -10 35 29 45 24 6 38 17 31 25 -8 7 -36 -1 -64 -19 -52 -35 -100
-44 -84 -17 6 8 -12 17 -38 20 -27 2 -49 -6 -49 -18 0 -12 14 -17 30 -11 17 7
30 3 30 -7 0 -10 -40 -15 -89 -10 -49 5 -93 2 -99 -6 -14 -23 -132 -28 -132
-5 0 29 37 45 108 45 37 0 78 7 93 16 15 10 -9 14 -57 9 -67 -7 -84 -2 -84 24
0 22 -12 28 -40 19 -103 -31 -130 -36 -102 -16 23 16 19 22 -20 29 -46 9 -46
10 -3 12 25 2 45 13 45 25 0 14 17 17 45 9 78 -25 309 -34 275 -12 -25 17 -23
20 13 21 23 0 53 -13 67 -30 34 -41 67 -38 110 10 41 45 110 54 110 14 0 -14
-11 -38 -25 -52 -14 -14 6 -8 43 15 45 26 80 35 100 24 29 -14 313 14 298 30
-4 4 -31 11 -61 16 -30 6 -63 16 -75 23 -11 7 -20 5 -20 -5 0 -20 -167 -18
-317 5 -75 11 -99 21 -80 35 20 14 17 16 -10 7 -20 -7 -65 -12 -100 -13 l-63
-1 60 -29 c33 -16 42 -24 20 -19 -22 5 -74 1 -115 -9 -44 -10 -80 -9 -86 1 -6
10 -42 18 -80 18 -66 0 -145 31 -171 67 -16 21 -104 9 -122 -17 -8 -10 0 -35
18 -55 20 -21 23 -35 9 -35 -13 0 -23 8 -23 17 0 9 -11 17 -25 18 -14 1 -46 7
-73 13 -26 6 -64 2 -85 -10 -21 -11 -36 -13 -34 -4 4 21 -39 121 -44 101z"/>
<path d="M3840 318 c-38 -7 -65 -15 -60 -17 26 -12 176 -12 230 0 87 18 -71
34 -170 17z"/>
<path d="M5520 315 c0 -17 17 -20 135 -23 125 -3 104 23 -25 31 -61 4 -110 0
-110 -8z"/>
<path d="M3384 290 c80 -29 201 -18 125 12 -21 8 -75 15 -119 15 l-80 0 74
-27z"/>
<path d="M3590 300 c-22 -35 58 -54 110 -27 28 14 41 27 30 28 -11 1 -45 5
-75 9 -30 4 -59 -1 -65 -10z"/>
<path d="M4980 297 c0 -19 195 -30 236 -13 27 10 28 14 4 17 -79 10 -240 8
-240 -4z"/>
<path d="M0 231 c0 -20 18 -31 51 -31 31 0 46 -8 38 -21 -7 -11 -30 -15 -51
-8 -32 10 -38 2 -38 -50 0 -33 8 -61 18 -61 10 0 16 14 15 31 -4 38 109 109
121 76 12 -35 86 -7 86 33 0 40 -115 73 -147 41 -12 -12 -32 -12 -56 1 -29 15
-37 12 -37 -11z"/>
<path d="M4023 207 c-15 -16 -20 -36 -12 -43 8 -8 18 -3 23 10 6 17 23 18 55
6 48 -18 250 -6 275 17 8 7 -50 11 -129 9 -79 -2 -153 4 -164 13 -12 10 -32 5
-48 -12z"/>
<path d="M540 184 c0 -11 -30 -16 -68 -10 -41 5 -74 -1 -83 -16 -11 -17 -5
-21 18 -12 49 19 92 -4 78 -41 -8 -22 -4 -27 14 -16 15 10 32 5 42 -10 22 -37
74 -41 87 -7 7 18 -3 28 -28 28 -27 0 -35 10 -27 31 8 20 28 28 55 22 23 -5
60 -2 82 7 32 14 25 17 -33 19 -41 0 -88 6 -105 13 -18 7 -32 3 -32 -8z"/>
<path d="M290 140 c7 -12 -19 -21 -64 -22 -42 -2 -85 -5 -96 -7 -11 -3 -31 -6
-45 -8 -14 -2 -25 -16 -25 -32 0 -16 -16 -39 -35 -51 -29 -18 -25 -20 25 -16
33 2 71 13 85 23 16 11 25 10 25 -5 0 -12 10 -22 21 -22 12 0 16 9 9 20 -12
20 18 39 73 47 15 2 36 10 48 17 11 7 34 5 50 -5 52 -33 108 -24 78 12 -14 18
-43 27 -64 22 -21 -6 -42 2 -48 19 -6 15 -20 28 -30 28 -11 0 -14 -9 -7 -20z"/>
<path d="M782 141 c-30 -18 15 -41 82 -41 28 0 37 -9 28 -32 -7 -17 -12 -35
-12 -40 0 -17 -73 -7 -93 13 -15 15 -25 13 -34 -10 -9 -25 4 -31 68 -31 43 0
79 9 79 20 0 11 29 19 65 17 36 -1 106 7 155 18 50 11 70 22 45 23 -25 1 -45
12 -45 24 0 13 -18 18 -43 11 -24 -6 -61 -2 -83 10 -28 15 -35 15 -25 -1 19
-31 -59 -28 -93 3 -34 32 -61 36 -94 16z"/>
<path d="M2283 117 c-24 -38 -23 -41 7 -30 18 7 46 13 61 13 16 0 23 12 16 30
-16 43 -53 37 -84 -13z"/>
<path d="M2708 131 c-7 -16 -6 -39 1 -50 9 -13 -19 -21 -78 -21 -50 0 -91 -7
-91 -16 0 -9 -32 -14 -71 -11 -39 3 -66 -2 -60 -11 6 -10 94 -17 196 -17 102
0 165 4 140 9 -83 17 -25 44 71 33 52 -6 117 0 144 12 l50 22 -49 -10 c-30 -6
-65 4 -89 25 -24 21 -33 23 -22 6 12 -21 9 -24 -12 -10 -38 24 -65 23 -83 -1
-8 -13 -15 -7 -15 12 0 19 11 38 25 44 15 6 10 10 -11 11 -19 1 -40 -11 -46
-27z"/>
<path d="M5545 51 c3 -41 233 -60 270 -23 30 30 -23 49 -71 26 -30 -14 -85
-21 -124 -17 -65 8 -66 10 -20 22 l50 14 -55 10 c-46 10 -54 5 -50 -32z"/>
</g>
</svg>
