<?xml version="1.0" standalone="no"?>
<!DOCTYPE svg PUBLIC "-//W3C//DTD SVG 20010904//EN"
 "http://www.w3.org/TR/2001/REC-SVG-20010904/DTD/svg10.dtd">
<svg version="1.0" xmlns="http://www.w3.org/2000/svg"
 width="900.000000pt" height="600.000000pt" viewBox="0 0 900.000000 600.000000"
 preserveAspectRatio="xMidYMid meet">
<metadata>
Created by potrace 1.10, written by Peter Selinger 2001-2011
</metadata>
<g transform="translate(0.000000,600.000000) scale(0.100000,-0.100000)"
fill="aliceblue" stroke="none">
<path d="M4440 4686 c0 -8 5 -16 12 -18 7 -3 13 -32 14 -72 2 -37 6 -71 9 -76
3 -5 3 -32 -1 -61 -6 -44 -10 -52 -35 -61 -21 -7 -29 -17 -29 -33 0 -39 -11
-55 -36 -55 -14 0 -27 -6 -30 -14 -3 -8 -27 -16 -55 -20 -39 -5 -49 -10 -49
-26 0 -11 -10 -25 -22 -31 -13 -7 -29 -20 -36 -31 -7 -10 -20 -18 -28 -18 -8
0 -14 -7 -14 -15 0 -8 -9 -23 -20 -32 -11 -10 -20 -27 -20 -39 0 -12 -5 -24
-12 -26 -12 -4 -14 -11 -24 -86 -3 -23 -10 -45 -15 -48 -5 -3 -9 -18 -9 -35 0
-17 -5 -29 -13 -29 -21 0 -46 53 -45 96 0 42 -25 114 -40 114 -16 0 -25 -67
-27 -198 -1 -67 -5 -126 -9 -129 -4 -4 -41 -6 -83 -4 -59 2 -74 0 -71 -11 3
-7 29 -16 63 -20 32 -4 66 -15 77 -24 28 -26 23 -74 -12 -108 -20 -19 -26 -32
-19 -36 12 -8 18 -40 27 -164 7 -93 26 -127 38 -67 l6 31 19 -37 c11 -21 19
-45 19 -55 0 -10 7 -21 15 -24 10 -4 15 -20 15 -51 0 -38 -2 -43 -14 -34 -35
29 -146 -20 -146 -64 0 -8 -5 -17 -11 -21 -13 -8 -3 -53 18 -76 10 -12 13 -26
9 -45 -4 -15 -9 -62 -12 -103 -3 -41 -7 -77 -10 -80 -3 -3 -69 -6 -147 -6
-336 -4 -641 -14 -617 -21 8 -3 30 -11 47 -19 29 -13 36 -13 63 1 22 11 35 13
49 6 11 -6 52 -8 100 -4 59 4 89 2 106 -7 31 -17 31 -24 -1 -38 -16 -8 -22
-16 -17 -25 14 -21 32 -81 27 -87 -10 -9 -238 -17 -256 -8 -23 11 -31 43 -18
68 8 15 21 20 50 20 44 0 63 17 28 24 -70 15 -121 16 -153 5 -33 -12 -33 -13
-12 -24 17 -9 21 -19 19 -46 -3 -45 -28 -64 -56 -45 -16 10 -21 24 -21 59 0
28 -6 52 -17 64 -16 17 -16 21 -2 41 15 21 14 22 -15 22 -28 0 -30 -2 -25 -27
3 -16 -1 -36 -8 -46 -13 -17 -15 -16 -37 13 -17 23 -20 35 -12 43 18 18 12 27
-19 27 -27 0 -29 -2 -24 -28 4 -19 1 -32 -10 -41 -23 -20 -46 -6 -46 28 0 33
-19 45 -52 31 l-23 -9 23 0 c28 -1 29 -24 2 -85 -18 -44 -21 -46 -62 -47 l-43
-1 45 -10 c77 -17 76 -16 53 -39 -17 -18 -24 -19 -43 -9 -14 7 -53 11 -103 8
-71 -3 -82 -1 -85 15 -3 13 4 17 30 17 42 0 67 14 43 24 -9 3 -27 6 -40 6 -36
0 -39 17 -8 34 19 9 44 12 77 9 44 -5 49 -4 43 11 -4 10 -7 22 -7 27 0 15 -52
10 -71 -7 -23 -20 -49 -12 -49 16 0 11 -7 32 -17 46 -16 25 -16 25 10 18 17
-4 27 -2 27 5 0 6 -4 11 -9 11 -5 0 -8 28 -8 63 0 85 -9 106 -49 123 -29 12
-41 29 -84 119 -54 111 -90 152 -174 194 -25 12 -47 25 -47 29 -1 4 -3 55 -3
115 -1 61 -7 112 -13 118 -17 17 -24 -3 -25 -73 -1 -35 -6 -69 -11 -75 -5 -7
-7 -22 -4 -33 7 -28 -20 -54 -78 -75 -53 -19 -115 -62 -153 -107 -34 -40 -62
-37 -60 5 0 17 -5 52 -12 76 -7 27 -9 66 -5 97 7 56 -5 94 -30 94 -22 0 -25
-13 -14 -57 9 -32 8 -47 -5 -71 -9 -17 -16 -41 -16 -54 -1 -26 -22 -58 -38
-58 -6 0 -16 -8 -21 -19 -6 -10 -20 -21 -31 -24 -17 -4 -20 0 -20 33 0 22 5
40 13 43 10 4 10 7 0 18 -7 7 -13 23 -13 36 0 16 -6 23 -20 23 -17 0 -19 -8
-22 -72 l-3 -73 -110 -5 c-79 -4 -114 -2 -126 7 -12 10 -18 10 -31 -3 -34 -35
-41 -8 -34 128 5 114 9 133 30 161 20 29 21 35 10 57 -22 41 -18 85 10 103 21
14 23 21 19 64 -3 26 -12 55 -19 63 -15 18 -40 95 -49 153 l-6 38 -18 -23
c-10 -13 -29 -48 -42 -78 -21 -49 -80 -120 -99 -120 -23 0 -27 88 -5 96 11 4
12 10 6 18 -6 7 -9 37 -8 68 1 41 -3 61 -16 75 -9 11 -17 27 -17 36 0 34 -43
108 -71 123 -17 8 -31 26 -35 42 -4 15 -15 59 -24 97 -10 39 -21 97 -25 130
-4 33 -12 68 -16 77 -5 10 -10 44 -10 76 -1 78 -14 98 -23 36 -4 -27 -21 -77
-37 -112 -16 -34 -29 -67 -29 -72 0 -6 -4 -18 -9 -28 -17 -31 -68 -146 -92
-202 -13 -32 -40 -71 -65 -95 -23 -22 -44 -49 -46 -60 -2 -14 -10 -19 -24 -17
-31 4 -41 -15 -48 -93 -8 -85 -24 -107 -55 -76 -15 15 -21 34 -21 66 0 26 -5
47 -14 52 -15 9 -41 86 -51 150 -9 57 -28 47 -66 -32 -17 -37 -43 -74 -63 -89
-42 -32 -58 -96 -32 -125 22 -24 20 -87 -3 -118 -16 -19 -18 -30 -10 -49 18
-50 11 -101 -18 -129 -15 -14 -36 -25 -45 -25 -23 0 -40 34 -32 65 5 19 2 25
-10 25 -9 0 -16 -4 -16 -10 0 -5 -11 -10 -25 -10 -33 0 -52 38 -36 68 6 11 11
23 11 26 0 13 -28 5 -43 -12 -15 -17 -17 -71 -17 -570 0 -519 1 -552 18 -552
15 -1 15 -2 -2 -15 -18 -14 -18 -16 -3 -33 21 -23 22 -51 2 -58 -13 -5 -15
-122 -15 -963 l0 -957 62 4 c56 4 61 3 50 -11 -12 -14 -9 -17 24 -23 20 -4 78
-4 128 0 50 4 104 7 119 6 21 0 30 5 34 20 5 18 13 20 84 20 43 0 89 4 103 10
15 5 66 12 114 15 224 13 337 18 457 21 72 2 148 5 170 8 86 9 282 14 294 6
10 -5 7 -11 -9 -23 -28 -19 -18 -25 64 -33 73 -7 556 22 591 36 27 11 103 31
143 37 40 7 42 23 2 23 -36 0 -41 25 -7 33 38 10 804 17 777 8 -14 -5 -39 -9
-57 -10 -17 -1 -44 -6 -60 -12 -48 -18 -9 -27 178 -40 289 -19 899 2 899 31 0
4 -24 10 -52 14 -90 11 -118 18 -113 26 9 14 98 19 418 23 291 4 307 3 307
-14 0 -10 10 -25 22 -33 22 -16 22 -16 -15 -16 -20 0 -37 -4 -37 -9 0 -25 38
-35 146 -39 63 -3 112 -7 110 -10 -3 -3 -56 -8 -118 -11 -68 -4 -113 -10 -115
-17 -6 -19 104 -31 352 -38 77 -2 199 -7 271 -10 112 -6 134 -5 147 9 22 21
12 41 -26 56 -32 13 -32 13 28 16 89 4 125 12 125 28 0 7 -9 17 -20 20 -30 10
-24 30 17 52 17 10 40 11 95 3 40 -6 103 -10 140 -9 93 3 107 -10 103 -96 -2
-37 -10 -74 -20 -89 -28 -42 -17 -70 32 -80 48 -10 122 -1 148 18 16 11 16 15
2 42 -20 39 -28 173 -12 204 7 12 15 18 18 13 6 -10 479 -9 837 1 91 3 197 1
235 -4 39 -6 174 -12 300 -14 127 -3 264 -5 305 -6 l75 -2 -45 -12 c-39 -11
-205 -22 -451 -31 -64 -3 -102 -19 -97 -43 3 -15 23 -18 143 -23 141 -6 211
-19 298 -57 34 -15 77 -23 150 -27 170 -9 522 -17 702 -15 118 0 165 -2 155
-9 -8 -6 -23 -8 -34 -5 -10 4 -57 3 -103 -1 -76 -6 -83 -8 -65 -21 12 -8 18
-21 15 -32 -6 -23 16 -41 53 -44 37 -2 70 -28 52 -40 -7 -4 -23 -8 -35 -8 -12
0 -32 -9 -45 -21 -20 -18 -40 -21 -158 -25 -74 -2 -184 -8 -244 -12 -98 -6
-110 -9 -124 -30 -15 -22 -14 -23 10 -17 16 4 39 -1 64 -14 25 -13 50 -18 69
-15 42 8 305 14 333 9 14 -4 22 -13 22 -25 0 -16 -7 -20 -33 -20 -18 0 -38 5
-44 11 -8 8 -17 8 -31 0 -11 -6 -41 -8 -72 -4 -50 6 -52 5 -48 -18 3 -23 8
-24 98 -31 52 -4 103 -12 112 -18 10 -5 29 -10 42 -10 29 0 42 -15 21 -24 -14
-5 -219 19 -234 28 -15 9 -51 -15 -51 -34 0 -11 -6 -20 -12 -20 -7 -1 -75 -2
-150 -3 -94 -1 -141 -6 -150 -15 -10 -9 91 -12 505 -12 l517 0 0 220 0 220
-32 0 c-57 0 -67 17 -15 25 l47 7 0 1054 c0 930 -2 1054 -15 1054 -8 0 -15 5
-15 10 0 6 7 10 15 10 11 0 15 12 15 45 0 32 -4 45 -14 45 -17 0 -26 -22 -26
-61 0 -53 -31 -32 -50 33 -10 37 -10 51 -1 62 10 12 16 12 39 0 37 -19 52 -18
52 6 0 16 -7 20 -30 20 -16 0 -30 5 -30 10 0 6 14 13 30 17 l30 6 0 508 0 509
-35 0 c-24 0 -35 -5 -35 -15 0 -8 7 -15 15 -15 23 0 19 -47 -6 -61 -17 -9 -25
-7 -44 11 -14 13 -31 20 -39 17 -20 -8 -20 -23 -1 -31 23 -8 19 -53 -6 -66
-16 -9 -24 -8 -38 4 -18 17 -51 22 -51 8 0 -4 6 -16 14 -27 17 -25 4 -65 -21
-65 -44 1 -93 82 -73 120 15 27 12 66 -5 80 -23 19 -19 86 7 122 18 27 19 32
6 39 -9 5 -19 25 -22 44 -5 26 -14 39 -32 45 -13 5 -29 20 -34 32 -6 13 -22
43 -36 68 -18 30 -27 60 -27 93 -1 42 -3 47 -24 47 -24 0 -31 -14 -13 -25 15
-9 11 -94 -5 -140 -8 -22 -15 -51 -15 -63 0 -13 -9 -36 -20 -50 -14 -17 -19
-34 -15 -51 7 -33 -31 -99 -47 -83 -12 12 -27 81 -28 132 -1 46 -24 78 -44 61
-12 -10 -18 -7 -33 15 -10 14 -29 38 -43 53 -27 28 -70 107 -70 129 0 7 -12
36 -26 65 -15 28 -30 63 -35 77 -13 42 -45 123 -63 162 -13 28 -17 50 -12 81
5 35 3 47 -12 61 -19 16 -21 15 -47 -15 -25 -30 -26 -34 -10 -45 13 -10 16
-23 12 -61 -10 -83 -25 -178 -41 -247 -9 -37 -16 -82 -16 -100 0 -37 -22 -72
-38 -62 -7 4 -12 31 -13 59 -1 29 -4 63 -8 77 -7 24 -7 24 -14 -9 -4 -18 -7
-62 -7 -96 0 -41 -5 -67 -14 -74 -7 -6 -16 -32 -20 -58 -3 -25 -11 -52 -18
-60 -6 -8 -11 -37 -10 -64 1 -45 -2 -51 -26 -60 l-27 -11 35 -16 c39 -19 48
-47 27 -77 -14 -18 -16 -18 -51 16 -37 34 -68 90 -80 142 -13 54 -40 23 -56
-65 -6 -29 -20 -66 -32 -83 -13 -17 -22 -45 -22 -67 -1 -20 -7 -43 -13 -50
-10 -9 -6 -14 20 -22 26 -9 33 -17 35 -44 2 -18 -2 -40 -8 -48 -15 -17 -5 -63
17 -79 11 -8 16 -34 18 -101 1 -49 6 -104 10 -123 8 -32 7 -34 -15 -28 -13 3
-29 2 -36 -4 -7 -5 -57 -8 -115 -7 l-104 3 -8 55 c-4 30 -14 61 -21 69 -12 11
-17 8 -32 -24 -14 -30 -15 -41 -6 -56 17 -27 15 -39 -7 -39 -49 0 -100 96
-103 195 -2 54 -6 70 -18 70 -20 0 -41 -64 -29 -87 5 -10 6 -54 3 -98 -5 -57
-4 -80 5 -80 6 0 11 11 11 25 0 16 6 25 15 25 8 0 15 -9 15 -20 0 -10 9 -24
20 -30 11 -6 20 -17 20 -25 0 -8 5 -15 10 -15 6 0 10 -10 10 -22 0 -15 11 -29
30 -40 26 -15 30 -23 30 -60 0 -24 3 -53 6 -65 5 -18 1 -23 -20 -29 -32 -8
-32 -11 -4 -69 19 -39 20 -49 10 -66 -11 -18 -11 -23 4 -33 11 -8 15 -20 11
-30 -6 -16 -8 -16 -32 1 -25 19 -33 47 -15 58 20 12 11 55 -14 64 -29 12 -45
80 -21 94 9 5 15 23 15 43 l0 35 -26 -20 c-15 -12 -40 -21 -55 -21 -33 0 -36
-8 -14 -36 21 -27 19 -34 -12 -34 -14 0 -35 -7 -45 -17 -17 -15 -18 -15 -18
11 0 16 6 42 14 59 8 18 17 55 20 82 2 28 8 64 11 82 7 29 4 33 -26 46 -19 8
-41 22 -49 32 -21 26 -78 59 -128 75 -46 15 -75 52 -66 86 2 10 0 26 -5 34 -9
13 -12 12 -25 -5 -9 -12 -11 -26 -6 -35 14 -26 -11 -62 -65 -96 -98 -62 -175
-163 -194 -258 -5 -23 -14 -32 -38 -38 -41 -11 -58 -33 -58 -77 0 -35 -1 -36
-50 -47 -43 -9 -47 -11 -25 -17 14 -4 35 -7 48 -7 18 0 22 -6 22 -30 0 -18 6
-33 15 -36 19 -8 19 -37 -1 -80 -15 -31 -15 -36 -1 -58 9 -13 13 -33 10 -44
-4 -19 -14 -21 -96 -25 -51 -2 -104 -8 -119 -12 -24 -6 -28 -4 -28 13 0 23 11
28 93 37 73 8 65 27 -11 23 -32 -1 -63 1 -69 5 -28 17 -10 27 46 27 58 0 83
11 59 26 -6 4 -33 7 -60 6 -51 -1 -67 10 -48 33 10 12 7 15 -15 21 -20 5 -30
2 -37 -10 -12 -22 -31 -20 -53 4 -21 24 -43 25 -71 5 -12 -8 -24 -11 -28 -8
-7 7 -541 4 -560 -3 -7 -3 -19 2 -26 11 -15 19 -29 19 -49 1 -13 -11 -37 -12
-120 -5 -114 9 -121 13 -121 70 0 19 -7 44 -15 55 -16 21 -20 85 -6 100 5 5
11 25 15 45 5 27 3 38 -8 42 -8 3 -16 18 -18 34 -3 24 -7 28 -35 28 -46 0 -50
11 -18 45 29 30 29 31 35 196 7 177 9 183 60 185 23 1 22 2 -7 10 -38 11 -83
62 -83 94 0 27 46 65 78 65 28 0 52 10 52 22 0 7 -20 9 -50 6 -78 -8 -82 -2
-86 142 -1 70 -7 127 -13 133 -6 6 -11 21 -11 33 0 13 -4 25 -9 28 -10 7 -22
-61 -21 -122 1 -84 -60 -126 -79 -54 -6 20 -11 47 -11 59 0 12 -8 36 -17 55
-30 60 -33 68 -33 82 0 8 -18 33 -40 56 -22 23 -40 45 -40 50 0 4 -13 13 -29
18 -22 8 -28 15 -24 30 4 16 -2 20 -44 26 -51 6 -113 46 -113 72 0 8 -6 14
-13 14 -7 0 -24 15 -37 33 -22 28 -25 44 -28 137 -4 139 -7 150 -37 150 -14 0
-25 5 -25 10 0 6 -4 10 -10 10 -5 0 -10 -6 -10 -14z m4013 -897 c15 0 17 -2 7
-6 -8 -3 -23 -13 -33 -21 -13 -11 -20 -13 -29 -4 -15 15 -2 46 18 38 9 -3 25
-6 37 -7z m-7924 -25 c13 -11 -23 -30 -49 -26 -32 5 -45 16 -35 31 5 8 73 4
84 -5z m7321 -229 c16 -19 4 -35 -25 -35 -32 0 -42 20 -20 37 24 17 30 16 45
-2z m-6717 -30 c17 -24 17 -25 -2 -25 -11 0 -26 -3 -35 -6 -18 -7 -31 18 -22
41 8 23 39 17 59 -10z m3372 -147 c-2 -57 -14 -68 -29 -27 -11 32 -1 79 18 79
9 0 12 -15 11 -52z m-3319 -16 c-2 -35 -7 -48 -19 -50 -15 -3 -17 3 -11 40 8
59 12 70 23 63 6 -3 9 -27 7 -53z m7082 10 c17 17 42 1 42 -27 0 -15 6 -25 15
-25 11 0 13 8 9 30 -7 34 -4 36 36 15 35 -18 46 -49 30 -81 -10 -17 -10 -27
-2 -36 8 -10 7 -26 -5 -60 -16 -50 -28 -60 -62 -51 -23 6 -32 29 -34 90 -1 24
-10 46 -24 60 l-21 21 -5 -26 c-3 -16 1 -34 9 -43 34 -38 7 -103 -41 -97 -29
3 -30 5 -33 58 -2 30 -10 74 -19 97 -15 42 -13 73 6 73 5 0 11 -15 13 -32 4
-39 22 -44 26 -8 5 45 10 52 30 41 13 -7 22 -7 30 1z m-6988 -62 c0 -27 -4
-50 -9 -50 -13 0 -19 28 -16 65 4 37 3 35 15 35 6 0 10 -22 10 -50z m-730 -2
c0 -19 -2 -20 -10 -8 -13 19 -13 30 0 30 6 0 10 -10 10 -22z m219 15 c0 -5 -4
-17 -9 -28 -8 -18 -9 -17 -9 8 -1 15 4 27 9 27 6 0 10 -3 9 -7z m6921 -18 c0
-14 -4 -25 -10 -25 -11 0 -14 33 -3 43 11 11 13 8 13 -18z m-2615 -11 c27 -27
15 -50 -25 -46 -45 5 -45 5 -25 36 20 30 28 32 50 10z m-4462 -87 c-1 -73 -14
-100 -46 -95 -24 3 -40 50 -31 88 5 22 7 23 15 7 6 -10 9 -30 7 -45 -2 -21 2
-28 19 -30 20 -3 21 1 20 47 -2 31 -9 57 -21 69 -17 20 -17 20 1 25 33 8 37 1
36 -66z m107 63 c23 -12 16 -40 -10 -40 -19 0 -34 25 -24 41 7 11 11 11 34 -1z
m3777 2 c18 -11 35 -64 25 -74 -6 -6 -20 -8 -33 -6 -18 2 -25 10 -27 31 -6 48
7 67 35 49z m3394 -49 c5 -14 17 -32 26 -38 15 -11 13 -14 -13 -26 -16 -8 -29
-21 -30 -29 -1 -8 -2 -30 -2 -47 -2 -25 -9 -36 -31 -48 -16 -8 -36 -22 -46
-31 -9 -9 -19 -14 -22 -10 -12 12 -16 227 -5 238 16 16 33 -33 26 -71 -7 -34
5 -44 41 -35 32 8 32 22 -1 34 -23 9 -25 14 -19 43 12 53 58 66 76 20z m-6074
-30 c12 -54 2 -77 -28 -68 -15 5 -19 1 -19 -18 0 -18 7 -27 26 -31 19 -5 25
-12 22 -29 -2 -12 -10 -23 -18 -23 -41 -3 -81 -18 -97 -36 -17 -19 -17 -20 0
-33 13 -9 17 -27 17 -78 0 -64 -14 -95 -26 -62 -4 9 -13 14 -20 11 -8 -3 -14
1 -14 9 0 8 5 15 10 15 6 0 10 20 10 45 0 36 -3 45 -17 45 -29 1 -67 35 -60
54 4 9 14 16 22 16 25 0 13 34 -13 38 -14 2 -22 10 -22 23 0 14 7 19 30 19 29
0 70 29 70 50 0 16 84 100 100 100 10 0 19 -16 27 -47z m-719 20 c15 -28 -3
-63 -32 -63 -35 0 -44 21 -18 38 12 8 22 21 22 28 0 20 18 17 28 -3z m82 -13
c0 -19 -11 -26 -23 -14 -8 8 3 34 14 34 5 0 9 -9 9 -20z m3680 -20 c0 -5 -7
-10 -15 -10 -8 0 -15 5 -15 10 0 6 7 10 15 10 8 0 15 -4 15 -10z m164 1 c6
-10 -31 -47 -40 -39 -6 7 17 48 28 48 4 0 9 -4 12 -9z m2546 -18 c0 -22 -39
-63 -61 -63 -9 0 -22 -7 -29 -15 -7 -8 -19 -15 -28 -15 -19 0 -62 39 -62 56 0
19 38 37 65 30 15 -4 25 -1 29 9 8 22 86 21 86 -2z m-2920 -11 c0 -10 5 -23
12 -30 22 -22 -1 -25 -38 -6 -43 23 -51 33 -33 45 25 16 59 10 59 -9z m-3224
-2 c16 -5 54 -11 84 -12 69 -4 74 -25 10 -44 -41 -12 -49 -12 -90 9 -25 12
-46 30 -48 40 -4 20 3 21 44 7z m2634 -10 c0 -5 -9 -10 -19 -10 -11 0 -23 5
-26 10 -4 6 5 10 19 10 14 0 26 -4 26 -10z m308 -7 c-2 -9 -8 -18 -15 -20 -7
-3 -9 3 -6 16 6 25 26 28 21 4z m167 -8 c20 -7 20 -7 0 -15 -32 -14 -85 -12
-85 3 0 23 21 36 44 27 11 -5 30 -11 41 -15z m438 -19 c3 -8 -1 -20 -9 -26
-12 -10 -14 -8 -14 14 0 28 14 35 23 12z m-3105 -47 c2 -36 -9 -26 -23 20 -5
17 -4 22 6 19 8 -3 15 -20 17 -39z m-712 -5 c-5 -13 -10 -14 -18 -6 -6 6 -8
18 -4 28 5 13 10 14 18 6 6 -6 8 -18 4 -28z m3264 26 c0 -5 -7 -10 -15 -10 -8
0 -15 5 -15 10 0 6 7 10 15 10 8 0 15 -4 15 -10z m2610 -14 c0 -13 -7 -29 -15
-36 -19 -16 -34 -5 -17 12 7 7 12 20 12 30 0 10 5 18 10 18 6 0 10 -11 10 -24z
m-2489 -13 c21 -10 37 -22 35 -28 -3 -10 -124 -10 -134 0 -6 6 39 44 52 45 5
0 27 -8 47 -17z m250 -12 c8 -22 15 -28 30 -24 14 4 19 0 19 -16 0 -14 -6 -21
-20 -21 -11 0 -23 -7 -26 -15 -7 -17 -30 -20 -39 -5 -14 22 -11 91 5 100 21
13 20 13 31 -19z m-2811 -1 c6 -11 7 -20 2 -20 -10 0 -32 21 -32 32 0 16 19 8
30 -12z m2242 -45 c-5 -44 -17 -52 -33 -23 -9 16 -9 23 0 26 6 2 11 10 11 18
0 8 6 14 13 14 9 0 12 -11 9 -35z m3828 25 c0 -11 -1 -12 -70 -28 -53 -13 -67
-7 -44 19 12 14 31 19 66 19 26 0 48 -5 48 -10z m338 -22 c18 -18 14 -38 -8
-38 -15 0 -20 7 -20 25 0 27 9 32 28 13z m327 -3 c0 -12 -60 -19 -83 -10 -14
5 -14 7 -2 16 19 12 85 7 85 -6z m-6795 -5 c0 -5 -4 -10 -10 -10 -5 0 -10 -7
-10 -15 0 -8 6 -15 14 -15 11 0 15 -17 15 -75 0 -41 -4 -77 -9 -80 -18 -11
-10 -25 14 -25 29 0 39 14 40 52 2 58 19 30 21 -34 4 -71 -6 -91 -32 -65 -12
11 -22 13 -40 6 -18 -7 -25 -5 -29 6 -4 8 -11 15 -18 15 -17 0 -17 90 0 114
25 36 11 92 -21 80 -16 -6 -41 24 -29 36 8 7 29 12 82 19 6 0 12 -3 12 -9z
m6387 -7 c3 -7 -7 -17 -21 -23 -14 -5 -26 -16 -26 -25 0 -8 -9 -15 -20 -15
-11 0 -20 -7 -20 -15 0 -8 5 -15 10 -15 13 0 13 -50 0 -70 -7 -12 -12 -12 -29
4 -25 23 -29 91 -7 99 8 3 16 16 18 29 2 16 9 22 23 21 11 -1 24 5 28 13 10
17 38 15 44 -3z m-4307 -2 c0 -5 -6 -13 -13 -19 -15 -13 -87 -4 -87 10 0 5 9
7 19 3 11 -3 22 -1 26 5 8 12 55 14 55 1z m4453 -31 c8 -22 18 -30 35 -30 21
0 24 -4 19 -26 -3 -16 0 -28 9 -31 24 -9 16 -33 -10 -33 -14 0 -28 -5 -31 -11
-10 -15 -45 19 -45 43 0 21 11 23 28 6 9 -9 15 -9 24 0 9 9 7 13 -5 18 -9 3
-17 12 -17 20 0 8 -7 14 -15 14 -9 0 -20 12 -25 26 -13 33 -13 34 6 34 9 0 21
-13 27 -30z m-6475 11 c8 -5 12 -16 10 -24 -2 -13 -7 -11 -25 8 -21 24 -12 33
15 16z m-1478 -41 c0 -11 -7 -20 -15 -20 -15 0 -21 21 -8 33 12 13 23 7 23
-13z m200 -2 c0 -16 -3 -19 -11 -11 -6 6 -8 16 -5 22 11 17 16 13 16 -11z
m4140 13 c0 -5 9 -11 20 -14 11 -3 20 -10 20 -16 0 -19 -24 -12 -49 14 -18 20
-20 25 -7 25 9 0 16 -4 16 -9z m3087 -22 c18 -33 17 -79 -1 -79 -8 0 -16 10
-18 22 -2 13 -15 29 -30 36 -34 16 -35 26 -5 40 29 14 39 10 54 -19z m-3787 2
c0 -5 -7 -14 -15 -21 -13 -10 -15 -9 -15 9 0 12 6 21 15 21 8 0 15 -4 15 -9z
m-3076 -20 c16 -18 16 -19 -9 -25 -17 -4 -30 -17 -37 -36 -6 -19 -17 -30 -29
-30 -26 0 -25 49 2 84 24 31 49 33 73 7z m6026 -2 c6 -11 10 -30 9 -42 -1 -12
1 -30 6 -39 4 -10 4 -25 1 -34 -10 -25 -31 -10 -31 22 0 16 -6 39 -13 52 -13
23 -8 62 8 62 5 0 14 -9 20 -21z m1210 11 c0 -14 36 -13 60 2 28 18 32 7 13
-40 -12 -32 -21 -42 -38 -42 -23 0 -35 17 -35 47 0 9 -8 22 -17 29 -17 13 -17
13 0 14 9 0 17 -4 17 -10z m-1385 -9 c7 -12 -12 -24 -25 -16 -11 7 -4 25 10
25 5 0 11 -4 15 -9z m-6470 -10 c7 -12 -12 -24 -25 -16 -11 7 -4 25 10 25 5 0
11 -4 15 -9z m112 -6 c3 -9 3 -19 -1 -22 -8 -9 -37 18 -30 28 8 14 24 11 31
-6z m4002 -10 c30 -33 35 -78 11 -100 -11 -10 -20 -24 -20 -32 0 -9 -13 -13
-40 -13 -30 0 -48 8 -76 32 -31 27 -35 36 -30 62 14 66 112 99 155 51z m-3829
6 c0 -6 -5 -13 -10 -16 -7 -4 -7 -12 0 -25 7 -14 6 -20 -7 -24 -31 -12 -43 28
-15 55 19 20 32 24 32 10z m5916 -29 c-7 -11 -46 -4 -46 8 0 12 33 18 44 9 4
-4 5 -12 2 -17z m1074 19 c0 -12 -20 -25 -27 -18 -7 7 6 27 18 27 5 0 9 -4 9
-9z m345 -1 c11 -18 -17 -41 -44 -38 -32 4 -32 19 0 35 29 16 36 16 44 3z
m615 -22 c0 -12 -38 -10 -45 2 -12 19 5 30 25 17 11 -6 20 -15 20 -19z m220
12 c0 -5 -9 -10 -20 -10 -11 0 -20 5 -20 10 0 6 9 10 20 10 11 0 20 -4 20 -10z
m-8410 -8 c0 -4 -7 -18 -16 -31 -12 -16 -19 -20 -27 -12 -8 8 -5 16 9 30 20
21 34 26 34 13z m120 -8 c0 -9 -7 -14 -17 -12 -25 5 -28 28 -4 28 12 0 21 -6
21 -16z m314 5 c20 17 36 6 36 -24 0 -32 -17 -41 -39 -21 -10 9 -25 16 -33 16
-16 0 -31 24 -21 33 3 3 13 1 23 -5 14 -9 22 -9 34 1z m-644 -19 c0 -5 -10
-10 -22 -10 -19 0 -20 2 -8 10 19 13 30 13 30 0z m6268 -2 c-7 -20 -48 -23
-48 -4 0 11 9 16 26 16 16 0 24 -5 22 -12z m1362 -28 c0 -33 -23 -42 -34 -12
-3 9 -9 23 -12 30 -4 8 3 12 20 12 22 0 26 -4 26 -30z m-6773 -35 c-7 -69 -12
-78 -38 -65 -24 13 -24 24 2 77 29 60 43 55 36 -12z m-77 31 c0 -8 -7 -16 -15
-20 -8 -3 -15 -15 -15 -26 0 -11 -4 -20 -10 -20 -13 0 -13 21 0 54 10 27 40
36 40 12z m588 -31 c0 -32 -4 -45 -14 -45 -15 0 -21 70 -7 83 14 15 20 5 21
-38z m6407 -15 c5 -15 3 -25 -6 -31 -11 -6 -11 -13 -3 -27 9 -14 7 -23 -11
-46 l-23 -29 -6 44 c-3 24 -7 60 -9 79 -3 19 0 43 5 53 9 18 10 18 28 0 9 -11
21 -30 25 -43z m775 44 c7 -8 -23 -24 -45 -24 -28 0 -49 16 -40 30 7 11 72 6
85 -6z m-4944 -16 c-3 -13 -6 -29 -6 -37 0 -11 -5 -10 -20 4 -19 17 -19 19 -4
37 23 25 38 23 30 -4z m4410 7 c21 -20 61 -19 73 2 8 16 13 15 58 -7 48 -25
48 -25 50 -79 4 -85 -30 -110 -97 -73 -31 17 -32 17 -47 -5 -25 -37 -48 -32
-110 25 -23 21 -24 25 -10 39 12 12 13 21 5 39 -10 20 -8 28 12 49 27 29 45
31 66 10z m404 -29 c-5 -5 -10 -27 -10 -47 0 -35 -14 -58 -26 -46 -8 8 -8 113
1 126 5 9 12 8 26 -5 13 -12 16 -21 9 -28z m-980 6 c0 -4 -5 -13 -12 -20 -9
-9 -7 -12 13 -13 13 -1 29 -1 36 0 19 3 25 -17 14 -55 -8 -29 -7 -40 4 -51 17
-16 21 -113 5 -113 -5 0 -10 18 -10 41 0 23 -6 55 -14 72 -8 18 -16 40 -20 50
-7 21 -42 23 -50 2 -3 -9 -18 -15 -35 -15 -16 0 -31 -6 -35 -15 -3 -8 -14 -15
-24 -15 -11 0 -25 -7 -32 -15 -18 -21 -36 -19 -55 8 -17 24 -20 19 52 77 7 6
23 15 35 20 13 6 30 14 38 18 46 27 57 31 73 31 9 1 17 -3 17 -7z m1144 -14
c23 -111 11 -138 -58 -138 -43 0 -59 11 -36 25 13 8 13 56 0 75 -9 13 -12 13
-24 -2 -17 -22 -25 -15 -18 18 4 22 9 25 41 22 36 -3 36 -3 41 -58 5 -57 26
-70 23 -15 -4 73 20 129 31 73z m-8274 -20 c23 -3 25 -7 25 -65 0 -35 -1 -63
-3 -63 -1 0 -11 5 -21 12 -16 9 -27 8 -60 -7 -40 -17 -42 -17 -61 0 -21 19
-27 55 -10 55 14 0 12 27 -2 33 -18 6 3 41 27 45 15 3 17 -3 13 -50 -3 -47 -1
-53 17 -53 18 0 20 6 17 50 -3 64 4 84 21 62 6 -8 23 -17 37 -19z m93 20 c24
-12 27 -18 25 -61 0 -26 -5 -50 -9 -53 -8 -5 -29 37 -47 94 -12 35 -8 38 31
20z m7173 1 c10 -17 -13 -36 -27 -22 -12 12 -4 33 11 33 5 0 12 -5 16 -11z
m-6544 -21 c24 -12 49 -28 56 -35 7 -7 22 -13 33 -13 10 0 19 -3 19 -7 0 -5
14 -16 30 -25 40 -23 38 -38 -4 -31 -19 3 -48 1 -65 -5 -21 -8 -31 -8 -31 -1
0 6 9 13 20 16 11 3 20 9 20 13 0 16 -30 18 -60 4 -29 -15 -31 -14 -59 11 -27
26 -29 37 -15 83 5 16 6 16 56 -10z m-1052 -13 c0 -13 -8 -28 -17 -34 -14 -8
-15 -12 -4 -25 17 -20 5 -21 -15 -2 -8 8 -14 31 -14 50 0 32 3 36 25 36 20 0
25 -5 25 -25z m694 -8 c6 -15 16 -27 23 -27 20 0 82 -34 88 -48 3 -8 3 -18 -1
-23 -7 -12 -34 -11 -34 1 0 6 -4 10 -10 10 -17 0 -11 -14 20 -48 17 -18 30
-37 30 -43 0 -20 -47 -7 -78 21 -18 17 -39 30 -45 30 -30 1 -48 29 -52 81 -3
30 -9 55 -15 57 -24 8 -7 19 27 17 32 -1 39 -5 47 -28z m2596 15 c0 -21 -36
-46 -45 -32 -4 6 -3 19 0 30 8 25 45 27 45 2z m160 -19 c-1 -31 -3 -35 -11
-20 -6 9 -7 26 -4 37 10 30 15 24 15 -17z m-70 7 c0 -11 -4 -20 -9 -20 -14 0
-23 18 -16 30 10 17 25 11 25 -10z m2548 -3 c2 -10 -3 -17 -12 -17 -18 0 -29
16 -21 31 9 14 29 6 33 -14z m-4998 -18 c0 -10 -7 -19 -15 -19 -15 0 -21 31
-9 43 11 10 24 -3 24 -24z m4310 10 c0 -11 -4 -17 -10 -14 -5 3 -10 13 -10 21
0 8 5 14 10 14 6 0 10 -9 10 -21z m315 13 c6 -4 11 -35 13 -70 2 -50 0 -64
-13 -69 -11 -4 -15 -13 -11 -28 6 -22 4 -23 -87 -27 -50 -2 -98 -2 -104 0 -20
7 -15 29 8 35 17 5 19 9 9 26 -11 22 -44 28 -56 10 -4 -8 -9 -8 -17 0 -8 8 -4
17 11 34 17 18 21 31 16 55 -5 26 -3 32 10 32 22 0 31 -27 16 -45 -7 -8 -11
-15 -9 -16 2 0 27 -3 54 -5 28 -2 59 -5 69 -7 26 -3 32 20 7 28 -18 5 -19 10
-10 26 6 12 16 19 22 16 7 -2 21 -1 32 4 26 10 28 10 40 1z m166 -62 c-2 -73
-19 -97 -53 -79 -17 9 -19 17 -14 53 6 35 3 46 -13 60 -29 26 -16 37 37 34
l46 -3 -3 -65z m89 55 c0 -13 -4 -14 -20 -5 -11 6 -20 13 -20 15 0 3 9 5 20 5
11 0 20 -7 20 -15z m-3827 -9 c8 -21 -4 -56 -19 -56 -9 0 -14 11 -14 28 0 40
22 58 33 28z m5701 -13 c5 -11 1 -22 -10 -30 -10 -7 -15 -16 -11 -19 4 -4 13
-1 21 5 12 10 16 8 21 -8 3 -12 4 -29 1 -38 -7 -20 -49 -43 -79 -43 -15 0 -17
4 -11 23 5 12 8 36 9 52 1 55 44 97 59 58z m-1281 -8 c1 -5 -6 -11 -15 -13
-11 -2 -18 3 -18 13 0 17 30 18 33 0z m117 5 c13 -9 13 -11 0 -20 -22 -15 -30
-12 -30 10 0 22 8 25 30 10z m-2880 -42 c0 -4 -11 -8 -25 -8 -27 0 -33 18 -13
38 10 10 15 9 25 -5 7 -9 13 -20 13 -25z m-1535 23 c7 -12 -12 -24 -25 -16
-11 7 -4 25 10 25 5 0 11 -4 15 -9z m2656 -53 l-5 -43 -7 40 c-7 42 -1 75 10
56 4 -5 5 -29 2 -53z m56 15 c-3 -10 -5 -2 -5 17 0 19 2 27 5 18 2 -10 2 -26
0 -35z m1716 -18 c-4 -12 -9 -13 -19 -4 -8 6 -14 18 -14 26 0 11 4 11 20 3 11
-6 17 -16 13 -25z m-5638 -6 c15 25 25 8 25 -43 0 -36 -5 -58 -16 -66 -24 -21
-41 6 -50 75 -7 60 -7 60 14 42 13 -12 22 -15 27 -8z m6195 0 c0 -18 -2 -19
-15 -9 -8 7 -15 16 -15 21 0 5 7 9 15 9 9 0 15 -9 15 -21z m-5720 -3 c0 -8 9
-18 20 -21 25 -8 27 -35 3 -35 -10 0 -26 7 -35 14 -22 16 -24 56 -3 56 8 0 15
-6 15 -14z m6444 -22 c23 -35 16 -48 -27 -51 -41 -2 -45 8 -25 52 14 32 31 32
52 -1z m644 -15 c-4 -28 -35 -38 -44 -14 -8 19 26 59 39 46 5 -5 7 -19 5 -32z
m-3254 15 c19 -18 21 -51 4 -56 -6 -2 -24 -2 -40 0 -32 5 -37 26 -11 54 20 22
27 22 47 2z m1782 -20 c-5 -13 -10 -14 -18 -6 -6 6 -8 18 -4 28 5 13 10 14 18
6 6 -6 8 -18 4 -28z m-767 12 c9 -11 8 -18 -4 -30 -13 -12 -37 -16 -111 -16
-87 0 -112 8 -82 26 10 6 107 24 174 33 6 0 17 -5 23 -13z m1842 4 c34 12 44
11 74 -3 32 -15 36 -15 64 1 33 19 59 7 48 -22 -10 -26 -52 -36 -143 -36 -66
0 -86 3 -90 15 -4 8 -12 15 -20 15 -8 0 -14 6 -14 13 0 21 12 28 27 15 10 -8
24 -8 54 2z m-7397 -45 c13 -26 23 -35 42 -35 13 0 40 -7 59 -14 28 -12 35
-21 35 -42 0 -21 -4 -25 -17 -19 -10 3 -30 9 -45 12 -53 10 -144 117 -116 134
16 10 23 5 42 -36z m3016 35 c0 -5 -9 -10 -20 -10 -11 0 -20 5 -20 10 0 6 9
10 20 10 11 0 20 -4 20 -10z m330 -21 c0 -6 -9 -8 -20 -4 -13 4 -22 1 -26 -9
-3 -9 -10 -16 -16 -16 -5 0 -16 -7 -24 -15 -17 -17 -54 -20 -54 -5 0 6 11 15
24 20 13 5 28 15 33 23 20 35 83 39 83 6z m1840 6 c0 -16 -6 -25 -15 -25 -15
0 -21 31 -8 43 13 14 23 6 23 -18z m1020 4 c0 -24 -23 -21 -28 4 -2 10 3 17
12 17 10 0 16 -9 16 -21z m1814 12 c7 -11 -22 -23 -35 -15 -5 3 -9 9 -9 15 0
12 37 12 44 0z m-8719 -38 c-7 -17 -8 -17 -15 2 -9 24 -2 41 12 27 6 -6 7 -19
3 -29z m3335 6 c0 -12 -5 -19 -11 -17 -6 2 -10 7 -10 11 1 4 1 14 1 23 0 8 5
12 10 9 6 -3 10 -15 10 -26z m1217 18 c4 -7 25 -21 46 -32 47 -24 53 -33 32
-41 -10 -4 -27 4 -47 25 -34 35 -53 38 -79 15 -17 -15 -39 -12 -39 6 0 10 47
37 67 39 7 1 16 -5 20 -12z m-4162 -7 c4 -6 18 -9 32 -8 14 2 28 -2 30 -8 4
-11 -60 -24 -118 -24 -35 0 -48 19 -24 37 22 15 71 17 80 3z m1260 -20 c-5 -8
-11 -8 -17 -2 -6 6 -7 16 -3 22 5 8 11 8 17 2 6 -6 7 -16 3 -22z m1195 4 c0
-14 -4 -23 -10 -19 -5 3 -10 15 -10 26 0 10 5 19 10 19 6 0 10 -12 10 -26z
m349 10 c13 -13 -23 -19 -120 -22 -89 -3 -109 -1 -109 10 0 8 2 17 4 19 6 5
219 -1 225 -7z m-2941 -11 c2 -8 -6 -13 -22 -13 -28 0 -43 15 -24 23 20 8 41
3 46 -10z m6819 -30 c-4 -17 -4 -17 -12 0 -4 9 -4 25 0 35 8 16 8 16 12 0 3
-10 3 -26 0 -35z m-4592 20 c19 -11 19 -12 -5 -16 -36 -8 -180 -5 -180 2 0 24
148 35 185 14z m1611 -2 c16 -12 21 -22 14 -26 -12 -7 -50 21 -50 37 0 13 10
10 36 -11z m3652 -24 c3 -21 -2 -28 -22 -33 -63 -15 -92 26 -34 51 42 18 52
15 56 -18z m-3298 5 c0 -14 -39 -46 -47 -39 -3 4 2 16 12 27 19 21 35 26 35
12z m3120 -41 c0 -9 5 -22 11 -28 13 -13 4 -33 -17 -33 -10 0 -14 13 -14 46 0
27 4 43 10 39 6 -3 10 -14 10 -24z m-6630 -46 c0 -37 -22 -49 -34 -19 -12 32
-6 54 14 54 16 0 20 -7 20 -35z m730 25 c0 -5 -7 -10 -15 -10 -8 0 -15 5 -15
10 0 6 7 10 15 10 8 0 15 -4 15 -10z m6200 4 c0 -4 -8 -28 -17 -55 -14 -40
-15 -53 -6 -69 14 -22 16 -190 2 -190 -9 0 -13 23 -28 159 -11 101 1 161 33
161 9 0 16 -3 16 -6z m78 -5 c-12 -7 -24 -7 -35 0 -15 9 -12 10 17 10 29 0 32
-1 18 -10z m77 1 c-3 -5 -12 -10 -20 -10 -8 0 -17 5 -20 10 -4 6 5 10 20 10
15 0 24 -4 20 -10z m-7737 -19 c23 -1 42 -5 42 -10 0 -4 -45 -9 -100 -10 -88
-1 -112 4 -96 20 3 2 28 3 58 2 29 0 72 -2 96 -2z m8231 -88 l-1 -98 -13 75
c-18 101 -18 120 0 120 12 0 15 -17 14 -97z m-7796 72 c12 -8 30 -15 40 -15
10 0 15 -4 12 -10 -3 -5 -17 -10 -30 -10 -17 0 -26 -8 -34 -31 -6 -18 -11 -33
-11 -34 0 -1 10 0 23 2 15 3 34 -5 55 -23 36 -32 45 -63 13 -43 -15 10 -22 8
-38 -8 -11 -11 -23 -32 -27 -47 -8 -33 -24 -34 -32 -1 -7 30 -24 33 -24 5 0
-11 -4 -20 -9 -20 -5 0 -9 34 -9 76 -1 56 -6 85 -22 115 -11 22 -18 43 -16 47
9 14 88 12 109 -3z m3593 -10 c4 -9 2 -34 -4 -57 -9 -35 -8 -46 5 -60 25 -28
9 -50 -34 -46 l-37 3 -2 66 c-2 71 0 77 31 96 27 16 35 16 41 -2z m3204 -25
c-14 -11 -32 -20 -40 -20 -8 0 -48 -14 -89 -30 -40 -17 -77 -30 -82 -30 -20 0
5 29 34 40 18 7 46 19 64 26 17 8 40 14 51 14 12 0 24 5 27 10 3 6 18 10 33
10 l27 0 -25 -20z m-6679 -10 c5 0 9 -4 9 -10 0 -5 -11 -10 -25 -10 -16 0 -25
6 -25 16 0 11 5 14 16 10 9 -3 20 -6 25 -6z m219 -11 c0 -15 -4 -19 -16 -15
-9 3 -18 6 -20 6 -2 0 -4 7 -4 15 0 8 9 15 20 15 14 0 20 -7 20 -21z m70 -19
c8 -5 12 -11 9 -14 -7 -8 -49 5 -49 15 0 12 21 11 40 -1z m6636 -41 c16 -52
17 -59 5 -59 -5 0 -11 9 -14 20 -3 11 -18 25 -34 31 -25 9 -26 12 -10 20 9 6
17 17 17 25 0 31 23 7 36 -37z m499 41 c3 -5 -3 -10 -14 -10 -11 0 -23 5 -26
10 -3 6 3 10 14 10 11 0 23 -4 26 -10z m-4285 -50 c25 -13 24 -76 -1 -101 -65
-65 -111 40 -51 119 25 33 27 34 30 14 2 -12 12 -26 22 -32z m130 18 c45 -61
30 -138 -26 -138 -47 0 -74 99 -33 120 10 6 19 20 19 30 0 29 13 25 40 -12z
m4206 -6 c-9 -9 -37 8 -31 18 5 8 11 7 21 -1 8 -6 12 -14 10 -17z m-7946 8 c0
-5 -7 -10 -15 -10 -8 0 -15 5 -15 10 0 6 7 10 15 10 8 0 15 -4 15 -10z m4123
-8 c13 -15 16 -29 10 -68 -3 -27 -11 -52 -17 -56 -13 -9 -48 1 -58 16 -16 23
-8 80 14 103 26 28 30 28 51 5z m127 10 c0 -5 -9 -17 -20 -27 -19 -18 -20 -17
-20 2 0 11 3 23 7 26 9 10 33 9 33 -1z m3458 -17 c-13 -13 -31 -43 -38 -65
-15 -44 -34 -67 -44 -51 -15 24 61 141 92 141 10 0 7 -8 -10 -25z m-7165 -171
c-9 -15 -16 -41 -15 -60 2 -32 1 -34 -30 -35 -139 -4 -183 11 -194 66 -7 38 0
65 15 65 5 0 11 -12 13 -27 2 -19 12 -32 31 -41 15 -7 27 -17 27 -21 0 -13 51
-32 70 -26 25 8 38 43 50 142 8 60 17 92 28 101 16 12 17 6 20 -62 2 -58 -1
-81 -15 -102z m6681 160 c3 -9 6 -42 6 -75 0 -46 -3 -59 -15 -59 -8 0 -15 3
-16 8 -5 50 -6 128 -3 134 8 13 21 9 28 -8z m-3814 -10 c0 -17 -22 -14 -28 4
-2 7 3 12 12 12 9 0 16 -7 16 -16z m-2270 -45 c0 -23 -28 -26 -37 -3 -6 16 15
37 29 28 4 -3 8 -14 8 -25z m5422 -1 c-15 -15 -26 -4 -18 18 5 13 9 15 18 6 9
-9 9 -15 0 -24z m-5282 -13 c31 -16 41 -45 17 -45 -18 0 -57 34 -57 49 0 14 5
14 40 -4z m5240 -10 c-7 -8 -16 -15 -21 -15 -5 0 -9 7 -9 15 0 9 9 15 21 15
18 0 19 -2 9 -15z m-2598 -57 c-9 -9 -15 -9 -24 0 -9 9 -7 12 12 12 19 0 21
-3 12 -12z m-262 -19 c0 -5 -7 -9 -15 -9 -15 0 -20 12 -9 23 8 8 24 -1 24 -14z
m4319 5 c10 -3 11 -7 1 -19 -9 -11 -17 -12 -31 -5 -10 6 -70 9 -138 6 -111 -3
-168 5 -131 18 35 12 260 12 299 0z m-732 -76 c-2 -13 -4 -3 -4 22 0 25 2 35
4 23 2 -13 2 -33 0 -45z m183 42 c0 -16 -59 -41 -88 -38 l-27 3 35 22 c37 22
80 30 80 13z m-6120 -7 c-1 -21 -61 -59 -74 -46 -14 15 -4 31 27 41 41 13 47
14 47 5z m5275 -3 c-3 -5 -13 -10 -21 -10 -8 0 -14 5 -14 10 0 6 9 10 21 10
11 0 17 -4 14 -10z m-4995 -95 c0 -8 -4 -15 -10 -15 -5 0 -10 7 -10 15 0 8 5
15 10 15 6 0 10 -7 10 -15z m5960 5 c0 -5 -9 -14 -19 -19 -14 -8 -20 -7 -24 3
-3 8 -3 17 0 20 10 10 43 7 43 -4z m-7279 -10 c34 -19 23 -130 -13 -130 -4 0
-8 18 -8 39 0 22 -4 51 -9 64 -14 35 -3 44 30 27z m-701 -35 c0 -14 -4 -25
-10 -25 -5 0 -10 11 -10 25 0 14 5 25 10 25 6 0 10 -11 10 -25z m240 -6 c0
-20 -24 -26 -35 -9 -8 13 14 42 26 34 5 -3 9 -14 9 -25z m7955 -49 c19 0 37 5
40 10 3 6 13 10 21 10 8 0 14 -4 14 -10 0 -5 -6 -10 -14 -10 -7 0 -19 -7 -26
-15 -17 -20 -43 -19 -70 3 -20 16 -22 23 -14 58 l8 39 4 -42 c3 -41 4 -43 37
-43z m-7235 8 c0 -17 -18 -44 -24 -37 -8 7 5 49 15 49 5 0 9 -6 9 -12z m5397
-70 c-2 -13 -4 -5 -4 17 -1 22 1 32 4 23 2 -10 2 -28 0 -40z m-5551 -3 c-6
-17 -46 -21 -46 -5 0 6 7 10 15 10 9 0 19 8 22 17 4 11 8 13 11 5 2 -7 1 -19
-2 -27z m131 -29 c-4 -9 -11 -16 -17 -16 -11 0 -14 53 -3 64 11 10 27 -30 20
-48z m7047 15 c8 -13 -20 -45 -32 -37 -20 12 -14 46 7 46 11 0 22 -4 25 -9z
m-7636 -42 c4 -31 -19 -44 -49 -29 -22 12 -23 15 -8 41 15 30 53 21 57 -12z
m7968 20 c10 -17 -13 -36 -27 -22 -12 12 -4 33 11 33 5 0 12 -5 16 -11z
m-7643 -6 c3 -5 0 -19 -5 -33 l-9 -25 -14 25 c-7 14 -11 28 -9 32 7 10 31 10
37 1z m127 -79 c0 -24 -5 -34 -15 -34 -20 0 -35 40 -24 62 15 28 39 10 39 -28z
m6910 -9 c0 -18 -4 -23 -15 -19 -16 6 -20 26 -8 37 13 14 23 6 23 -18z m-6983
-10 c3 -9 2 -19 -1 -23 -8 -8 -38 10 -44 26 -6 18 38 14 45 -3z m3659 -1 c-4
-9 -1 -23 5 -30 6 -7 8 -18 4 -24 -9 -14 -78 -6 -83 9 -3 8 3 11 14 10 26 -5
44 8 44 32 0 10 5 19 11 19 6 0 8 -7 5 -16z m3233 -11 c0 -25 -1 -25 -8 -8 -5
11 -7 23 -4 28 8 14 13 7 12 -20z m-3025 -28 c4 -10 -1 -15 -16 -15 -17 0 -18
2 -8 15 7 8 14 15 15 15 2 0 5 -7 9 -15z m66 0 c10 -12 10 -15 -4 -15 -9 0
-16 7 -16 15 0 8 2 15 4 15 2 0 9 -7 16 -15z m-425 -75 c0 -11 -9 -14 -34 -12
-40 3 -46 6 -36 22 10 17 70 8 70 -10z m272 4 c5 -14 -38 -27 -50 -15 -5 5 -6
14 -2 21 8 14 47 9 52 -6z m-154 -8 c6 -16 -2 -28 -14 -20 -12 7 -11 34 0 34
5 0 11 -6 14 -14z m3265 -378 c-5 -48 -36 -51 -36 -4 0 29 4 36 20 36 16 0 19
-6 16 -32z m-2573 -55 c30 -8 47 -33 34 -50 -17 -19 -36 -16 -42 7 -3 11 -13
20 -23 20 -18 0 -54 27 -54 41 0 4 15 3 33 -3 17 -5 41 -12 52 -15z m-1470 -8
c0 -12 -80 -19 -104 -10 -14 6 -13 8 4 16 26 11 100 7 100 -6z m100 6 c3 -5 1
-13 -5 -16 -15 -9 -43 3 -35 15 8 13 32 13 40 1z m145 -76 c0 -41 -4 -55 -14
-55 -18 0 -25 56 -11 87 16 37 25 26 25 -32z m1474 19 c18 -7 22 -34 5 -34
-25 0 -99 23 -99 31 0 10 70 12 94 3z m-1658 -26 c-3 -13 -6 -32 -6 -42 0 -12
-3 -16 -9 -10 -11 12 -2 74 11 74 6 0 8 -10 4 -22z m3754 15 c0 -5 -4 -14 -8
-20 -6 -9 -12 -7 -25 7 -16 19 -16 20 8 20 14 0 25 -3 25 -7z m-3982 -50 c-3
-30 -25 -42 -34 -19 -9 22 2 46 21 46 12 0 15 -8 13 -27z m2715 20 c-34 -2
-93 -2 -130 0 -37 2 -9 3 62 3 72 0 102 -1 68 -3z m135 0 c-10 -2 -28 -2 -40
0 -13 2 -5 4 17 4 22 1 32 -1 23 -4z m-3873 -38 c16 -13 27 -27 23 -30 -6 -7
-77 36 -78 48 0 14 25 6 55 -18z m6388 10 c1 -5 -19 -11 -45 -13 -54 -3 -67
14 -15 21 44 6 58 4 60 -8z m-6913 -26 c0 -11 -4 -17 -10 -14 -5 3 -10 15 -10
26 0 11 5 17 10 14 6 -3 10 -15 10 -26z m3483 11 c3 -11 1 -22 -3 -25 -13 -8
-40 6 -40 19 0 31 35 35 43 6z m3317 10 c0 -5 -4 -10 -9 -10 -5 0 -17 -7 -26
-16 -23 -23 -30 -10 -8 15 18 22 43 28 43 11z m-8262 -67 c3 -47 1 -53 -17
-53 -32 0 -51 11 -51 29 0 9 -5 22 -11 28 -16 16 26 55 54 51 19 -3 22 -10 25
-55z m5972 43 c8 -2 -88 -3 -215 -3 l-230 1 170 6 c160 5 240 4 275 -4z
m-4410 -6 c0 -5 -7 -10 -15 -10 -8 0 -15 5 -15 10 0 6 7 10 15 10 8 0 15 -4
15 -10z m1970 1 c0 -11 -26 -22 -34 -14 -12 12 -5 23 14 23 11 0 20 -4 20 -9z
m2568 2 c-21 -2 -55 -2 -75 0 -21 2 -4 4 37 4 41 0 58 -2 38 -4z m759 -19 c3
-8 -14 -14 -44 -16 -56 -5 -64 -3 -56 18 7 18 94 16 100 -2z m341 -6 c-5 -15
-82 -23 -107 -12 -11 6 2 10 39 14 30 4 59 7 63 8 5 1 7 -4 5 -10z m-3671 -23
c7 -20 -2 -29 -21 -22 -9 4 -13 13 -10 22 8 19 23 19 31 0z m-1387 -5 c12 -8
11 -10 -7 -10 -13 0 -23 5 -23 10 0 13 11 13 30 0z m4610 -2 c0 -30 -13 -58
-26 -58 -17 0 -17 -1 -3 39 11 31 29 43 29 19z m-5190 -13 c19 -23 8 -25 -14
-4 -11 11 -15 19 -9 19 6 0 16 -7 23 -15z m625 -23 c0 -18 -20 -15 -23 4 -3
10 1 15 10 12 7 -3 13 -10 13 -16z m4825 -2 c0 -11 -83 -19 -94 -9 -17 15 4
24 48 21 25 -2 46 -8 46 -12z m-5760 2 c0 -13 -12 -22 -22 -16 -10 6 -1 24 13
24 5 0 9 -4 9 -8z m404 -33 c-7 -12 -54 -12 -54 0 0 11 30 19 47 13 7 -2 10
-8 7 -13z m6312 9 c11 -18 -25 -39 -47 -27 -25 13 -24 27 4 32 12 2 25 5 29 6
4 0 10 -4 14 -11z m-4750 -121 c4 -4 -44 -7 -107 -6 -63 1 -103 4 -89 8 32 9
187 7 196 -2z m4682 -31 c2 -2 -35 -7 -82 -11 -95 -8 -208 1 -186 15 13 8 259
4 268 -4z m-7035 -7 c-8 -8 -16 -8 -30 0 -16 9 -14 10 12 11 21 0 26 -3 18
-11z m112 1 c-3 -5 -22 -10 -41 -10 -19 0 -34 5 -34 10 0 6 18 10 41 10 24 0
38 -4 34 -10z m3833 3 c-26 -2 -71 -2 -100 0 -29 2 -8 3 47 3 55 0 79 -1 53
-3z m-195 -60 c-24 -2 -62 -2 -85 0 -24 2 -5 4 42 4 47 0 66 -2 43 -4z m857
-79 c0 -45 -24 -42 -28 4 -2 24 1 32 12 32 12 0 16 -10 16 -36z m-5737 14
c-17 -8 -29 -8 -45 0 -20 9 -18 11 22 11 40 0 42 -2 23 -11z m77 2 c0 -5 -6
-10 -14 -10 -8 0 -18 5 -21 10 -3 6 3 10 14 10 12 0 21 -4 21 -10z m8500 -75
c22 -13 23 -14 5 -14 -11 0 -36 7 -55 14 l-35 13 30 1 c17 0 41 -6 55 -14z
m54 -134 c16 -13 16 -15 1 -23 -9 -5 -30 -6 -48 -2 -18 4 -62 6 -99 5 -63 -1
-86 8 -73 28 9 16 199 8 219 -8z m-249 -261 c4 -6 -8 -10 -29 -10 -19 0 -38 5
-41 10 -4 6 8 10 29 10 19 0 38 -4 41 -10z"/>
<path d="M8334 3185 c0 -23 5 -35 14 -35 9 0 12 6 8 16 -3 9 -6 24 -6 35 0 10
-4 19 -8 19 -4 0 -8 -16 -8 -35z"/>
<path d="M8212 3166 c1 -10 8 -17 13 -17 15 1 12 24 -3 29 -9 3 -13 -2 -10
-12z"/>
<path d="M7800 3055 c0 -14 5 -25 10 -25 6 0 10 11 10 25 0 14 -4 25 -10 25
-5 0 -10 -11 -10 -25z"/>
<path d="M4430 2766 c0 -17 23 -20 55 -6 13 6 15 9 5 9 -8 1 -25 4 -37 7 -17
5 -23 2 -23 -10z"/>
<path d="M8337 2683 c-12 -11 -8 -23 8 -23 8 0 15 7 15 15 0 16 -12 20 -23 8z"/>
<path d="M557 2664 c-16 -16 -6 -35 16 -32 12 2 22 10 22 18 0 16 -26 25 -38
14z"/>
<path d="M5780 2615 c0 -8 7 -15 15 -15 8 0 15 7 15 15 0 8 -7 15 -15 15 -8 0
-15 -7 -15 -15z"/>
<path d="M5693 2563 c-33 -6 -28 -19 8 -27 32 -6 64 9 53 25 -5 9 -21 10 -61
2z"/>
<path d="M894 2349 c-3 -6 -2 -15 4 -21 13 -13 32 -2 32 18 0 16 -26 19 -36 3z"/>
<path d="M384 4217 c-3 -9 -3 -25 1 -34 6 -16 8 -16 18 5 7 16 7 26 -1 34 -8
8 -13 7 -18 -5z"/>
<path d="M1037 4214 c-8 -8 1 -24 14 -24 5 0 9 7 9 15 0 15 -12 20 -23 9z"/>
<path d="M7614 4005 c-7 -18 3 -35 22 -35 20 0 30 30 13 41 -20 12 -29 11 -35
-6z"/>
<path d="M1284 3976 c-4 -10 -2 -22 4 -28 8 -8 13 -7 18 6 4 10 2 22 -4 28 -8
8 -13 7 -18 -6z"/>
<path d="M6816 3525 c-10 -28 -7 -53 9 -59 22 -8 32 41 13 61 -14 13 -16 13
-22 -2z"/>
<path d="M3911 3210 c-12 -17 -21 -33 -19 -35 1 -2 19 -5 38 -7 41 -4 51 17
23 51 l-18 22 -24 -31z"/>
<path d="M7151 3101 c-25 -34 -27 -51 -6 -51 8 0 15 5 15 10 0 6 11 10 25 10
28 0 28 0 15 34 -12 34 -24 33 -49 -3z"/>
<path d="M2615 2730 c-13 -6 3 -9 49 -9 38 -1 67 1 65 3 -10 9 -96 13 -114 6z"/>
<path d="M6285 2730 c7 -12 62 -12 90 0 14 6 4 9 -38 9 -36 1 -56 -3 -52 -9z"/>
<path d="M3336 2657 c-21 -7 -25 -12 -15 -18 22 -14 69 -11 69 5 0 20 -20 25
-54 13z"/>
<path d="M2500 640 c0 -5 9 -10 21 -10 11 0 17 5 14 10 -3 6 -13 10 -21 10 -8
0 -14 -4 -14 -10z"/>
<path d="M2630 640 c0 -5 9 -10 21 -10 11 0 17 5 14 10 -3 6 -13 10 -21 10 -8
0 -14 -4 -14 -10z"/>
<path d="M2873 638 c2 -7 14 -13 27 -13 13 0 25 6 28 13 2 8 -7 12 -28 12 -21
0 -30 -4 -27 -12z"/>
<path d="M6318 633 c12 -2 30 -2 40 0 9 3 -1 5 -23 4 -22 0 -30 -2 -17 -4z"/>
<path d="M6537 629 c8 -8 16 -8 30 0 16 9 14 10 -11 11 -22 0 -27 -3 -19 -11z"/>
<path d="M6770 630 c0 -5 6 -10 14 -10 8 0 18 5 21 10 3 6 -3 10 -14 10 -12 0
-21 -4 -21 -10z"/>
<path d="M7040 634 c0 -11 45 -43 62 -44 15 0 38 27 38 44 0 3 -22 6 -50 6
-27 0 -50 -3 -50 -6z"/>
<path d="M6746 583 c-10 -11 107 -32 118 -22 11 10 -4 15 -65 23 -26 3 -49 2
-53 -1z"/>
<path d="M5795 526 c-18 -13 -18 -14 3 -20 26 -9 82 2 82 15 0 5 -9 9 -19 9
-11 0 -25 2 -33 5 -7 3 -22 -1 -33 -9z"/>
<path d="M3 505 c-3 -9 -3 -18 0 -21 9 -9 27 6 27 22 0 19 -19 18 -27 -1z"/>
<path d="M8255 420 c-3 -5 3 -10 15 -10 12 0 18 5 15 10 -3 6 -10 10 -15 10
-5 0 -12 -4 -15 -10z"/>
<path d="M6840 401 l-55 -6 70 -7 c111 -12 187 -10 183 5 -5 13 -103 17 -198
8z"/>
<path d="M7165 380 c-36 -13 21 -25 100 -20 l30 1 -25 10 c-32 14 -80 18 -105
9z"/>
<path d="M1178 335 c-3 -3 -122 -8 -264 -10 -228 -4 -290 -7 -329 -14 -5 -1 0
-6 13 -11 12 -5 22 -16 22 -25 0 -24 108 -23 145 1 32 21 595 18 617 -4 17
-17 80 -15 106 4 31 21 28 34 -9 34 -17 0 -38 4 -47 9 -19 10 -246 24 -254 16z"/>
<path d="M0 245 c0 -11 12 -15 51 -15 45 0 50 2 39 15 -17 20 -90 20 -90 0z"/>
<path d="M155 240 c-6 -10 44 -35 53 -26 2 3 2 12 -1 21 -7 17 -42 21 -52 5z"/>
<path d="M13 193 c-7 -2 -13 -17 -13 -31 1 -23 2 -25 13 -11 7 8 20 18 30 22
10 4 15 11 12 17 -7 11 -22 12 -42 3z"/>
<path d="M205 150 c-11 -5 -38 -9 -60 -9 -22 -1 -50 -8 -63 -16 -12 -9 -27
-15 -34 -14 -44 5 -48 0 -48 -56 l0 -55 263 0 c177 0 267 4 274 11 8 8 17 8
31 0 28 -15 207 -14 272 1 52 12 72 30 53 49 -11 11 -183 -15 -215 -32 -44
-23 -84 -1 -46 25 34 24 14 31 -35 12 -32 -12 -51 -14 -73 -7 -49 16 -216 22
-278 10 -32 -6 -60 -8 -63 -6 -2 3 17 26 44 51 44 42 46 46 23 45 -14 0 -34
-4 -45 -9z"/>
<path d="M507 124 c-8 -8 1 -24 14 -24 5 0 9 7 9 15 0 15 -12 20 -23 9z"/>
<path d="M915 70 c-8 -12 20 -24 35 -15 6 3 8 11 5 16 -8 12 -32 12 -40 -1z"/>
<path d="M1070 30 c-14 -4 -47 -9 -75 -9 -27 -1 -57 -6 -65 -11 -10 -7 22 -10
103 -9 104 1 118 3 115 18 -4 18 -40 24 -78 11z"/>
</g>
</svg>
