<?xml version="1.0" standalone="no"?>
<!DOCTYPE svg PUBLIC "-//W3C//DTD SVG 20010904//EN"
 "http://www.w3.org/TR/2001/REC-SVG-20010904/DTD/svg10.dtd">
<svg version="1.0" xmlns="http://www.w3.org/2000/svg"
 width="300.000000pt" height="400.000000pt" viewBox="0 0 300.000000 400.000000"
 preserveAspectRatio="xMidYMid meet">
<metadata>
Created by potrace 1.10, written by Peter Selinger 2001-2011
</metadata>
<g transform="translate(0.000000,400.000000) scale(0.100000,-0.100000)"
fill="#000000" stroke="none">
<path d="M1946 3005 c-5 -22 -21 -61 -37 -86 -34 -54 -36 -63 -9 -56 29 7 25
-2 -6 -13 -19 -8 -24 -15 -19 -28 4 -9 11 -41 15 -71 5 -29 12 -56 16 -60 3
-3 4 10 1 29 -6 35 -6 35 7 -4 14 -45 26 -31 20 24 -6 49 -12 62 -26 55 -7 -4
-2 3 12 14 21 18 22 20 5 15 -16 -5 -17 -4 -5 5 16 12 69 15 94 5 8 -3 13 -13
10 -22 -3 -9 1 -6 8 7 10 19 10 25 0 29 -7 2 -10 8 -7 13 7 11 -11 47 -41 79
-13 15 -24 41 -26 65 l-4 40 -8 -40z"/>
<path d="M1110 3003 c0 -16 -14 -48 -30 -72 -17 -24 -30 -51 -31 -60 0 -9 -1
-65 -2 -124 -2 -82 -5 -110 -17 -117 -12 -8 -12 -11 3 -28 13 -14 16 -32 13
-73 -2 -30 -4 -62 -5 -71 -1 -17 -17 -18 -196 -18 -199 0 -213 -3 -179 -37 13
-13 42 -15 170 -15 86 1 160 5 166 8 7 4 8 2 4 -4 -4 -7 -3 -12 3 -12 5 0 13
5 17 11 3 6 15 9 25 6 10 -3 22 -1 25 4 3 5 23 9 45 9 22 0 38 4 34 9 -3 5 -1
12 5 16 5 3 8 22 5 41 -3 24 -1 33 7 28 7 -4 8 -3 4 4 -15 25 -26 10 -26 -33
0 -40 -3 -45 -22 -46 -42 -3 -66 -6 -85 -13 -13 -4 -11 0 7 15 14 12 24 26 22
30 -1 5 2 9 7 9 10 0 9 90 -2 107 -17 27 4 43 60 43 47 0 56 -3 60 -20 4 -15
9 -18 18 -10 7 6 31 9 54 7 23 -2 44 -1 46 3 2 4 26 4 54 0 27 -3 59 -3 71 2
12 4 27 5 33 1 6 -4 42 -7 79 -7 49 -1 71 -5 78 -16 6 -9 5 -17 -3 -22 -7 -4
1 -7 18 -7 17 0 24 3 17 6 -7 2 -17 14 -23 24 -10 19 -6 20 104 18 110 -2 114
-3 109 -23 -4 -20 -4 -20 10 -3 13 17 14 9 17 -73 l2 -92 -53 2 c-132 4 -238
-1 -238 -10 0 -7 41 -9 121 -6 67 3 132 1 145 -4 15 -6 26 -5 30 1 3 6 17 9
30 6 13 -2 24 0 24 4 0 15 85 10 106 -6 16 -12 70 -14 307 -15 l288 0 -7 23
c-3 12 -7 23 -8 24 -1 2 -131 3 -289 3 -278 1 -287 2 -287 21 0 27 -44 42
-107 36 l-53 -6 0 64 c0 58 2 63 20 58 11 -3 27 0 34 7 11 8 20 8 34 1 11 -6
22 -8 25 -4 4 3 13 1 20 -6 11 -9 17 -8 27 4 7 9 11 18 8 20 -10 10 -136 16
-142 7 -3 -5 -78 -10 -166 -11 -138 -2 -160 0 -160 14 0 10 -9 15 -27 14 -27
0 -27 -1 -5 -9 12 -5 22 -12 22 -15 0 -7 -365 1 -435 9 -22 3 -53 5 -70 6 -29
2 -30 2 -5 10 14 4 35 5 47 3 12 -3 30 0 40 6 14 8 7 10 -34 11 -31 0 -53 5
-53 11 0 5 5 7 10 4 6 -4 10 16 10 54 0 48 -3 60 -17 64 -17 4 -17 5 0 6 10 1
17 9 17 22 0 20 4 21 46 16 26 -2 50 -11 55 -18 4 -7 11 -10 15 -6 16 16 -18
31 -83 37 -63 6 -66 10 -18 25 8 2 15 0 15 -5 0 -15 30 -12 30 3 0 7 7 4 15
-7 21 -28 28 -13 12 25 -17 42 -46 69 -43 42 0 -10 5 -21 10 -24 5 -4 5 -12 1
-18 -10 -17 -35 5 -30 27 15 81 16 102 6 102 -6 0 -11 -12 -11 -27z m918 -539
c9 -2 11 -11 7 -25 -5 -14 -3 -19 3 -15 6 3 13 3 15 -1 3 -5 -33 -8 -79 -8
-60 0 -84 3 -84 13 0 6 6 12 13 12 8 0 7 3 -3 10 -13 8 -13 9 0 14 8 2 22 7
30 9 14 5 71 0 98 -9z m556 -61 c8 3 18 2 21 -3 4 -6 -17 -10 -49 -10 -31 0
-56 4 -56 9 0 4 11 6 25 3 17 -3 25 0 25 9 0 12 2 12 9 0 5 -8 16 -11 25 -8z
m-225 -8 c2 -3 -38 -4 -90 -4 -59 1 -85 5 -69 9 25 8 150 3 159 -5z"/>
<path d="M1117 2803 c-11 -10 -8 -63 3 -63 6 0 10 16 10 35 0 36 -2 40 -13 28z"/>
<path d="M1148 2780 c-2 -24 -4 -34 -12 -52 -5 -10 -6 -23 -3 -30 3 -7 6 -3 6
10 1 12 6 22 11 22 6 0 11 12 11 28 1 19 3 21 6 8 3 -10 0 -29 -7 -41 -17 -33
-9 -52 13 -31 16 16 17 16 17 -2 0 -17 8 -19 68 -19 37 1 70 5 74 11 5 8 8 8
8 0 0 -6 11 -11 25 -11 14 0 25 4 25 10 0 6 6 3 13 -8 9 -11 16 -14 21 -7 6
10 29 9 84 -4 13 -2 21 -1 18 4 -3 5 4 16 14 25 18 15 19 14 22 -6 2 -16 11
-22 41 -25 27 -2 39 1 43 13 6 14 8 14 20 -2 8 -10 13 -13 14 -6 0 7 7 10 15
7 9 -4 15 0 15 7 0 11 3 11 10 -1 9 -13 11 -13 20 0 8 13 10 12 10 -4 0 -15 3
-16 15 -6 10 9 15 9 15 1 0 -6 7 -11 16 -11 8 0 13 3 11 8 -3 4 1 13 9 19 9 9
15 10 20 2 3 -6 0 -15 -7 -20 -10 -6 -3 -9 21 -11 19 -1 -17 -5 -80 -8 l-115
-6 116 -2 117 -2 -2 32 c-1 38 -39 66 -61 48 -8 -7 -59 -8 -141 -5 -71 4 -136
6 -144 5 -18 -1 -256 -2 -318 -1 l-42 1 6 39 c6 36 4 40 -15 38 -11 -1 -22 -8
-23 -17z"/>
<path d="M1963 2765 c0 -19 4 -35 9 -35 4 0 8 -7 8 -16 0 -8 4 -13 9 -10 5 3
11 -3 14 -14 3 -13 0 -20 -9 -20 -8 0 -14 -4 -14 -9 0 -13 53 -21 65 -10 5 6
4 9 -5 9 -11 0 -15 14 -15 57 0 58 -17 86 -23 38 -5 -38 -22 -30 -22 10 0 19
-4 35 -8 35 -5 0 -9 -16 -9 -35z"/>
<path d="M1910 2660 c-11 -7 -5 -10 23 -10 20 0 37 5 37 10 0 13 -40 13 -60 0z"/>
<path d="M1398 2643 c17 -2 47 -2 65 0 17 2 3 4 -33 4 -36 0 -50 -2 -32 -4z"/>
<path d="M1218 2535 c-1 -31 0 -59 5 -62 4 -2 7 0 7 5 0 6 8 8 19 5 24 -6 33
8 15 25 -9 8 -14 9 -14 2 0 -29 -16 3 -18 36 -4 57 -10 52 -14 -11z"/>
<path d="M1773 2552 c18 -19 47 -25 47 -10 0 8 -42 28 -57 28 -3 0 1 -8 10
-18z"/>
<path d="M1177 2443 c-10 -21 -1 -48 15 -45 9 1 19 -2 22 -7 4 -5 18 -6 34 -2
15 4 78 6 140 5 64 -2 112 1 112 7 0 5 -65 9 -154 9 -149 0 -155 1 -151 20 4
19 -10 28 -18 13z"/>
<path d="M421 2418 c-5 -13 -8 -24 -7 -25 1 -1 45 -3 99 -4 99 -1 131 8 120
37 -4 11 -28 14 -104 14 -94 0 -100 -1 -108 -22z"/>
<path d="M1543 2413 c-18 -2 -33 -8 -33 -12 0 -13 64 -5 68 8 2 6 2 10 0 9 -1
0 -18 -3 -35 -5z"/>
<path d="M1153 2393 c4 -7 -22 -12 -73 -15 -43 -3 -86 -10 -94 -17 -11 -9 -38
-12 -86 -9 -66 3 -96 -6 -47 -15 12 -2 -36 -4 -108 -4 l-130 1 105 6 c58 3 90
7 73 8 -19 1 -33 8 -33 15 0 9 -2 9 -8 0 -4 -7 -32 -12 -65 -12 -37 0 -57 5
-57 12 0 9 -2 9 -8 0 -8 -12 -41 -11 -62 2 -6 3 -10 3 -10 -2 0 -4 -11 -9 -25
-9 -14 -1 -25 2 -25 8 0 5 -6 6 -12 1 -20 -12 -41 -13 -54 -2 -18 14 -47 0
-38 -20 16 -35 17 -131 1 -159 -1 -2 91 -3 206 -2 151 0 207 -2 207 -11 0 -8
4 -8 15 1 9 7 22 9 32 5 10 -5 21 -8 24 -7 3 1 28 3 55 5 27 3 78 10 114 16
36 6 79 13 95 15 41 6 -108 -3 -167 -10 -37 -5 -48 -3 -48 7 0 12 -2 12 -9 1
-6 -11 -17 -11 -47 -3 -21 6 -41 7 -44 2 -3 -5 -97 -9 -210 -8 -113 0 -179 2
-147 4 32 2 55 8 53 12 -3 4 -27 6 -54 5 l-49 -3 1 48 c1 52 21 81 56 81 12 0
18 -4 15 -10 -4 -6 11 -10 37 -10 24 0 132 -2 241 -4 108 -2 197 0 197 4 0 5
-12 11 -27 13 -20 3 -15 4 15 6 24 0 41 -3 38 -7 -3 -5 1 -9 8 -9 8 0 11 8 9
17 -5 20 31 30 108 30 47 0 62 11 37 26 -6 4 -8 3 -5 -3z m-544 -59 c2 -2 -18
-4 -45 -3 -36 0 -44 3 -29 9 18 7 63 3 74 -6z"/>
<path d="M1252 2368 c-15 -7 -14 -8 3 -7 57 3 396 -5 373 -8 -25 -4 -28 -8
-28 -44 0 -29 -4 -39 -16 -39 -14 0 -15 7 -10 40 6 39 6 40 -24 40 -28 0 -30
-2 -30 -41 0 -58 24 -98 60 -99 11 0 11 3 2 12 -17 17 -15 38 3 38 8 0 15 -7
15 -15 0 -8 7 -15 15 -15 8 0 15 -4 15 -10 0 -5 6 -10 14 -10 10 0 13 10 10
38 -2 20 -1 53 2 73 l5 37 157 4 c86 2 159 3 160 2 2 -1 -1 -11 -7 -21 -6 -10
-11 -12 -11 -5 0 6 -9 12 -20 12 -13 0 -18 -5 -14 -15 4 -8 1 -15 -5 -15 -6 0
-11 7 -11 15 0 10 -11 15 -35 15 -19 0 -35 -3 -36 -7 -7 -89 -7 -85 17 -80 24
4 33 -7 14 -18 -10 -6 -2 -35 10 -35 13 0 19 54 7 62 -6 4 -14 5 -18 2 -15 -9
-19 15 -7 41 11 24 30 31 29 10 0 -13 43 -29 47 -17 1 5 14 7 27 4 20 -3 23
-8 19 -32 -4 -18 -1 -29 8 -32 9 -4 14 2 16 15 1 17 -1 19 -8 7 -8 -13 -10
-12 -10 3 0 9 5 17 11 17 11 0 9 16 -6 53 -4 10 -3 17 4 17 6 0 11 -9 11 -20
0 -23 25 -27 34 -5 3 9 0 15 -10 15 -8 0 -12 4 -9 10 3 5 20 7 38 3 18 -3 28
-2 24 3 -10 11 -810 12 -835 2z"/>
<path d="M1060 2335 c0 -14 5 -25 11 -25 5 0 7 -4 4 -10 -3 -5 -1 -10 4 -10 6
0 11 7 11 15 0 9 9 15 24 15 19 0 23 4 19 20 -6 23 -23 27 -23 5 0 -8 -4 -15
-10 -15 -5 0 -10 7 -10 15 0 8 -7 15 -15 15 -9 0 -15 -9 -15 -25z"/>
<path d="M1150 2347 c0 -13 35 -47 49 -47 4 0 8 -10 8 -22 -1 -57 3 -64 31
-66 l27 -2 -1 68 c-1 66 -1 67 -29 70 -15 2 -32 -2 -37 -10 -7 -10 -10 -9 -19
5 -12 20 -29 23 -29 4z"/>
<path d="M2369 2350 c-215 -4 -280 -8 -293 -19 -15 -12 -16 -12 -10 5 5 18 5
18 -9 1 -16 -19 -13 -47 5 -47 5 0 6 -5 3 -10 -4 -6 -11 -8 -16 -5 -5 4 -9 1
-9 -4 0 -6 6 -11 13 -11 8 0 7 -4 -3 -10 -8 -5 -10 -10 -4 -10 7 0 14 -8 16
-18 5 -16 -3 -18 -76 -19 -312 -4 -490 -11 -486 -19 3 -5 34 -8 70 -7 36 1 97
1 135 1 39 0 95 1 125 3 64 3 129 3 524 -6 276 -6 335 -3 309 13 -6 4 -14 33
-18 64 -5 46 -4 61 9 74 19 19 21 35 4 32 -7 -1 -137 -5 -289 -8z m-201 -40
c26 1 97 1 159 1 l111 -1 -3 -43 c-2 -24 1 -50 6 -58 6 -9 9 5 9 43 0 46 4 59
19 68 24 12 54 13 47 1 -3 -5 10 -11 29 -13 38 -4 49 8 13 15 -13 2 -3 5 22 5
27 0 38 -2 27 -6 -16 -7 -16 -8 1 -21 13 -9 17 -23 16 -47 -2 -19 1 -32 6 -29
4 3 7 -3 6 -12 -3 -17 -24 -18 -282 -20 -165 -1 -271 2 -259 7 14 6 16 9 5 10
-8 2 -18 2 -23 1 -6 -1 -6 20 2 112 1 4 10 3 22 -3 11 -6 41 -11 67 -10z"/>
<path d="M1030 2337 c0 -10 -6 -20 -14 -23 -11 -4 -14 -18 -11 -51 5 -73 21
-75 26 -3 2 25 8 48 13 51 4 4 3 15 -3 25 -10 18 -10 18 -11 1z"/>
<path d="M1289 2345 c0 -3 -1 -23 -1 -45 0 -64 0 -64 18 -49 15 12 16 11 10
-7 -5 -15 -2 -24 10 -28 22 -8 30 0 16 17 -7 8 -9 17 -5 20 5 6 7 47 4 87 -1
10 -50 15 -52 5z"/>
<path d="M1365 2308 c4 -24 7 -44 8 -45 7 -6 46 -6 47 0 0 4 0 25 0 47 0 38
-2 40 -30 40 -31 0 -31 0 -25 -42z"/>
<path d="M1440 2305 c0 -39 3 -45 21 -45 16 0 20 -5 16 -19 -3 -12 1 -22 10
-25 23 -9 26 -7 13 9 -9 11 -10 18 -1 28 6 8 8 17 5 20 -3 3 -6 22 -6 41 0 33
-2 36 -29 36 -28 0 -29 -2 -29 -45z"/>
<path d="M1680 2311 c0 -55 1 -56 20 -53 14 2 16 -3 13 -23 -4 -18 -1 -25 11
-25 12 0 15 6 10 25 -5 22 -3 25 21 25 22 0 26 -4 22 -19 -3 -12 1 -22 10 -25
27 -11 34 -6 22 15 -6 12 -7 24 -3 28 5 3 9 24 9 46 0 36 -3 40 -27 43 -27 3
-28 1 -28 -37 0 -31 -4 -41 -16 -41 -12 0 -15 9 -12 38 3 34 1 37 -24 40 -27
3 -28 1 -28 -37z"/>
<path d="M749 2305 c-1 -3 -2 -14 -3 -24 -1 -21 -16 -42 -16 -23 0 7 -10 11
-22 11 -19 -1 -19 -2 -5 -6 10 -3 16 -10 14 -16 -3 -7 5 -12 18 -12 18 0 22 5
20 23 -1 14 3 22 14 23 10 0 12 2 3 6 -6 2 -10 9 -6 14 3 5 0 9 -5 9 -6 0 -12
-2 -12 -5z"/>
<path d="M644 2287 c-20 -11 -22 -37 -3 -37 4 0 6 8 2 18 -5 13 1 11 22 -8
l28 -25 -17 26 c-9 14 -13 29 -9 32 10 10 1 8 -23 -6z"/>
<path d="M1065 2260 c-9 -27 6 -50 16 -24 4 10 8 25 8 32 1 20 -17 14 -24 -8z"/>
<path d="M784 2253 c3 -6 0 -14 -6 -16 -8 -3 -6 -6 5 -6 9 -1 17 -8 17 -16 0
-8 4 -15 10 -15 5 0 7 6 4 14 -4 9 3 16 18 19 22 4 22 4 -2 6 -15 0 -32 7 -39
14 -9 8 -12 8 -7 0z"/>
<path d="M1388 2243 c-10 -3 -18 -9 -18 -14 0 -9 48 -24 55 -17 10 10 -21 34
-37 31z"/>
<path d="M1196 2189 c10 -4 29 -8 40 -8 16 -1 22 -7 20 -24 -1 -21 -4 -23 -33
-17 -28 7 -32 5 -38 -17 -7 -31 1 -41 18 -23 9 10 9 11 0 6 -7 -4 -13 -2 -13
4 0 8 14 11 40 8 37 -3 40 -1 40 20 0 18 3 22 13 14 7 -5 30 -6 57 -2 44 7 24
15 -27 10 -13 -1 -23 4 -23 10 0 6 10 10 22 8 11 -2 23 2 25 8 3 8 -22 11 -78
11 -47 0 -74 -4 -63 -8z"/>
<path d="M1353 2185 c5 -15 46 -18 63 -5 10 9 17 10 28 1 10 -9 16 -8 26 4 12
14 6 16 -53 13 -39 -2 -66 -7 -64 -13z"/>
<path d="M2660 2160 l-35 -7 45 -3 c42 -2 43 -3 15 -10 -16 -4 -60 -8 -97 -9
-65 -1 -68 -2 -68 -26 0 -13 8 -29 18 -35 15 -9 14 -10 -8 -8 -21 3 -25 8 -24
36 2 28 -1 32 -22 32 -19 0 -24 -5 -24 -25 0 -16 6 -25 15 -25 8 0 15 -5 15
-11 0 -6 -10 -9 -22 -7 -19 2 -23 9 -23 36 0 28 -3 32 -26 32 -22 0 -27 -4
-25 -25 1 -23 2 -24 14 -8 11 15 12 15 12 -3 0 -36 20 -44 115 -44 97 0 121
-7 99 -27 -8 -8 -15 -9 -19 -3 -3 6 -10 10 -16 10 -5 0 -4 -9 3 -20 7 -11 19
-18 25 -15 7 2 13 -2 13 -10 0 -12 -16 -15 -75 -15 -41 0 -75 -3 -75 -8 0 -4
33 -6 74 -4 72 4 74 3 73 -20 0 -12 3 -31 7 -40 7 -16 0 -18 -75 -20 l-84 -2
75 -3 c41 -2 79 -8 84 -13 7 -7 4 -10 -7 -10 -13 0 -16 -4 -9 -17 14 -29 8
-48 -15 -51 -13 -2 -23 1 -23 7 0 6 -7 11 -15 11 -9 0 -12 -6 -9 -15 4 -10 20
-15 49 -15 39 0 43 -2 38 -21 -3 -11 -9 -17 -12 -12 -3 4 -22 9 -41 10 l-35 2
33 -11 c17 -6 32 -15 32 -20 0 -5 5 -6 10 -3 6 3 10 -4 10 -15 0 -21 -4 -22
-80 -18 -44 2 -80 0 -80 -4 0 -5 19 -8 43 -8 24 0 48 -5 55 -12 9 -9 12 -9 12
0 0 9 5 9 20 0 15 -10 22 -10 28 -1 4 6 7 -9 8 -33 l1 -44 -51 -1 c-28 -1 -54
-1 -58 0 -5 0 -8 -3 -8 -9 0 -6 27 -10 60 -10 33 0 60 -4 60 -10 0 -5 -8 -11
-17 -12 -10 -1 -25 -2 -33 -4 -8 -1 -21 -2 -27 -3 -7 -1 -13 -5 -13 -10 0 -4
20 -7 45 -6 31 1 45 -2 45 -11 0 -7 5 -16 11 -20 12 -7 7 264 -7 468 -7 92 7
143 47 177 48 40 33 49 -51 31z m-76 -62 c-4 -6 1 -17 11 -25 18 -12 18 -13
-1 -13 -12 0 -23 2 -26 5 -9 9 4 55 13 49 5 -3 6 -10 3 -16z m76 2 c0 -5 -3
-15 -6 -24 -9 -22 -24 -10 -24 19 0 18 4 23 15 19 8 -4 15 -10 15 -14z"/>
<path d="M335 2138 c11 -13 22 -25 25 -28 3 -3 13 -21 23 -41 17 -33 18 -57
11 -315 -3 -153 -8 -281 -10 -283 -3 -3 -25 -4 -49 -2 -26 1 -45 -2 -45 -9 0
-5 -5 -10 -11 -10 -7 0 -10 20 -9 53 3 73 2 85 -9 69 -4 -7 -6 -35 -3 -61 3
-35 -1 -56 -13 -75 -15 -22 -15 -26 -2 -26 8 0 18 6 20 13 4 9 6 9 6 -1 1 -10
5 -10 24 0 30 17 60 21 51 7 -8 -14 38 10 47 23 4 6 9 -2 13 -16 4 -16 11 -24
18 -20 6 4 8 3 5 -2 -3 -6 -2 -16 3 -24 6 -10 -2 -24 -26 -47 -20 -18 -40 -33
-45 -33 -14 0 -11 44 5 65 12 16 16 17 30 6 11 -9 16 -10 16 -2 0 6 -4 11 -10
11 -5 0 -10 9 -10 20 0 11 -4 20 -10 20 -5 0 -10 -4 -10 -10 0 -5 -12 -13 -27
-16 -16 -4 -31 -11 -34 -17 -4 -5 -15 -5 -28 3 -12 6 -35 8 -52 5 -19 -4 -29
-3 -29 5 0 7 7 10 15 6 13 -4 14 -2 5 14 -14 27 -30 25 -30 -2 0 -29 -15 -54
-24 -40 -3 6 -2 13 4 17 14 9 12 45 -3 45 -7 0 -21 -11 -31 -25 -20 -27 -42
-33 -48 -13 -3 8 -12 4 -26 -10 -12 -12 -20 -23 -17 -23 3 -1 10 -3 15 -4 6
-1 16 -3 22 -4 7 0 2 -8 -11 -17 -19 -14 -25 -14 -32 -3 -7 11 -9 10 -9 -3 0
-10 -4 -18 -10 -18 -15 0 -12 16 4 30 8 6 12 18 9 26 -3 7 2 17 11 20 9 3 16
15 16 26 0 14 -5 18 -16 14 -9 -3 -20 -6 -25 -6 -5 0 -9 -7 -9 -16 0 -9 5 -12
12 -8 7 4 5 -2 -4 -13 -27 -30 -21 -93 8 -93 8 0 14 -8 15 -17 0 -10 3 -27 5
-38 3 -11 6 -36 7 -55 2 -27 8 -38 30 -48 22 -11 27 -20 27 -48 0 -32 -2 -34
-25 -28 -15 4 -30 1 -39 -9 -23 -22 -46 -86 -46 -125 0 -50 17 -29 30 35 9 51
28 93 41 93 10 0 16 -30 18 -102 2 -66 2 -67 -26 -71 l-28 -4 28 -2 c23 -1 28
-5 25 -23 -2 -17 -9 -22 -23 -20 -15 2 -17 1 -6 -6 16 -11 53 -4 45 9 -3 5 2
12 10 15 24 9 19 24 -6 25 l-23 0 23 9 c18 8 22 17 23 57 0 26 1 86 2 133 l2
85 -38 -2 -37 -2 22 38 c12 22 26 37 30 35 5 -3 8 3 8 13 -1 16 -3 15 -20 -5
-21 -26 -25 -22 -34 34 -6 36 -5 41 18 54 32 17 33 28 4 40 -16 6 -18 9 -7 9
9 1 22 -5 29 -13 6 -8 18 -12 26 -9 8 3 14 -1 14 -11 0 -9 4 -16 10 -16 5 0 9
6 7 13 -1 6 6 11 16 9 9 -2 17 1 17 6 0 13 29 24 42 16 5 -4 4 -13 -5 -22 -19
-23 -20 -177 -1 -214 17 -34 18 -59 2 -55 -7 1 -12 -4 -11 -10 2 -7 -2 -13 -8
-13 -5 0 -7 -5 -4 -11 4 -6 13 -8 21 -5 10 4 14 -3 14 -25 0 -33 -19 -59 -44
-59 -9 0 -16 -5 -16 -11 0 -6 -9 -8 -22 -4 -18 5 -20 4 -7 -4 24 -16 89 8 100
37 16 41 11 150 -8 179 -12 18 -13 24 -4 19 10 -7 12 -2 6 22 l-6 30 35 -16
c19 -10 35 -22 36 -28 0 -6 11 -16 24 -22 15 -7 26 -22 30 -44 3 -18 9 -44 12
-58 4 -14 7 -37 8 -52 0 -16 5 -28 9 -28 5 0 6 -13 3 -30 -2 -16 0 -30 5 -30
17 0 13 67 -7 129 -11 33 -12 46 -3 51 17 11 14 140 -4 140 -5 0 -4 7 3 15 15
18 9 28 -12 20 -22 -9 -23 -85 -1 -85 13 0 13 -3 3 -15 -10 -12 -15 -13 -20
-4 -5 6 -13 8 -20 4 -8 -5 -11 -4 -6 3 4 6 -12 22 -39 37 -34 20 -45 33 -45
51 0 17 6 24 20 24 13 0 20 -7 20 -18 0 -11 10 -27 21 -38 l22 -19 -6 43 c-5
42 0 51 20 31 12 -12 49 5 71 34 14 19 52 24 52 6 0 -6 -5 -20 -11 -32 -6 -13
2 -7 20 13 35 40 35 55 0 55 -28 0 -46 22 -31 37 14 14 50 0 57 -23 8 -25 21
-24 28 1 3 13 0 20 -8 20 -15 0 -29 35 -20 49 3 6 -7 4 -22 -4 -22 -12 -30
-12 -43 -1 -8 7 -23 16 -34 20 -14 5 -17 12 -12 32 9 35 25 49 59 52 18 1 27
-3 27 -13 0 -8 5 -15 11 -15 5 0 7 5 3 11 -3 6 0 15 7 20 15 9 14 9 -52 13
-31 2 -65 31 -48 41 6 4 8 18 5 31 l-6 24 100 0 100 0 0 -50 0 -50 -42 -1 -43
-2 40 -6 40 -6 6 -60 6 -60 2 50 c1 28 3 104 4 169 2 108 4 120 22 128 12 5
-31 7 -106 5 l-126 -4 -1 43 c-2 33 2 44 15 47 17 4 17 5 1 6 -16 1 -18 12
-18 91 l0 90 64 0 c42 0 66 -4 69 -12 4 -9 6 -9 6 -1 1 6 10 9 21 6 11 -3 20
-1 20 5 0 5 -9 12 -20 15 -11 3 -20 9 -19 14 5 27 -3 53 -16 53 -8 0 -15 5
-15 10 0 6 -6 10 -14 10 -20 0 1 -78 23 -83 9 -3 4 -5 -11 -6 -25 -1 -28 2
-28 34 0 31 -3 35 -25 35 -21 0 -25 -5 -25 -29 0 -20 6 -31 18 -35 10 -3 6 -4
-8 -3 -20 2 -26 8 -28 35 -3 26 -8 32 -27 32 -13 0 -26 3 -29 8 -2 4 14 6 37
4 23 -3 39 -1 35 3 -4 5 -34 10 -65 12 l-58 5 20 -24z m275 -424 l0 -44 -53 0
c-29 0 -59 6 -66 13 -11 10 -13 10 -7 0 5 -9 -3 -13 -28 -13 -38 0 -49 18 -35
57 5 14 4 23 -4 26 -7 3 34 5 91 5 l102 -1 0 -43z m-265 -341 c-3 -10 -9 -30
-12 -45 -5 -27 -13 -32 -43 -28 -27 3 -33 18 -15 37 17 16 17 18 2 21 -9 2
-17 8 -17 14 0 5 12 7 29 3 17 -3 32 -2 36 4 11 18 28 12 20 -6z"/>
<path d="M958 2135 c3 -17 11 -23 30 -23 15 0 30 5 34 11 4 7 11 2 17 -13 9
-24 10 -24 10 -2 1 28 21 29 21 0 0 -27 5 -21 14 15 5 23 3 27 -14 27 -11 0
-20 -4 -20 -9 0 -11 -51 -5 -59 7 -3 5 -13 9 -22 9 -11 0 -14 -7 -11 -22z"/>
<path d="M1418 2153 c17 -2 47 -2 65 0 17 2 3 4 -33 4 -36 0 -50 -2 -32 -4z"/>
<path d="M1836 2145 c5 -11 2 -14 -12 -9 -11 4 -15 3 -11 -1 10 -12 97 -14 97
-3 0 5 5 6 11 2 7 -4 43 -7 80 -6 77 1 70 10 71 -91 0 -27 4 -37 13 -33 8 3
19 -2 26 -10 10 -12 9 -13 -6 -8 -25 10 -34 -12 -30 -70 2 -28 4 -66 5 -85 0
-19 3 -31 8 -27 4 4 7 19 7 33 0 39 23 40 28 1 2 -18 5 9 5 61 2 77 -1 96 -15
106 -16 12 -25 65 -11 65 4 0 8 -4 8 -10 0 -5 7 -10 16 -10 13 0 14 3 4 15 -7
8 -10 26 -8 40 3 14 1 28 -4 31 -4 3 -6 10 -3 15 9 14 -5 11 -20 -5 -8 -7 -11
-17 -7 -21 4 -4 -5 0 -20 9 -23 15 -43 17 -123 13 -56 -4 -95 -2 -95 4 0 5 -4
9 -10 9 -5 0 -7 -7 -4 -15z m284 -230 c0 -24 -5 -35 -15 -35 -18 0 -20 16 -2
23 9 4 9 8 -2 15 -7 5 -10 15 -7 21 14 22 26 10 26 -24z"/>
<path d="M897 2118 c7 -39 17 -53 32 -44 17 11 13 26 -4 20 -8 -4 -15 -2 -15
4 0 5 10 13 23 17 l22 8 -23 4 c-12 2 -20 9 -17 14 4 5 -1 9 -9 9 -12 0 -14
-7 -9 -32z"/>
<path d="M1096 2126 c-6 -22 0 -36 15 -36 6 0 7 9 4 20 -5 14 -2 20 9 20 9 0
16 4 16 9 0 18 -39 7 -44 -13z"/>
<path d="M649 2133 c-20 -5 -13 -63 8 -63 8 0 11 -4 8 -10 -3 -5 0 -10 8 -10
11 0 15 11 13 42 -3 42 -8 49 -37 41z"/>
<path d="M700 2108 c0 -21 6 -31 20 -35 11 -3 17 -9 14 -14 -3 -5 0 -9 5 -9 6
0 11 19 11 43 0 38 -2 42 -25 43 -21 2 -25 -2 -25 -28z"/>
<path d="M2141 2108 c1 -18 3 -25 6 -15 7 25 28 15 28 -13 0 -13 5 -25 11 -27
7 -2 8 11 5 39 -5 35 -10 44 -28 46 -20 3 -23 -1 -22 -30z"/>
<path d="M2237 2132 c-24 -2 -37 -8 -34 -15 3 -7 10 -11 16 -9 6 1 11 -5 11
-13 0 -9 -6 -12 -17 -9 -17 5 -17 5 0 -6 9 -6 15 -15 12 -21 -4 -5 2 -9 12 -9
16 0 18 6 15 35 -3 21 0 35 7 35 9 0 13 -18 10 -47 -1 -12 33 -22 79 -22 32
-1 41 2 35 11 -4 7 -6 25 -4 40 2 24 -1 28 -23 28 -22 0 -26 -4 -26 -29 0 -20
6 -31 18 -35 10 -3 6 -4 -8 -3 -21 2 -25 7 -24 34 2 35 -11 40 -79 35z"/>
<path d="M570 2105 c0 -15 7 -29 18 -33 9 -4 19 -14 21 -22 2 -8 6 -23 8 -32
4 -13 -1 -18 -18 -19 -21 -1 -21 -2 -4 -6 11 -3 23 -10 27 -17 5 -6 8 -2 8 12
0 17 6 22 26 22 14 0 23 -4 20 -9 -4 -5 3 -7 14 -4 11 3 20 10 20 15 0 5 3 7
8 5 4 -3 16 -1 27 4 13 5 -5 8 -52 8 -68 1 -96 13 -55 24 16 4 16 5 0 6 -14 1
-18 10 -18 36 0 31 -3 35 -25 35 -20 0 -25 -5 -25 -25z"/>
<path d="M770 2099 c0 -26 3 -30 22 -27 17 2 23 10 25 31 1 23 -2 27 -23 27
-20 0 -24 -5 -24 -31z"/>
<path d="M830 2105 c0 -14 5 -25 10 -25 6 0 10 7 10 16 0 8 5 12 10 9 6 -4 8
-11 5 -16 -4 -5 -1 -9 4 -9 6 0 11 11 11 25 0 20 -5 25 -25 25 -20 0 -25 -5
-25 -25z"/>
<path d="M1303 2101 c-10 -16 -9 -20 10 -25 32 -8 47 -7 47 4 0 5 -6 7 -14 4
-9 -3 -13 1 -13 12 3 24 -16 27 -30 5z"/>
<path d="M1501 2101 c-10 -6 -1 -8 26 -4 82 11 182 -57 233 -159 32 -66 42
-60 11 7 -49 105 -207 196 -270 156z"/>
<path d="M1730 2093 c0 -16 25 -27 39 -19 6 4 8 13 5 21 -7 17 -44 15 -44 -2z"/>
<path d="M1422 2061 c-22 -16 -43 -36 -48 -43 -4 -7 2 -4 15 6 12 11 38 30 59
42 20 13 32 24 26 24 -6 0 -29 -13 -52 -29z"/>
<path d="M1482 2064 c-62 -31 -124 -99 -148 -160 -12 -32 -20 -41 -26 -32 -5
8 -6 -6 -2 -34 5 -37 3 -49 -8 -53 -15 -6 -21 -35 -7 -35 4 0 6 -10 4 -21 -2
-12 -5 -39 -7 -60 -1 -21 -4 -36 -8 -34 -11 7 -12 355 -1 355 6 0 11 7 11 15
0 8 6 15 14 15 8 0 16 7 20 15 3 9 0 15 -9 15 -8 0 -15 -4 -15 -10 0 -5 -9
-10 -20 -10 -13 0 -20 -7 -20 -20 0 -11 -7 -20 -15 -20 -8 0 -15 7 -15 15 0 8
5 15 11 15 5 0 7 5 4 10 -3 6 1 10 10 10 9 0 14 4 11 9 -4 5 -1 11 5 13 6 2
-11 4 -38 5 -26 1 -42 -1 -35 -4 6 -2 12 -17 12 -31 0 -34 9 -48 35 -56 11 -3
3 -4 -17 -1 -31 3 -38 0 -38 -13 0 -15 2 -15 11 -2 9 12 10 11 6 -7 -4 -16 0
-23 10 -23 10 0 13 6 9 16 -4 11 -1 14 12 12 12 -2 18 -14 20 -41 3 -31 0 -37
-15 -34 -10 1 -18 -2 -18 -8 0 -5 7 -8 16 -7 13 2 17 -6 17 -37 1 -46 -10 -58
-31 -36 -13 12 -16 12 -20 1 -7 -19 1 -26 30 -26 21 0 23 -5 23 -45 0 -42 -2
-45 -27 -45 -14 0 -23 -3 -19 -7 4 -4 15 -8 24 -8 13 0 18 -11 20 -47 3 -47 2
-48 -25 -48 -15 -1 -70 -3 -121 -5 l-93 -3 1 56 c4 139 -1 455 -6 449 -6 -6
-18 -133 -16 -177 3 -78 1 -105 -11 -112 -8 -5 -7 -8 6 -8 11 0 17 -8 17 -25
0 -14 -5 -25 -11 -25 -8 0 -7 -5 2 -16 9 -11 10 -17 1 -23 -7 -4 -8 -19 -2
-45 10 -47 4 -66 -21 -66 -10 0 -19 -5 -19 -11 0 -5 10 -9 22 -7 24 3 32 -17
15 -39 -5 -7 -7 -22 -4 -33 3 -11 2 -20 -2 -20 -4 0 -16 -7 -27 -15 -17 -13
-16 -14 14 -4 27 9 33 17 38 50 4 21 11 39 16 39 6 0 8 -13 6 -30 -3 -16 -1
-30 4 -30 4 0 8 14 8 30 0 28 2 30 43 32 37 1 35 2 -18 8 -55 6 -50 7 48 10
59 2 113 3 120 4 7 1 14 -16 17 -39 3 -28 10 -41 23 -43 14 -2 17 5 17 45 2
174 16 315 36 354 20 40 89 97 133 110 37 11 45 9 96 -16 62 -30 109 -84 125
-144 5 -20 14 -108 20 -196 12 -197 12 -208 0 -200 -5 3 -10 -1 -10 -9 0 -8 7
-19 16 -24 23 -13 44 -77 44 -134 0 -28 5 -48 11 -48 7 0 10 17 7 45 -2 26 1
44 6 42 13 -4 29 -65 24 -91 -3 -17 1 -21 25 -23 22 -2 28 1 23 13 -3 9 -6 29
-6 46 0 23 -4 29 -15 24 -10 -4 -19 3 -27 18 -6 14 -19 27 -30 29 -12 3 -17
10 -13 17 5 8 10 8 20 0 8 -6 5 5 -6 27 -11 21 -25 38 -31 38 -6 0 -12 7 -13
15 -2 14 24 18 71 12 9 -2 34 -43 34 -57 0 -13 -19 -3 -24 13 -3 9 -3 -1 0
-23 3 -22 10 -41 15 -43 5 -2 9 -10 9 -18 0 -7 13 -20 30 -29 36 -19 40 -19
40 1 0 8 -4 13 -9 9 -10 -6 -31 25 -31 46 0 8 6 7 18 -4 17 -16 18 -15 19 18
1 30 -1 33 -14 20 -8 -8 -22 -14 -31 -14 -15 1 -15 2 1 6 9 2 17 12 16 21 0
11 -2 12 -6 5 -8 -22 -23 -14 -23 12 0 21 4 25 24 21 14 -2 27 1 30 7 2 7 5 5
5 -4 1 -9 12 -19 26 -21 21 -4 25 -1 25 18 0 12 6 25 13 27 6 3 1 6 -12 6 -17
1 -22 -3 -17 -14 6 -17 -9 -21 -19 -5 -3 6 -15 10 -26 10 -22 0 -22 0 -9 34
15 39 -2 31 -30 -15 -22 -36 -25 -38 -28 -19 -2 14 -9 20 -18 16 -21 -8 -25
26 -22 177 2 105 0 137 -9 137 -9 0 -13 18 -13 58 0 67 -31 142 -79 191 -29
29 -122 81 -147 81 -5 0 -33 -12 -62 -26z m197 -80 c38 -43 59 -87 65 -138 6
-46 -8 -38 -33 18 -27 61 -87 118 -155 146 -59 25 -67 40 -25 50 33 8 108 -30
148 -76z m79 -290 c-1 -38 -3 -43 -8 -24 -12 37 -11 121 0 94 4 -12 8 -43 8
-70z m10 -200 c0 -30 -4 -41 -9 -33 -12 19 -11 79 1 79 5 0 9 -21 8 -46z"/>
<path d="M1047 2073 c-10 -10 -8 -25 2 -19 5 3 12 -1 15 -10 9 -23 8 -27 -7
-21 -8 3 -14 -1 -14 -9 0 -8 4 -14 8 -14 4 0 6 -17 5 -37 -2 -21 1 -46 6 -55
6 -12 5 -18 -3 -18 -8 0 -9 -4 0 -13 16 -20 11 -85 -8 -90 -13 -4 -13 -5 2 -6
13 -1 17 -10 17 -45 0 -26 -5 -47 -12 -50 -10 -5 -10 -7 0 -12 7 -3 12 -26 12
-57 0 -27 2 -48 5 -45 3 3 6 116 5 250 l0 245 45 -3 c25 -2 45 1 45 6 0 11
-113 14 -123 3z"/>
<path d="M1872 2068 c-40 -9 -50 -28 -14 -28 15 0 15 -2 2 -10 -8 -5 -10 -10
-5 -11 6 0 1 -4 -10 -9 -20 -8 -20 -9 1 -9 16 -1 20 -7 18 -31 -1 -16 2 -30 7
-30 10 0 13 26 10 83 -2 36 0 38 26 35 28 -3 28 -3 30 -86 2 -53 -1 -81 -7
-77 -6 3 -10 -3 -10 -14 0 -11 4 -23 10 -26 14 -8 8 -56 -7 -62 -28 -11 -1
-20 46 -15 53 5 57 1 60 -61 1 -24 -2 -27 -18 -22 -11 3 -22 1 -26 -5 -13 -22
-32 -10 -30 20 1 20 -3 30 -12 30 -10 0 -11 -5 -4 -19 9 -16 8 -18 -8 -14 -15
4 -19 0 -17 -14 2 -10 9 -18 17 -18 24 0 23 -42 -1 -50 -12 -4 -25 -18 -30
-31 -5 -13 -14 -24 -20 -24 -14 0 -12 -27 3 -33 10 -4 10 -6 0 -6 -7 -1 -13
-5 -13 -10 0 -5 8 -8 18 -6 9 1 16 8 14 14 -1 7 31 12 100 13 l103 2 -105 6
-105 6 118 2 118 2 -2 -55 c-1 -30 0 -58 4 -62 4 -3 7 50 7 120 0 73 -4 128
-10 132 -5 3 -10 2 -10 -4 0 -6 -7 -8 -15 -5 -8 4 -15 18 -14 33 0 17 3 21 7
11 11 -24 32 -22 32 3 0 13 -3 17 -8 11 -5 -9 -10 -8 -19 2 -14 14 0 30 17 19
6 -3 10 2 10 13 0 15 -5 18 -25 14 -23 -4 -25 -9 -25 -53 0 -27 -5 -49 -10
-49 -7 0 -6 -5 2 -13 6 -8 22 -12 34 -9 20 4 22 0 21 -42 0 -29 -5 -47 -14
-51 -15 -5 -45 18 -43 32 1 4 -3 9 -9 11 -6 2 -11 -5 -11 -16 0 -11 8 -22 18
-25 9 -2 -24 -4 -74 -4 -86 -1 -91 0 -87 18 6 21 30 20 25 -1 -1 -6 3 -10 10
-8 7 3 14 22 16 44 4 42 14 54 50 54 19 0 22 -5 22 -42 0 -23 2 -39 4 -37 8 8
8 89 1 281 -7 177 -7 186 11 191 36 9 -131 5 -174 -5z m146 -46 c3 -40 2 -42
-25 -43 l-28 -2 28 -4 c26 -4 28 -8 25 -41 -2 -29 -8 -38 -28 -43 -25 -7 -25
-7 3 -8 27 -1 28 -3 25 -43 -3 -40 -5 -43 -33 -43 l-29 0 -2 128 c-2 123 -1
129 19 137 34 13 42 7 45 -38z"/>
<path d="M800 2045 c0 -8 -7 -15 -15 -15 -8 0 -15 -4 -15 -10 0 -5 -6 -10 -14
-10 -8 0 -18 -5 -22 -12 -4 -7 -3 -8 5 -4 15 10 26 -21 13 -37 -12 -14 -4 -67
10 -67 5 0 8 8 7 18 -3 34 1 42 25 42 31 0 42 15 18 25 -16 7 -15 8 3 15 19 8
19 9 -2 9 -27 1 -40 -18 -22 -31 12 -8 11 -9 -1 -5 -8 2 -16 13 -18 25 -4 23
5 25 106 24 17 0 32 4 32 9 0 5 -23 9 -51 9 -45 0 -50 2 -39 15 10 12 10 15
-4 15 -9 0 -16 -7 -16 -15z"/>
<path d="M1150 1966 c0 -69 -2 -75 -22 -79 l-23 -4 23 -2 c13 0 22 -7 22 -17
0 -11 -6 -14 -17 -10 -16 5 -16 5 -2 -6 12 -10 16 -37 17 -132 2 -202 11 -140
14 98 2 124 0 226 -4 226 -5 0 -8 -33 -8 -74z"/>
<path d="M2113 2027 c-3 -5 3 -8 13 -7 11 1 30 2 44 1 20 -1 22 -3 10 -11 -11
-8 -5 -9 20 -4 66 12 115 12 129 0 12 -8 13 -8 7 2 -9 15 -1 15 25 2 13 -7 19
-7 19 0 0 5 5 10 11 10 5 0 7 -4 4 -10 -3 -5 3 -10 14 -10 21 0 27 -17 23 -62
-1 -10 3 -18 9 -18 8 0 7 -5 -1 -15 -7 -9 -8 -15 -2 -15 6 0 10 -36 11 -87 4
-221 10 -355 15 -361 11 -10 11 38 0 368 -3 118 -7 216 -8 217 -5 6 -339 6
-343 0z"/>
<path d="M2275 1973 c47 -10 78 -28 106 -62 17 -20 27 -27 21 -16 -22 43 -85
86 -124 84 -20 -1 -20 -2 -3 -6z"/>
<path d="M850 1965 c-1 -5 -2 -13 -1 -17 0 -4 -6 -5 -14 -2 -32 12 -12 -12 22
-28 43 -20 58 -14 27 11 -11 9 -23 23 -27 31 -3 8 -6 11 -7 5z"/>
<path d="M600 1950 c0 -5 5 -10 11 -10 7 0 9 -9 6 -23 -4 -12 -2 -28 2 -36 5
-8 9 4 9 33 1 34 -3 46 -13 46 -8 0 -15 -4 -15 -10z"/>
<path d="M2253 1953 c-25 -9 -13 -18 27 -19 40 -2 89 -35 90 -61 0 -7 4 -13 9
-13 4 0 7 -16 4 -35 -2 -21 1 -35 8 -35 7 0 8 -11 4 -30 -4 -16 -3 -30 2 -30
5 0 8 -15 7 -32 -1 -18 3 -36 9 -40 8 -5 8 -8 1 -8 -6 0 -12 -20 -12 -45 -2
-34 1 -45 13 -45 12 0 15 18 15 100 0 55 -4 100 -9 100 -5 0 -12 23 -15 52 -4
28 -14 64 -22 80 -25 48 -89 78 -131 61z"/>
<path d="M1834 1840 c0 -52 1 -74 3 -47 2 26 2 68 0 95 -2 26 -3 4 -3 -48z"/>
<path d="M1869 1903 c-3 -18 -3 -33 0 -33 9 0 5 -65 -4 -80 -5 -8 -4 -15 1
-17 6 -2 8 -18 6 -37 -2 -18 1 -37 7 -40 13 -8 14 172 2 214 -7 24 -8 24 -12
-7z"/>
<path d="M2212 1890 c0 -16 4 -30 9 -30 5 0 9 14 9 30 0 17 -4 30 -8 30 -5 0
-9 -13 -10 -30z"/>
<path d="M2242 1890 c0 -16 4 -30 9 -30 5 0 9 14 9 30 0 17 -4 30 -8 30 -5 0
-9 -13 -10 -30z"/>
<path d="M710 1850 c0 -19 5 -30 14 -30 8 0 13 11 12 30 -1 40 -26 40 -26 0z"/>
<path d="M752 1850 c-1 -16 2 -30 8 -30 5 0 10 14 10 30 0 17 -4 30 -8 30 -4
0 -9 -13 -10 -30z"/>
<path d="M681 1803 c3 -18 -14 -52 -27 -55 -9 -2 -11 -8 -5 -17 15 -24 42 -5
35 24 -4 15 -2 25 5 25 6 0 11 7 11 15 0 8 -4 15 -10 15 -5 0 -10 -3 -9 -7z"/>
<path d="M801 1798 c-1 -12 -10 -18 -28 -19 -16 0 -37 -4 -48 -9 -16 -7 -12
-9 18 -9 21 -1 36 -5 32 -10 -3 -6 6 -7 22 -3 16 4 37 7 48 7 11 -1 26 3 33 8
7 6 13 8 15 6 27 -47 29 -53 18 -57 -16 -5 -14 -22 4 -22 10 0 15 10 15 30 0
17 -5 30 -11 30 -6 0 -8 8 -5 18 5 15 -1 17 -48 14 -46 -3 -55 -1 -59 15 -4
16 -5 16 -6 1z"/>
<path d="M2163 1766 c-6 -8 -9 -16 -6 -20 3 -3 6 -28 7 -55 1 -27 4 -53 9 -57
12 -12 8 -44 -5 -44 -9 0 -8 -4 2 -10 13 -9 13 -11 0 -20 -10 -6 -11 -10 -2
-10 6 0 12 -9 12 -20 0 -11 4 -20 8 -20 4 0 6 59 4 130 -4 115 -2 130 12 130
9 0 16 -4 16 -10 0 -5 7 -10 16 -10 8 0 13 4 9 9 -3 5 3 12 12 14 10 3 -4 5
-32 5 -30 1 -55 -4 -62 -12z"/>
<path d="M2226 1725 c-4 -12 6 -15 62 -15 37 0 74 4 82 10 9 6 -7 8 -48 6 -35
-2 -65 1 -68 5 -8 14 -21 11 -28 -6z"/>
<path d="M770 1723 c0 -6 -12 -14 -27 -16 -16 -2 -1 -4 32 -4 33 0 49 2 35 4
-14 3 -28 10 -32 17 -6 8 -8 8 -8 -1z"/>
<path d="M664 1660 c1 -27 -2 -50 -7 -50 -4 0 -5 -5 -2 -11 10 -15 13 -59 5
-59 -4 0 -4 -16 0 -35 5 -22 4 -35 -3 -38 -12 -4 -1 -27 13 -27 5 0 10 61 12
135 2 99 0 135 -9 135 -8 0 -11 -17 -9 -50z"/>
<path d="M902 1653 c4 -39 28 -42 28 -4 0 21 -5 31 -16 31 -11 0 -14 -8 -12
-27z"/>
<path d="M1872 1634 c-2 -30 1 -44 8 -39 11 7 14 85 3 85 -5 0 -9 -21 -11 -46z"/>
<path d="M2253 1663 c-21 -4 -22 -9 -18 -49 3 -25 2 -50 -2 -57 -4 -7 -8 -39
-8 -72 0 -60 0 -60 -30 -62 -16 0 -32 -2 -35 -3 -3 -1 -24 -4 -48 -6 -36 -3
-42 -1 -40 14 4 25 -25 21 -37 -5 -8 -20 -30 -29 -57 -24 -13 2 -9 -27 4 -35
7 -4 8 -3 4 4 -4 8 0 12 12 12 10 0 24 -10 30 -22 10 -22 11 -21 11 9 1 33 15
51 26 33 4 -6 2 -17 -4 -24 -6 -7 -7 -24 -2 -42 l8 -29 5 28 c3 15 1 27 -5 27
-5 0 -4 7 3 15 15 18 37 20 42 3 3 -7 12 -4 27 11 12 12 26 20 29 16 4 -3 1
-9 -5 -13 -9 -6 -5 -20 12 -51 27 -47 30 -55 15 -46 -6 3 -7 -1 -4 -10 4 -9
12 -14 18 -12 19 6 18 34 -3 54 l-20 19 20 1 c24 2 35 10 26 19 -4 4 -13 1
-21 -6 -13 -10 -15 -7 -13 19 2 26 5 29 25 24 12 -3 29 0 37 7 26 21 29 3 6
-35 -11 -20 -21 -44 -20 -53 1 -10 4 -7 8 8 4 16 14 25 26 25 20 0 22 -6 10
-37 -5 -13 -2 -18 12 -18 10 0 24 -5 31 -12 9 -9 12 -9 12 0 0 6 -9 16 -21 22
-11 7 -18 18 -15 25 3 8 0 17 -6 21 -7 4 -5 10 6 16 25 14 21 56 -6 61 -22 3
-21 4 7 17 22 10 26 14 13 17 -10 3 -18 16 -20 36 -4 46 3 107 12 107 14 0 32
-108 26 -148 -6 -39 6 -73 18 -53 13 21 15 51 5 103 -5 29 -10 65 -9 79 0 32
-35 80 -58 78 -9 -1 -27 -4 -39 -6z m24 -173 c0 -24 -5 -40 -12 -40 -7 0 -12
16 -12 40 0 24 5 40 12 40 7 0 12 -16 12 -40z"/>
<path d="M763 1653 c-7 -2 -13 -11 -13 -19 0 -8 -6 -14 -12 -14 -9 0 -8 -4 2
-10 13 -9 13 -11 0 -20 -10 -6 -11 -10 -2 -10 18 0 15 -18 -5 -22 -14 -2 -16
-14 -14 -69 2 -53 -1 -68 -13 -72 -9 -4 -16 -12 -16 -19 0 -9 3 -8 10 2 8 13
10 13 10 -1 0 -10 -16 -23 -37 -31 l-38 -16 42 -18 c42 -19 58 -44 28 -44 -8
0 -15 -5 -15 -11 0 -5 -4 -8 -10 -4 -5 3 -7 11 -4 18 2 7 -4 13 -14 14 -16 1
-18 -5 -15 -54 4 -67 6 -72 35 -66 21 4 23 9 20 49 -3 27 0 44 7 44 7 0 11
-20 11 -49 0 -27 3 -56 6 -64 4 -11 -2 -17 -23 -19 -15 -2 1 -6 37 -9 l66 -4
-4 26 c-3 21 -8 25 -32 21 -35 -5 -39 2 -31 58 6 41 8 45 35 45 21 0 31 -6 37
-23 5 -13 5 -21 0 -18 -5 3 -12 -1 -15 -10 -10 -26 -7 -34 11 -27 12 5 15 2
11 -8 -4 -10 1 -15 12 -16 11 -1 21 6 23 15 3 11 5 8 6 -8 1 -20 3 -22 11 -10
9 13 10 13 11 0 1 -8 1 -18 0 -22 0 -5 7 -8 16 -9 12 -1 10 -4 -7 -9 -22 -7
-20 -8 12 -7 29 0 35 3 27 13 -6 7 -6 15 -1 18 6 4 6 23 0 50 -8 36 -6 50 7
70 10 14 22 23 31 19 16 -6 19 12 4 22 -5 3 -10 19 -10 35 0 15 -6 31 -12 33
-7 3 -3 6 10 6 13 1 21 -3 17 -8 -3 -5 1 -16 9 -24 16 -15 39 -125 34 -160 -1
-12 1 -27 5 -34 4 -7 0 -14 -12 -18 -29 -9 -15 -32 17 -30 45 3 48 5 24 18
l-22 13 20 39 c11 22 23 64 27 93 4 36 10 52 20 52 11 0 14 9 11 35 -2 19 0
35 4 35 4 0 8 4 8 10 0 6 -9 6 -22 1 -19 -7 -22 -15 -20 -46 3 -27 0 -35 -8
-30 -6 4 -10 15 -7 25 5 21 -17 35 -59 39 -8 0 -12 5 -9 11 4 7 -2 7 -19 0
-48 -18 -53 -8 -48 95 3 79 1 95 -11 95 -12 0 -17 -19 -22 -84 -4 -46 -4 -90
0 -98 6 -9 5 -10 -3 -3 -7 6 -12 53 -13 118 0 62 -5 105 -10 101 -5 -3 -7 -10
-4 -15 10 -16 -5 -10 -27 11 -21 19 -49 24 -75 13z m93 -137 c7 -99 7 -99 -15
-93 -14 3 -24 0 -27 -8 -3 -8 -12 -11 -20 -8 -16 6 -20 108 -4 118 6 3 10 20
10 37 0 33 28 74 41 61 5 -5 11 -53 15 -107z m-72 -161 c5 -39 4 -41 -20 -40
-24 0 -26 4 -29 45 -4 77 37 73 49 -5z m141 47 c-2 -3 3 -18 11 -34 12 -24 13
-36 4 -57 -10 -25 -15 -27 -55 -25 -25 1 -45 -2 -45 -7 0 -5 7 -9 15 -9 21 0
19 -26 -5 -50 -20 -20 -20 -20 -20 24 0 26 6 48 15 56 8 7 15 9 15 5 0 -4 7
-2 15 5 21 17 19 37 -5 43 -12 3 -18 1 -14 -5 7 -11 -13 -28 -33 -28 -7 0 -13
9 -13 21 0 11 -4 18 -9 15 -5 -4 -7 3 -4 14 4 15 11 19 24 15 11 -4 19 -2 19
3 0 6 8 8 19 5 10 -3 21 -1 24 4 3 5 15 9 26 9 11 0 18 -2 16 -4z m141 -66 c3
-8 4 -25 2 -38 -2 -19 -5 -17 -15 15 -10 35 1 55 13 23z m-386 -106 c0 -16 -4
-30 -10 -30 -5 0 -10 14 -10 30 0 17 5 30 10 30 6 0 10 -13 10 -30z"/>
<path d="M1837 1612 c7 -69 11 -74 12 -15 1 28 -3 54 -8 57 -5 3 -6 -16 -4
-42z"/>
<path d="M2889 1594 c-11 -13 -11 -18 -1 -21 8 -3 13 -28 14 -71 l2 -67 3 65
c2 35 9 68 16 72 9 5 8 11 -4 23 -14 15 -17 15 -30 -1z"/>
<path d="M89 1588 c-2 -7 -1 -47 2 -88 5 -72 6 -73 8 -20 1 30 6 64 10 75 9
21 4 45 -9 45 -4 0 -9 -6 -11 -12z"/>
<path d="M2400 1521 c0 -16 6 -31 15 -34 19 -8 24 2 18 36 -7 37 -33 36 -33
-2z"/>
<path d="M1920 1501 c0 -16 -3 -38 -6 -48 -5 -15 -4 -15 5 -3 6 8 11 27 11 42
0 14 6 29 13 31 7 3 5 6 -5 6 -13 1 -18 -7 -18 -28z"/>
<path d="M2178 1492 c-10 -2 -18 -8 -18 -13 0 -6 5 -7 10 -4 6 3 10 1 10 -4 0
-6 -5 -11 -12 -11 -9 0 -9 -3 0 -12 9 -9 15 -9 23 -1 17 17 7 49 -13 45z"/>
<path d="M2975 1480 c-3 -6 -4 -19 0 -29 3 -12 0 -21 -10 -25 -9 -3 -15 0 -15
9 0 8 -4 15 -10 15 -5 0 -10 -4 -10 -9 0 -5 -9 -11 -20 -14 -11 -3 -20 -1 -20
3 0 7 -20 7 -40 0 -3 -1 -20 -1 -37 0 -24 1 -33 -3 -33 -14 0 -9 7 -16 16 -16
13 0 15 -7 9 -40 -7 -43 -5 -46 26 -30 24 13 25 30 2 31 -16 0 -16 1 1 8 18 7
18 8 3 14 -9 3 -17 14 -17 23 0 15 2 15 24 0 14 -9 27 -12 30 -7 8 13 42 2 61
-19 9 -10 24 -16 33 -13 15 3 17 -3 14 -41 -2 -26 0 -46 5 -46 5 0 9 24 8 53
0 47 -2 52 -22 52 -13 0 -23 5 -22 10 0 6 11 9 25 8 22 -2 24 2 24 43 0 41
-11 57 -25 34z"/>
<path d="M2391 1471 c-19 -12 -5 -31 22 -30 20 1 20 2 -3 9 -21 7 -11 15 13
11 5 -1 6 3 2 9 -8 12 -16 12 -34 1z"/>
<path d="M2700 1463 c0 -16 -7 -19 -37 -17 -21 2 -28 0 -15 -2 12 -3 22 -10
22 -15 0 -6 -12 -8 -29 -4 -21 4 -30 2 -34 -9 -4 -9 -14 -16 -23 -16 -11 0
-14 5 -10 16 4 12 2 15 -9 11 -8 -4 -21 0 -28 8 -9 8 -19 10 -28 4 -8 -5 -26
-9 -41 -9 -16 0 -28 -4 -28 -10 0 -5 -9 -10 -19 -10 -11 0 -22 -6 -24 -12 -3
-8 -6 -6 -6 4 -1 11 -6 15 -15 12 -8 -3 -12 -12 -10 -19 3 -7 1 -16 -5 -20 -6
-3 -11 -1 -11 4 0 6 -5 11 -12 11 -6 0 -3 -9 7 -20 10 -11 15 -20 12 -20 -3 0
0 -15 7 -32 7 -18 12 -37 10 -43 -2 -5 5 -21 16 -35 l20 -25 -6 53 c-4 33 -2
57 5 66 10 11 8 16 -8 21 -33 10 -25 22 14 20 32 -1 52 14 23 16 -7 1 1 5 17
9 17 4 37 11 46 14 13 6 16 -1 17 -31 1 -21 7 -62 13 -91 7 -36 8 -57 1 -64
-16 -16 -34 0 -22 21 11 21 4 31 -22 31 -13 0 -18 -7 -18 -27 0 -14 -3 -23 -7
-20 -3 4 -12 2 -19 -4 -11 -9 -13 -3 -10 30 2 23 0 41 -4 41 -5 0 -8 -20 -8
-45 l0 -45 53 0 c65 0 85 7 85 29 0 14 2 14 10 1 6 -9 10 -10 10 -3 0 6 -5 15
-10 18 -6 4 -8 27 -6 53 2 26 5 56 5 66 1 11 4 16 8 13 3 -4 12 -2 20 5 7 6
16 8 20 4 4 -3 -1 -12 -11 -19 -11 -8 -17 -23 -14 -38 5 -38 22 -28 34 20 7
32 16 45 30 46 10 2 27 6 37 10 10 4 17 3 17 -4 0 -6 7 -11 15 -11 8 0 15 4
15 10 0 5 8 7 18 4 16 -5 16 -5 0 8 -9 8 -16 23 -15 34 1 13 -5 20 -20 22 -17
3 -23 -2 -23 -15z"/>
<path d="M1270 1441 c0 -11 -4 -23 -10 -26 -5 -3 -10 -1 -10 4 0 6 -12 11 -26
11 -14 0 -23 -4 -19 -10 3 -6 -1 -13 -10 -17 -10 -3 -20 -1 -24 5 -4 7 -12 8
-21 2 -8 -6 -11 -10 -7 -10 5 0 2 -9 -5 -19 -18 -25 -11 -91 8 -91 8 0 14 -6
14 -14 0 -8 10 -16 23 -18 24 -3 24 -6 9 -81 -7 -35 -7 -47 2 -44 6 2 12 16
14 30 4 34 32 36 32 2 0 -13 -8 -29 -17 -34 -15 -9 -14 -10 10 -11 23 0 27 4
27 28 1 24 2 25 14 10 7 -10 18 -18 25 -18 6 0 11 -4 11 -10 0 -5 5 -10 11
-10 12 0 7 136 -5 148 -10 10 16 32 37 32 16 0 18 3 9 12 -17 17 -15 29 3 22
10 -4 15 -20 15 -45 0 -35 3 -39 25 -39 18 0 23 4 18 16 -4 11 -8 12 -13 4 -9
-14 -20 10 -20 43 0 20 0 20 15 1 14 -18 14 -18 8 4 -3 12 -12 22 -19 22 -19
0 -18 16 1 24 10 3 18 -1 22 -12 4 -9 10 -20 15 -23 14 -9 29 -132 17 -140 -7
-4 -4 -9 5 -12 9 -4 16 -16 16 -27 0 -33 36 -25 49 10 9 28 0 42 -14 20 -10
-17 -25 -1 -25 27 0 21 3 23 14 14 10 -9 15 -8 19 3 4 10 -1 16 -15 18 -30 4
-34 25 -6 34 43 15 45 13 46 -33 1 -52 0 -48 30 -58 l23 -7 -17 39 c-9 21 -19
49 -22 63 -8 42 -22 53 -43 34 -15 -14 -23 -15 -41 -6 -22 11 -22 12 -2 9 44
-5 72 50 42 82 -11 11 -9 13 12 7 14 -3 28 -6 32 -6 3 0 4 -18 1 -40 -4 -26
-2 -40 6 -40 6 0 11 8 11 18 0 9 4 13 8 7 4 -5 14 -15 22 -22 13 -10 16 -7 18
18 1 17 -3 32 -11 35 -28 10 -14 34 20 34 29 0 32 -2 25 -17 -9 -17 -15 -54
-28 -174 l-5 -56 53 -1 c29 0 47 2 41 4 -7 3 -13 12 -13 20 0 10 -7 13 -25 8
-22 -5 -25 -3 -26 22 -1 16 0 34 1 39 2 6 6 26 10 45 5 23 8 27 9 13 0 -13 5
-23 11 -23 6 0 9 27 7 65 -1 43 -6 65 -14 65 -7 0 -10 7 -7 15 4 9 0 15 -10
15 -9 0 -16 -7 -16 -16 0 -11 -6 -15 -20 -11 -11 3 -27 -1 -35 -10 -13 -13
-15 -12 -15 2 0 13 -6 16 -24 13 -17 -4 -23 -1 -19 9 3 7 -2 13 -11 13 -9 0
-16 -4 -16 -10 0 -5 -8 -10 -18 -10 -11 0 -24 -10 -30 -22 -10 -22 -11 -22
-11 -2 -1 18 -6 20 -51 17 -32 -3 -50 0 -50 7 0 7 -8 9 -20 5 -14 -5 -20 -2
-20 9 0 9 -7 16 -15 16 -8 0 -15 -9 -15 -19z m39 -43 c8 -22 8 -22 15 -2 5 16
13 20 36 16 17 -2 30 -9 30 -14 0 -5 5 -6 11 -3 6 4 20 -3 32 -16 l22 -24 3
28 c2 15 10 27 17 27 9 0 12 -6 8 -17 -4 -11 -3 -14 5 -9 7 4 12 1 12 -9 0 -9
-4 -13 -10 -10 -5 3 -10 -1 -10 -9 0 -23 -33 -20 -50 4 -12 16 -21 19 -45 14
-28 -6 -29 -5 -15 12 14 16 13 17 -3 11 -10 -4 -23 -7 -28 -7 -5 0 -14 -20
-20 -45 -8 -33 -16 -45 -30 -45 -16 0 -19 8 -19 53 0 30 3 57 7 60 12 13 24 7
32 -15z m-54 -35 c-3 -21 -6 -48 -6 -60 1 -26 -11 -35 -33 -27 -11 4 -14 15
-10 37 4 23 3 28 -4 18 -18 -25 -39 -22 -34 5 3 17 0 24 -12 24 -9 0 -16 4
-16 9 0 13 25 20 48 14 11 -2 23 0 26 6 4 6 16 11 27 11 18 0 20 -4 14 -37z
m44 -142 c6 -21 11 -47 11 -57 0 -35 -31 10 -37 54 -5 41 -23 49 -23 11 0 -10
-2 -19 -4 -19 -2 0 -12 -3 -21 -7 -15 -5 -16 -3 -5 18 16 30 40 48 56 42 6 -2
16 -21 23 -42z"/>
<path d="M1158 1443 c18 -2 45 -2 60 0 15 2 0 4 -33 4 -33 0 -45 -2 -27 -4z"/>
<path d="M562 1409 c3 -8 13 -14 23 -14 21 0 43 -30 31 -42 -5 -4 -11 -2 -13
5 -3 6 -9 10 -14 6 -5 -3 -9 0 -9 5 0 6 -5 11 -11 11 -6 0 -9 -7 -5 -15 3 -8
0 -15 -6 -15 -7 0 -5 -7 5 -17 16 -16 19 -16 28 -3 8 11 9 7 6 -18 -2 -18 0
-35 5 -38 4 -3 8 -10 8 -16 0 -7 -6 -6 -15 2 -13 10 -15 9 -15 -8 0 -19 -35
-62 -49 -62 -3 0 -7 11 -7 25 -1 14 1 25 5 25 3 0 7 24 8 52 1 47 0 51 -13 34
-8 -11 -11 -29 -7 -44 5 -22 3 -24 -18 -18 -13 3 -18 3 -11 0 11 -5 18 -44 7
-44 -13 0 -64 38 -58 43 3 4 1 7 -5 7 -7 0 -12 -12 -12 -26 0 -14 4 -22 10
-19 5 3 12 -6 16 -20 4 -16 12 -24 19 -21 9 3 16 -8 20 -35 8 -45 24 -45 17 1
-6 39 23 42 32 4 10 -37 -4 -47 -69 -52 -41 -3 -55 -8 -55 -20 0 -8 3 -12 7
-8 4 4 15 -14 24 -41 l17 -48 2 45 c1 35 3 40 10 25 7 -16 9 -17 9 -3 1 9 18
25 39 35 30 14 38 24 40 50 2 20 13 40 28 52 16 13 22 25 17 37 -4 11 -3 15 5
10 14 -8 20 30 10 68 -5 19 -3 35 6 48 15 21 10 58 -8 58 -6 0 -22 3 -35 7
-18 4 -22 2 -19 -8z"/>
<path d="M2759 1368 c0 -13 -3 -17 -6 -10 -2 6 -12 12 -21 12 -12 0 -10 -6 9
-26 24 -25 24 -26 5 -40 -19 -14 -19 -14 1 -14 11 0 26 7 33 15 8 9 8 15 2 15
-6 0 -9 15 -7 35 2 19 -1 35 -6 35 -5 0 -9 -10 -10 -22z"/>
<path d="M2679 1366 c-3 -29 -4 -34 -11 -41 -4 -4 3 -16 15 -26 20 -17 20 -20
6 -31 -11 -9 -14 -24 -11 -52 3 -27 1 -37 -7 -32 -6 4 -11 21 -11 38 0 24 -3
29 -16 24 -14 -5 -16 -1 -10 33 l6 39 -28 -10 c-24 -9 -27 -15 -24 -49 2 -22
9 -39 15 -39 7 0 7 -4 -1 -12 -18 -18 -15 -28 9 -28 16 0 19 3 11 13 -7 8 -7
18 -1 27 8 13 10 13 18 1 5 -8 7 -20 4 -27 -2 -7 5 -15 17 -19 13 -4 19 -12
16 -21 -3 -8 -2 -14 2 -14 4 0 15 -14 24 -31 14 -24 15 -34 6 -49 -16 -25 -2
-39 16 -15 15 21 5 85 -21 124 -8 13 -11 21 -5 18 5 -4 7 4 4 18 -3 20 0 25
16 25 25 0 39 -35 22 -55 -9 -10 -9 -19 0 -35 7 -12 10 -42 8 -66 -2 -27 1
-44 8 -44 6 0 11 6 12 13 0 6 3 56 6 110 l5 97 -32 1 c-17 1 -24 3 -14 6 9 2
17 9 17 14 0 6 -9 8 -20 4 -17 -5 -20 0 -26 45 -6 48 -23 78 -25 46z"/>
<path d="M1936 1363 c-3 -4 0 -16 8 -28 7 -11 13 -39 12 -60 -2 -38 -4 -40
-34 -41 -17 0 -35 -4 -39 -8 -4 -4 15 -6 42 -4 l50 3 -1 48 c-2 44 0 47 23 47
16 0 27 -7 30 -20 6 -23 23 -17 23 8 0 12 -9 18 -27 20 -16 1 -40 11 -54 22
-15 10 -30 16 -33 13z"/>
<path d="M2473 1343 c-15 -6 -17 -39 -3 -48 6 -3 10 -2 10 4 0 6 7 8 15 5 10
-4 15 0 15 14 0 21 -17 32 -37 25z"/>
<path d="M2863 1315 c-7 -21 -4 -50 8 -99 10 -38 17 -74 16 -80 -2 -11 66 -14
71 -3 1 4 2 30 2 57 0 35 -4 49 -12 48 -8 -2 -14 9 -16 25 -2 15 1 27 7 27 6
0 11 -7 11 -15 0 -8 5 -15 10 -15 16 0 12 30 -5 37 -9 3 -15 15 -13 27 3 18
-2 21 -34 21 -32 1 -37 -3 -45 -30z m62 -3 c-6 -5 -21 -6 -35 -2 l-25 7 25 11
c27 11 52 -1 35 -16z m-12 -84 c3 -13 10 -38 15 -55 8 -26 8 -33 -2 -33 -14 0
-36 62 -36 99 0 27 16 19 23 -11z"/>
<path d="M114 1275 c21 -19 23 -28 16 -58 -7 -35 -5 -47 11 -47 4 0 5 9 2 20
-4 16 -2 19 11 14 9 -3 16 -1 16 5 0 7 9 21 19 33 23 24 17 48 -13 49 -11 0
-36 2 -54 3 l-32 4 24 -23z"/>
<path d="M2065 1283 c1 -10 5 -29 9 -43 3 -14 7 -35 9 -47 2 -12 6 -25 10 -28
4 -3 5 -2 2 2 -3 3 0 12 6 19 6 8 7 23 3 36 -12 36 -13 48 -3 48 4 0 6 7 3 15
-9 21 -41 19 -39 -2z"/>
<path d="M2270 1279 c0 -5 5 -10 10 -10 6 -1 14 -2 19 -3 5 0 13 -4 17 -8 4
-5 15 -8 25 -8 20 0 75 -102 65 -119 -3 -5 3 -7 13 -4 19 5 19 33 0 33 -5 0
-9 5 -9 10 0 6 8 10 18 10 15 1 15 2 -2 12 -10 6 -32 25 -47 43 -28 31 -109
64 -109 44z"/>
<path d="M2140 1253 c0 -15 2 -16 10 -3 7 11 10 -4 11 -50 1 -51 3 -59 9 -35
4 17 8 47 9 68 1 31 -2 37 -19 37 -12 0 -20 -7 -20 -17z"/>
<path d="M2241 1258 c-1 -10 -8 -18 -16 -18 -8 0 -15 -7 -15 -15 0 -8 6 -15
13 -15 9 0 9 -2 -1 -9 -9 -5 0 -10 28 -15 22 -3 38 -11 35 -16 -7 -11 23 -80
36 -80 18 0 18 20 -1 30 -11 6 -20 21 -20 33 0 28 -17 47 -42 47 -10 0 -18 4
-18 10 0 6 9 6 26 0 22 -9 25 -8 20 6 -3 8 -6 20 -6 25 0 5 -6 9 -14 9 -8 0
-17 6 -19 13 -3 7 -6 5 -6 -5z"/>
<path d="M2984 1253 c4 -9 2 -19 -4 -23 -8 -5 -8 -15 0 -35 6 -16 8 -40 5 -53
-3 -14 -2 -21 4 -18 14 9 13 146 -1 146 -5 0 -7 -8 -4 -17z"/>
<path d="M1153 1239 c-16 -16 -17 -49 -2 -49 8 0 8 -4 1 -12 -5 -7 -6 -22 -2
-32 5 -14 9 -16 14 -7 5 7 5 15 2 18 -3 3 -2 11 3 17 4 6 11 25 15 41 4 20 3
25 -3 16 -7 -11 -10 -11 -12 3 -3 14 -6 15 -16 5z"/>
<path d="M2118 1190 c2 -27 8 -47 13 -44 13 8 11 57 -3 77 -11 15 -12 9 -10
-33z"/>
<path d="M1740 1229 c0 -3 5 -20 11 -38 11 -32 23 -39 34 -21 3 6 2 10 -2 10
-5 0 -16 12 -25 28 -10 15 -18 24 -18 21z"/>
<path d="M2052 1175 c-1 -19 3 -35 8 -35 12 0 13 57 2 64 -5 3 -9 -10 -10 -29z"/>
<path d="M598 1156 c3 -29 -1 -37 -30 -57 -18 -13 -36 -28 -40 -34 -4 -5 -8
-56 -8 -111 0 -85 -3 -103 -16 -108 -21 -8 -22 -8 -33 40 -9 38 -9 38 -10 7
-1 -34 -23 -63 -48 -63 -9 0 -14 -3 -10 -6 3 -3 35 -3 71 1 l66 7 0 114 c0
104 2 114 18 114 38 0 77 66 62 104 -14 37 -27 32 -22 -8z"/>
<path d="M2360 1141 c0 -17 0 -33 0 -36 0 -3 3 -4 8 -2 10 3 10 57 0 63 -4 3
-8 -9 -8 -25z"/>
<path d="M334 1114 c19 -19 19 -17 2 -57 -7 -18 -13 -58 -13 -89 0 -31 -5 -63
-12 -72 -21 -26 -3 -36 61 -35 51 1 59 4 45 14 -13 9 -14 15 -4 26 7 8 4 7 -8
-2 -32 -25 -49 -34 -41 -21 4 7 3 12 -3 12 -5 0 -13 -4 -16 -10 -3 -5 -11 -10
-16 -10 -6 0 -3 7 6 16 11 11 14 25 10 44 -6 25 -4 27 22 24 15 -2 22 -1 15 2
-6 3 -9 10 -6 16 4 6 -1 8 -15 3 -28 -9 -37 15 -18 52 12 26 14 36 9 86 -1 9
-9 17 -18 17 -14 0 -14 -1 0 -16z"/>
<path d="M2944 1078 c-5 -7 -1 -9 13 -6 12 3 20 0 20 -8 0 -8 -7 -14 -15 -14
-9 0 -13 -3 -9 -6 12 -12 47 8 47 27 0 13 -7 19 -24 19 -14 0 -28 -5 -32 -12z"/>
<path d="M2066 1054 c-3 -9 -6 -18 -6 -20 0 -6 46 -5 64 2 15 6 15 8 -1 20
-24 18 -50 17 -57 -2z"/>
<path d="M2355 1059 c4 -6 1 -10 -6 -8 -33 4 -69 -2 -69 -12 0 -6 14 -9 33 -8
18 2 38 0 45 -5 7 -4 14 -1 18 8 3 8 12 12 20 9 8 -3 14 -1 14 5 0 5 -10 12
-22 16 -33 8 -40 7 -33 -5z"/>
<path d="M2830 1040 c-20 -6 -15 -8 25 -9 36 0 46 2 35 9 -17 11 -25 11 -60 0z"/>
<path d="M2475 1030 c3 -5 17 -10 31 -10 13 0 24 5 24 10 0 6 -14 10 -31 10
-17 0 -28 -4 -24 -10z"/>
<path d="M2903 990 c1 -21 12 -26 22 -10 3 5 20 7 38 4 30 -4 30 -4 8 6 -14 6
-31 8 -38 6 -7 -3 -13 -1 -13 4 0 6 -4 10 -9 10 -6 0 -9 -9 -8 -20z"/>
<path d="M2828 979 c6 -7 12 -17 12 -21 0 -5 -6 -8 -12 -7 -7 1 -20 -1 -28 -4
-8 -3 -26 -8 -40 -10 -21 -4 -20 -4 7 -6 46 -2 85 16 81 36 -2 9 -10 18 -18
21 -12 4 -13 2 -2 -9z"/>
<path d="M2202 944 c4 -4 2 -14 -5 -22 -8 -11 -8 -14 0 -9 6 4 13 4 15 -1 1
-4 16 -5 32 -2 l29 5 -39 18 c-21 11 -36 16 -32 11z"/>
<path d="M2354 935 c-18 -14 -17 -15 14 -13 18 1 32 8 32 15 0 17 -22 16 -46
-2z"/>
<path d="M2900 939 c0 -5 11 -9 24 -9 14 0 27 -4 30 -9 3 -5 15 -7 27 -4 11 3
17 9 12 13 -12 11 -93 19 -93 9z"/>
<path d="M248 935 c-3 -6 -3 -24 -1 -41 4 -26 9 -31 25 -26 11 2 15 8 10 11
-5 3 -13 19 -19 36 -5 16 -12 25 -15 20z"/>
<path d="M2428 932 c12 -2 22 -6 22 -10 0 -10 95 -6 113 5 9 5 -19 8 -71 8
-48 0 -77 -1 -64 -3z"/>
<path d="M2599 929 c-10 -7 -8 -8 11 -7 15 2 24 -2 23 -9 -2 -6 6 -11 16 -10
14 1 16 5 9 17 -12 18 -38 23 -59 9z"/>
<path d="M1530 904 c0 -12 8 -14 43 -10 23 3 58 10 77 16 31 8 28 9 -22 5 -31
-3 -64 -8 -74 -12 -12 -4 -15 -3 -10 5 4 7 2 12 -3 12 -6 0 -11 -7 -11 -16z"/>
<path d="M1401 898 c-35 -4 -66 -10 -70 -14 -3 -4 23 -3 59 1 36 4 77 8 92 9
15 1 30 4 33 8 8 8 -26 7 -114 -4z"/>
<path d="M2825 893 c-11 -3 -24 -9 -29 -13 -5 -5 1 -6 14 -3 16 4 21 3 16 -5
-5 -9 14 -12 70 -12 91 0 95 8 6 12 -64 3 -82 14 -34 21 25 4 25 4 2 4 -14 1
-34 -1 -45 -4z"/>
<path d="M2724 869 c-4 -7 -21 -9 -41 -6 -19 3 -42 3 -51 -1 -12 -5 -7 -8 18
-12 37 -6 90 6 90 21 0 12 -7 11 -16 -2z"/>
<path d="M2204 863 c15 -4 16 -7 5 -14 -10 -6 -8 -9 9 -9 13 0 21 4 18 9 -4 5
0 12 6 14 7 3 -3 5 -22 5 -19 0 -26 -3 -16 -5z"/>
<path d="M1393 854 c4 -5 29 -10 55 -11 25 -2 49 -7 52 -12 7 -13 55 -9 68 5
8 9 1 12 -26 12 -20 -1 -64 3 -97 7 -33 4 -56 4 -52 -1z"/>
<path d="M1157 842 c-9 -2 -17 -8 -17 -13 0 -11 84 -6 118 8 19 7 13 9 -30 9
-30 -1 -62 -2 -71 -4z"/>
<path d="M2260 839 c0 -12 55 -18 90 -9 30 7 32 8 10 10 -52 6 -100 5 -100 -1z"/>
<path d="M2920 831 c11 -8 12 -11 2 -11 -7 0 -10 -5 -7 -10 4 -7 11 -8 18 -2
7 5 24 8 40 6 15 -1 27 2 27 7 0 5 -10 9 -22 9 -13 0 -34 3 -48 6 -20 4 -22 3
-10 -5z"/>
<path d="M2566 802 c-7 -12 17 -22 56 -22 23 0 29 -4 24 -15 -7 -20 1 -19 25
4 15 14 28 17 57 12 20 -4 53 -4 72 0 43 8 22 12 -43 9 -28 -1 -54 4 -64 12
-9 7 -14 8 -10 2 4 -7 0 -15 -9 -18 -22 -8 -26 -8 -19 4 3 6 -4 10 -17 10 -13
0 -33 3 -44 6 -12 3 -24 1 -28 -4z"/>
<path d="M2873 783 c9 -2 14 -9 11 -15 -4 -6 -2 -8 4 -4 6 3 13 2 17 -4 3 -5
12 -10 18 -10 7 0 3 6 -8 13 -18 11 -16 13 25 18 41 5 39 6 -20 6 -36 1 -57
-1 -47 -4z"/>
<path d="M2385 770 c14 -6 15 -9 5 -10 -39 -2 26 -22 83 -24 35 -2 53 0 42 4
-18 7 -18 8 5 12 14 2 -4 5 -39 6 -36 1 -69 6 -75 12 -5 5 -17 10 -25 9 -11 0
-10 -3 4 -9z"/>
<path d="M1045 761 c-39 -6 -39 -7 -12 -14 19 -5 35 -3 50 8 12 8 17 14 12 14
-6 -1 -28 -5 -50 -8z"/>
<path d="M2785 758 c-77 -10 -94 -19 -28 -15 28 2 57 1 65 -4 7 -4 19 -1 25 6
18 20 6 22 -62 13z"/>
<path d="M1370 750 c0 -7 89 -4 97 3 2 3 -19 5 -46 4 -28 0 -51 -3 -51 -7z"/>
<path d="M2806 709 c4 -8 -4 -9 -27 -4 -34 7 -34 7 -11 -10 12 -9 28 -13 34
-9 7 5 38 7 70 6 31 -1 67 2 78 6 13 5 -7 8 -54 7 -42 0 -76 3 -76 8 0 4 -5 7
-11 7 -5 0 -7 -5 -3 -11z"/>
<path d="M1730 693 c14 -3 28 -10 32 -17 6 -8 8 -7 8 3 0 7 6 11 13 8 8 -3 19
-2 26 2 7 4 -14 8 -46 8 -32 0 -47 -2 -33 -4z"/>
<path d="M2727 669 c-17 -19 -15 -45 4 -33 5 3 6 10 3 16 -5 7 -2 9 8 5 12 -4
14 -1 11 14 -3 10 -6 19 -7 18 0 0 -9 -9 -19 -20z"/>
<path d="M1240 672 c0 -8 176 -10 184 -2 3 3 -37 7 -89 7 -52 1 -95 -1 -95 -5z"/>
<path d="M2484 671 c-3 -3 -23 -4 -46 -2 -24 1 -40 0 -38 -3 3 -2 48 -7 100
-11 73 -5 92 -3 83 6 -11 11 -90 19 -99 10z"/>
<path d="M2862 673 c17 -3 25 -9 22 -17 -4 -9 2 -12 18 -10 123 17 126 26 11
29 -43 1 -66 0 -51 -2z"/>
<path d="M2601 656 c11 -9 100 -15 94 -6 -3 6 -27 10 -52 10 -26 0 -44 -2 -42
-4z"/>
<path d="M1340 638 c0 -4 -6 -8 -14 -8 -8 0 -18 -4 -21 -10 -7 -12 23 -2 44
14 10 8 15 8 18 -1 3 -8 12 -9 29 -3 25 10 54 4 66 -14 5 -7 8 -7 8 2 0 6 9
12 21 12 11 0 17 5 14 10 -8 12 -165 10 -165 -2z"/>
<path d="M1625 635 c11 -9 26 -13 33 -10 8 3 28 5 44 5 48 0 30 7 -37 14 -55
5 -58 5 -40 -9z"/>
<path d="M2322 628 c3 -8 26 -14 59 -16 39 -2 50 0 39 8 -22 14 32 13 65 -2
18 -8 29 -8 36 -1 17 17 -95 29 -127 14 -17 -8 -31 -8 -44 -1 -25 13 -33 13
-28 -2z"/>
<path d="M2744 608 c-3 -5 -14 -6 -24 -3 -10 3 -21 1 -25 -5 -3 -5 2 -10 12
-10 11 0 25 -6 32 -12 8 -7 11 -8 9 -3 -3 6 0 15 7 22 11 10 14 10 18 0 3 -9
9 -9 27 1 14 9 41 11 78 8 50 -5 52 -4 17 4 -51 11 -144 10 -151 -2z"/>
<path d="M1493 593 c-81 -6 -63 -22 20 -19 100 5 106 6 82 16 -11 5 -27 8 -35
7 -8 0 -39 -2 -67 -4z"/>
<path d="M1622 588 c3 -7 17 -13 31 -14 14 -1 24 2 22 7 -3 4 3 10 12 12 12 3
10 5 -7 6 -15 0 -32 -5 -39 -11 -11 -10 -13 -10 -7 0 4 6 2 12 -4 12 -7 0 -10
-6 -8 -12z"/>
<path d="M2420 590 c-8 -5 -25 -10 -37 -10 -26 0 -38 -15 -22 -26 8 -4 9 -3 5
4 -5 8 3 12 24 12 17 0 38 7 46 15 17 17 7 20 -16 5z"/>
<path d="M115 575 c-22 -8 -34 -14 -27 -14 7 -1 11 -4 9 -8 -3 -5 10 -9 28
-10 22 -2 35 2 39 12 3 9 12 12 22 8 16 -6 16 -7 -2 -14 -18 -7 -18 -8 -1 -8
10 -1 25 6 33 14 14 13 13 15 -10 15 -14 0 -28 5 -31 10 -7 12 -8 12 -60 -5z"/>
<path d="M2796 539 c2 -4 -3 -12 -11 -19 -8 -7 -15 -9 -15 -4 0 5 -53 10 -118
11 -65 1 -126 5 -135 9 -29 11 -18 -4 15 -20 35 -18 94 -21 103 -6 4 6 10 8
15 5 5 -3 25 -6 44 -7 19 -1 34 -4 32 -7 -9 -13 89 2 99 16 9 13 16 12 54 -3
30 -12 45 -14 53 -6 7 7 19 7 36 1 27 -11 38 -6 27 11 -4 6 -13 9 -20 6 -8 -3
-15 0 -18 7 -2 8 -31 12 -85 12 -44 0 -79 -3 -76 -6z"/>
<path d="M1288 513 c13 -9 34 -18 47 -19 28 -3 53 20 34 32 -7 4 -9 3 -6 -3 4
-6 -6 -13 -24 -15 -20 -3 -33 0 -36 9 -3 7 -13 13 -22 12 -12 0 -11 -4 7 -16z"/>
<path d="M1938 523 c6 -3 10 -8 8 -12 -3 -4 20 -8 50 -8 72 -1 56 18 -17 21
-30 2 -48 1 -41 -1z"/>
<path d="M2280 516 c28 -17 95 -22 85 -6 -3 5 -18 8 -33 8 -15 -1 -38 1 -52 5
l-25 8 25 -15z"/>
<path d="M180 510 l-65 -7 68 -1 c39 -1 67 2 67 8 0 6 -1 9 -2 8 -2 -1 -32 -4
-68 -8z"/>
<path d="M645 495 c0 -16 5 -21 20 -20 11 1 44 3 73 4 28 0 52 5 52 9 0 5 -28
7 -62 5 -38 -2 -58 0 -50 6 10 6 8 9 -10 13 -18 3 -23 0 -23 -17z"/>
<path d="M928 513 c18 -2 45 -2 60 0 15 2 0 4 -33 4 -33 0 -45 -2 -27 -4z"/>
<path d="M856 476 c10 -8 22 -12 27 -9 20 12 61 13 68 1 7 -10 9 -9 9 3 0 14
-11 17 -62 18 -55 0 -59 -1 -42 -13z"/>
<path d="M2930 480 c-25 -3 -38 -7 -30 -10 8 -3 35 -3 60 0 25 3 38 7 30 10
-8 3 -35 3 -60 0z"/>
<path d="M2828 473 c6 -2 12 -11 12 -19 0 -10 13 -14 45 -14 25 0 45 4 45 9 0
4 -11 6 -24 4 -14 -3 -35 2 -48 11 -12 9 -27 16 -33 15 -5 0 -4 -3 3 -6z"/>
<path d="M1480 461 c0 -12 32 -23 39 -13 9 12 71 14 71 2 0 -5 5 -10 11 -10 5
0 8 4 4 9 -3 5 5 12 17 14 13 2 -14 5 -59 6 -46 0 -83 -3 -83 -8z"/>
<path d="M1770 463 c24 -3 48 -10 52 -16 6 -9 8 -8 8 2 0 7 6 11 15 7 8 -3 15
-1 15 4 0 6 -29 9 -67 8 -53 -1 -58 -2 -23 -5z"/>
<path d="M880 440 c-32 -7 -31 -7 16 -7 29 0 58 3 65 8 17 10 -29 10 -81 -1z"/>
<path d="M2384 441 c4 -5 27 -9 53 -8 33 0 41 3 28 8 -28 11 -87 11 -81 0z"/>
<path d="M199 423 c-13 -16 -12 -17 3 -5 13 10 37 12 88 9 38 -3 75 -9 80 -12
6 -3 10 0 10 7 0 10 -22 14 -84 16 -70 2 -85 0 -97 -15z"/>
<path d="M768 421 c-16 -19 -15 -21 9 -36 14 -10 23 -13 19 -7 -7 12 50 22 62
10 5 -5 23 -3 43 5 33 14 30 14 -51 11 l-85 -3 24 19 c14 12 18 20 9 20 -7 0
-21 -9 -30 -19z"/>
<path d="M545 420 c-2 -4 29 -7 70 -7 41 0 75 3 75 7 0 9 -139 9 -145 0z"/>
<path d="M1104 418 c-4 -7 -4 -10 0 -6 4 3 21 2 37 -2 17 -5 40 -5 52 0 20 8
19 8 -8 7 -16 0 -40 2 -52 6 -14 5 -24 3 -29 -5z"/>
<path d="M2720 419 c0 -3 27 -6 60 -7 33 0 63 -3 68 -6 4 -2 14 -1 22 5 11 6
7 9 -15 10 -95 4 -135 4 -135 -2z"/>
<path d="M3 398 c-1 -13 1 -18 5 -12 9 13 45 27 37 14 -7 -12 53 -6 65 6 5 5
-16 10 -49 11 -52 3 -57 1 -58 -19z"/>
<path d="M1986 395 c17 -8 36 -21 43 -29 8 -9 18 -16 23 -16 5 0 -5 14 -22 30
-17 17 -41 30 -53 29 -19 -1 -18 -2 9 -14z"/>
<path d="M2910 361 c0 -4 12 -13 26 -19 14 -7 23 -16 20 -20 -5 -9 30 -10 37
-1 2 2 -15 14 -39 26 -24 12 -44 19 -44 14z"/>
<path d="M3 353 c8 -7 108 -5 116 3 2 2 -24 4 -59 4 -35 0 -60 -3 -57 -7z"/>
<path d="M2770 350 c8 -5 31 -9 50 -9 32 1 33 2 10 9 -14 4 -36 8 -50 9 -20 1
-22 -1 -10 -9z"/>
<path d="M560 341 l-45 -7 57 -4 c44 -4 54 -2 46 8 -6 6 -11 11 -12 10 0 0
-21 -4 -46 -7z"/>
<path d="M2650 331 c0 -4 -17 -6 -37 -4 l-38 2 37 -8 c20 -4 48 -15 62 -24 30
-20 46 -22 46 -5 0 6 -3 8 -6 5 -4 -3 -16 -1 -27 4 -14 8 -16 13 -8 19 9 5 6
9 -8 13 -12 3 -21 2 -21 -2z"/>
<path d="M2871 331 c0 -7 -7 -11 -14 -8 -8 3 -20 1 -28 -4 -11 -7 -10 -9 6 -9
17 0 17 -2 5 -10 -12 -8 -8 -10 15 -11 17 -1 50 -3 75 -4 24 -2 51 1 60 5 10
6 -6 9 -47 10 -56 0 -62 2 -66 23 -2 12 -5 16 -6 8z"/>
<path d="M1659 325 c-3 -2 -19 -5 -37 -7 -32 -2 -41 -11 -22 -23 6 -3 10 -1
10 5 0 6 6 10 13 9 29 -4 57 2 57 11 0 10 -13 14 -21 5z"/>
<path d="M1794 273 c13 -3 15 -7 7 -12 -9 -6 -8 -11 4 -21 13 -11 15 -10 9 4
-5 13 0 16 27 16 44 0 34 6 -21 13 -25 3 -36 3 -26 0z"/>
<path d="M2603 262 c11 -11 26 -20 35 -20 10 0 31 -2 47 -6 30 -6 30 -6 5 6
-14 7 -29 17 -33 23 -6 7 -10 6 -14 -3 -4 -10 -11 -9 -31 4 l-27 17 18 -21z"/>
<path d="M2730 255 c0 -10 10 -15 29 -15 20 0 36 -9 50 -26 16 -20 25 -24 43
-18 43 15 105 1 113 -26 7 -21 27 -28 23 -8 -5 20 -24 37 -52 44 -28 7 -34 19
-13 27 9 4 9 6 0 6 -6 1 -14 -3 -17 -8 -3 -5 -16 -6 -29 -3 -22 6 -22 6 3 13
24 7 23 7 -6 8 -28 1 -31 -2 -26 -24 2 -15 0 -25 -7 -25 -7 0 -9 5 -5 12 4 6
3 8 -3 5 -6 -4 -16 0 -23 8 -10 12 -9 15 6 16 14 0 -53 23 -83 29 -2 0 -3 -7
-3 -15z"/>
<path d="M2460 249 c0 -4 22 -9 50 -11 27 -1 45 1 41 5 -11 11 -91 16 -91 6z"/>
<path d="M2308 234 c12 -8 21 -9 29 -2 7 5 17 7 23 3 5 -3 10 -2 10 3 0 6 -18
9 -39 9 -34 -1 -37 -3 -23 -13z"/>
<path d="M1895 201 c34 -14 84 -21 89 -12 3 4 0 8 -7 9 -7 0 -32 3 -57 6 -28
3 -37 2 -25 -3z"/>
<path d="M2180 191 c0 -6 5 -13 12 -17 7 -4 8 -3 4 4 -4 7 12 12 51 15 l58 3
-62 2 c-35 1 -63 -2 -63 -7z"/>
<path d="M2715 193 c40 -5 68 -19 60 -32 -5 -9 -1 -10 93 -12 40 -1 75 1 79 5
3 3 -28 6 -69 6 -53 0 -79 4 -87 14 -9 11 -9 15 1 19 7 3 -16 5 -52 5 -43 -1
-52 -3 -25 -5z"/>
<path d="M574 165 c-4 -8 -10 -12 -15 -9 -5 3 -8 0 -7 -8 2 -8 -5 -12 -19 -11
-13 2 -23 -2 -23 -7 0 -12 77 -12 135 -1 l40 7 -37 5 c-20 3 -34 1 -32 -3 3
-4 -6 -8 -20 -8 -41 0 -27 31 19 43 15 3 13 5 -8 6 -16 1 -30 -5 -33 -14z"/>
<path d="M818 162 c-5 -18 -13 -22 -46 -22 -23 0 -52 4 -66 10 -20 7 -24 6
-20 -4 7 -19 35 -22 124 -15 41 3 65 6 52 7 -13 1 -26 11 -31 24 l-8 22 -5
-22z"/>
<path d="M100 160 c-58 -3 -87 -7 -65 -9 22 -2 43 -3 48 -2 4 0 7 -3 7 -9 0
-6 9 -6 26 0 33 13 34 13 27 -6 -4 -12 -2 -15 8 -12 8 3 13 10 12 16 -2 6 16
13 40 16 83 11 91 13 47 13 -25 -1 -92 -4 -150 -7z"/>
<path d="M2548 153 c23 -2 61 -2 85 0 23 2 4 4 -43 4 -47 0 -66 -2 -42 -4z"/>
<path d="M1888 143 c18 -2 45 -2 60 0 15 2 0 4 -33 4 -33 0 -45 -2 -27 -4z"/>
<path d="M2884 81 c3 -4 -14 -8 -36 -9 -51 -2 -65 -14 -41 -33 16 -13 17 -12
5 3 -11 14 -8 16 39 20 28 1 53 0 56 -4 6 -12 66 -9 83 3 12 8 9 9 -12 5 -16
-4 -43 0 -63 8 -20 9 -34 12 -31 7z"/>
<path d="M260 68 c0 -5 33 -7 73 -7 76 2 68 6 -21 11 -28 2 -52 0 -52 -4z"/>
<path d="M1950 61 c-39 -5 -42 -7 -20 -13 41 -12 70 -9 70 7 0 8 -1 14 -2 13
-2 0 -23 -4 -48 -7z"/>
<path d="M2182 45 c7 -8 87 -9 95 -2 3 4 -18 7 -47 7 -29 0 -51 -2 -48 -5z"/>
<path d="M91 16 c7 -8 118 -10 126 -3 3 4 -24 7 -62 7 -38 0 -66 -2 -64 -4z"/>
</g>
</svg>
