<?xml version="1.0" standalone="no"?>
<!DOCTYPE svg PUBLIC "-//W3C//DTD SVG 20010904//EN"
 "http://www.w3.org/TR/2001/REC-SVG-20010904/DTD/svg10.dtd">
<svg version="1.0" xmlns="http://www.w3.org/2000/svg"
 width="300.000000pt" height="117.000000pt" viewBox="0 0 300.000000 117.000000"
 preserveAspectRatio="xMidYMid meet">
<metadata>
Created by potrace 1.10, written by Peter Selinger 2001-2011
</metadata>
<g transform="translate(0.000000,117.000000) scale(0.100000,-0.100000)"
fill="#6d28d9" stroke="none">
<path d="M580 1153 c0 -9 -11 -33 -25 -52 -22 -33 -23 -40 -13 -81 6 -25 14
-50 19 -55 4 -6 8 -53 8 -105 0 -91 0 -125 0 -215 0 -66 -4 -109 -12 -122 -4
-7 -1 -38 7 -70 8 -31 13 -59 10 -62 -8 -8 -24 22 -24 47 0 13 -6 22 -15 22
-12 0 -15 15 -15 73 0 39 -4 78 -9 85 -5 8 -23 12 -47 10 -29 -2 -42 -9 -49
-25 -7 -17 -18 -23 -41 -23 -36 0 -44 -13 -44 -70 0 -29 -4 -39 -20 -43 -15
-4 -20 -14 -20 -41 0 -25 -4 -36 -15 -36 -11 0 -15 -11 -15 -40 0 -22 -4 -40
-10 -40 -6 0 -10 35 -10 85 l0 85 -35 0 c-33 0 -35 -2 -35 -35 0 -19 -4 -35
-10 -35 -5 0 -10 -9 -10 -20 0 -13 -7 -20 -20 -20 -22 0 -44 -34 -36 -56 3 -7
-3 -18 -14 -24 -15 -8 -20 -21 -20 -55 0 -33 -4 -45 -15 -45 -14 0 -17 -6 -14
-27 0 -4 -8 -10 -18 -14 -10 -4 51 -8 135 -8 115 -1 152 2 152 12 0 6 5 4 11
-5 8 -15 25 -18 106 -18 76 0 94 -3 85 -12 -7 -7 -12 -20 -12 -29 0 -9 -10
-19 -21 -22 -17 -5 -20 -11 -15 -31 4 -18 2 -26 -11 -30 -10 -3 0 -3 22 -1 22
3 124 5 228 5 118 0 187 4 187 10 0 6 -7 10 -15 10 -9 0 -15 9 -15 25 0 16 -6
25 -15 25 -8 0 -15 7 -15 15 0 8 6 12 13 10 6 -3 73 -1 147 4 l135 8 -182 2
c-155 1 -183 3 -183 16 0 13 23 15 143 15 79 0 136 4 129 9 -9 5 -2 8 20 8 18
0 25 -2 16 -4 -10 -3 -18 -9 -18 -14 0 -5 120 -8 298 -7 189 1 263 4 202 8
-52 3 -74 7 -49 8 25 1 60 9 77 17 35 18 82 11 82 -12 0 -13 3 -13 15 -3 10 9
29 10 58 6 23 -4 58 -9 77 -11 63 -5 66 -8 15 -15 -27 -5 -97 -9 -155 -11
l-105 -2 115 -9 c85 -7 120 -6 137 3 15 8 52 10 120 5 54 -3 179 -8 278 -10
152 -3 159 -2 50 3 -71 4 -125 8 -120 10 6 2 -6 7 -25 11 -33 7 -32 7 16 9 27
0 55 -4 62 -11 9 -9 12 -9 12 0 0 8 16 12 45 10 25 0 45 -4 45 -7 0 -6 206 -7
225 -1 6 2 113 4 238 4 191 1 229 3 237 16 6 9 6 16 0 18 -6 2 -10 12 -10 23
0 12 -7 19 -20 19 -11 0 -20 5 -20 10 0 6 -14 10 -31 10 -18 0 -47 9 -65 21
-30 18 -34 26 -34 64 0 24 -4 46 -9 49 -5 3 -7 24 -4 46 5 38 4 40 -21 40 -24
0 -26 3 -26 40 0 39 -1 40 -33 40 -33 0 -67 -24 -67 -48 0 -7 -11 -12 -24 -12
-27 0 -42 -15 -49 -50 -3 -14 -5 31 -4 100 1 69 -1 130 -5 135 -3 6 -8 22 -12
38 -7 30 -12 32 -50 17 -16 -6 -26 -17 -26 -30 0 -11 -4 -20 -10 -20 -5 0 -10
-17 -10 -38 0 -32 -4 -39 -30 -50 -17 -8 -30 -21 -30 -32 0 -10 -9 -20 -20
-23 -16 -4 -20 -14 -20 -51 0 -25 -5 -46 -10 -46 -7 0 -10 34 -8 97 l3 98 -56
-1 -57 -1 -6 68 c-4 38 -11 71 -17 74 -5 4 -9 23 -9 45 0 22 -5 40 -13 43 -10
4 -13 20 -9 61 3 38 1 56 -7 56 -7 0 -11 -22 -11 -59 0 -44 -4 -60 -16 -65
-11 -4 -15 -17 -13 -47 3 -30 -1 -43 -14 -50 -9 -6 -17 -21 -17 -34 0 -13 -4
-27 -10 -30 -6 -3 -10 -44 -10 -91 0 -49 -4 -84 -10 -84 -5 0 -10 -16 -10 -35
0 -19 -3 -35 -7 -35 -5 0 -5 62 -2 137 5 110 4 144 -8 168 -8 17 -17 61 -20
98 -3 37 -10 70 -14 73 -5 3 -9 30 -9 60 0 73 -21 68 -35 -7 -6 -30 -16 -64
-23 -76 -6 -12 -12 -36 -12 -54 0 -18 -6 -40 -14 -48 -20 -24 -38 -98 -43
-178 -4 -69 -6 -73 -29 -73 -21 0 -24 5 -24 35 0 19 -4 35 -10 35 -5 0 -10 9
-10 20 0 11 -4 20 -9 20 -5 0 -11 10 -13 23 -3 21 -4 20 -26 -10 -13 -18 -25
-54 -29 -83 -9 -79 -16 -51 -14 64 2 97 1 105 -19 111 -16 5 -20 15 -20 51 0
24 -4 44 -10 44 -5 0 -10 -20 -10 -44 0 -38 -3 -45 -22 -48 -36 -5 -48 -43
-48 -154 0 -81 -3 -103 -15 -108 -9 -3 -15 0 -15 9 0 8 -9 19 -20 25 -12 7
-22 25 -26 50 -4 22 -10 40 -14 40 -4 0 -5 -11 -3 -24 4 -17 0 -25 -15 -28
-11 -3 -22 -16 -25 -29 -2 -13 -2 15 1 62 3 47 2 111 -2 142 -6 47 -11 57 -27
57 -17 0 -19 7 -19 60 0 38 -4 60 -11 60 -8 0 -10 -18 -5 -59 7 -57 6 -60 -16
-63 -16 -2 -24 -11 -26 -28 -2 -14 -8 -29 -13 -34 -5 -6 -9 -51 -10 -100 0
-50 -3 -85 -6 -78 -2 6 -9 12 -14 12 -6 0 -7 -5 -4 -10 3 -5 0 -10 -8 -10 -23
0 -47 -66 -47 -130 0 -33 -4 -60 -9 -60 -5 0 -6 20 -3 45 4 38 1 50 -17 69
-12 12 -18 25 -15 29 8 7 -20 37 -35 37 -6 0 -10 52 -10 143 0 136 -1 146 -26
193 -21 38 -26 59 -22 92 3 23 1 45 -4 48 -5 3 -9 35 -9 72 0 113 -19 56 -22
-68 -3 -96 -7 -123 -26 -160 -21 -40 -23 -58 -20 -143 2 -53 -1 -97 -5 -97 -5
0 -5 -4 -2 -10 4 -6 -5 -10 -20 -10 -15 0 -24 4 -20 10 3 6 13 10 21 10 8 0
14 5 14 10 0 18 -26 11 -48 -13 -16 -17 -22 -36 -22 -66 0 -37 -2 -42 -14 -31
-8 6 -25 10 -38 8 -21 -3 -23 -8 -23 -61 0 -53 -2 -57 -22 -57 -13 0 -23 6
-23 14 0 33 -55 31 -63 -2 -4 -14 -5 -13 -6 3 0 11 8 31 19 45 11 14 20 33 20
42 0 9 4 19 9 22 5 3 11 20 14 38 3 18 7 42 9 52 2 14 -5 23 -24 30 -23 8 -31
6 -43 -10 -13 -18 -14 -16 -15 24 0 23 -7 54 -16 67 -15 23 -14 25 10 48 30
28 32 37 11 37 -13 0 -14 4 -5 21 10 18 9 20 -7 17 -11 -2 -23 4 -30 17 -11
20 -12 20 -21 -4 -6 -16 -11 -20 -16 -13 -10 17 -26 15 -26 -3 0 -8 -4 -15
-10 -15 -11 0 -14 41 -11 174 1 87 -12 156 -30 156 -5 0 -9 -8 -9 -17z m20
-68 c0 -31 -3 -35 -25 -35 -14 0 -25 3 -25 6 0 8 40 64 46 64 2 0 4 -16 4 -35z
m9 -285 c0 -25 -5 -52 -12 -61 -10 -13 -12 3 -10 80 1 53 3 98 4 101 4 13 18
-80 18 -120z m1380 88 c-1 -13 -5 -36 -9 -53 -7 -26 -8 -22 -9 23 0 29 3 52 9
52 6 0 9 -10 9 -22z m-874 -56 c-22 -5 -29 3 -21 25 7 17 8 17 22 -2 13 -18
13 -20 -1 -23z m-407 -23 c4 -11 2 -11 -8 -2 -10 9 -16 8 -28 -3 -12 -13 -16
-13 -23 -2 -6 9 -9 3 -10 -17 0 -26 -2 -27 -9 -10 -14 32 -11 44 8 40 10 -2
25 1 33 6 18 11 32 7 37 -12z m1482 -14 c0 -24 -5 -35 -15 -35 -10 0 -15 11
-15 35 0 24 5 35 15 35 10 0 15 -11 15 -35z m-1111 -12 c0 -16 -9 -68 -19
-118 l-18 -90 -1 102 c-1 56 -4 108 -7 117 -5 12 0 16 20 16 22 0 26 -4 25
-27z m60 -130 c-1 -87 -3 -151 -5 -143 -9 39 -34 228 -34 262 0 31 3 38 20 38
19 0 20 -6 19 -157z m-439 111 c0 -15 -6 -24 -15 -24 -21 0 -30 27 -15 45 16
19 30 10 30 -21z m1320 16 c0 -16 -7 -20 -35 -20 -28 0 -35 4 -35 20 0 16 7
20 35 20 28 0 35 -4 35 -20z m-605 -20 c-28 -12 -55 -12 -55 0 0 6 17 10 38 9
30 0 33 -2 17 -9z m-801 -140 c-34 -51 -45 -43 -15 10 12 22 20 44 17 48 -3 5
0 24 7 42 l12 32 3 -45 c2 -36 -3 -54 -24 -87z m1416 120 c0 -5 -20 -10 -45
-10 -25 0 -45 5 -45 10 0 6 20 10 45 10 25 0 45 -4 45 -10z m180 -15 c0 -21
-5 -25 -30 -25 -25 0 -30 4 -30 25 0 21 5 25 30 25 25 0 30 -4 30 -25z m-1530
-4 c0 -4 -7 -16 -15 -27 -14 -18 -14 -17 -15 13 0 25 4 31 15 27 8 -4 15 -9
15 -13z m750 -50 l0 -69 -34 -4 -35 -4 -3 73 -3 73 38 0 37 0 0 -69z m-788
-56 c-40 -59 -72 -102 -72 -97 0 15 132 213 138 207 3 -2 -27 -52 -66 -110z
m1048 14 c0 -75 -2 -87 -15 -83 -21 8 -73 -14 -79 -34 -3 -10 -3 3 0 28 3 25
5 77 4 115 l-1 70 46 -3 45 -4 0 -89z m-576 -82 c18 -110 21 -283 6 -292 -5
-3 -10 -25 -10 -49 l0 -43 -36 11 -36 11 4 175 c3 118 11 206 23 269 22 107
18 114 49 -82z m225 -74 c0 -137 -3 -239 -7 -228 -8 21 -4 475 4 475 2 0 4
-111 3 -247z m697 70 c-10 -273 -15 -310 -38 -316 -11 -3 -22 -14 -25 -25 -2
-11 -16 -22 -29 -25 -22 -4 -23 -2 -19 32 2 20 7 122 10 226 3 105 8 211 12
238 l6 47 45 0 45 0 -7 -177z m-116 -59 c-5 -120 -10 -240 -10 -266 0 -37 -4
-48 -16 -48 -13 0 -15 29 -11 256 3 236 5 258 22 270 10 8 20 12 22 10 2 -2
-1 -102 -7 -222z m-1193 130 c-7 -101 -34 -166 -96 -236 -24 -27 -38 -48 -33
-48 20 0 91 92 113 145 12 30 26 52 30 49 4 -2 10 0 14 6 3 5 1 10 -4 10 -16
0 -12 41 7 78 16 30 19 31 37 18 20 -15 20 -15 -3 -31 -15 -11 -21 -23 -17
-35 7 -22 -14 -60 -32 -60 -16 0 -16 -6 -3 -31 7 -11 7 -19 1 -19 -5 0 -12 6
-14 13 -3 6 -6 -16 -6 -49 -1 -46 -6 -68 -22 -88 -26 -33 -41 -34 -29 0 12 31
12 34 1 34 -5 0 -12 -15 -16 -32 -4 -18 -18 -44 -31 -58 -14 -14 -36 -38 -49
-55 l-25 -30 6 45 c12 96 28 146 59 185 40 49 68 102 62 118 -2 7 -15 -10 -27
-37 -13 -27 -31 -51 -41 -53 -10 -3 -20 -12 -22 -22 -3 -9 -5 3 -6 26 -1 36 8
56 67 142 37 55 71 101 76 101 5 0 6 -37 3 -86z m1491 38 c2 -18 -2 -40 -8
-48 -8 -8 -10 -27 -6 -49 7 -34 6 -35 -24 -35 l-30 0 0 86 0 85 33 -3 c28 -3
32 -7 35 -36z m-88 -57 c0 -83 -3 -93 -26 -77 -16 11 -5 162 12 162 11 0 14
-19 14 -85z m380 -65 c0 -123 -1 -130 -20 -130 -19 0 -20 7 -20 123 0 125 2
137 27 137 10 0 13 -28 13 -130z m50 -20 c0 -93 -4 -150 -10 -150 -5 0 -10 9
-10 20 0 11 -4 20 -10 20 -6 0 -10 50 -10 130 0 123 1 130 20 130 19 0 20 -7
20 -150z m-756 52 c11 -69 8 -82 -19 -82 -24 0 -25 2 -25 64 0 58 2 64 19 59
12 -3 21 -17 25 -41z m463 -87 c-2 -133 -2 -135 -24 -135 -23 0 -23 2 -23 129
0 135 -1 133 42 140 3 0 6 -60 5 -134z m63 0 l0 -135 -25 0 -25 0 0 135 0 135
25 0 25 0 0 -135z m-1820 -30 l0 -155 -45 0 -45 0 0 133 c0 171 2 177 51 177
l39 0 0 -155z m1238 23 c-1 -111 -3 -122 -9 -68 -13 123 -10 200 7 200 2 0 3
-60 2 -132z m-722 29 c-3 -50 -6 -139 -6 -199 0 -108 0 -108 -20 -88 -11 11
-27 20 -35 20 -13 0 -15 23 -15 149 0 197 2 206 47 207 l36 1 -7 -90z m404 18
c0 -63 -1 -65 -25 -65 -24 0 -25 2 -25 65 0 63 1 65 25 65 24 0 25 -2 25 -65z
m-60 -5 c0 -33 -4 -60 -10 -60 -6 0 -10 27 -10 60 0 33 4 60 10 60 6 0 10 -27
10 -60z m-961 -85 c0 -133 -1 -135 -23 -135 -12 0 -27 -5 -34 -12 -14 -14 -16
77 -6 205 7 77 7 77 36 77 l28 0 -1 -135z m1291 53 c0 -29 3 -70 6 -90 l7 -38
-37 0 -36 0 0 90 0 90 30 0 c30 0 30 -1 30 -52z m-382 -103 c-2 -100 -7 -145
-14 -145 -20 0 -25 46 -18 170 5 91 10 120 21 120 10 0 13 -29 11 -145z m542
70 c0 -68 -2 -75 -20 -75 -18 0 -20 7 -20 75 0 68 2 75 20 75 18 0 20 -7 20
-75z m590 51 c0 -13 3 -31 6 -40 5 -13 -2 -16 -40 -16 -44 0 -46 1 -46 28 0
36 16 52 52 52 23 0 28 -4 28 -24z m290 -46 c0 -63 -2 -70 -20 -70 -18 0 -20
7 -20 70 0 63 2 70 20 70 18 0 20 -7 20 -70z m-1830 -10 c0 -56 -3 -70 -15
-70 -12 0 -15 14 -15 70 0 56 3 70 15 70 12 0 15 -14 15 -70z m270 40 c0 -20
5 -30 15 -30 12 0 15 -16 15 -88 l0 -88 -32 0 -33 0 3 118 c3 95 6 118 18 118
9 0 14 -11 14 -30z m352 6 c3 -13 3 -60 0 -104 l-4 -80 -32 -5 c-17 -2 -31 -4
-31 -3 0 0 1 49 3 109 l3 107 28 0 c22 0 30 -5 33 -24z m1150 -138 c-2 -10 -8
-15 -13 -12 -11 6 -12 158 -1 168 8 9 20 -128 14 -156z m-1409 80 c-6 -76 -23
-93 -23 -24 0 42 16 104 24 95 2 -2 2 -34 -1 -71z m182 32 c-3 -54 -15 -64
-15 -13 0 33 6 53 15 53 1 0 1 -18 0 -40z m657 -15 c3 -47 0 -55 -14 -55 -15
0 -18 9 -18 55 0 41 4 55 14 55 10 0 15 -16 18 -55z m98 -17 c0 -68 -1 -70
-18 -55 -10 10 -28 17 -40 17 -20 0 -22 5 -22 55 l0 55 40 0 40 0 0 -72z
m-1987 -41 c2 -74 1 -77 -21 -77 -22 0 -23 3 -21 73 2 81 5 89 26 85 12 -2 15
-20 16 -81z m1587 28 c0 -24 -5 -45 -11 -47 -8 -3 -12 -36 -12 -93 l-1 -90 -3
83 c-3 58 -7 81 -15 76 -8 -5 -9 9 -4 52 10 85 46 101 46 19z m840 -6 c0 -54
-2 -60 -15 -49 -10 8 -15 30 -15 61 0 37 4 49 15 49 12 0 15 -13 15 -61z m-40
11 c0 -22 -4 -40 -10 -40 -11 0 -14 63 -3 73 11 12 13 8 13 -33z m-1876 -99
c-3 -9 -5 -44 -4 -78 1 -51 -2 -63 -14 -63 -12 0 -16 10 -16 35 0 19 -5 35
-11 35 -7 0 -10 -14 -7 -35 3 -24 0 -35 -9 -35 -9 0 -13 15 -13 49 0 43 5 54
35 84 30 30 35 42 37 89 l2 53 3 -59 c2 -32 1 -66 -3 -75z m888 82 c4 -40 1
-51 -16 -66 l-21 -18 23 6 c18 5 22 2 22 -14 0 -29 -36 -28 -44 2 -3 12 -6 48
-6 80 0 49 3 57 19 57 15 0 20 -9 23 -47z m1158 12 c0 -24 -5 -35 -15 -35 -10
0 -15 11 -15 35 0 24 5 35 15 35 10 0 15 -11 15 -35z m-1210 -56 c0 -51 -4
-78 -10 -74 -18 11 -12 155 7 155 2 0 3 -36 3 -81z m-760 51 c0 -11 -7 -20
-15 -20 -8 0 -15 2 -15 4 0 2 -3 11 -6 20 -4 12 0 16 15 16 14 0 21 -6 21 -20z
m620 10 c0 -5 -10 -10 -23 -10 -13 0 -28 -5 -35 -12 -12 -12 -17 -114 -6 -143
11 -29 34 32 34 91 0 51 1 54 25 54 24 0 25 -3 25 -60 0 -54 -2 -60 -20 -60
-13 0 -24 -10 -30 -25 -6 -15 -17 -25 -30 -25 -19 0 -20 6 -20 100 l0 100 40
0 c22 0 40 -4 40 -10z m1030 -6 c0 -9 -9 -18 -20 -21 -16 -4 -20 -14 -20 -50
0 -36 -3 -44 -17 -41 -13 2 -18 16 -20 53 -5 66 0 75 42 75 25 0 35 -4 35 -16z
m-91 -101 c0 -93 -2 -104 -15 -91 -11 11 -12 21 -5 41 6 15 7 27 3 27 -4 0 -6
28 -5 62 2 75 1 68 13 68 6 0 9 -43 9 -107z m-1599 38 c0 -28 -4 -53 -10 -56
-6 -4 -10 15 -10 49 0 31 5 56 10 56 6 0 10 -22 10 -49z m-222 -8 c-4 -66 -28
-70 -28 -4 0 39 4 51 16 51 12 0 14 -10 12 -47z m-218 -18 c0 -46 -3 -55 -18
-55 -10 0 -23 -5 -30 -12 -14 -14 -16 4 -6 76 6 40 10 46 30 46 22 0 24 -4 24
-55z m490 46 c0 -6 -4 -13 -10 -16 -5 -3 -10 -17 -10 -31 0 -13 -4 -24 -10
-24 -11 0 -14 63 -3 73 10 10 33 8 33 -2z m1343 2 c2 -5 2 -45 -1 -90 l-4 -82
-32 -3 c-18 -2 -42 4 -58 15 -26 17 -28 23 -28 93 l0 74 59 0 c33 0 62 -3 64
-7z m367 -13 c0 -10 -9 -24 -20 -30 -16 -8 -20 -21 -20 -60 0 -48 -1 -50 -28
-50 -28 0 -28 0 -30 72 0 39 1 75 4 80 3 4 25 8 50 8 37 0 44 -3 44 -20z m93
-7 c15 -17 13 -18 -29 -18 -44 0 -45 0 -23 18 11 9 25 17 29 17 4 0 14 -8 23
-17z m115 -30 c-4 -66 -28 -70 -28 -4 0 39 4 51 16 51 12 0 14 -10 12 -47z
m-2588 13 c0 -14 -4 -28 -10 -31 -6 -4 -10 7 -10 24 0 17 5 31 10 31 6 0 10
-11 10 -24z m1718 -73 c-3 -98 -3 -98 -28 -95 -13 1 -27 6 -30 10 -3 4 -4 46
-2 95 l3 87 30 0 30 0 -3 -97z m332 52 c0 -19 5 -37 10 -40 6 -3 9 -30 8 -58
l-1 -52 -7 50 c-4 37 -8 45 -14 32 -5 -10 -6 -33 -3 -52 4 -26 2 -35 -9 -35
-16 0 -17 27 -8 132 7 68 24 85 24 23z m590 19 c0 -14 -4 -23 -10 -19 -11 7
-13 -3 -10 -51 1 -18 -3 -35 -9 -38 -10 -7 -14 110 -5 126 12 19 34 7 34 -18z
m-1860 -54 c0 -40 -4 -70 -10 -70 -5 0 -10 -7 -10 -15 0 -15 -26 -20 -54 -9
-12 5 -16 20 -16 60 0 30 -4 54 -10 54 -5 0 -10 11 -10 25 0 24 3 25 55 25
l55 0 0 -70z m340 25 c0 -28 -4 -35 -20 -35 -16 0 -20 7 -20 35 0 28 4 35 20
35 16 0 20 -7 20 -35z m497 -56 c1 -71 -1 -80 -15 -74 -10 4 -23 8 -31 8 -9 0
-12 10 -8 31 7 45 -1 56 -39 56 -31 0 -34 3 -34 30 l0 30 63 0 64 0 0 -81z
m498 14 c-4 -38 -8 -70 -10 -72 -10 -9 -24 13 -21 32 3 12 5 28 5 35 1 7 6 10
12 6 7 -4 10 -1 7 7 -3 8 -10 13 -16 12 -14 -3 -35 24 -27 37 3 5 18 10 32 10
l25 0 -7 -67z m65 15 c0 -33 -6 -58 -16 -69 -19 -21 -43 -15 -38 9 1 9 6 38 9
65 5 38 10 47 26 47 16 0 19 -7 19 -52z m250 15 c0 -34 -8 -46 -37 -62 -35
-18 -43 -13 -43 23 0 54 8 66 46 66 30 0 34 -3 34 -27z m98 15 c17 -17 15 -55
-3 -62 -8 -3 -29 -3 -45 1 -27 5 -30 3 -30 -21 0 -22 -4 -26 -30 -26 -16 0
-30 5 -30 10 0 6 5 10 12 10 24 0 48 34 48 67 0 31 2 33 33 33 18 0 38 -5 45
-12z m-2430 -17 c21 -13 6 -121 -17 -121 -9 0 -22 -5 -29 -12 -9 -9 -12 -8
-12 5 0 9 -9 22 -20 29 -15 10 -20 24 -20 60 l0 48 43 0 c23 0 48 -4 55 -9z
m572 -51 c0 -34 -4 -50 -13 -50 -23 0 -37 23 -37 62 0 34 3 38 25 38 23 0 25
-3 25 -50z m706 -37 c-12 -12 -36 21 -36 47 0 45 24 43 33 -2 5 -22 6 -42 3
-45z m894 53 c0 -22 -6 -36 -16 -40 -24 -9 -24 -9 -24 34 0 33 3 40 20 40 16
0 20 -7 20 -34z m-2290 -16 c0 -29 -4 -40 -15 -40 -11 0 -15 11 -15 40 0 29 4
40 15 40 11 0 15 -11 15 -40z m300 20 c0 -11 -4 -20 -10 -20 -5 0 -10 -13 -10
-30 0 -16 -4 -30 -10 -30 -5 0 -10 20 -10 44 0 26 -5 46 -12 49 -7 3 2 6 20 6
26 1 32 -3 32 -19z m110 5 c0 -11 -12 -15 -45 -15 -57 0 -59 18 -2 23 23 2 43
4 45 5 1 1 2 -5 2 -13z m106 -82 c-3 -3 -25 -8 -51 -10 -48 -6 -61 8 -25 27
17 9 20 8 20 -7 0 -15 2 -16 10 -3 5 8 10 26 10 39 0 13 8 30 18 37 15 11 17
8 20 -33 2 -25 1 -47 -2 -50z m804 57 c0 -32 -1 -33 -24 -24 -16 6 -22 35 -9
47 16 17 33 5 33 -23z m162 -4 c-3 -25 -10 -36 -25 -40 -39 -10 -43 -7 -39 34
4 38 6 40 36 40 30 0 32 -2 28 -34z m-418 18 c27 -10 18 -40 -21 -68 l-38 -26
-3 36 c-5 52 19 74 62 58z m1546 -14 c0 -22 -1 -23 -24 -14 -13 5 -14 9 -5 20
16 20 29 17 29 -6z m108 4 c41 -20 40 -24 -3 -24 -28 0 -35 4 -35 20 0 24 -1
24 38 4z m-2468 -29 c0 -30 -3 -35 -24 -35 -13 0 -31 -3 -40 -6 -13 -5 -16 2
-16 35 l0 41 40 0 c39 0 40 -1 40 -35z m900 -1 c0 -35 -1 -36 -22 -22 -11 8
-25 24 -29 36 -7 20 -5 22 21 22 28 0 30 -3 30 -36z m420 7 c0 -16 -6 -31 -14
-34 -21 -8 -67 16 -61 31 3 8 5 18 5 23 0 5 16 9 35 9 32 0 35 -3 35 -29z
m-1410 -16 c0 -19 -4 -35 -10 -35 -11 0 -14 53 -3 63 11 12 13 8 13 -28z m250
14 c0 -20 -20 -29 -66 -29 -29 0 -34 4 -34 23 0 20 5 22 50 22 40 0 50 -3 50
-16z m2145 11 c-3 -5 1 -10 9 -10 9 0 16 -4 16 -10 0 -5 54 -11 128 -13 l127
-3 -137 -2 c-83 -1 -139 2 -143 8 -3 6 -23 11 -43 11 -27 1 -31 3 -12 6 14 3
29 9 35 14 12 12 28 12 20 -1z m-1702 -24 c9 -7 17 -18 17 -24 0 -12 -107 -28
-117 -18 -4 3 11 6 33 6 36 1 38 2 20 15 -17 13 -18 15 -3 15 9 0 17 5 17 10
0 13 11 12 33 -4z m387 0 c0 -16 -21 -26 -56 -26 -23 0 -32 18 -17 33 13 13
73 7 73 -7z m670 2 c0 -4 6 -8 14 -8 7 0 19 -7 26 -15 11 -13 10 -18 -6 -30
-27 -20 -39 -18 -69 9 -22 20 -24 27 -14 38 13 15 49 19 49 6z m-537 -14 c41
-8 34 -28 -8 -21 -22 4 -40 1 -47 -7 -12 -12 -88 -11 -88 1 0 3 10 14 22 24
21 19 30 19 121 3z m847 6 c0 -5 7 -7 15 -4 8 4 15 1 15 -5 0 -6 7 -11 15 -11
8 0 15 -4 15 -9 0 -5 10 -12 23 -14 12 -2 -2 -5 -30 -6 -58 -1 -100 23 -78 47
13 14 25 15 25 2z m183 -2 c26 -13 21 -13 252 -23 99 -4 182 -9 184 -11 8 -7
-394 -2 -419 5 -16 5 -35 2 -53 -8 -26 -15 -29 -15 -38 0 -5 9 -20 20 -34 23
-14 4 -23 11 -20 16 9 14 102 12 128 -2z m-1759 -5 c4 -5 26 -13 49 -20 l42
-11 -57 -1 c-52 -1 -58 1 -58 19 0 20 11 26 24 13z m456 -2 c0 -5 10 -12 23
-17 18 -6 14 -8 -22 -11 -51 -5 -62 2 -35 22 22 17 34 19 34 6z m-1062 -18
c11 -11 11 -14 -1 -19 -23 -9 -117 0 -115 11 2 6 6 9 11 8 4 -2 7 1 7 6 0 13
83 8 98 -6z m354 -10 c-31 -22 -192 -31 -192 -11 0 18 70 24 81 6 7 -10 9 -10
9 2 0 12 15 15 63 17 59 1 61 1 39 -14z m1778 8 c0 -5 6 -11 13 -14 6 -2 3 -3
-8 -1 -11 2 -30 4 -42 4 -13 0 -23 5 -23 10 0 6 14 10 30 10 17 0 30 -4 30 -9z
m-1570 -26 c0 -25 -1 -25 -90 -25 -83 0 -90 2 -90 20 0 17 8 20 83 23 45 1 85
4 90 5 4 1 7 -9 7 -23z m1254 19 c26 -10 18 -24 -11 -23 -25 0 -25 1 -8 8 19
8 18 9 -5 13 -14 3 -17 6 -8 7 9 0 23 -2 32 -5z m-1184 -68 c0 -14 -20 -16
-150 -16 -85 0 -150 4 -150 9 0 13 19 16 168 19 114 3 132 1 132 -12z m30 -46
c0 -19 -7 -20 -103 -20 -57 0 -138 -3 -180 -6 -74 -7 -77 -6 -77 14 0 21 5 22
153 25 83 1 164 4 180 5 21 2 27 -2 27 -18z"/>
<path d="M1140 120 c0 -6 28 -10 68 -9 52 1 60 3 37 9 -45 11 -105 11 -105 0z"/>
<path d="M293 113 c-96 -3 -143 -7 -143 -15 0 -7 13 -8 38 -4 20 3 88 6 150 6
68 0 112 4 112 10 0 6 -3 9 -7 8 -5 -1 -72 -4 -150 -5z"/>
<path d="M1790 90 c0 -6 45 -10 115 -10 70 0 115 4 115 10 0 6 -45 10 -115 10
-70 0 -115 -4 -115 -10z"/>
<path d="M968 83 c39 -2 105 -2 145 0 39 1 7 3 -73 3 -80 0 -112 -2 -72 -3z"/>
<path d="M1985 60 c-4 -6 30 -10 94 -10 61 0 101 4 101 10 0 6 -38 10 -94 10
-53 0 -98 -4 -101 -10z"/>
</g>
</svg>
