<?xml version="1.0" standalone="no"?>
<!DOCTYPE svg PUBLIC "-//W3C//DTD SVG 20010904//EN"
 "http://www.w3.org/TR/2001/REC-SVG-20010904/DTD/svg10.dtd">
<svg version="1.0" xmlns="http://www.w3.org/2000/svg"
 width="200.000000pt" height="59.000000pt" viewBox="0 0 200.000000 59.000000"
 preserveAspectRatio="xMidYMid meet">
<metadata>
Created by potrace 1.10, written by Peter Selinger 2001-2011
</metadata>
<g transform="translate(0.000000,59.000000) scale(0.050000,-0.050000)"
fill="#6d28d9" stroke="none">
<path d="M269 887 c-49 -10 -62 -482 -15 -529 62 -62 79 -8 70 231 l-9 234 77
-7 c104 -8 123 -93 34 -149 -31 -19 -59 -37 -62 -39 -41 -26 158 -288 219
-288 72 0 67 60 -10 123 -115 95 -123 124 -53 194 149 148 -2 286 -251 230z"/>
<path d="M2195 886 c-8 -15 -16 -173 -22 -426 -3 -98 2 -110 37 -110 36 0 40
11 34 130 -10 226 18 273 75 129 91 -230 115 -234 208 -39 90 191 101 188 88
-19 -8 -128 -4 -175 16 -192 36 -30 101 -14 91 22 -5 16 -14 137 -20 269 l-12
240 -55 6 c-41 5 -55 -2 -55 -28 0 -41 -120 -308 -139 -308 -7 0 -44 74 -82
165 -66 156 -132 221 -164 161z"/>
<path d="M3246 803 c10 -49 5 -63 -27 -73 -49 -16 -51 -51 -3 -63 31 -8 35
-26 28 -126 -12 -161 103 -266 192 -177 38 38 28 53 -41 60 -64 6 -65 7 -71
120 l-6 113 66 7 c45 4 68 18 73 43 5 29 -4 35 -50 30 -49 -6 -58 1 -67 53 -8
44 -23 62 -58 67 -43 6 -47 1 -36 -54z"/>
<path d="M746 710 c-99 -69 -103 -298 -7 -350 148 -78 309 66 273 245 -25 127
-160 179 -266 105z m150 -54 c72 -72 10 -270 -76 -240 -97 33 -79 264 20 264
18 0 43 -11 56 -24z"/>
<path d="M1155 718 c-88 -51 -125 -246 -64 -334 48 -68 119 -57 177 29 l49 72
7 -67 c4 -51 15 -68 44 -68 60 0 62 363 2 379 -64 17 -177 12 -215 -11z m157
-66 c15 -39 -86 -232 -121 -232 -65 0 -61 200 5 239 49 29 104 25 116 -7z"/>
<path d="M1499 733 c-38 -38 14 -383 59 -390 45 -6 47 -2 36 69 -15 87 29 198
91 231 60 32 75 -1 57 -130 -12 -91 -9 -123 13 -146 48 -47 75 -19 75 78 0
100 56 200 120 212 33 6 35 -5 24 -128 -14 -143 2 -189 65 -189 32 0 40 282
10 375 -13 42 -99 28 -149 -25 -58 -62 -75 -63 -84 -5 -9 64 -79 67 -152 5
l-61 -51 -7 45 c-5 42 -71 74 -97 49z"/>
<path d="M2873 717 c-89 -51 -123 -267 -53 -337 57 -57 112 -50 164 22 l46 62
10 -57 c7 -38 24 -59 51 -63 62 -9 61 368 -1 385 -65 17 -177 11 -217 -12z
m160 -67 c14 -37 -68 -209 -108 -225 -71 -27 -83 178 -13 229 48 35 107 33
121 -4z"/>
<path d="M3541 687 c-75 -96 -79 -232 -8 -311 67 -74 267 -26 267 64 0 51 -41
73 -63 33 -49 -86 -157 -80 -157 9 0 30 15 38 66 38 124 0 205 121 130 196
-47 47 -189 29 -235 -29z m169 -57 c0 -31 -15 -41 -65 -46 -64 -6 -93 42 -51
84 31 30 116 3 116 -38z"/>
</g>
</svg>
