<?xml version="1.0" standalone="no"?>
<!DOCTYPE svg PUBLIC "-//W3C//DTD SVG 20010904//EN"
 "http://www.w3.org/TR/2001/REC-SVG-20010904/DTD/svg10.dtd">
<svg version="1.0" xmlns="http://www.w3.org/2000/svg"
 width="600.000000pt" height="303.000000pt" viewBox="0 0 600.000000 303.000000"
 preserveAspectRatio="xMidYMid meet">
<metadata>
Created by potrace 1.10, written by Peter Selinger 2001-2011
</metadata>
<g transform="translate(0.000000,303.000000) scale(0.100000,-0.100000)"
fill="#6d28d9" stroke="none">
<path d="M0 1515 l0 -1515 3000 0 3000 0 0 1515 0 1515 -3000 0 -3000 0 0
-1515z m4269 1299 c12 -15 21 -32 21 -38 0 -6 7 -22 16 -34 13 -19 18 -21 31
-10 12 10 17 9 27 -4 7 -10 28 -16 61 -16 35 -1 54 -7 63 -19 19 -27 9 -38
-40 -43 -48 -5 -108 -43 -108 -67 0 -12 11 -14 59 -8 52 6 62 4 80 -14 22 -22
28 -75 10 -87 -6 -3 -23 3 -38 14 -18 13 -47 21 -86 23 l-59 4 -7 -37 c-3 -21
-14 -47 -25 -59 -17 -19 -19 -38 -19 -180 l0 -158 43 -40 c33 -31 53 -41 90
-46 63 -9 95 -19 99 -32 6 -18 -23 -22 -52 -7 -15 8 -46 14 -69 14 -35 0 -43
-4 -58 -30 -15 -26 -23 -30 -60 -30 -40 0 -45 3 -70 45 -26 42 -30 45 -70 45
-50 1 -150 31 -156 48 -5 17 64 15 124 -3 62 -19 98 -19 113 -1 14 17 17 109
6 183 -5 36 -3 63 5 84 18 42 19 157 2 180 -19 27 -83 26 -107 -1 -22 -25 -68
-23 -73 2 -2 9 11 33 29 53 29 33 36 36 68 30 20 -4 51 -14 69 -22 47 -22 59
-5 24 36 -23 27 -36 34 -67 35 -37 1 -40 3 -43 33 -3 27 2 34 28 48 30 15 52
15 94 -1 13 -5 16 1 16 29 0 20 -4 39 -10 42 -5 3 -10 19 -10 36 0 37 21 38
49 3z m854 -89 l57 -54 0 -82 0 -81 -57 -59 -56 -59 -76 0 -76 0 -63 58 -62
59 0 79 0 78 57 58 57 58 81 0 80 -1 58 -54z m-2040 -165 c-5 -153 -4 -181 11
-210 9 -19 14 -42 10 -52 -3 -10 -1 -18 5 -18 18 0 44 -64 43 -105 -8 -204 -6
-627 2 -635 5 -5 11 -32 12 -60 1 -32 9 -59 19 -70 14 -15 16 -31 13 -70 -4
-42 -2 -50 13 -55 12 -4 19 -16 19 -33 l0 -27 -192 1 -193 2 0 28 0 29 145 5
c80 3 137 8 128 12 -15 6 -18 20 -18 73 0 37 4 75 10 85 7 14 5 19 -10 23 -17
4 -20 14 -21 59 -2 83 -4 157 -8 238 l-4 75 -7 -50 c-5 -27 -9 -89 -9 -137 -1
-52 -5 -90 -12 -94 -15 -9 -30 16 -24 41 2 11 1 38 -3 60 -5 31 -8 13 -12 -75
-5 -109 -6 -115 -27 -118 -12 -2 -31 2 -43 8 -19 10 -19 13 -6 39 11 21 16 92
22 292 4 145 10 269 15 274 4 6 4 17 -1 25 -17 27 -11 89 13 128 44 72 67 205
67 393 0 108 8 130 37 107 10 -8 11 -52 6 -188z m-1411 -13 c35 -36 114 -97
125 -97 5 0 18 -8 27 -19 14 -15 15 -23 5 -45 -16 -34 -29 -33 -70 5 -87 80
-75 74 -104 55 -32 -21 -42 -15 -56 36 -20 75 24 114 73 65z m-87 -116 c6 -19
45 -37 45 -20 0 19 31 8 39 -13 5 -13 27 -38 50 -56 47 -38 53 -75 15 -80 -22
-3 -34 -27 -34 -69 0 -16 -8 -24 -27 -29 -51 -11 -55 -13 -48 -32 20 -46 18
-61 -10 -72 -38 -15 -65 -4 -145 60 -60 48 -69 59 -70 88 0 47 28 42 84 -18
49 -52 66 -59 85 -36 9 10 4 22 -21 54 -18 22 -45 50 -60 62 -31 24 -38 67
-12 77 12 4 36 -14 80 -61 56 -58 67 -65 84 -56 41 22 22 62 -64 130 -58 46
-64 58 -44 78 18 18 46 14 53 -7z m-295 -101 c0 -21 -15 -50 -50 -94 -27 -35
-50 -70 -50 -77 0 -8 23 -31 52 -53 l52 -38 23 26 c13 15 23 33 23 40 0 11 39
36 55 36 14 0 2 -75 -15 -97 -11 -14 -20 -32 -20 -40 0 -8 25 -38 55 -67 51
-48 55 -55 55 -96 0 -57 -16 -88 -59 -117 -40 -27 -108 -32 -117 -8 -9 22 14
45 44 45 55 0 80 60 45 110 -20 29 -51 60 -59 60 -3 0 -17 -9 -32 -20 -33 -27
-46 -13 -43 45 1 25 -2 45 -7 45 -5 0 -21 11 -35 24 -42 39 -62 41 -76 8 -17
-42 -4 -82 30 -94 36 -12 48 -47 23 -65 -28 -20 -50 -16 -90 19 -36 32 -36 33
-31 91 5 60 40 138 97 224 17 24 30 47 30 50 0 3 11 21 26 40 34 45 74 47 74
3z m2297 -102 c66 -51 84 -82 76 -133 -5 -28 -15 -44 -46 -66 -22 -16 -48 -29
-58 -29 -42 0 -46 -8 -41 -81 l5 -71 -29 4 -29 3 -1 85 c-2 109 -1 107 -20
114 -22 8 -47 -15 -69 -64 -22 -49 -40 -56 -61 -25 -17 26 -19 22 46 102 6 7
10 14 10 17 0 4 63 103 77 121 5 6 14 22 20 38 18 40 55 36 120 -15z m-1343
-70 c3 -13 0 -29 -7 -36 -20 -19 -52 8 -43 36 10 29 42 28 50 0z m179 -75 c3
-54 7 -111 9 -128 2 -24 -1 -30 -17 -30 -16 0 -20 7 -22 35 -2 19 -8 72 -14
117 -12 88 -9 103 21 103 17 0 19 -11 23 -97z m-92 -4 c4 -46 12 -96 19 -111
17 -35 7 -60 -22 -56 -22 3 -23 9 -31 117 -8 119 -5 145 16 139 7 -3 14 -35
18 -89z m483 64 c4 -10 -2 -29 -14 -46 -26 -35 -20 -70 15 -93 14 -9 25 -20
25 -25 0 -11 -58 -94 -92 -133 -15 -16 -37 -49 -48 -73 -11 -23 -31 -50 -45
-59 -14 -9 -25 -21 -25 -28 0 -12 -60 -56 -76 -56 -6 0 -10 -16 -10 -36 0 -26
-7 -41 -24 -55 -29 -22 -67 -21 -61 1 2 8 7 33 10 55 4 28 12 43 28 50 15 6
21 16 18 26 -5 16 40 59 62 59 4 0 24 21 43 47 19 26 59 71 88 100 53 54 63
81 38 102 -10 9 -16 8 -26 -4 -20 -24 -33 -6 -16 21 21 31 20 51 -4 81 -11 14
-20 32 -20 39 0 25 23 27 41 3 l18 -24 27 33 c31 36 39 39 48 15z m-784 -25
c0 -35 16 -56 32 -40 6 6 25 12 40 12 21 0 33 -8 48 -32 28 -46 45 -135 30
-153 -19 -22 -50 -1 -50 34 0 82 -26 115 -71 91 -19 -10 -20 -17 -14 -53 14
-84 12 -92 -17 -95 -16 -2 -28 0 -29 5 0 4 -4 57 -8 117 -10 121 -8 136 20
136 13 0 19 -7 19 -22z m-117 -13 c40 -28 42 -32 27 -55 -8 -13 -13 -13 -39 3
-83 49 -160 -41 -100 -117 23 -30 64 -35 95 -11 20 15 66 20 77 8 19 -18 -93
-83 -144 -83 -10 0 -39 19 -64 43 -37 36 -45 50 -45 80 0 47 12 75 48 113 46
50 90 56 145 19z m725 13 c5 -7 12 -38 15 -68 3 -30 8 -65 12 -76 8 -26 -3
-31 -91 -40 -64 -7 -66 -6 -95 25 -43 48 -36 128 15 163 19 13 133 9 144 -4z
m-390 -90 c6 -35 14 -76 18 -91 6 -27 5 -28 -26 -25 l-34 3 0 83 c-1 46 1 86
3 88 17 16 30 -4 39 -58z m2918 48 c17 -45 -88 -135 -199 -170 -9 -3 -20 -14
-24 -23 -9 -26 -34 -53 -50 -53 -9 0 -13 13 -13 39 0 23 -5 41 -14 44 -7 3
-16 25 -19 49 -4 30 -14 49 -31 63 -31 25 -32 31 -6 45 15 8 30 8 53 0 25 -9
44 -8 87 4 74 20 209 21 216 2z m-446 -37 c0 -6 -18 -29 -40 -51 -23 -23 -40
-50 -40 -63 0 -12 -9 -30 -20 -40 -30 -27 -25 -40 26 -74 71 -47 140 -58 227
-37 95 22 217 82 217 106 0 10 12 25 26 35 27 18 46 13 26 -7 -7 -7 -12 -19
-12 -29 0 -23 -83 -98 -152 -137 -80 -46 -158 -65 -240 -58 -38 2 -70 1 -73
-5 -10 -14 -61 -11 -75 6 -7 8 -18 15 -26 15 -21 0 -64 64 -64 95 0 59 24 109
81 167 65 66 139 107 139 77z m-925 -43 c11 -7 41 -15 67 -18 92 -10 99 -42
33 -144 -56 -88 -92 -122 -133 -130 -60 -12 -138 40 -162 108 -19 52 1 107 56
158 35 32 51 40 82 40 20 0 46 -6 57 -14z m1021 -29 c1 -1 6 -17 13 -36 9 -28
8 -37 -4 -51 -15 -16 -18 -16 -55 2 -43 22 -49 40 -24 77 13 18 22 21 43 16
14 -4 26 -7 27 -8z m-726 -158 c14 -5 32 -24 40 -42 10 -21 23 -33 40 -35 48
-6 52 -10 39 -34 -7 -13 -26 -41 -43 -63 -38 -49 -51 -71 -70 -112 -18 -41
-56 -47 -56 -9 0 20 -6 24 -44 28 -61 7 -102 40 -110 89 -9 54 1 87 41 136 47
59 91 70 163 42z m-2130 -100 c58 -11 121 -21 142 -20 70 1 73 -37 8 -115 -22
-26 -42 -61 -46 -78 -3 -17 -19 -56 -35 -87 -21 -43 -41 -65 -83 -93 l-54 -36
-120 0 c-109 0 -123 2 -168 26 -95 51 -137 112 -148 213 -8 87 -42 124 -79 87
-8 -8 -17 -45 -21 -85 -3 -38 -10 -80 -15 -93 -12 -32 -100 -118 -121 -118 -9
0 -25 -7 -36 -15 -29 -22 -255 -21 -290 2 -73 47 -88 68 -144 198 -11 27 -30
59 -41 71 -11 11 -28 37 -38 57 -24 46 -9 74 33 63 14 -3 35 -2 45 4 11 5 76
15 146 22 129 11 233 5 395 -27 44 -8 93 -10 150 -5 131 12 239 29 258 40 28
16 151 11 262 -11z m-1622 -54 c2 -10 -4 -19 -16 -22 -32 -8 -42 -93 -11 -93
5 0 9 6 9 14 0 8 7 16 15 20 8 3 15 12 15 21 0 20 29 19 37 -1 3 -9 1 -25 -6
-36 -13 -21 -1 -52 24 -62 9 -3 15 -18 15 -38 0 -33 0 -33 44 -30 76 6 129
-53 71 -80 -18 -8 -25 -19 -25 -39 0 -15 -5 -31 -10 -34 -15 -9 -40 14 -40 36
0 11 -7 19 -15 19 -18 0 -95 75 -95 93 0 7 5 18 12 25 20 20 -7 40 -32 24 -30
-19 -50 -15 -50 11 0 16 -11 27 -40 40 -50 23 -74 66 -53 96 8 12 21 21 29 21
8 0 14 4 14 9 0 4 9 20 21 35 l21 27 32 -20 c17 -11 33 -27 34 -36z m3267 31
c49 -49 38 -114 -22 -137 -57 -21 -109 11 -119 73 -5 30 -2 38 26 61 40 34 83
35 115 3z m705 -25 c0 -5 25 -21 55 -35 40 -20 60 -38 78 -69 16 -30 29 -41
43 -40 42 6 86 -9 112 -38 35 -39 41 -58 31 -92 -11 -38 -100 -188 -115 -194
-7 -2 -22 5 -34 17 l-21 21 43 57 c80 107 85 128 36 173 -37 33 -45 35 -73 11
-23 -19 -79 -107 -89 -140 -5 -16 -15 -22 -37 -22 -46 0 -46 24 -1 83 51 67
62 89 62 125 0 52 -59 83 -108 58 -30 -16 -62 -56 -62 -78 0 -8 -9 -21 -20
-31 -11 -9 -20 -24 -20 -32 0 -16 -17 -19 -44 -9 -23 9 -20 27 9 54 14 13 25
29 25 36 0 6 7 17 16 25 8 7 25 31 36 53 11 23 27 49 36 59 16 18 42 23 42 8z
m257 -47 c3 -8 -2 -25 -11 -39 -19 -29 -66 -34 -90 -9 -22 22 -20 41 9 70 24
24 26 24 55 9 17 -9 34 -23 37 -31z m-1518 -106 c9 -26 7 -181 -4 -197 -17
-28 -25 9 -25 110 0 106 10 137 29 87z m-603 -42 c-6 -52 -5 -54 20 -60 14 -4
34 -4 43 -1 10 3 24 -1 31 -10 7 -9 29 -15 51 -15 44 0 43 3 44 -100 0 -71 1
-75 28 -88 23 -11 27 -19 27 -58 0 -25 -5 -54 -11 -66 -17 -31 -2 -84 36 -124
28 -29 35 -45 35 -76 l0 -39 -137 3 -138 3 1 42 c0 29 8 50 27 72 35 42 41 80
35 233 -6 146 -17 172 -69 161 -21 -4 -36 1 -59 21 -37 31 -54 33 -45 7 6 -21
-68 -139 -94 -148 -9 -3 -23 -15 -32 -26 -21 -25 -69 -17 -69 12 0 34 12 51
34 51 23 0 58 32 69 63 4 9 15 17 26 17 25 0 37 18 17 26 -9 3 -16 11 -16 16
0 13 39 46 68 58 12 5 22 16 22 25 0 19 31 53 49 54 11 1 12 -10 7 -53z m189
-1 c0 -29 -4 -41 -16 -43 -19 -3 -49 23 -49 43 0 20 30 46 49 43 12 -2 16 -14
16 -43z m891 4 c2 -60 4 -64 27 -74 12 -6 22 -19 22 -30 0 -13 -8 -21 -22 -23
-17 -3 -23 2 -23 17 0 11 -4 23 -10 26 -18 11 -10 -25 15 -64 32 -51 39 -84
25 -111 -9 -17 -14 -19 -26 -9 -8 6 -14 16 -14 21 0 5 -7 25 -16 46 l-15 37
-20 -40 c-22 -46 -46 -72 -55 -62 -14 14 -5 54 20 91 27 40 33 66 16 66 -5 0
-10 -4 -10 -10 0 -5 -7 -10 -15 -10 -25 0 -17 39 15 80 17 21 30 45 30 53 0
17 29 38 45 33 6 -1 11 -18 11 -37z m789 12 c6 -21 -10 -71 -24 -71 -5 0 -21
4 -35 10 -28 10 -35 47 -14 68 19 19 66 15 73 -7z m-1337 -84 c4 -82 -7 -99
-57 -95 -34 3 -36 5 -42 46 -4 33 -1 46 13 59 10 9 18 21 18 28 0 19 23 36 45
33 17 -3 20 -12 23 -71z m991 47 c8 -7 16 -30 18 -51 2 -31 -2 -42 -25 -60
-15 -12 -37 -22 -50 -23 -27 0 -82 50 -82 75 0 26 28 73 47 78 26 7 76 -3 92
-19z m836 -4 c16 -18 17 -26 6 -73 -11 -47 -28 -153 -34 -202 -4 -34 30 -28
87 14 30 23 60 41 65 41 5 0 16 6 23 13 7 7 30 23 51 36 30 18 40 21 52 11 18
-15 19 -34 3 -52 -17 -18 -78 -107 -78 -113 0 -3 -12 -24 -27 -48 -15 -23 -34
-55 -43 -72 -19 -37 -55 -45 -65 -15 -5 15 3 32 28 63 49 61 90 128 81 135 -4
4 -9 1 -11 -5 -3 -7 -11 -13 -19 -13 -7 0 -49 -27 -93 -60 -44 -33 -85 -60
-91 -60 -30 0 -29 71 5 208 14 59 8 71 -21 39 -21 -24 -72 -112 -81 -140 -4
-13 -14 -17 -32 -15 -42 5 -39 39 11 105 25 32 62 87 83 123 41 69 64 100 75
100 4 0 15 -9 25 -20z m-1987 -65 c-26 -25 -56 -45 -66 -45 -86 0 -57 64 35
80 26 4 55 8 62 9 8 0 -6 -19 -31 -44z m2699 -17 l33 -23 0 -117 c0 -108 -2
-117 -20 -123 -11 -3 -24 -4 -28 -1 -13 7 -292 10 -299 2 -9 -9 77 -86 97 -86
32 0 29 -12 -22 -94 -28 -44 -58 -94 -68 -111 -22 -39 -57 -45 -69 -12 -7 17
-19 26 -45 30 -120 19 -150 150 -57 247 28 30 46 40 69 40 40 0 45 17 41 139
l-4 96 117 -4 c110 -3 117 -2 127 18 16 30 83 29 128 -1z m-2133 -31 c8 -12 4
-29 -17 -71 -27 -52 -29 -54 -53 -44 -33 15 -36 63 -6 104 26 36 58 40 76 11z
m-2748 -14 c22 -24 25 -34 19 -69 -7 -47 4 -61 33 -43 26 16 74 -5 96 -42 19
-31 21 -59 5 -59 -10 0 -42 -24 -101 -74 -32 -28 -58 -29 -84 -5 -27 25 -31
51 -10 68 11 10 18 8 34 -9 11 -12 28 -20 38 -18 23 4 32 38 10 38 -17 0 -56
34 -56 49 0 5 -7 11 -15 15 -18 6 -20 47 -4 63 21 21 0 34 -30 18 -27 -14 -51
-6 -51 17 0 10 72 77 83 78 4 0 19 -12 33 -27z m3266 -99 c107 -71 107 -70 69
-139 -56 -102 -99 -155 -126 -155 -23 0 -76 33 -177 111 -33 25 -37 65 -10 97
9 11 24 30 32 42 52 75 84 107 109 110 2 0 49 -30 103 -66z m-2589 -49 c15
-14 27 -30 27 -35 0 -19 27 -10 55 20 53 55 94 49 201 -32 28 -21 56 -38 63
-38 6 0 30 19 51 41 32 34 41 39 46 25 3 -9 2 -22 -4 -29 -5 -6 -12 -24 -16
-39 -8 -34 -76 -89 -139 -112 -43 -16 -51 -16 -91 -3 -24 8 -66 31 -94 51 -29
20 -54 36 -56 36 -2 0 -24 -18 -48 -40 -23 -22 -61 -45 -82 -51 -100 -28 -246
72 -246 169 0 38 17 42 30 7 5 -13 23 -31 41 -40 30 -16 32 -16 58 8 42 40
124 87 151 87 14 0 38 -11 53 -25z m854 -17 c39 -14 42 -31 8 -46 -14 -6 -25
-18 -25 -26 0 -24 -99 -162 -125 -174 -16 -8 -25 -20 -25 -35 0 -35 -6 -36
-51 -14 -30 15 -39 25 -37 41 2 15 10 21 29 21 25 0 79 50 79 73 0 6 8 17 18
24 10 7 28 30 41 51 12 20 27 37 32 37 5 0 9 14 9 30 0 34 1 34 47 18z m-1305
-48 c-1 -13 -8 -27 -14 -31 -8 -5 -1 -18 21 -38 24 -22 31 -36 26 -51 -7 -21
-7 -21 58 -25 20 -1 46 -10 57 -20 23 -21 27 -55 5 -55 -20 0 -38 -37 -27 -56
7 -12 12 -11 36 11 31 28 56 33 56 9 0 -17 -58 -74 -75 -74 -18 1 -54 37 -65
64 -5 14 -15 26 -22 26 -12 0 -46 29 -75 64 -16 19 -17 53 -2 62 22 13 -18 25
-47 14 -32 -13 -55 2 -39 24 6 7 26 34 45 60 37 50 67 58 62 16z m1361 -44 c9
-7 17 -17 17 -21 0 -5 7 -15 16 -24 13 -14 87 -115 126 -175 7 -10 36 -43 63
-74 28 -30 53 -60 57 -67 10 -18 145 -125 157 -125 5 0 16 -6 23 -14 8 -7 40
-26 72 -41 66 -31 77 -48 49 -77 -23 -23 -47 -19 -83 12 -32 28 -67 25 -101
-9 -31 -32 -36 -59 -18 -110 11 -30 9 -35 -14 -58 -42 -42 -53 -27 -67 89 -9
74 -20 119 -41 162 -16 33 -29 66 -29 74 0 17 -26 65 -61 112 -14 19 -28 40
-30 45 -14 35 -122 185 -133 185 -17 0 -27 24 -20 45 4 8 -1 26 -10 40 -28 43
-13 61 27 31z m1148 -26 c123 -49 214 -136 259 -250 18 -44 23 -76 23 -155 0
-90 -3 -106 -28 -160 -43 -89 -132 -174 -220 -209 -60 -24 -84 -28 -170 -28
-92 -1 -105 2 -166 31 -153 73 -246 233 -237 409 6 122 74 237 184 313 98 67
253 89 355 49z m2109 -35 c0 -8 -5 -24 -12 -35 -10 -16 -9 -23 11 -44 14 -14
21 -32 18 -40 -7 -18 -33 -21 -42 -6 -11 18 -53 11 -60 -9 -3 -11 -16 -34 -28
-53 -36 -52 -38 -64 -16 -92 13 -17 18 -33 14 -46 -6 -20 -35 -28 -35 -10 0 6
-6 10 -14 10 -20 0 -46 39 -46 68 0 24 16 54 64 116 18 23 30 52 31 70 0 22 7
34 24 42 13 7 28 20 33 28 12 21 58 21 58 1z m-775 -65 c7 -22 -47 -121 -85
-155 -18 -17 -19 -20 -5 -41 8 -13 15 -30 15 -38 0 -23 -39 -30 -59 -12 -22
20 -45 20 -62 0 -36 -43 -119 -55 -119 -17 0 19 79 97 122 122 15 9 46 40 68
70 39 53 83 91 107 91 6 0 15 -9 18 -20z m-505 -25 c0 -16 32 -79 43 -83 4 -2
7 -10 7 -19 0 -17 107 -206 154 -273 l32 -45 -27 -23 c-15 -12 -44 -29 -63
-37 -37 -16 -121 -93 -151 -139 l-18 -27 -23 22 c-13 13 -24 32 -24 45 0 12
-7 24 -15 28 -8 3 -15 16 -15 30 0 16 -7 27 -20 31 -13 4 -20 15 -20 30 0 14
-9 29 -20 35 -11 6 -20 15 -20 21 0 6 -13 30 -30 54 -35 51 -37 62 -10 70 17
5 72 87 92 137 14 34 51 17 59 -26 7 -36 26 -27 33 14 5 34 10 40 25 35 25 -8
38 25 17 41 -9 6 -16 16 -16 22 0 19 -20 24 -27 6 -8 -22 -40 -54 -53 -54 -16
0 -12 18 15 60 14 22 25 43 25 48 0 4 5 13 12 20 13 13 38 -2 38 -23z m-3072
-19 c3 -12 -1 -17 -10 -14 -7 3 -15 13 -16 22 -3 12 1 17 10 14 7 -3 15 -13
16 -22z m4541 -87 c33 -24 61 -74 61 -109 0 -31 -28 -87 -47 -94 -9 -4 -23 0
-33 9 -9 8 -21 15 -27 15 -6 0 -13 3 -15 8 -5 13 -101 72 -116 72 -21 0 -8
-68 18 -94 16 -16 31 -20 75 -18 44 2 57 -1 62 -14 9 -23 -31 -54 -69 -54 -35
0 -97 34 -122 68 -42 55 -28 148 32 206 53 49 118 51 181 5z m-3757 1 c42 0
36 -29 -17 -84 -25 -25 -50 -58 -55 -71 -11 -30 -27 -31 -58 -5 -31 26 -25 50
18 64 31 10 36 16 40 51 7 51 18 71 33 56 6 -6 24 -11 39 -11z m-505 -43 c125
-2 145 -10 195 -83 23 -32 27 -50 28 -102 0 -52 -4 -69 -25 -96 -29 -38 -31
-66 -10 -126 19 -55 19 -94 -1 -111 -21 -17 -48 0 -52 32 -5 50 -35 130 -46
126 -6 -2 -15 -33 -21 -68 -12 -77 -19 -89 -50 -89 -30 0 -36 19 -20 67 8 22
15 61 17 88 3 45 1 50 -29 67 -20 12 -41 17 -53 13 -17 -5 -20 -15 -20 -63 0
-31 5 -75 10 -97 15 -64 -7 -98 -51 -75 -15 9 -19 22 -20 68 -1 80 -12 145
-26 149 -12 4 -36 -59 -54 -145 -15 -72 -65 -107 -89 -61 -9 16 -7 27 8 52 25
43 65 202 57 227 -5 15 0 22 17 29 13 5 31 17 40 27 15 18 15 22 -8 60 -27 45
-77 75 -96 56 -7 -7 -4 -14 11 -21 15 -9 21 -21 21 -46 0 -18 -5 -37 -11 -41
-6 -3 -9 -14 -6 -24 3 -12 -5 -22 -29 -33 -54 -26 -68 -56 -54 -121 17 -83
-15 -125 -86 -111 -62 11 -73 80 -12 73 l31 -3 1 130 c1 107 4 136 20 164 26
49 55 70 96 71 19 1 49 7 65 15 20 10 48 13 85 9 30 -3 105 -6 167 -7z m2541
-82 c4 -29 -10 -45 -40 -45 -13 0 -18 8 -18 26 0 27 26 56 45 50 6 -1 11 -15
13 -31z m-1948 -20 c13 -14 29 -25 37 -25 7 0 18 -9 25 -20 7 -11 18 -20 25
-20 7 0 25 -13 40 -30 14 -16 32 -30 40 -30 25 0 15 -49 -15 -64 -15 -8 -36
-23 -46 -35 -10 -11 -35 -24 -55 -27 -20 -4 -45 -13 -56 -20 -42 -30 -89 1
-49 31 18 14 18 15 -3 21 -24 7 -30 19 -14 28 5 3 7 53 5 111 -4 105 -4 105
19 105 13 0 34 -11 47 -25z m1890 -81 c0 -8 -7 -14 -15 -14 -15 0 -21 21 -9
33 10 9 24 -2 24 -19z m680 -31 c11 -26 19 -53 18 -61 -5 -22 -22 -16 -36 12
-7 14 -24 29 -38 32 -28 7 -30 20 -7 46 26 28 40 22 63 -29z m-620 -11 c0 -9
8 -43 17 -74 15 -48 22 -58 41 -58 14 0 22 -6 22 -18 0 -9 9 -34 20 -55 11
-20 20 -43 20 -51 0 -8 7 -16 15 -20 8 -3 15 -14 15 -25 0 -25 42 -71 64 -71
21 0 32 28 17 43 -16 16 -14 27 5 27 19 0 83 50 156 122 30 30 58 48 72 48 13
0 29 7 36 15 19 22 33 18 52 -15 9 -17 24 -30 32 -30 21 0 56 40 56 63 0 14 6
18 26 15 23 -2 35 -19 78 -101 28 -54 68 -120 89 -148 62 -84 79 -80 -384 -85
-338 -5 -550 -12 -779 -27 -31 -2 -35 1 -33 21 2 12 13 39 26 60 27 43 119
248 138 307 22 67 28 70 65 34 28 -27 36 -30 60 -22 27 9 37 21 48 56 7 22 26
13 26 -11z m-2282 -89 c4 -27 -15 -30 -34 -5 -19 25 -17 34 9 30 14 -2 23 -11
25 -25z"/>
<path d="M4885 2699 c-34 -30 -35 -33 -35 -105 0 -68 2 -76 31 -109 30 -34 33
-35 105 -35 69 0 74 2 104 33 37 39 44 63 37 132 -4 45 -11 59 -39 84 -35 32
-88 42 -88 17 0 -7 12 -24 28 -37 51 -45 55 -54 41 -96 -7 -21 -18 -42 -24
-48 -7 -5 -17 -20 -24 -32 -6 -13 -19 -23 -29 -23 -22 1 -71 79 -79 125 -5 31
-1 41 27 70 55 57 8 79 -55 24z"/>
<path d="M4970 2566 c0 -20 5 -26 21 -26 15 0 20 5 17 22 -5 34 -38 37 -38 4z"/>
<path d="M3025 2290 c-4 -6 7 -10 24 -10 17 0 31 5 31 10 0 6 -11 10 -24 10
-14 0 -28 -4 -31 -10z"/>
<path d="M2996 2113 c-11 -11 -6 -23 9 -23 8 0 15 4 15 9 0 13 -16 22 -24 14z"/>
<path d="M3085 2110 c-4 -6 -3 -16 3 -22 6 -6 12 -6 17 2 4 6 3 16 -3 22 -6 6
-12 6 -17 -2z"/>
<path d="M3481 2161 c-17 -21 -31 -43 -31 -48 0 -18 61 -54 92 -55 30 -1 67
31 68 59 0 20 -61 83 -80 83 -10 0 -32 -18 -49 -39z"/>
<path d="M2510 2068 c-26 -28 -25 -44 5 -73 27 -28 37 -30 66 -15 22 12 27 78
7 98 -19 19 -55 14 -78 -10z"/>
<path d="M4582 1928 c6 -18 28 -21 28 -4 0 9 -7 16 -16 16 -9 0 -14 -5 -12
-12z"/>
<path d="M4560 1786 c0 -8 22 -46 40 -68 15 -19 60 -25 60 -8 0 6 -9 14 -21
18 -11 4 -26 19 -32 32 -11 22 -47 41 -47 26z"/>
<path d="M3720 1947 c-35 -16 -58 -46 -66 -83 -10 -50 28 -104 73 -104 33 0
91 28 103 50 12 22 -21 116 -47 136 -22 16 -30 16 -63 1z"/>
<path d="M1695 1655 c-22 -8 -62 -15 -88 -15 -110 0 -128 -52 -66 -191 16 -35
33 -53 74 -77 50 -30 59 -32 148 -32 165 0 205 31 237 183 23 111 -5 132 -190
143 -52 3 -87 0 -115 -11z m113 -109 c68 5 71 1 46 -48 -16 -30 -17 -31 -30
-13 -8 10 -14 22 -14 27 0 21 -19 5 -22 -19 -3 -25 -7 -28 -38 -29 -46 0 -60
11 -60 51 0 35 15 48 41 34 8 -4 43 -6 77 -3z"/>
<path d="M902 1650 c-91 -14 -110 -54 -78 -161 38 -124 75 -149 223 -149 88 0
103 3 148 28 63 35 107 102 113 175 6 74 -13 90 -126 99 -182 15 -229 16 -280
8z m258 -135 c14 -1 35 -3 48 -4 27 -1 29 -26 4 -40 -10 -5 -68 -8 -128 -6
-60 1 -128 3 -152 4 -29 1 -45 6 -49 17 -8 21 12 38 34 29 10 -5 23 -7 28 -5
25 9 133 17 160 13 17 -3 41 -6 55 -8z"/>
<path d="M230 1613 c0 -10 4 -25 10 -33 8 -12 10 -12 16 3 7 20 -1 47 -16 47
-5 0 -10 -8 -10 -17z"/>
<path d="M450 1385 c0 -8 9 -15 20 -15 11 0 20 7 20 15 0 8 -9 15 -20 15 -11
0 -20 -7 -20 -15z"/>
<path d="M5338 1294 c-30 -13 -39 -23 -44 -51 -8 -45 7 -77 47 -97 48 -24 76
-20 110 16 35 39 37 77 7 118 -25 35 -60 38 -120 14z m87 -45 c18 -19 18 -22
3 -47 -20 -33 -55 -40 -73 -15 -20 25 -18 53 3 69 25 19 46 17 67 -7z"/>
<path d="M5105 1055 c-35 -18 -65 -65 -65 -103 0 -40 46 -82 91 -82 69 0 127
102 87 152 -17 19 -59 48 -73 48 -5 0 -23 -7 -40 -15z"/>
<path d="M684 1155 c-10 -25 10 -39 35 -26 21 12 29 31 12 31 -5 0 -16 3 -25
6 -10 4 -18 0 -22 -11z"/>
<path d="M3714 1138 c-3 -12 -13 -29 -21 -37 -13 -12 -11 -17 10 -39 16 -16
31 -23 42 -18 14 5 15 9 5 21 -14 17 -9 67 8 73 7 2 12 -6 12 -24 0 -15 9 -38
21 -50 40 -43 94 13 67 70 -12 28 -45 35 -66 14 -9 -9 -15 -9 -24 0 -19 19
-46 14 -54 -10z"/>
<path d="M3913 1133 c-18 -7 -16 -20 3 -27 21 -8 34 1 27 19 -5 16 -10 17 -30
8z"/>
<path d="M3863 1040 c-6 -22 -51 -28 -70 -9 -8 8 -13 8 -17 0 -4 -6 -1 -11 7
-11 8 0 17 -8 20 -18 2 -11 14 -22 26 -25 17 -4 27 2 42 26 10 18 19 38 19 45
0 20 -21 14 -27 -8z"/>
<path d="M935 910 c-3 -5 3 -10 14 -10 12 0 21 5 21 10 0 6 -6 10 -14 10 -8 0
-18 -4 -21 -10z"/>
<path d="M2515 580 c-6 -10 21 -77 36 -86 13 -8 49 15 49 30 0 15 -55 66 -70
66 -5 0 -12 -4 -15 -10z"/>
<path d="M3188 983 c-22 -6 -23 -22 -3 -29 43 -17 -17 -104 -71 -104 -32 0
-32 30 1 58 32 28 33 47 3 37 -13 -3 -33 -9 -45 -12 -12 -3 -25 -15 -28 -27
-4 -11 -13 -36 -21 -54 -12 -26 -19 -31 -37 -26 -46 11 -87 -78 -87 -189 0
-108 34 -185 117 -262 46 -43 136 -85 183 -85 25 0 30 4 30 25 0 33 -37 103
-62 116 -10 6 -31 10 -46 9 -52 -4 -62 0 -77 30 -28 54 -17 89 38 124 19 13
27 27 27 47 0 18 7 32 20 39 15 8 19 17 14 35 -3 14 -3 32 0 41 6 15 8 15 26
-1 17 -15 28 -17 68 -9 32 6 48 14 50 27 2 10 -3 17 -12 17 -9 0 -16 -7 -16
-15 0 -20 -26 -19 -34 1 -13 33 12 54 63 54 62 0 91 26 73 66 -7 13 -12 36
-12 50 0 13 -6 26 -12 29 -23 7 -133 13 -150 8z"/>
<path d="M3424 775 c-8 -21 2 -45 19 -45 21 0 38 25 31 44 -8 20 -43 21 -50 1z"/>
<path d="M3304 683 c-19 -25 -24 -26 -55 -17 -44 13 -72 8 -86 -16 -11 -16 -7
-22 32 -44 31 -19 58 -26 94 -26 43 0 51 -3 51 -18 0 -27 32 -60 69 -73 39
-14 41 -43 5 -80 -31 -32 -28 -79 5 -79 27 0 115 100 145 164 47 99 27 139
-65 134 -43 -2 -55 -7 -57 -21 -3 -12 4 -20 17 -24 25 -6 25 -5 6 -49 -10 -24
-19 -33 -27 -28 -20 13 -59 62 -78 99 -17 33 -17 35 4 48 21 14 21 15 2 36
-25 28 -38 27 -62 -6z"/>
<path d="M4142 597 c-29 -31 -28 -52 8 -131 33 -74 51 -87 81 -60 56 51 56
102 -1 174 -36 46 -57 50 -88 17z"/>
<path d="M5548 769 c-29 -17 -21 -34 35 -70 68 -44 68 -44 78 -28 33 53 -58
131 -113 98z"/>
<path d="M1320 617 c-14 -7 -26 -22 -28 -34 -3 -21 0 -21 51 -16 35 4 57 2 61
-6 4 -6 23 -11 42 -11 27 0 34 4 34 19 0 49 -99 79 -160 48z"/>
<path d="M1987 583 c3 -10 10 -24 16 -30 7 -9 5 -13 -7 -13 -26 0 -20 -38 7
-42 31 -4 28 -22 -5 -26 -17 -2 -28 -9 -28 -19 0 -22 62 -11 92 16 21 21 21
21 2 35 -18 14 -18 15 -1 21 25 10 21 35 -6 35 -12 0 -30 9 -40 20 -21 25 -39
26 -30 3z"/>
<path d="M3841 329 c-22 -22 -31 -40 -31 -64 0 -37 15 -45 91 -45 62 0 87 26
69 70 -15 35 -55 70 -81 70 -9 0 -31 -14 -48 -31z"/>
<path d="M4353 283 c-7 -2 -13 -13 -13 -23 0 -17 6 -18 58 -13 60 6 78 14 68
32 -7 11 -90 14 -113 4z"/>
</g>
</svg>
