<?xml version="1.0" standalone="no"?>
<!DOCTYPE svg PUBLIC "-//W3C//DTD SVG 20010904//EN"
 "http://www.w3.org/TR/2001/REC-SVG-20010904/DTD/svg10.dtd">
<svg version="1.0" xmlns="http://www.w3.org/2000/svg"
 width="900.000000pt" height="675.000000pt" viewBox="0 0 900.000000 675.000000"
 preserveAspectRatio="xMidYMid meet">
<metadata>
Created by potrace 1.10, written by Peter Selinger 2001-2011
</metadata>
<g transform="translate(0.000000,675.000000) scale(0.100000,-0.100000)"
fill="#6d28d9" stroke="none">
<path d="M4485 5294 c0 -240 -3 -318 -12 -326 -7 -6 -13 -16 -13 -23 0 -7 -7
-18 -15 -25 -21 -17 -20 -103 1 -121 14 -12 16 -39 13 -219 -4 -200 -3 -205
16 -205 17 0 21 8 25 55 5 54 6 55 40 60 39 6 50 35 13 35 -11 0 -24 3 -27 6
-9 9 -13 238 -4 252 6 9 12 9 27 0 21 -13 31 -8 31 18 0 12 -9 19 -27 21 -14
2 -29 9 -31 17 -4 11 4 13 37 8 31 -4 41 -2 41 9 0 9 -12 14 -35 14 -26 0 -39
6 -51 26 -19 28 -12 41 25 46 14 1 26 9 29 16 2 7 -2 13 -9 11 -36 -4 -42 1
-35 34 4 17 7 74 6 125 -1 56 3 99 10 107 9 10 8 19 -4 37 -19 31 -20 263 0
294 15 25 2 44 -30 44 -21 0 -21 -4 -21 -316z"/>
<path d="M6107 4561 c-2 -10 -2 -41 1 -70 4 -40 1 -55 -11 -64 -15 -11 -17
-60 -20 -432 -3 -406 -17 -725 -37 -870 -6 -38 -13 -142 -16 -230 -3 -88 -10
-191 -16 -230 -7 -41 -11 -232 -12 -461 -1 -275 -4 -395 -12 -405 -7 -8 -22
-39 -34 -69 -13 -30 -32 -62 -42 -70 -15 -12 -20 -31 -21 -82 -1 -37 2 -70 6
-75 5 -4 32 -7 60 -6 29 1 144 3 257 3 155 1 210 5 224 15 31 23 9 36 -60 33
-49 -2 -68 2 -81 15 -16 15 -16 18 1 36 24 26 13 41 -30 41 -33 0 -34 -1 -34
-40 0 -29 -4 -40 -15 -40 -16 0 -18 6 -19 53 -1 25 -7 31 -46 43 -25 9 -51 17
-59 20 -9 3 -10 8 -4 17 33 41 11 84 -36 72 -31 -8 -24 0 21 24 18 10 42 36
54 57 17 33 26 39 57 42 20 2 37 8 37 14 0 5 -7 7 -16 4 -9 -3 -35 -6 -58 -6
-41 0 -43 -1 -38 -25 3 -18 0 -25 -11 -25 -20 0 -32 37 -18 54 6 7 11 55 11
107 0 52 3 119 6 149 4 30 8 145 10 255 2 110 6 225 10 255 13 109 16 273 4
295 -8 16 -7 29 5 58 17 42 18 43 39 21 13 -13 16 -42 16 -160 0 -135 1 -144
19 -144 14 0 22 -10 27 -32 3 -18 14 -38 23 -45 14 -11 14 -14 1 -23 -8 -5
-25 -10 -37 -10 -27 0 -43 -27 -43 -70 0 -30 1 -31 34 -25 41 8 76 -8 76 -35
0 -15 -7 -20 -24 -20 -14 0 -28 -4 -31 -10 -9 -15 -25 -12 -25 5 0 18 -11 19
-33 3 -13 -11 -16 -39 -19 -179 -2 -117 1 -171 9 -181 18 -21 -7 -102 -46
-150 -13 -17 -11 -18 26 -18 24 0 46 6 53 15 14 17 43 19 69 6 10 -6 28 -7 40
-4 19 5 22 12 20 57 0 28 0 85 1 127 1 43 0 81 -2 85 -3 5 -3 45 -2 89 7 183
3 343 -11 410 -10 44 -15 128 -15 227 l0 158 -24 0 c-13 0 -29 -7 -36 -15 -15
-18 -49 -19 -72 -1 -23 17 -23 36 1 36 10 0 30 11 45 25 24 22 26 31 26 102 0
43 -5 94 -12 113 -11 34 -16 96 -37 485 -5 99 -15 197 -22 218 -11 33 -10 39
5 50 16 11 16 15 1 50 -9 21 -13 42 -10 47 3 4 47 8 98 7 92 -2 92 -2 92 23 0
23 -5 26 -80 38 -44 7 -84 17 -89 22 -12 12 11 58 39 82 22 18 23 17 -33 34
-10 3 -12 15 -8 41 3 21 5 41 6 46 0 4 9 7 19 7 20 0 35 25 25 41 -3 5 -29 9
-58 9 -44 0 -55 -3 -59 -19z m63 -959 c0 -89 -12 -170 -21 -147 -9 24 -12 199
-3 208 15 15 24 -8 24 -61z m30 -244 c0 -78 -11 -158 -21 -152 -10 6 -12 164
-3 188 12 32 24 14 24 -36z m-156 -1027 c1 -57 -2 -108 -6 -114 -4 -7 -8 31
-8 83 0 52 -3 106 -7 119 -4 17 -2 22 7 19 10 -3 14 -30 14 -107z m239 9 c-7
-18 -8 -42 -4 -58 4 -15 8 -69 9 -120 1 -51 3 -98 5 -105 1 -8 -15 -13 -50
-14 -49 -3 -67 7 -43 22 6 4 8 15 5 25 -4 12 3 27 21 43 20 19 25 30 19 44 -5
10 -7 24 -6 31 1 8 -5 19 -14 26 -12 9 -15 25 -13 66 2 46 6 55 23 59 11 2 24
10 29 18 6 11 11 12 19 4 8 -8 8 -19 0 -41z m-263 -704 c0 -18 -17 -29 -30
-21 -8 5 -7 11 1 21 15 18 29 18 29 0z m-61 -40 c-2 -2 -16 -7 -32 -11 -21 -6
-27 -4 -27 8 0 17 39 28 54 15 5 -4 8 -10 5 -12z m166 -7 c-8 -12 -32 -12 -40
1 -11 18 5 31 26 20 11 -6 17 -15 14 -21z m-110 -25 c0 -14 -6 -18 -23 -16
-14 2 -29 -4 -37 -15 -11 -15 -16 -16 -27 -5 -10 10 -9 14 10 18 12 4 22 12
22 19 0 13 25 25 45 20 6 -1 10 -10 10 -21z"/>
<path d="M6330 4498 c0 -19 2 -20 10 -8 13 19 13 30 0 30 -5 0 -10 -10 -10
-22z"/>
<path d="M4366 4305 c-22 -19 -43 -35 -48 -35 -4 0 -8 -6 -8 -14 0 -7 -7 -19
-15 -26 -18 -15 -22 -175 -5 -185 6 -3 10 -17 10 -31 0 -24 10 -37 69 -84 l31
-24 0 -496 c0 -272 -4 -501 -8 -507 -6 -9 -17 -10 -38 -5 -16 5 -53 7 -81 6
-29 -1 -55 1 -58 5 -2 5 -25 3 -51 -4 -63 -16 -113 -75 -64 -75 11 0 20 -5 20
-10 0 -6 -8 -10 -17 -8 -15 3 -19 -6 -21 -51 -2 -30 2 -59 7 -64 17 -17 13
-52 -9 -72 -11 -10 -20 -29 -20 -42 0 -13 -6 -36 -14 -52 -10 -19 -14 -55 -13
-116 2 -88 2 -88 -27 -104 -39 -22 -38 -35 4 -39 19 -2 40 -10 47 -19 21 -27
44 -8 41 34 -3 32 0 38 17 38 23 0 22 21 6 -265 -6 -96 -10 -277 -9 -402 1
-125 -1 -230 -4 -234 -8 -8 29 -44 45 -44 8 0 19 -11 25 -25 17 -36 39 -31 46
10 5 26 12 35 26 35 14 0 20 7 20 21 0 16 -5 20 -20 16 -15 -4 -20 0 -20 13 0
11 5 22 10 25 7 4 6 14 -2 28 -10 17 -13 120 -13 422 l0 400 -32 -3 -33 -2 0
189 c1 174 2 190 20 206 22 20 26 45 8 63 -8 8 -8 15 1 25 6 8 10 25 9 38 -3
26 -2 26 132 31 l65 3 3 -189 c2 -158 0 -193 -13 -213 -11 -17 -15 -42 -13
-86 l3 -62 35 -6 c19 -3 45 -11 58 -18 21 -11 22 -16 22 -161 0 -90 4 -151 10
-155 27 -17 38 -73 29 -151 -8 -73 -7 -131 7 -243 5 -40 4 -44 -10 -32 -13 11
-17 11 -22 -2 -3 -9 -4 -26 -2 -39 3 -20 9 -23 43 -23 36 0 42 4 62 40 12 22
27 50 33 62 20 46 50 21 57 -48 4 -43 2 -57 -11 -68 -9 -7 -16 -20 -16 -27 0
-8 -7 -14 -17 -14 -16 0 -73 -56 -73 -72 0 -4 -18 -8 -40 -8 -32 0 -40 -4 -40
-19 0 -32 -27 -46 -63 -34 -81 28 -94 27 -155 -13 -2 -1 6 -12 18 -24 22 -22
33 -24 90 -14 54 9 88 -9 96 -51 7 -40 24 -47 24 -11 0 16 11 32 30 46 29 21
31 21 60 4 23 -14 32 -16 42 -6 7 7 23 12 35 12 20 0 23 -5 21 -27 -3 -24 0
-28 22 -26 14 1 32 -1 40 -4 8 -3 43 -7 78 -8 47 -3 62 0 62 11 0 20 -33 34
-81 34 -36 0 -40 2 -29 15 8 10 25 15 44 13 28 -3 31 0 34 29 4 42 -29 65 -86
61 -23 -2 -41 2 -41 7 0 6 9 9 19 7 15 -2 20 3 20 17 0 16 -6 21 -25 21 -28 0
-32 17 -10 46 16 21 20 65 7 80 -5 5 -19 43 -32 84 -13 41 -29 84 -37 95 -7
11 -13 31 -13 46 0 15 -6 32 -14 38 -7 6 -16 25 -20 41 -7 39 -26 39 -26 0 0
-20 5 -30 15 -30 11 0 15 -13 17 -52 2 -77 0 -86 -24 -118 -27 -37 -42 -28
-35 21 4 32 1 41 -14 49 -24 13 -26 65 -3 78 9 5 18 22 20 37 1 16 8 39 15 51
10 19 8 33 -11 83 -12 33 -20 67 -16 76 8 22 37 18 67 -9 21 -18 27 -34 32
-85 3 -34 9 -67 15 -74 5 -7 12 -25 16 -42 4 -16 16 -39 27 -51 11 -11 21 -40
24 -67 2 -26 13 -67 25 -91 11 -25 20 -50 20 -55 0 -6 8 -11 19 -11 15 0 18
-7 17 -38 -1 -35 1 -37 34 -40 19 -2 39 -10 43 -18 5 -8 12 -12 18 -9 21 14 5
42 -38 68 -42 26 -45 29 -30 44 15 15 20 15 56 1 35 -14 40 -14 45 -1 10 26
-4 33 -65 33 -64 0 -83 15 -62 49 10 16 12 69 16 421 2 148 1 155 -18 158 -30
3 -53 -14 -37 -30 17 -17 15 -28 -6 -28 -17 0 -66 -48 -74 -71 -3 -9 -18 -8
-58 0 -36 8 -57 8 -64 1 -5 -5 -19 -10 -31 -10 -16 0 -23 10 -32 48 -6 26 -9
49 -7 51 9 9 94 19 140 15 72 -6 100 17 97 80 -1 25 -4 50 -8 56 -7 12 -51 12
-80 1 -18 -7 -18 -9 9 -23 l29 -15 -49 -6 c-65 -8 -116 3 -120 27 -3 24 -3 23
-65 44 -45 16 -55 23 -57 45 -2 16 5 34 18 47 l21 21 -2 745 c-1 410 1 748 4
751 3 3 18 3 32 -1 18 -5 25 -13 25 -32 0 -13 7 -36 16 -49 11 -16 14 -34 9
-55 -8 -35 15 -80 41 -80 14 0 16 11 12 68 -5 75 6 112 34 112 31 0 89 50 86
73 -4 27 -29 33 -181 42 -148 8 -162 17 -119 73 20 26 23 35 12 42 -7 5 -21 3
-31 -3 -10 -6 -21 -8 -25 -4 -9 8 23 57 37 57 6 0 23 9 37 21 l26 20 17 -22
17 -22 11 21 c6 11 11 25 11 30 0 13 -45 25 -95 26 -29 1 -40 5 -40 16 0 23
216 27 235 5 14 -17 40 -20 40 -4 0 6 -10 19 -22 30 -19 15 -40 18 -133 19
l-110 0 -39 -35z m354 -2090 c0 -13 -12 -14 -72 -9 -109 10 -117 23 -15 24 71
0 87 -3 87 -15z m95 -160 c4 -36 5 -83 1 -104 -3 -21 -3 -41 1 -45 9 -9 4
-209 -6 -219 -10 -10 -34 203 -25 226 3 9 0 25 -7 34 -9 11 -13 39 -12 84 2
73 6 89 28 89 9 0 16 -20 20 -65z m-125 -691 c0 -16 -16 -19 -25 -4 -8 13 4
32 16 25 5 -4 9 -13 9 -21z m-44 -11 c7 -10 14 -26 14 -35 0 -14 -6 -16 -32
-11 -48 8 -55 19 -27 42 30 25 29 25 45 4z m84 -63 c0 -11 -4 -20 -9 -20 -11
0 -22 26 -14 34 12 12 23 5 23 -14z"/>
<path d="M4655 4240 c-3 -5 1 -23 10 -39 8 -17 15 -39 15 -50 0 -19 -4 -20
-62 -14 -35 3 -70 9 -79 14 -21 11 -99 -26 -99 -47 0 -14 11 -15 99 -9 83 6
103 4 123 -9 28 -20 62 -21 78 -1 10 12 10 24 1 54 -6 21 -11 46 -11 56 0 18
-37 54 -57 55 -6 0 -15 -4 -18 -10z"/>
<path d="M6324 4149 c-4 -7 1 -18 11 -26 27 -19 37 -16 33 9 -3 25 -32 36 -44
17z"/>
<path d="M6340 4060 c-12 -7 -12 -12 -2 -22 9 -9 15 -9 24 0 16 16 -2 34 -22
22z"/>
<path d="M6326 3761 c-10 -16 5 -42 23 -39 21 4 21 42 -1 46 -9 2 -19 -1 -22
-7z"/>
<path d="M4584 3701 c-5 -5 -20 -11 -34 -13 -19 -2 -26 -10 -28 -33 -3 -19 2
-33 13 -41 12 -9 15 -21 11 -41 -5 -21 0 -37 19 -63 33 -45 32 -58 -7 -62 -28
-3 -34 -7 -36 -32 -3 -20 2 -32 13 -39 13 -7 15 -17 11 -41 -5 -25 0 -40 19
-66 33 -45 32 -58 -7 -62 -28 -3 -34 -7 -36 -32 -2 -19 2 -32 12 -38 11 -6 16
-21 14 -43 -1 -20 5 -42 14 -52 8 -10 14 -23 11 -29 -2 -6 3 -17 12 -24 8 -7
15 -11 16 -9 3 19 1 720 -3 724 -2 3 -9 1 -14 -4z"/>
<path d="M5026 3671 c-18 -3 -19 -13 -13 -260 4 -141 7 -575 8 -964 0 -630 -1
-711 -15 -726 -21 -23 -21 -103 0 -148 14 -29 15 -40 4 -73 -7 -21 -10 -46 -7
-54 7 -18 47 -22 63 -6 7 7 19 6 37 -2 24 -11 27 -18 25 -53 -3 -35 -7 -40
-36 -49 -28 -8 -36 -6 -53 13 -12 12 -28 20 -36 17 -8 -3 -32 3 -55 15 -22 11
-46 18 -54 15 -16 -6 -20 -66 -4 -66 5 0 13 -15 18 -32 6 -24 14 -33 29 -33
11 0 27 -6 37 -14 12 -10 20 -11 28 -3 8 8 16 7 29 -1 13 -8 24 -8 44 1 14 7
50 12 80 12 53 0 72 11 40 24 -17 6 -20 42 -5 51 5 3 19 1 30 -5 15 -8 19 -19
17 -43 l-2 -32 57 3 c47 3 59 1 64 -13 10 -26 -15 -36 -80 -33 -42 2 -61 -1
-64 -10 -3 -10 16 -13 84 -12 57 1 111 -5 149 -15 84 -24 135 -34 173 -35 l32
0 -22 22 c-15 15 -38 23 -76 26 -33 3 -56 10 -59 18 -3 9 -21 14 -49 14 -52 0
-59 20 -14 37 22 8 30 18 30 35 0 35 -81 69 -179 75 -73 4 -136 27 -136 48 0
6 14 12 30 15 24 4 30 10 30 30 0 15 7 26 18 28 13 3 17 -3 17 -23 0 -28 25
-44 42 -27 8 8 8 15 -2 26 -13 16 -12 17 38 32 15 4 13 101 -3 125 -10 17 -12
620 -1 637 4 6 10 724 7 815 -1 35 -12 34 -33 -3 -30 -54 -68 -34 -48 25 14
42 5 77 -18 73 -12 -3 -17 -13 -16 -38 1 -19 2 -118 2 -220 1 -102 1 -252 2
-334 0 -111 -3 -152 -12 -157 -10 -7 -11 -12 0 -29 15 -25 16 -172 1 -187 -8
-8 -8 -17 0 -31 6 -11 11 -66 11 -121 0 -83 -3 -102 -17 -109 -14 -8 -14 -16
-6 -53 6 -24 9 -91 7 -149 -4 -97 -6 -107 -29 -127 -19 -16 -24 -29 -20 -50 4
-20 -2 -36 -19 -57 -23 -27 -24 -28 -34 -10 -15 28 -18 130 -4 146 6 8 12 75
15 167 4 143 3 154 -14 158 -21 6 -25 31 -6 38 8 4 13 32 15 82 2 50 8 83 17
93 19 21 19 30 1 30 -18 0 -14 133 4 156 10 12 12 76 6 296 -4 154 -11 302
-17 328 -5 26 -11 109 -12 184 l-2 138 38 13 c30 10 44 10 75 0 30 -11 36 -17
33 -37 -5 -34 -20 -58 -36 -58 -8 0 -15 -4 -15 -10 0 -15 29 -12 46 4 7 8 17
16 21 18 5 1 24 23 45 48 27 35 35 52 31 72 -3 16 3 42 15 65 12 21 23 61 26
88 3 28 9 76 12 108 l7 59 -174 -4 c-96 -1 -183 -5 -193 -7z m304 -123 c0 -53
-34 -124 -63 -132 -12 -3 -56 -6 -98 -6 -88 0 -82 -7 -94 113 l-7 67 131 0
131 0 0 -42z m-200 -187 c0 -6 -5 -13 -10 -16 -15 -9 -43 3 -35 15 8 13 45 13
45 1z m149 -340 c12 -8 12 -12 2 -25 -7 -8 -10 -24 -6 -36 4 -12 2 -27 -4 -34
-8 -10 -8 -22 -1 -41 6 -15 7 -31 4 -36 -3 -6 -6 -105 -7 -221 -2 -159 -5
-212 -14 -216 -10 -3 -13 23 -14 105 -1 59 -3 144 -4 188 -1 44 2 89 6 101 4
11 3 28 -3 38 -6 11 -6 27 1 46 5 16 6 32 1 35 -6 4 -7 48 -1 98 1 10 23 9 40
-2z m-16 -813 c-2 -5 -8 -8 -14 -8 -11 0 -12 173 -1 184 7 8 23 -164 15 -176z
m6 -398 c0 -233 -5 -310 -20 -310 -6 0 -26 7 -46 15 -30 13 -33 17 -23 30 7 8
23 15 36 15 l23 0 1 306 c0 169 4 312 8 318 12 18 20 -133 21 -374z m-209
-516 c0 -8 -7 -14 -15 -14 -15 0 -21 21 -9 33 10 9 24 -2 24 -19z"/>
<path d="M6325 3650 c-3 -11 -4 -24 -1 -28 3 -5 6 -68 7 -140 2 -89 6 -131 13
-129 7 2 11 47 11 123 0 72 5 127 12 139 7 14 8 26 2 38 -13 23 -36 22 -44 -3z"/>
<path d="M5354 3285 c-4 -8 2 -27 12 -42 14 -22 18 -55 21 -173 2 -80 6 -176
8 -215 20 -302 25 -566 12 -620 -4 -16 -7 -34 -6 -40 1 -5 3 -138 6 -295 3
-157 7 -325 10 -374 4 -75 3 -92 -11 -102 -24 -17 -9 -44 23 -44 33 0 64 -21
59 -40 -4 -20 97 -37 117 -20 8 7 15 18 15 24 -1 13 -72 49 -113 56 l-28 5 1
773 c0 490 4 781 10 792 6 10 10 32 10 48 0 62 36 132 61 117 9 -6 6 -11 -9
-16 -72 -27 48 -66 136 -45 24 6 39 3 58 -9 13 -8 29 -13 34 -10 17 10 11 50
-9 60 -10 6 -37 20 -59 32 -32 18 -55 22 -104 21 -35 -1 -76 2 -93 6 -54 13
-63 -5 -68 -134 -6 -134 -5 -122 -15 -116 -12 7 -15 238 -3 268 8 20 7 28 -5
32 -8 3 -14 18 -14 35 0 38 -44 58 -56 26z"/>
<path d="M6335 3250 c-3 -5 -4 -14 0 -20 8 -13 35 -1 35 16 0 16 -26 19 -35 4z"/>
<path d="M5340 3150 c0 -19 3 -21 12 -12 9 9 9 15 0 24 -9 9 -12 7 -12 -12z"/>
<path d="M6422 3154 c-14 -10 -33 -14 -47 -10 -13 3 -31 3 -39 0 -20 -8 -21
-33 -1 -40 10 -4 13 -13 10 -25 -5 -15 -1 -19 15 -19 17 0 20 4 15 19 -4 14 1
25 20 37 24 16 29 16 88 -3 66 -22 95 -15 81 20 -5 14 -14 16 -39 11 -22 -4
-37 -1 -48 10 -20 20 -27 20 -55 0z"/>
<path d="M6425 3040 c-8 -13 8 -18 60 -22 40 -3 52 -20 18 -26 -41 -7 -43 -10
-31 -37 10 -23 13 -24 28 -10 9 8 26 15 38 15 26 0 37 17 23 34 -7 9 -7 16 0
23 6 6 8 16 5 22 -9 14 -133 15 -141 1z"/>
<path d="M5741 2993 c-7 -13 -5 -26 7 -45 15 -25 15 -29 -3 -48 -16 -18 -17
-23 -5 -30 34 -22 49 1 45 66 -4 72 -22 96 -44 57z"/>
<path d="M4527 2963 c-12 -12 -7 -50 8 -63 8 -7 15 -28 15 -46 0 -19 4 -42 9
-52 5 -9 12 -25 15 -34 3 -10 11 -18 18 -18 10 0 13 27 13 110 l0 110 -36 0
c-20 0 -39 -3 -42 -7z"/>
<path d="M3680 2910 c0 -10 -18 -36 -40 -56 -64 -60 -84 -106 -84 -202 -1 -78
-3 -84 -26 -97 -23 -13 -23 -14 -4 -15 11 0 25 -5 31 -11 16 -16 30 -4 36 33
4 18 10 53 14 78 6 32 14 46 28 50 11 3 35 13 53 23 26 14 31 22 26 41 -4 18
0 27 15 36 28 14 41 5 41 -29 0 -34 15 -48 55 -53 22 -2 31 2 33 14 5 24 -54
110 -94 137 -19 13 -37 34 -40 47 -8 30 -44 33 -44 4z"/>
<path d="M6533 2914 c-9 -24 10 -34 32 -18 17 13 18 16 5 24 -21 14 -30 12
-37 -6z"/>
<path d="M2924 2828 c10 -101 11 -902 2 -917 -4 -6 -2 -18 4 -26 9 -10 11 -45
8 -110 -3 -73 -1 -95 9 -95 9 0 13 15 13 47 0 81 12 655 15 723 2 36 7 80 11
99 5 26 3 36 -10 43 -14 8 -16 31 -16 158 0 146 -1 150 -21 150 -20 0 -21 -3
-15 -72z"/>
<path d="M2683 2872 c-15 -9 -11 -242 6 -300 12 -42 9 -62 -10 -62 -6 0 -9 15
-7 33 2 27 -1 33 -19 35 -22 3 -30 -13 -23 -43 2 -5 2 -57 1 -115 -1 -58 1
-129 5 -157 l6 -53 22 20 c11 11 31 27 42 37 21 17 21 20 7 53 l-16 35 -13
-35 -12 -35 -1 46 c-1 25 -4 67 -7 93 -6 38 -4 46 10 46 18 0 20 -8 17 -62 -2
-21 1 -38 6 -38 23 0 30 25 25 89 -3 45 -1 71 7 75 16 10 14 36 -3 36 -11 0
-13 29 -12 152 1 147 -3 168 -31 150z"/>
<path d="M3453 2855 c-13 -9 -23 -23 -23 -31 0 -9 -13 -29 -29 -45 -26 -26
-28 -31 -15 -44 9 -8 21 -15 28 -15 16 0 53 42 58 66 6 33 28 28 28 -7 0 -23
3 -30 11 -22 5 5 9 32 7 59 -2 40 -7 50 -23 52 -11 1 -30 -5 -42 -13z"/>
<path d="M3077 2845 c-8 -19 13 -31 24 -14 13 20 11 29 -5 29 -8 0 -16 -7 -19
-15z"/>
<path d="M6531 2842 c-15 -28 -14 -32 8 -32 27 0 36 19 18 37 -13 14 -16 13
-26 -5z"/>
<path d="M1531 2831 c-10 -7 -11 -13 -1 -31 6 -12 9 -33 6 -46 -5 -17 -2 -24
9 -24 8 0 20 -9 27 -20 18 -28 28 -25 29 8 0 15 1 47 2 72 2 43 1 45 -28 48
-16 1 -36 -2 -44 -7z"/>
<path d="M4227 2833 c-2 -4 -7 -29 -11 -54 -7 -45 -6 -46 35 -75 l43 -29 -47
-5 c-63 -7 -64 -23 -2 -34 81 -13 78 -10 70 -66 -6 -40 -4 -50 8 -50 26 0 39
26 31 65 -3 20 -12 39 -19 42 -22 8 -39 98 -26 134 6 18 11 36 11 41 0 14 -86
43 -93 31z"/>
<path d="M1407 2797 c-37 -18 -70 -39 -72 -48 -4 -11 -24 -19 -58 -25 l-52 -9
2 -140 c1 -77 6 -153 12 -170 6 -18 10 -23 10 -12 1 11 8 34 17 53 17 36 47
46 58 19 11 -29 36 -17 37 18 0 17 1 71 3 119 2 88 14 124 37 101 11 -11 12
-131 1 -283 -6 -75 -10 -95 -22 -95 -11 0 -16 13 -18 43 -5 64 -27 48 -28 -19
0 -76 -1 -77 -31 -81 -36 -4 -36 -22 0 -26 25 -3 28 -7 25 -35 -2 -27 -8 -33
-31 -35 -16 -2 -34 2 -42 8 -10 9 -16 4 -25 -25 -6 -19 -16 -35 -21 -35 -23 0
-31 60 -27 196 3 78 3 155 1 171 l-5 31 -40 -22 c-56 -29 -92 -73 -82 -100 4
-12 9 -58 11 -104 4 -64 1 -89 -11 -107 -9 -13 -16 -38 -16 -54 0 -41 -12 -45
-58 -22 -39 20 -40 21 -35 68 3 26 12 55 20 64 8 10 14 38 14 70 -1 95 1 103
20 127 24 31 24 42 1 42 -19 0 -52 -48 -45 -67 2 -6 -5 -17 -17 -23 -21 -11
-22 -16 -17 -135 4 -77 2 -126 -5 -133 -7 -7 -7 -16 0 -29 19 -34 0 -47 -58
-40 -39 5 -67 1 -108 -13 -30 -11 -59 -17 -63 -14 -13 7 -11 74 1 74 7 0 7 7
0 20 -8 16 -7 27 6 50 17 28 17 30 -1 50 -14 16 -30 20 -78 20 l-59 0 6 -31
c3 -17 6 -35 6 -40 0 -5 7 -9 15 -9 20 0 35 -31 38 -78 1 -22 9 -47 16 -56 10
-12 11 -19 2 -30 -10 -12 -9 -16 6 -23 22 -11 141 -10 166 1 13 6 17 3 17 -13
0 -23 -3 -23 -92 -21 -43 1 -58 -2 -58 -12 0 -11 24 -14 113 -13 l112 0 1 -26
c0 -14 6 -39 13 -56 9 -22 10 -37 2 -51 -8 -14 -7 -24 4 -38 22 -29 18 -43
-12 -50 -48 -10 -53 -13 -47 -29 4 -11 13 -13 28 -9 18 6 19 5 7 -9 -11 -14
-10 -18 12 -28 34 -16 57 -5 57 26 0 23 4 25 40 25 51 0 53 18 3 22 -37 3 -38
4 -40 48 -2 25 -4 54 -5 65 -3 18 3 20 46 20 48 0 50 1 57 32 3 17 3 37 -1 43
-11 18 -50 2 -50 -21 0 -21 -27 -37 -39 -23 -5 5 -11 39 -14 75 l-6 67 37 6
c37 5 44 14 66 79 5 16 15 18 83 13 43 -2 86 -8 96 -11 12 -5 17 -2 17 9 0 20
31 36 69 36 16 0 32 4 35 9 4 5 7 46 7 90 1 75 8 96 24 71 4 -6 8 -43 10 -82
2 -40 8 -74 13 -76 5 -1 17 -9 28 -16 15 -12 16 -18 7 -39 -8 -17 -12 -94 -12
-219 -1 -158 -3 -195 -15 -204 -10 -6 -13 -19 -9 -33 3 -13 1 -26 -4 -30 -6
-3 -14 -19 -20 -36 -6 -19 -17 -31 -31 -33 -11 -2 -25 -9 -31 -16 -9 -11 8
-14 91 -15 57 -1 155 -3 218 -4 96 -2 115 0 115 13 0 8 -12 21 -27 28 -16 7
-28 17 -28 23 0 5 -12 14 -26 20 -21 7 -31 6 -44 -6 -9 -8 -31 -15 -48 -15
-25 0 -32 4 -32 19 0 10 7 24 15 31 8 7 15 27 15 46 0 32 -2 33 -42 36 l-43 3
-8 78 c-4 43 -4 92 1 110 9 33 11 34 82 26 32 -4 35 -1 38 23 4 31 -25 46 -57
29 -28 -15 -75 6 -64 28 4 9 7 35 8 58 0 23 5 47 12 54 6 6 9 18 6 25 -7 20
41 18 58 -2 11 -14 10 -18 -10 -33 -19 -15 -22 -23 -16 -49 8 -37 18 -46 45
-37 13 4 20 15 20 30 0 39 10 53 31 48 19 -5 20 -1 19 68 -1 41 0 85 2 99 3
23 0 25 -30 22 -21 -2 -41 3 -52 13 -16 14 -18 14 -23 0 -4 -8 -13 -15 -21
-15 -33 0 -66 -23 -66 -47 0 -23 14 -31 24 -14 7 11 97 4 109 -8 12 -12 -34
-33 -55 -27 -52 16 -77 15 -83 -4 -10 -31 -32 -23 -39 13 -3 18 -1 68 5 112
14 108 18 138 23 220 15 204 19 241 33 262 15 22 12 54 -4 52 -4 0 -38 -15
-76 -32z m113 -1181 c0 -16 -18 -31 -27 -22 -8 8 5 36 17 36 5 0 10 -6 10 -14z"/>
<path d="M2850 2803 c-23 -19 -34 -23 -39 -14 -5 7 -21 11 -37 9 -23 -2 -30
-9 -32 -31 -2 -19 2 -29 15 -33 46 -14 51 -23 54 -94 1 -8 -2 -39 -6 -67 -6
-37 -4 -57 5 -68 9 -10 9 -19 2 -27 -6 -7 -13 -29 -16 -48 -10 -52 -13 -901
-4 -906 4 -3 13 0 20 5 7 6 23 19 36 29 l22 17 0 477 c1 409 3 477 15 482 12
4 15 31 15 145 0 77 -4 142 -9 145 -5 4 -24 -6 -41 -21z"/>
<path d="M374 2770 c-6 -6 -22 -11 -35 -11 -50 -1 -69 -9 -69 -29 0 -24 27
-26 96 -9 37 10 44 15 42 32 -4 24 -19 32 -34 17z"/>
<path d="M3331 2724 c-1 -12 -9 -24 -20 -27 -19 -5 -19 -15 -14 -363 3 -198 9
-366 14 -374 6 -11 8 -6 9 18 0 32 13 42 26 21 4 -6 19 -8 38 -5 17 4 69 6
114 6 75 -1 83 0 80 16 -3 15 -12 17 -68 14 -36 -1 -74 -2 -85 -1 -11 0 -35 2
-54 3 -19 2 -36 9 -39 17 -4 11 3 13 29 9 21 -4 42 -1 53 7 17 13 17 14 -3 24
-26 14 -54 14 -69 -1 -9 -9 -12 -6 -12 13 0 23 3 24 40 21 45 -5 62 16 41 50
-20 32 -3 39 82 37 72 -2 82 0 85 16 4 15 -4 17 -70 14 -130 -5 -178 0 -178
16 0 37 92 50 230 33 23 -3 25 0 24 35 -2 49 -8 54 -40 28 -22 -17 -41 -21
-100 -21 -68 0 -74 2 -74 21 0 17 5 20 29 17 28 -2 61 15 61 33 0 5 -20 9 -45
9 -37 0 -45 3 -45 19 0 10 -7 22 -16 25 -26 10 -12 49 28 75 31 20 36 27 27
42 -7 14 -5 23 9 35 13 10 17 25 14 45 -4 29 -11 33 -67 41 -10 2 -22 14 -26
28 -6 22 -7 23 -8 4z m49 -535 c0 -5 -13 -9 -30 -9 -28 0 -38 9 -25 22 8 8 55
-3 55 -13z"/>
<path d="M4527 2724 c-12 -13 -8 -51 8 -64 9 -7 15 -29 15 -52 0 -25 5 -41 15
-44 29 -12 40 12 40 88 l0 73 -35 3 c-20 2 -39 0 -43 -4z"/>
<path d="M5664 2699 c-3 -6 -17 -8 -30 -5 -18 5 -24 2 -24 -9 0 -13 7 -15 38
-10 52 9 62 13 62 25 0 13 -37 13 -46 -1z"/>
<path d="M7235 2691 c-67 -30 -79 -58 -61 -143 8 -36 8 -37 -28 -43 l-36 -7 0
-64 c0 -49 -4 -66 -16 -71 -8 -3 -20 -1 -27 6 -19 19 -57 14 -57 -8 0 -25 17
-36 33 -23 14 12 77 -11 77 -27 0 -6 -11 -13 -25 -17 -14 -4 -24 -9 -22 -13 2
-3 12 -25 21 -48 12 -27 27 -43 42 -47 27 -7 26 1 28 -211 l1 -130 85 0 c131
-1 129 -2 109 68 -8 32 -13 36 -25 26 -9 -7 -14 -8 -14 -1 0 6 -15 30 -34 55
-27 35 -35 56 -37 98 -4 48 -2 55 18 64 29 13 37 35 19 53 -12 13 -18 12 -47
-2 -29 -15 -34 -15 -50 0 -10 9 -17 29 -16 49 1 29 6 36 30 45 16 5 40 7 53 4
29 -8 32 12 3 21 -28 9 -19 29 15 33 25 3 27 6 21 35 -4 18 -8 34 -8 37 -1 3
9 38 22 78 22 69 22 74 6 108 -9 19 -13 39 -10 44 9 15 -4 50 -18 49 -7 0 -30
-8 -52 -18z"/>
<path d="M2207 2693 c-4 -3 -7 -15 -7 -25 0 -11 -11 -36 -25 -56 -33 -48 -32
-62 5 -62 20 0 33 -6 37 -17 7 -19 57 -73 67 -73 8 0 7 39 0 66 -4 15 -12 20
-24 17 -25 -7 -37 17 -16 33 17 12 17 44 -1 107 -4 17 -24 23 -36 10z"/>
<path d="M5759 2663 c-10 -28 -13 -114 -11 -335 l2 -297 -111 0 c-121 -1 -137
-5 -117 -28 10 -13 30 -15 110 -10 68 3 100 2 105 -6 8 -13 8 -14 18 -122 4
-44 9 -82 11 -84 2 -2 -2 -13 -9 -25 -7 -13 -12 -72 -12 -161 l0 -140 -111 4
c-66 1 -114 -1 -118 -7 -9 -15 41 -24 136 -23 78 1 88 -1 98 -19 16 -30 4 -40
-46 -40 -46 0 -57 -13 -27 -35 15 -11 13 -15 -18 -43 -33 -30 -33 -32 -19 -58
8 -15 22 -29 30 -32 12 -4 13 -2 3 9 -15 15 -17 29 -4 29 5 0 22 5 38 12 15 6
39 10 53 10 25 -2 25 -2 3 9 -23 12 -37 49 -24 62 5 5 18 4 30 -3 12 -6 30
-10 39 -7 9 2 30 -3 45 -10 27 -13 32 -12 67 12 26 18 40 36 42 53 3 25 8 28
58 34 105 14 145 16 157 6 14 -11 60 10 47 22 -5 4 -76 10 -159 12 l-150 3
-15 -33 -16 -32 -11 30 c-7 19 -18 30 -31 30 -11 0 -23 8 -26 17 -4 9 -6 89
-6 177 1 89 1 362 0 609 0 434 -1 447 -19 447 -13 0 -23 -12 -32 -37z"/>
<path d="M6177 2686 c-6 -15 1 -26 15 -26 4 0 8 9 8 20 0 23 -15 27 -23 6z"/>
<path d="M7832 2679 c-18 -6 -74 -13 -125 -17 l-92 -7 3 -225 c1 -124 2 -231
2 -239 0 -21 280 -8 296 14 12 16 -6 64 -36 100 -10 12 -9 16 4 21 19 7 22 65
4 94 -11 16 -9 22 6 33 19 14 19 14 0 25 -17 10 -17 12 -2 29 10 12 14 29 11
49 -3 18 0 42 7 54 12 23 9 23 118 4 23 -5 32 -2 32 7 -1 33 -17 41 -79 38
-36 -1 -66 2 -69 8 -11 17 -45 22 -80 12z m8 -65 c0 -37 -54 -58 -121 -48 -62
10 -48 30 29 41 91 14 92 14 92 7z m-30 -184 c0 -12 -17 -12 -45 0 -17 7 -15
9 13 9 17 1 32 -3 32 -9z m14 -66 c7 -19 -1 -34 -19 -34 -18 0 -26 25 -12 39
15 15 24 14 31 -5z"/>
<path d="M534 2664 c3 -9 6 -24 6 -34 0 -12 17 -25 55 -40 56 -23 65 -33 43
-47 -15 -9 -17 -9 -83 -13 l-50 -3 58 -9 c55 -10 73 -24 42 -33 -51 -16 -50
-16 -35 -25 8 -6 39 -10 68 -10 39 0 52 -4 52 -15 0 -11 -11 -15 -39 -15 -22
0 -42 -4 -45 -9 -8 -12 50 -26 92 -22 31 2 32 2 32 -37 0 -23 6 -45 15 -52 9
-7 14 -19 11 -26 -3 -7 4 -30 14 -51 12 -24 20 -32 21 -20 6 61 4 86 -8 116
-7 18 -13 43 -13 55 0 12 -7 31 -15 42 -8 10 -15 26 -15 35 0 9 -7 22 -15 29
-8 7 -15 25 -15 40 0 16 -6 31 -12 34 -7 3 -3 3 10 0 25 -6 27 -1 12 26 -8 15
-17 18 -40 13 -19 -3 -30 -1 -30 5 0 15 -38 50 -74 67 -38 19 -50 19 -42 -1z"/>
<path d="M1542 2613 c0 -38 0 -77 0 -88 -1 -151 13 -207 48 -198 19 5 26 21
21 53 -1 8 -3 69 -5 135 -3 127 -14 165 -46 165 -17 0 -19 -7 -18 -67z"/>
<path d="M1050 2648 c-11 -12 -20 -25 -20 -30 0 -14 45 -9 85 11 37 18 37 19
17 30 -32 17 -59 13 -82 -11z"/>
<path d="M313 2653 c-7 -2 -13 -12 -13 -20 0 -9 -8 -22 -17 -29 -16 -11 -16
-16 -5 -35 9 -15 13 -50 11 -113 l-3 -91 52 -3 c36 -2 53 1 56 10 3 7 7 75 10
151 l7 137 -43 -1 c-24 0 -49 -3 -55 -6z"/>
<path d="M8540 2652 c0 -5 -12 -14 -26 -21 -26 -11 -26 -13 -19 -76 6 -58 5
-65 -11 -65 -10 0 -27 11 -39 24 -13 17 -35 27 -66 31 -45 7 -46 6 -63 -29
-14 -30 -15 -43 -7 -69 6 -18 10 -91 10 -163 -2 -115 -5 -134 -26 -171 -28
-51 -30 -98 -5 -112 16 -8 18 -19 14 -64 -4 -53 -4 -54 46 -106 l51 -53 58 3
c40 2 65 9 80 22 l22 20 11 -29 c6 -16 16 -32 23 -36 8 -5 8 -13 0 -30 -21
-42 -23 -72 -7 -89 14 -16 14 -18 -5 -29 -24 -13 -28 -30 -6 -30 19 0 20 -34
1 -50 -10 -8 -33 -9 -70 -5 -60 8 -71 20 -31 35 29 11 31 22 9 41 -14 11 -18
11 -29 -4 -7 -9 -16 -17 -20 -17 -4 0 -14 -8 -21 -17 -11 -16 -29 -18 -159
-16 -155 3 -194 8 -177 25 6 6 78 10 174 10 166 1 178 3 178 41 0 20 -45 24
-53 5 -4 -10 -6 -10 -6 0 -1 13 -37 17 -44 5 -6 -9 -205 -9 -214 0 -3 4 -16 4
-28 1 -13 -3 -27 1 -34 10 -10 12 -9 17 8 25 11 6 28 11 38 12 12 0 9 4 -9 11
-34 12 -36 25 -6 30 18 2 24 12 30 47 9 51 28 79 28 41 0 -33 51 -105 61 -88
13 20 10 44 -6 58 -8 7 -15 25 -15 40 0 26 2 27 46 26 27 -2 49 -8 55 -17 6
-10 9 -11 9 -1 0 20 -31 62 -46 62 -17 0 -51 19 -76 43 -25 24 -44 21 -70 -8
-13 -15 -28 -23 -38 -20 -9 3 -25 -2 -36 -10 -26 -20 -54 -19 -55 3 -1 9 0 60
1 113 1 68 -2 99 -11 104 -7 5 -17 2 -23 -7 -8 -10 -23 -13 -48 -10 -33 4 -38
1 -44 -23 -4 -18 -2 -32 10 -43 14 -15 18 -14 45 6 l29 21 6 -22 c3 -13 3 -32
0 -44 l-6 -22 -29 21 c-27 21 -30 21 -46 5 -14 -13 -15 -21 -5 -42 12 -25 13
-25 43 -10 29 15 32 15 44 -2 11 -15 11 -21 -2 -36 -15 -16 -18 -16 -41 -1
-24 16 -26 16 -44 -5 -16 -21 -19 -21 -34 -7 -17 18 -65 21 -80 6 -7 -7 -21
-5 -44 6 -31 16 -34 16 -47 -1 -16 -24 -17 -51 0 -58 6 -2 46 -2 87 0 127 8
179 6 192 -5 7 -5 27 -12 43 -14 25 -2 31 -8 33 -33 2 -18 -2 -33 -12 -41 -14
-10 -16 -31 -14 -135 l3 -124 308 0 c286 -1 310 -2 319 -19 7 -12 17 -16 33
-12 14 4 30 -1 45 -14 13 -11 27 -20 32 -20 4 0 8 -9 8 -21 0 -18 4 -20 28
-14 37 9 48 22 26 29 -18 5 -19 22 -18 302 0 171 5 299 10 302 5 4 10 31 11
60 2 57 5 53 -89 139 -23 21 -108 10 -108 -15 -1 -21 -23 -52 -39 -52 -6 0
-20 6 -31 13 -17 10 -22 9 -29 -1 -7 -12 -12 -12 -30 0 -18 11 -23 11 -31 -2
-5 -8 -10 -18 -10 -22 0 -16 57 -35 92 -31 44 6 58 -13 39 -54 -9 -21 -14 -23
-26 -13 -8 7 -15 18 -15 25 0 17 -23 25 -41 14 -25 -16 -39 -9 -45 21 -4 17
-12 30 -19 30 -25 0 -36 25 -20 46 8 10 15 31 15 46 0 17 8 33 20 40 20 13 20
13 -2 29 -19 15 -20 21 -12 50 12 44 50 53 59 16 4 -14 1 -35 -5 -47 -9 -17
-9 -29 0 -51 11 -26 17 -29 56 -29 24 0 47 -1 52 -2 4 -2 9 44 12 102 l5 105
75 -3 c41 -1 90 -2 108 -2 28 0 32 -3 32 -25 0 -20 6 -27 31 -32 l31 -6 -7
-81 c-3 -45 -2 -87 3 -95 17 -24 24 25 17 102 -5 40 -7 89 -6 110 2 65 -9 74
-81 71 -165 -7 -196 -7 -206 0 -11 7 -10 90 3 144 7 28 5 32 -14 32 -11 0 -21
-4 -21 -8z m-92 -189 c-4 -20 -27 -27 -47 -14 -19 12 -4 31 25 31 19 0 25 -5
22 -17z m210 -294 c-2 -6 -8 -10 -13 -10 -5 0 -11 4 -13 10 -2 6 4 11 13 11 9
0 15 -5 13 -11z m38 -60 c13 -21 -29 -36 -55 -20 -19 12 -5 31 24 31 13 0 27
-5 31 -11z m30 -62 c2 -2 -1 -20 -7 -41 -6 -22 -8 -54 -4 -73 3 -19 3 -48 0
-64 -6 -25 -9 -28 -22 -18 -11 10 -13 26 -8 75 5 39 3 64 -3 68 -13 8 -23 -41
-21 -99 2 -49 -16 -117 -24 -95 -3 8 -10 39 -14 69 -5 31 -14 56 -22 59 -9 3
-11 -1 -7 -14 7 -25 -29 -68 -50 -60 -10 4 -13 13 -9 25 10 33 -22 33 -56 0
-17 -16 -36 -28 -42 -26 -6 2 -16 21 -21 43 -12 54 -39 72 -51 34 -10 -31 -25
-23 -25 13 0 18 -6 42 -14 53 -10 13 -11 23 -4 31 16 20 35 15 41 -8 5 -19 11
-21 44 -15 21 4 50 12 66 18 20 8 31 7 42 -2 8 -7 20 -8 27 -4 7 5 21 7 32 5
36 -6 86 9 86 26 0 12 7 14 32 9 17 -3 33 -8 34 -9z m-656 -211 c0 -2 -7 -9
-15 -16 -12 -10 -15 -10 -15 4 0 9 7 16 15 16 8 0 15 -2 15 -4z m601 -148 c37
-30 39 -34 39 -89 0 -55 -1 -57 -30 -61 -41 -6 -50 7 -50 74 0 43 -4 59 -17
66 -17 10 -12 42 7 42 6 0 29 -14 51 -32z m-641 -122 c0 -8 -4 -17 -9 -20 -10
-7 -23 19 -14 28 11 11 23 6 23 -8z m660 -67 c0 -5 -7 -9 -15 -9 -15 0 -20 12
-9 23 8 8 24 -1 24 -14z"/>
<path d="M8832 2628 c-17 -17 -15 -58 3 -58 17 0 35 38 28 58 -6 15 -16 15
-31 0z"/>
<path d="M3725 2621 c-6 -11 33 -26 43 -16 4 3 0 10 -8 15 -19 12 -27 12 -35
1z"/>
<path d="M3807 2624 c-16 -16 -5 -25 26 -22 17 2 31 8 30 13 -3 12 -46 19 -56
9z"/>
<path d="M5570 2623 c-19 -3 -39 -8 -44 -13 -12 -12 72 -48 121 -52 36 -3 38
-1 41 30 3 30 1 32 -27 32 -16 0 -35 2 -43 3 -7 2 -29 2 -48 0z"/>
<path d="M6367 2623 c-18 -17 -2 -23 62 -23 39 0 73 -4 76 -10 3 -5 -3 -10
-14 -10 -11 0 -32 -5 -48 -11 -41 -15 -12 -29 63 -29 61 0 84 11 84 40 0 37
-32 50 -127 50 -49 0 -93 -3 -96 -7z"/>
<path d="M8695 2610 c3 -5 15 -10 26 -10 10 0 19 5 19 10 0 6 -12 10 -26 10
-14 0 -23 -4 -19 -10z"/>
<path d="M1838 2563 c-3 -7 -3 -101 1 -201 1 -27 46 -49 66 -32 15 12 82 4 91
-11 3 -5 23 -9 44 -9 27 0 43 -6 53 -20 21 -30 27 -14 27 73 0 58 -3 78 -12
74 -8 -2 -13 -23 -14 -51 -1 -53 -6 -61 -30 -52 -14 5 -15 17 -9 89 4 45 14
93 22 106 23 36 2 49 -42 25 -19 -10 -35 -22 -35 -26 0 -5 -5 -8 -11 -8 -6 0
-8 8 -4 19 4 15 -1 19 -32 25 -52 8 -111 8 -115 -1z m103 -118 c9 -48 -3 -91
-22 -80 -10 7 -12 94 -3 120 9 23 15 13 25 -40z"/>
<path d="M3627 2563 c-3 -5 -3 -110 -1 -233 6 -287 6 -278 4 -583 -1 -142 1
-261 4 -265 3 -3 16 4 29 16 20 19 37 22 120 24 73 2 100 0 106 -10 7 -12 12
-12 30 0 22 13 31 7 44 -27 9 -23 19 7 23 71 5 79 10 98 23 90 13 -8 27 14 35
54 11 51 17 540 7 540 -4 0 -11 -3 -15 -7 -4 -5 -20 -9 -34 -10 -15 -1 -39 -4
-54 -8 -22 -6 -28 -4 -28 8 0 14 -17 16 -111 16 -106 0 -111 1 -139 28 l-29
27 0 134 c1 127 -2 154 -14 135z m272 -362 c27 -17 -14 -26 -118 -23 -58 1
-106 4 -109 6 -2 3 -1 9 3 15 8 13 204 15 224 2z m-21 -51 c15 0 22 -6 22 -20
0 -14 -7 -20 -21 -20 -20 0 -19 -3 10 -32 29 -29 30 -33 14 -42 -22 -13 -213
-10 -226 3 -11 11 13 51 30 51 7 0 13 5 13 10 0 6 -9 10 -20 10 -13 0 -20 7
-20 20 0 17 8 20 68 23 37 2 76 2 87 0 11 -1 30 -3 43 -3z m11 -149 c8 -5 11
-16 7 -26 -5 -15 -18 -16 -104 -11 -53 3 -103 5 -110 6 -8 0 -12 6 -10 13 7
21 188 36 217 18z m104 -32 c9 -17 17 -37 17 -45 0 -22 -40 -17 -60 8 -16 20
-16 25 -3 45 20 30 25 29 46 -8z m-101 -31 c15 -7 16 -13 6 -33 -8 -19 -8 -31
0 -50 13 -28 7 -34 -42 -46 -30 -7 -30 -7 -4 -8 30 -1 78 -20 78 -31 0 -11
-106 -18 -192 -12 -43 3 -78 9 -78 13 0 16 40 29 97 31 l58 1 -62 6 c-73 7
-91 19 -71 50 7 11 16 21 20 21 5 0 8 5 8 11 0 7 -9 9 -24 5 -23 -6 -23 -4
-13 19 10 20 20 25 67 28 95 6 134 4 152 -5z m129 -116 c-14 -5 -14 -29 0 -34
13 -4 -9 -48 -23 -48 -15 0 -9 97 7 110 8 7 16 20 17 29 0 9 3 0 5 -19 3 -19
0 -36 -6 -38z m-124 -98 c12 -2 25 1 28 6 15 24 22 -5 21 -90 -1 -54 -5 -89
-11 -88 -5 2 -9 15 -9 31 2 26 0 27 -41 27 -24 0 -47 -4 -50 -10 -3 -6 4 -10
18 -10 30 0 55 -26 40 -41 -15 -15 -233 0 -233 16 0 16 32 25 93 25 33 0 46 4
41 11 -4 7 -22 9 -47 6 -22 -3 -51 -1 -65 4 -23 9 -24 10 -8 28 13 14 16 28
11 54 l-7 36 63 4 c62 3 112 0 156 -9z"/>
<path d="M3895 1670 c-7 -12 2 -30 16 -30 12 0 12 27 0 35 -5 3 -12 1 -16 -5z"/>
<path d="M3697 2563 c-4 -3 -7 -13 -7 -20 0 -11 16 -14 68 -13 37 0 74 1 82 0
35 -1 80 13 80 26 0 11 -23 14 -108 14 -60 0 -112 -3 -115 -7z"/>
<path d="M6807 2564 c-13 -13 15 -34 45 -34 23 0 29 4 26 18 -3 17 -57 30 -71
16z"/>
<path d="M7417 2534 c-30 -47 -32 -56 -24 -114 10 -65 15 -455 6 -509 -9 -59
-3 -71 33 -71 l29 0 -2 68 c-1 37 -1 197 0 356 2 177 -1 292 -7 298 -7 7 -19
-3 -35 -28z"/>
<path d="M7962 2558 c-17 -17 -15 -35 6 -47 14 -8 15 -13 5 -29 -9 -15 -8 -22
4 -34 11 -11 12 -21 5 -34 -5 -11 -8 -44 -6 -74 1 -30 -3 -67 -8 -83 -13 -34
1 -52 62 -80 25 -12 48 -23 53 -25 13 -7 7 19 -8 34 -16 16 -16 27 -20 243 -2
92 -6 125 -16 132 -20 13 -63 11 -77 -3z"/>
<path d="M130 2550 c-8 -5 -23 -11 -32 -14 -15 -5 -18 -18 -18 -90 0 -47 4
-88 10 -91 6 -4 2 -17 -10 -33 -19 -25 -20 -42 -19 -287 1 -143 0 -310 -1
-372 -1 -62 1 -117 5 -122 4 -7 13 -4 24 7 22 21 46 131 31 146 -13 13 -13 63
0 71 5 3 10 41 10 84 0 45 5 82 12 89 8 8 8 15 1 24 -7 9 -8 37 -3 83 4 39 6
73 3 77 -5 10 19 58 29 58 5 0 13 11 18 25 8 21 14 24 38 19 16 -3 32 -1 36 4
8 13 63 -3 85 -23 9 -9 15 -46 18 -112 5 -123 5 -128 -3 -186 -5 -38 -2 -52
12 -68 14 -15 15 -24 6 -42 -14 -29 -22 -116 -11 -122 14 -9 28 30 35 98 4 37
13 72 20 78 10 8 11 15 4 24 -14 17 -2 65 17 65 12 0 13 -7 8 -27 -3 -15 -7
-30 -7 -33 -3 -13 15 -60 22 -60 17 0 19 19 25 176 3 87 10 176 15 197 6 28 4
41 -7 52 -8 9 -19 13 -24 9 -17 -10 -114 -11 -126 -1 -7 5 -30 7 -50 5 -21 -3
-48 -1 -61 4 -20 7 -23 13 -17 39 l7 32 -50 -7 c-35 -4 -52 -3 -60 7 -8 10 -6
16 9 25 10 7 19 23 19 37 0 26 14 33 25 14 4 -6 12 -8 19 -6 6 3 20 -1 31 -9
24 -18 35 -4 35 47 0 36 -17 60 -53 72 -13 5 -16 13 -12 27 5 17 2 20 -22 19
-15 0 -35 -4 -43 -9z m80 -90 c0 -5 -9 -10 -20 -10 -11 0 -20 5 -20 10 0 6 9
10 20 10 11 0 20 -4 20 -10z"/>
<path d="M4560 2534 c-26 -9 -36 -18 -38 -38 -3 -25 -1 -26 41 -26 40 0 45 3
49 25 8 40 -10 54 -52 39z"/>
<path d="M6690 2500 c-52 -6 -100 -24 -100 -36 0 -3 7 -12 15 -20 8 -9 15 -30
15 -49 0 -19 6 -35 14 -38 11 -4 14 -42 15 -181 l2 -176 -47 0 c-27 0 -54 6
-63 14 -23 20 -141 36 -163 22 -32 -20 -13 -31 53 -31 51 0 64 -3 67 -17 2 -9
-5 -19 -17 -23 -20 -6 -20 -8 -5 -36 8 -16 25 -34 38 -39 13 -5 33 -20 44 -34
20 -26 21 -26 49 -9 27 15 32 15 61 0 20 -10 34 -12 38 -5 3 5 16 7 28 4 13
-3 37 -2 54 3 17 5 33 6 37 3 4 -4 42 -7 85 -8 67 -1 82 2 97 18 14 16 15 23
5 38 -6 11 -9 32 -6 48 3 16 1 39 -5 50 -8 15 -7 23 8 36 9 9 26 16 35 16 17
0 18 -10 15 -102 -4 -101 -3 -103 19 -106 l22 -3 -4 163 c-3 90 -5 166 -5 171
-1 4 -15 7 -32 7 -28 0 -31 2 -25 25 5 18 1 27 -15 35 -11 7 -24 9 -27 5 -4
-4 -5 -46 -4 -95 4 -81 2 -89 -17 -99 -17 -10 -21 -21 -21 -64 0 -29 -4 -58
-9 -66 -12 -19 -33 -4 -26 19 11 34 -17 35 -46 1 -50 -60 -70 -17 -71 156 -1
68 1 125 3 128 3 2 27 1 54 -3 l50 -7 0 -45 c0 -25 4 -55 8 -67 16 -43 27 -23
27 50 0 39 3 82 6 95 5 18 2 24 -15 29 -29 7 -27 14 14 42 20 13 34 29 32 35
-2 6 -20 20 -41 30 -44 22 -37 30 36 40 40 6 49 11 54 32 9 36 -2 54 -33 54
-45 0 -59 -14 -34 -32 l22 -15 -23 -7 c-13 -3 -31 -6 -41 -6 -10 0 -25 -7 -34
-15 -33 -34 -54 -9 -42 50 4 18 -2 20 -46 21 -27 1 -75 -1 -105 -6z m40 -90
c0 -5 -9 -10 -20 -10 -11 0 -20 5 -20 10 0 6 9 10 20 10 11 0 20 -4 20 -10z
m135 -20 c15 -6 25 -16 23 -23 -6 -15 -107 -27 -130 -15 -21 10 -24 34 -5 41
22 9 85 7 112 -3z m-67 -106 c3 -38 0 -42 -23 -48 -20 -5 -25 -11 -20 -26 5
-17 2 -20 -24 -20 -38 0 -39 15 -6 60 14 19 23 41 20 48 -8 21 4 34 28 30 18
-2 23 -11 25 -44z m-93 -296 c-4 -53 -14 -80 -29 -75 -18 6 -19 64 0 91 24 37
33 32 29 -16z"/>
<path d="M3413 2487 c-24 -6 -43 -17 -43 -24 0 -10 24 -13 95 -14 52 -1 101
-2 107 -3 7 -1 14 6 16 15 2 12 -7 18 -35 23 -79 13 -99 13 -140 3z"/>
<path d="M3685 2471 c-3 -5 0 -13 6 -16 12 -8 208 -7 221 1 25 16 -15 24 -112
24 -60 0 -111 -4 -115 -9z"/>
<path d="M2396 2448 c-15 -47 -16 -72 -3 -92 12 -18 14 -83 11 -386 -2 -201
-6 -397 -9 -437 -3 -39 -1 -74 4 -77 22 -14 31 30 35 180 18 613 19 701 8 708
-7 4 -12 25 -12 46 0 44 -8 70 -21 70 -5 0 -11 -6 -13 -12z"/>
<path d="M4650 2442 c0 -12 72 -74 78 -67 3 3 -10 21 -28 40 -33 34 -50 43
-50 27z"/>
<path d="M2156 2410 c-3 -8 -3 -51 -1 -95 1 -44 3 -96 4 -115 l1 -35 20 25
c10 14 20 23 22 20 2 -3 10 -18 18 -34 13 -25 43 -48 108 -82 20 -10 25 2 18
41 -5 26 -12 35 -26 35 -11 0 -20 -4 -20 -10 0 -20 -20 -9 -26 14 -4 17 -19
30 -50 43 -33 14 -44 23 -44 41 0 12 3 22 8 22 4 0 17 3 30 6 17 5 22 2 22
-14 0 -16 10 -22 47 -30 66 -15 73 -9 73 58 0 32 3 65 6 74 5 12 -1 16 -24 16
-16 0 -35 6 -41 14 -18 21 -140 26 -145 6z"/>
<path d="M3070 2398 c-23 -31 -23 -34 -27 -370 -4 -326 -3 -340 16 -361 11
-12 34 -39 51 -59 18 -21 41 -38 51 -38 16 0 19 8 19 49 0 49 -1 50 -32 53
l-33 3 -3 235 c-2 129 0 250 3 268 8 45 30 35 31 -14 1 -40 23 -104 36 -104 9
0 15 27 21 93 4 44 3 49 -24 62 -15 8 -34 15 -42 15 -23 0 -27 22 -20 115 7
97 -5 110 -47 53z"/>
<path d="M3790 2423 c-88 -4 -108 -9 -93 -24 14 -14 180 -19 213 -7 24 9 24
10 6 24 -11 8 -27 13 -35 12 -9 -1 -50 -3 -91 -5z"/>
<path d="M3515 2410 c-35 -8 -20 -18 35 -22 26 -2 35 1 38 15 4 19 -17 21 -73
7z"/>
<path d="M8645 2399 c-4 -6 -5 -12 -2 -15 7 -7 37 7 37 17 0 13 -27 11 -35 -2z"/>
<path d="M1675 2381 c-18 -8 -18 -10 -3 -16 23 -9 83 -2 83 10 0 13 -54 17
-80 6z"/>
<path d="M7495 2380 c-8 -14 1 -530 10 -530 9 0 13 530 3 536 -3 2 -9 0 -13
-6z"/>
<path d="M4254 2356 c-8 -22 -4 -26 40 -33 28 -4 37 -2 42 11 8 22 4 26 -40
33 -28 4 -37 2 -42 -11z"/>
<path d="M621 2349 c-19 -8 -21 -12 -11 -24 25 -30 70 -13 70 26 0 11 -28 11
-59 -2z"/>
<path d="M3703 2347 c-3 -5 0 -14 6 -20 6 -6 11 -19 11 -30 0 -12 6 -17 18
-15 10 2 16 11 14 21 -4 21 20 31 54 23 20 -5 23 -10 15 -20 -22 -26 19 -28
50 -2 15 13 34 26 40 28 7 2 9 9 6 15 -9 14 -205 14 -214 0z"/>
<path d="M1651 2329 c-19 -8 -21 -12 -11 -24 19 -23 70 -20 70 4 0 15 -22 35
-33 30 -1 0 -13 -5 -26 -10z"/>
<path d="M6440 2320 c0 -5 12 -10 28 -10 21 0 24 2 12 10 -20 13 -40 13 -40 0z"/>
<path d="M364 2289 c-7 -12 12 -29 34 -29 6 0 12 9 12 20 0 22 -34 28 -46 9z"/>
<path d="M1710 2256 c0 -18 22 -36 56 -45 44 -11 52 -35 26 -70 -19 -26 -21
-34 -10 -51 11 -17 11 -22 0 -29 -17 -10 -30 -151 -13 -151 6 0 16 12 21 26 6
14 14 22 20 19 13 -8 13 -45 0 -45 -6 0 -15 -10 -20 -22 -6 -13 -15 -31 -22
-40 -7 -9 -9 -21 -4 -25 4 -4 12 0 17 10 9 16 49 25 49 10 0 -4 -15 -21 -32
-39 -61 -60 -76 -79 -71 -91 8 -23 33 -14 33 12 0 36 26 31 34 -6 11 -55 7
-77 -13 -84 -11 -3 -25 -20 -32 -38 -7 -18 -14 -35 -17 -39 -2 -5 8 -8 22 -8
15 0 39 -12 57 -30 26 -24 35 -28 51 -19 10 6 22 17 25 26 4 11 14 13 35 9 39
-8 78 2 78 20 0 17 -22 18 -37 3 -8 -8 -13 -8 -17 0 -4 6 -24 11 -44 11 -53 0
-71 13 -54 40 10 16 10 25 2 35 -9 11 -8 22 4 47 15 30 15 34 1 44 -12 9 -13
17 -5 38 9 25 23 31 63 27 11 -2 17 5 17 18 0 22 -14 28 -25 11 -11 -18 -35 9
-35 39 0 32 17 52 36 44 8 -3 22 -2 32 3 26 11 143 31 147 24 4 -6 5 -92 6
-324 0 -162 2 -186 17 -186 17 1 34 19 27 30 -6 9 -15 215 -16 350 0 8 0 107
0 219 0 113 -3 209 -6 214 -3 5 -11 -2 -17 -15 -7 -15 -24 -25 -46 -29 -27 -5
-29 -7 -10 -8 43 -2 49 -12 50 -96 2 -136 7 -125 -52 -125 -29 0 -71 -5 -93
-11 -22 -6 -49 -13 -61 -16 -28 -7 -39 23 -20 52 13 20 13 24 1 29 -18 7 -20
47 -3 64 7 7 20 12 30 12 10 0 18 5 18 10 0 6 -9 10 -19 10 -28 0 -31 10 -18
52 10 33 16 37 47 40 48 4 35 23 -17 24 -25 0 -51 8 -61 17 -24 22 -132 24
-132 3z"/>
<path d="M2016 2261 c-8 -12 20 -22 39 -15 19 8 9 24 -15 24 -10 0 -21 -4 -24
-9z"/>
<path d="M6465 2261 c-7 -12 12 -24 25 -16 11 7 4 25 -10 25 -5 0 -11 -4 -15
-9z"/>
<path d="M7252 2263 c-15 -6 -6 -23 14 -23 8 0 14 7 14 15 0 15 -6 17 -28 8z"/>
<path d="M6390 2230 c0 -20 15 -25 44 -14 28 11 18 34 -14 34 -23 0 -30 -4
-30 -20z"/>
<path d="M2568 2218 c0 -7 -2 -24 -4 -38 -4 -50 -31 -103 -59 -118 -27 -13
-27 -16 -20 -75 10 -91 7 -394 -5 -456 -5 -30 -9 -55 -8 -55 24 -8 44 -28 48
-47 7 -28 47 -39 56 -16 3 9 -2 29 -11 47 -22 42 -17 136 7 132 24 -4 35 55
14 76 -15 15 -16 14 -16 -6 0 -12 -4 -22 -9 -22 -5 0 -9 20 -9 45 0 25 3 45 8
45 17 0 23 40 26 170 3 87 0 143 -8 157 -9 18 -8 27 6 47 21 33 22 126 1 126
-8 0 -16 -6 -17 -12z"/>
<path d="M2640 2170 c0 -63 41 -106 54 -57 12 46 7 62 -24 74 -29 11 -30 10
-30 -17z"/>
<path d="M204 1995 c1 -120 4 -184 11 -182 6 2 10 65 10 163 0 129 3 161 15
171 13 11 13 14 0 23 -35 23 -37 13 -36 -175z"/>
<path d="M1727 2174 c-12 -12 4 -24 34 -24 34 0 39 15 7 24 -29 7 -33 7 -41 0z"/>
<path d="M3518 2173 c-42 -5 -52 -23 -14 -23 14 0 28 -5 31 -10 9 -14 45 7 45
25 0 8 -6 14 -12 13 -7 -1 -30 -3 -50 -5z"/>
<path d="M1920 2136 c0 -9 7 -16 16 -16 17 0 14 22 -4 28 -7 2 -12 -3 -12 -12z"/>
<path d="M2168 2123 c-11 -2 -18 -14 -18 -27 0 -32 11 -39 31 -20 10 9 25 14
34 10 14 -5 34 19 24 29 -8 7 -55 13 -71 8z"/>
<path d="M746 2112 c-7 -12 75 -22 89 -11 5 5 -1 9 -15 9 -14 0 -35 3 -46 6
-12 3 -24 1 -28 -4z"/>
<path d="M3548 2108 c-3 -7 -29 -18 -59 -24 l-54 -12 58 -2 c31 -2 63 -3 70
-4 15 -1 16 46 1 51 -7 2 -14 -2 -16 -9z"/>
<path d="M7557 2084 c-10 -11 -9 -52 3 -59 18 -11 51 15 48 38 -3 22 -36 35
-51 21z"/>
<path d="M7635 2080 c-3 -5 -3 -19 0 -31 5 -16 14 -19 38 -17 27 2 32 7 32 28
0 21 -5 26 -32 28 -17 2 -34 -2 -38 -8z"/>
<path d="M7730 2074 c-12 -14 -12 -18 5 -30 36 -27 90 -12 83 22 -4 26 -69 32
-88 8z"/>
<path d="M8020 2056 c0 -10 9 -16 21 -16 24 0 21 23 -4 28 -10 2 -17 -3 -17
-12z"/>
<path d="M1948 2053 c-20 -3 -28 -10 -28 -25 0 -17 4 -19 28 -14 15 4 45 10
66 14 57 10 60 32 4 31 -23 -1 -55 -4 -70 -6z"/>
<path d="M2295 2050 c-4 -6 5 -10 20 -10 15 0 24 4 20 10 -3 6 -12 10 -20 10
-8 0 -17 -4 -20 -10z"/>
<path d="M8848 1858 c-1 -112 -1 -216 0 -233 3 -57 -16 -177 -31 -193 -9 -11
-13 -29 -10 -49 6 -39 9 -40 33 -10 18 21 20 21 49 5 25 -14 32 -14 42 -2 9
11 6 15 -13 23 -52 20 -52 20 -49 346 2 210 -1 305 -8 309 -8 5 -12 -53 -13
-196z"/>
<path d="M1674 2033 c-3 -10 -10 -26 -15 -35 -13 -25 -12 -28 11 -28 17 0 20
7 20 40 0 42 -7 52 -16 23z"/>
<path d="M1092 2009 c-7 -12 -10 -24 -7 -27 10 -10 162 -9 171 1 12 12 -17 27
-53 27 -17 0 -35 5 -38 10 -11 18 -60 11 -73 -11z"/>
<path d="M2177 2012 c-27 -30 -22 -52 14 -52 17 0 39 -5 50 -11 16 -8 23 -7
33 7 9 11 21 15 39 12 18 -3 27 -1 27 7 0 15 -22 25 -58 25 -15 0 -36 7 -46
15 -26 20 -39 19 -59 -3z"/>
<path d="M7557 2003 c-10 -10 -8 -61 2 -67 15 -10 40 5 47 27 9 27 -30 59 -49
40z"/>
<path d="M8154 1995 c-10 -25 10 -39 36 -25 26 14 22 34 -8 38 -13 2 -25 -3
-28 -13z"/>
<path d="M1297 1993 c-12 -12 -7 -33 8 -40 17 -6 47 26 39 39 -6 10 -38 10
-47 1z"/>
<path d="M7642 1968 c4 -39 18 -44 49 -19 20 16 21 21 10 35 -7 9 -24 16 -38
16 -21 0 -24 -4 -21 -32z"/>
<path d="M7743 1993 c-19 -7 -16 -31 6 -43 27 -14 37 -13 56 6 28 29 -17 56
-62 37z"/>
<path d="M2666 1953 c-9 -21 -8 -204 0 -341 l6 -93 -36 -34 c-20 -18 -36 -43
-36 -55 0 -29 27 -90 39 -90 15 0 14 23 -1 39 -11 11 -7 12 22 6 72 -15 174
-15 197 0 25 17 59 20 68 6 3 -6 -2 -14 -11 -19 -10 -5 -14 -14 -9 -21 5 -9
18 -1 40 25 l33 37 37 -23 c47 -29 43 -53 -10 -62 -22 -3 -59 -11 -83 -17 -34
-9 -48 -8 -71 3 -29 15 -126 17 -149 2 -7 -4 -12 -18 -12 -32 0 -31 -18 -31
-30 1 -12 32 -34 32 -48 1 -6 -14 -23 -27 -39 -31 -32 -7 -69 -50 -52 -60 6
-4 16 0 23 10 10 14 46 17 316 20 346 4 346 4 384 28 21 14 30 16 42 6 8 -6
44 -11 80 -12 49 0 68 5 77 17 7 10 32 20 55 23 36 5 40 8 30 20 -7 8 -23 19
-36 24 -35 14 -21 34 24 34 21 0 44 4 51 8 6 4 18 5 26 1 8 -3 48 -6 88 -7 69
-2 74 -4 73 -25 l-1 -22 36 21 c27 16 39 18 55 10 12 -5 30 -11 40 -13 11 -2
21 -9 23 -15 4 -10 -9 -12 -48 -8 -45 4 -56 2 -76 -17 -20 -18 -27 -20 -41
-10 -72 51 -140 63 -128 24 3 -9 8 -29 12 -44 5 -24 9 -26 26 -17 10 6 56 12
101 14 115 6 133 6 210 -1 61 -5 67 -4 67 13 0 14 -2 15 -9 4 -8 -12 -16 -13
-51 -2 -46 14 -45 25 2 36 32 7 32 7 8 14 -33 9 -35 32 -4 54 24 18 26 18 44
2 24 -21 50 -13 50 15 0 35 -18 59 -39 53 -10 -3 -29 0 -41 7 -27 14 -50 -2
-50 -35 0 -22 -17 -35 -47 -35 -12 0 -14 10 -11 45 2 25 1 45 -3 45 -3 0 -15
-13 -27 -30 -22 -30 -24 -30 -118 -30 -65 0 -106 5 -132 16 -20 9 -70 22 -111
30 -68 12 -76 11 -87 -4 -20 -26 -17 -40 18 -71 21 -19 29 -33 25 -44 -8 -22
-67 -23 -67 -2 0 16 -45 21 -54 6 -4 -5 -24 -12 -45 -16 -22 -4 -42 -13 -45
-21 -3 -8 -12 -14 -21 -14 -9 0 -18 6 -21 14 -3 8 -23 17 -45 21 -21 4 -41 10
-44 15 -10 16 8 40 34 47 14 3 37 15 51 25 20 16 38 19 95 16 l70 -3 3 30 c2
17 10 38 19 47 8 9 12 22 8 27 -9 16 -36 13 -50 -6 -11 -14 -17 -15 -59 -2
-34 10 -48 20 -53 37 -8 33 -26 13 -43 -48 -11 -39 -21 -55 -47 -71 -33 -21
-34 -21 -56 -3 -32 27 -37 36 -37 67 0 36 -15 35 -29 -3 -12 -37 -38 -39 -51
-4 -12 31 -24 25 -49 -24 -24 -46 -56 -76 -74 -69 -8 3 -19 1 -25 -5 -6 -6
-15 -7 -21 -4 -14 9 -14 43 -1 51 36 22 -32 35 -72 14 -32 -17 -40 6 -33 98 3
44 6 150 6 234 -1 144 -9 194 -25 152z m62 -545 c-13 -8 -68 -11 -68 -4 0 27
13 33 46 23 24 -7 30 -13 22 -19z m355 -118 c21 0 32 -19 18 -33 -7 -7 -16 -6
-29 6 -22 20 -49 22 -55 5 -2 -7 -7 -10 -11 -6 -4 3 0 18 10 32 15 24 18 25
34 11 9 -8 24 -15 33 -15z"/>
<path d="M3333 1958 c-2 -5 -1 -13 3 -20 4 -6 6 -28 6 -49 -2 -43 15 -55 53
-37 30 13 32 24 6 33 -18 5 -18 8 -4 37 l16 30 71 -7 c39 -4 75 -7 80 -8 6 -1
11 5 13 14 3 13 -13 15 -118 15 -66 -1 -123 -4 -126 -8z"/>
<path d="M1692 1948 c-18 -18 -14 -28 8 -28 11 0 20 6 20 14 0 21 -15 27 -28
14z"/>
<path d="M2303 1943 c-27 -5 -41 -42 -22 -54 28 -17 72 10 66 40 -2 17 -13 20
-44 14z"/>
<path d="M3260 1798 c1 -79 -1 -153 -5 -164 -8 -26 20 -41 30 -16 4 9 10 86
13 170 l5 152 -23 0 c-22 0 -22 -1 -20 -142z"/>
<path d="M1164 1919 c-3 -6 -17 -8 -30 -5 -19 5 -24 2 -24 -12 0 -17 6 -18 66
-10 79 9 104 16 104 29 0 13 -107 11 -116 -2z"/>
<path d="M6265 1910 c-4 -6 -3 -16 3 -22 6 -6 12 -6 17 2 4 6 3 16 -3 22 -6 6
-12 6 -17 -2z"/>
<path d="M6330 1904 c0 -18 28 -30 41 -17 6 6 0 14 -16 21 -21 10 -25 9 -25
-4z"/>
<path d="M7554 1906 c-9 -24 0 -61 16 -64 9 -1 23 3 33 10 14 11 15 17 4 38
-15 29 -44 38 -53 16z"/>
<path d="M3521 1894 c-42 -18 -30 -37 20 -32 26 2 35 8 37 26 4 26 -9 27 -57
6z"/>
<path d="M6406 1901 c-3 -4 1 -16 8 -26 13 -18 14 -18 25 2 8 17 8 22 -5 27
-20 8 -22 8 -28 -3z"/>
<path d="M2213 1880 c-3 -13 -14 -20 -29 -20 -34 0 -40 -20 -13 -41 l24 -18
-29 -11 c-24 -9 -26 -13 -15 -26 8 -9 21 -13 35 -10 17 5 23 1 28 -19 6 -22 9
-23 31 -13 14 6 27 23 30 40 5 22 14 30 36 35 34 7 41 15 33 37 -5 12 -20 16
-61 16 -54 0 -55 1 -49 25 4 15 2 25 -5 25 -6 0 -13 -9 -16 -20z m67 -75 c0
-9 -9 -15 -25 -15 -16 0 -25 6 -25 15 0 9 9 15 25 15 16 0 25 -6 25 -15z"/>
<path d="M2010 1855 c-10 -12 -9 -15 8 -15 11 0 25 7 32 15 10 12 9 15 -8 15
-11 0 -25 -7 -32 -15z"/>
<path d="M1607 1813 c-4 -34 -2 -51 8 -59 11 -8 11 -12 -3 -22 -16 -11 -15
-13 6 -28 25 -19 29 -52 7 -60 -20 -8 -19 -30 1 -38 20 -8 94 11 94 24 0 5
-10 10 -22 12 -28 4 -35 32 -17 65 12 23 11 27 -14 45 -15 11 -25 24 -21 29 6
11 -17 79 -27 79 -3 0 -9 -21 -12 -47z"/>
<path d="M1112 1804 c-8 -31 -9 -51 -2 -64 13 -24 13 -81 0 -115 -9 -23 -14
-25 -45 -19 -31 5 -35 4 -35 -14 0 -18 3 -19 34 -10 41 13 66 5 66 -20 0 -33
-31 -52 -70 -43 -56 14 -87 28 -93 45 -9 23 -25 20 -58 -13 l-29 -30 21 -20
c12 -11 19 -26 16 -34 -7 -18 -89 -37 -160 -37 -100 0 -125 -22 -63 -55 l34
-19 37 28 c34 26 37 27 60 12 37 -24 104 -20 139 7 25 21 27 25 16 44 -24 37
-7 53 58 53 32 0 62 -4 68 -10 5 -5 8 -26 6 -45 -3 -26 -9 -35 -23 -35 -12 0
-19 -7 -19 -20 0 -16 7 -20 33 -20 17 0 48 -10 67 -22 52 -33 103 -49 115 -37
15 15 -22 39 -60 39 -32 0 -56 19 -69 54 -6 17 -2 18 51 11 32 -4 71 -14 86
-22 16 -8 31 -12 34 -10 7 8 -25 77 -37 77 -19 0 -52 88 -45 119 3 16 6 73 7
127 0 72 4 104 15 116 13 14 12 17 -4 21 -10 2 -45 5 -79 5 l-60 1 -12 -45z"/>
<path d="M6251 1841 c-19 -12 -5 -31 23 -31 25 0 51 22 39 33 -9 10 -45 8 -62
-2z"/>
<path d="M6430 1841 c0 -20 37 -54 53 -48 24 9 21 20 -12 40 -33 19 -41 21
-41 8z"/>
<path d="M6155 1827 c-10 -8 -15 -19 -11 -25 10 -17 18 -15 56 13 l34 25 -30
0 c-17 0 -38 -6 -49 -13z"/>
<path d="M3342 1817 c-19 -23 9 -41 50 -31 18 4 68 7 111 5 66 -3 77 -1 77 14
0 14 -11 16 -82 15 -46 -1 -97 1 -114 5 -21 5 -34 2 -42 -8z"/>
<path d="M5547 1814 c-20 -21 31 -31 82 -17 23 6 23 7 5 14 -24 9 -79 11 -87
3z"/>
<path d="M6526 1811 c-4 -5 -3 -16 0 -25 4 -11 -2 -19 -20 -26 -33 -12 -45
-54 -22 -79 24 -26 21 -106 -4 -131 -37 -37 -21 -60 41 -60 32 0 31 2 14 -111
-3 -20 2 -29 21 -39 13 -7 27 -11 30 -7 10 10 4 411 -7 422 -5 5 -9 22 -9 37
0 21 -5 28 -19 28 -11 0 -22 -4 -25 -9z"/>
<path d="M4415 1781 c-3 -12 -23 -24 -51 -32 -56 -17 -69 -31 -54 -58 7 -15 8
-27 0 -40 -14 -28 -13 -31 15 -31 31 0 42 -23 25 -54 -7 -13 -9 -33 -6 -44 6
-17 1 -21 -39 -26 -25 -4 -45 -11 -45 -17 0 -10 11 -12 52 -9 35 2 68 -8 68
-22 0 -5 -10 -18 -22 -28 l-23 -18 28 -11 c16 -6 32 -11 36 -11 5 0 11 -9 14
-20 8 -30 24 -24 43 15 14 29 14 43 5 79 -16 65 -14 168 4 192 9 12 14 43 15
87 l0 67 -29 0 c-20 0 -32 -6 -36 -19z"/>
<path d="M0 1736 c0 -60 19 -79 22 -21 1 19 2 43 2 52 1 9 -5 18 -11 21 -10 3
-13 -12 -13 -52z"/>
<path d="M560 1783 c-16 -6 -50 -39 -50 -48 0 -3 6 -5 13 -5 7 0 23 -13 35
-29 18 -24 21 -38 16 -73 -5 -32 -2 -47 9 -56 20 -17 31 11 16 39 -7 13 -7 24
-1 32 6 7 12 32 15 57 3 25 7 54 9 65 2 15 -3 20 -22 22 -14 1 -32 -1 -40 -4z"/>
<path d="M7039 1781 c-6 -2 6 -20 26 -41 37 -38 44 -64 30 -107 -5 -16 -2 -23
15 -28 32 -10 19 -29 -26 -36 -25 -4 -30 -7 -14 -8 39 -2 45 -12 48 -74 1 -44
-2 -59 -13 -64 -12 -4 -13 -8 -4 -19 9 -11 8 -19 -6 -34 -17 -19 -17 -20 8
-29 26 -10 43 -43 32 -61 -3 -5 -3 -16 2 -22 15 -24 21 76 16 257 -7 216 -7
205 2 232 5 16 2 23 -17 29 -25 8 -82 11 -99 5z"/>
<path d="M7190 1780 c-6 -3 8 -25 30 -49 22 -23 40 -46 40 -50 0 -3 -7 -17
-17 -30 -15 -23 -15 -25 2 -37 10 -8 22 -14 27 -14 4 0 8 -7 8 -15 0 -12 -8
-14 -40 -9 -31 5 -40 3 -40 -8 0 -23 9 -27 41 -18 l29 9 0 -47 c0 -73 12 -152
21 -146 13 8 11 318 -2 331 -8 8 -7 16 2 31 10 16 10 23 1 35 -13 15 -86 27
-102 17z"/>
<path d="M7492 1783 l-33 -4 31 -32 c42 -43 48 -72 19 -95 -31 -26 -20 -57 19
-47 35 9 33 5 34 64 1 29 5 54 10 57 18 11 7 45 -18 54 -14 6 -26 9 -27 8 -1
0 -17 -3 -35 -5z"/>
<path d="M2010 1760 l-25 -20 26 0 c27 0 54 21 42 33 -10 10 -16 8 -43 -13z"/>
<path d="M6774 1765 c-4 -10 1 -32 11 -51 12 -23 16 -43 11 -67 -6 -30 -4 -35
16 -41 47 -12 48 -10 48 79 0 83 -1 85 -24 85 -13 0 -31 3 -40 6 -10 4 -18 -1
-22 -11z"/>
<path d="M6927 1730 c24 -43 26 -53 17 -79 -13 -33 -3 -51 28 -51 20 0 21 5
18 71 -1 26 3 50 9 53 6 4 11 18 11 32 0 23 -3 24 -56 24 l-55 0 28 -50z"/>
<path d="M7352 1735 c18 -25 34 -45 37 -45 24 1 54 51 45 74 -5 12 -20 16 -60
16 l-54 0 32 -45z"/>
<path d="M7610 1772 c0 -5 14 -24 30 -42 37 -41 38 -67 5 -82 -21 -9 -25 -18
-25 -55 0 -23 4 -43 9 -43 33 0 92 187 68 218 -10 13 -87 17 -87 4z"/>
<path d="M1026 1763 c-12 -12 -5 -23 14 -23 11 0 20 4 20 9 0 11 -26 22 -34
14z"/>
<path d="M6635 1760 c-4 -6 3 -31 14 -55 12 -25 21 -56 21 -69 0 -16 7 -27 21
-31 20 -7 21 -12 15 -67 -4 -33 -12 -68 -18 -78 -9 -14 -8 -21 4 -34 16 -16
14 -51 -4 -62 -5 -3 -1 -12 8 -18 23 -17 9 -38 -21 -30 -29 7 -38 -8 -24 -40
10 -20 20 -26 44 -26 18 0 38 7 45 15 10 12 16 13 26 4 15 -12 88 -20 116 -12
16 4 17 7 4 31 -13 25 -19 27 -83 27 l-68 0 -2 170 c-2 193 -6 255 -17 273 -9
15 -72 16 -81 2z"/>
<path d="M7755 1760 c-4 -6 0 -21 7 -33 23 -34 26 -62 12 -82 -15 -21 -19 -65
-6 -65 5 0 18 10 30 23 17 18 22 36 22 75 0 29 5 52 10 52 16 0 11 27 -6 34
-25 9 -62 7 -69 -4z"/>
<path d="M203 1744 c-3 -8 -1 -20 6 -27 8 -8 11 -4 11 16 0 30 -7 35 -17 11z"/>
<path d="M3344 1698 c-1 -54 1 -58 22 -58 30 0 38 14 22 40 -11 19 -10 24 9
39 18 15 35 17 102 13 68 -4 81 -2 81 10 0 13 -19 15 -118 14 l-117 -1 -1 -57z"/>
<path d="M6149 1744 c-11 -14 -10 -18 6 -30 23 -17 39 -14 43 9 5 24 -33 40
-49 21z"/>
<path d="M7880 1747 c0 -23 32 -59 42 -49 17 17 0 62 -22 62 -11 0 -20 -6 -20
-13z"/>
<path d="M1900 1740 c0 -5 9 -10 20 -10 11 0 20 5 20 10 0 6 -9 10 -20 10 -11
0 -20 -4 -20 -10z"/>
<path d="M2306 1734 c-9 -24 -7 -28 9 -14 17 14 20 30 6 30 -5 0 -12 -7 -15
-16z"/>
<path d="M6235 1731 c-10 -18 4 -31 35 -31 25 0 49 15 39 24 -12 11 -68 16
-74 7z"/>
<path d="M8426 1723 c-11 -11 -6 -23 9 -23 8 0 15 4 15 9 0 13 -16 22 -24 14z"/>
<path d="M3529 1681 c-21 -17 -22 -20 -7 -26 27 -11 53 -1 53 19 0 27 -18 30
-46 7z"/>
<path d="M5580 1686 c0 -24 124 -36 133 -12 9 22 -2 26 -70 26 -47 0 -63 -4
-63 -14z"/>
<path d="M2154 1667 c-8 -22 3 -37 29 -37 12 0 31 -1 42 -1 41 -1 118 16 123
29 3 11 -34 19 -63 12 -21 -5 -51 -3 -87 4 -30 7 -39 5 -44 -7z"/>
<path d="M7364 1655 c-15 -23 -16 -30 -5 -47 8 -13 9 -23 3 -27 -14 -9 -10
-153 6 -158 7 -3 12 4 12 16 0 11 5 32 12 47 11 22 10 28 -6 40 -15 11 -17 16
-7 28 7 8 10 19 7 24 -3 6 1 15 9 22 19 16 19 54 1 69 -12 10 -18 7 -32 -14z"/>
<path d="M1970 1655 c-7 -8 -16 -12 -21 -9 -15 9 -70 -7 -66 -19 3 -9 126 -12
135 -2 5 4 -22 45 -29 45 -4 0 -12 -7 -19 -15z"/>
<path d="M2907 1663 c-13 -13 -7 -73 7 -73 16 0 26 32 19 60 -5 21 -15 25 -26
13z"/>
<path d="M5845 1660 c-3 -6 1 -13 10 -16 19 -8 30 0 20 15 -8 14 -22 14 -30 1z"/>
<path d="M4260 1637 c0 -13 7 -32 16 -43 15 -18 15 -18 10 6 -3 14 -6 33 -6
43 0 9 -4 17 -10 17 -5 0 -10 -10 -10 -23z"/>
<path d="M6350 1616 c0 -20 5 -26 21 -26 15 0 20 5 17 22 -5 34 -38 37 -38 4z"/>
<path d="M372 1590 c-34 -46 -26 -148 10 -112 5 5 28 7 50 4 39 -5 40 -4 29
17 -7 11 -23 28 -37 37 -21 14 -23 22 -18 50 8 42 -5 43 -34 4z"/>
<path d="M3344 1605 c-11 -28 10 -39 49 -26 23 8 62 10 111 5 68 -6 76 -5 76
10 0 16 -11 17 -87 15 -49 -1 -100 1 -115 5 -22 6 -29 4 -34 -9z"/>
<path d="M2262 1569 c-31 -9 -33 -12 -27 -40 6 -28 5 -30 -17 -27 -12 2 -23
10 -24 18 -2 35 -5 40 -24 40 -27 0 -27 -46 1 -108 21 -46 22 -47 37 -24 17
26 34 29 30 5 -2 -15 5 -18 40 -18 24 0 46 3 49 8 2 4 -7 7 -21 7 -38 0 -33
27 5 28 40 1 45 7 30 36 -7 12 -11 36 -9 52 4 33 -14 39 -70 23z"/>
<path d="M6780 1561 c0 -14 7 -17 38 -16 23 2 37 8 37 16 0 9 -13 15 -37 16
-31 2 -38 -1 -38 -16z"/>
<path d="M6924 1569 c-12 -20 13 -32 35 -17 12 8 18 18 14 21 -10 11 -41 8
-49 -4z"/>
<path d="M8927 1548 c-21 -11 -22 -32 -2 -48 9 -7 14 -24 13 -38 -2 -14 2 -27
8 -29 18 -6 25 25 12 47 -10 15 -10 22 0 32 27 27 2 55 -31 36z"/>
<path d="M586 1535 c-3 -9 -6 -25 -6 -35 0 -26 -34 -43 -69 -35 -25 5 -29 2
-35 -19 -3 -15 -13 -26 -20 -26 -19 0 -30 -32 -14 -42 7 -4 28 -8 46 -8 18 0
41 -6 52 -12 16 -11 26 -9 55 6 36 20 44 43 23 64 -6 6 -11 31 -10 54 2 49
-11 81 -22 53z"/>
<path d="M3495 1540 c-27 -5 -32 -8 -15 -9 14 -1 42 -4 63 -7 30 -5 37 -4 37
10 0 17 -16 18 -85 6z"/>
<path d="M6832 1518 c-9 -9 -8 -16 5 -30 12 -14 13 -21 4 -32 -10 -11 -9 -16
5 -24 13 -7 16 -18 11 -46 -4 -27 -2 -36 9 -36 10 0 14 14 14 59 0 106 -16
141 -48 109z"/>
<path d="M7613 1514 c-8 -21 13 -42 28 -27 13 13 5 43 -11 43 -6 0 -13 -7 -17
-16z"/>
<path d="M2574 1505 c-3 -8 -3 -19 1 -25 9 -14 35 6 35 26 0 19 -29 18 -36 -1z"/>
<path d="M6934 1459 c5 -67 8 -74 29 -66 23 9 27 55 6 81 -11 13 -19 29 -19
35 0 6 -5 11 -10 11 -7 0 -9 -22 -6 -61z"/>
<path d="M7505 1511 c-7 -12 32 -34 45 -26 6 3 10 13 10 21 0 16 -45 20 -55 5z"/>
<path d="M2 1443 l3 -68 64 -3 c35 -2 73 -9 85 -16 29 -18 74 -28 80 -18 3 5
25 6 50 2 47 -7 106 -2 106 9 0 20 -22 81 -30 81 -4 0 -11 -13 -15 -28 -6 -27
-7 -28 -75 -26 -39 0 -73 4 -76 7 -4 3 -15 2 -25 -4 -16 -8 -19 -6 -19 15 0
23 -5 26 -50 32 l-50 7 0 38 c0 35 -3 39 -25 39 -26 0 -26 -1 -23 -67z"/>
<path d="M1337 1448 c-9 -5 -9 -10 -1 -18 12 -12 84 -3 84 10 0 11 -68 18 -83
8z"/>
<path d="M1754 1449 c-13 -21 14 -33 43 -20 22 10 24 14 12 22 -19 12 -46 11
-55 -2z"/>
<path d="M1903 1448 c2 -7 12 -13 22 -13 10 0 20 6 23 13 2 7 -6 12 -23 12
-17 0 -25 -5 -22 -12z"/>
<path d="M7980 1445 c0 -13 9 -16 43 -13 23 2 42 8 42 13 0 6 -19 11 -42 13
-34 3 -43 0 -43 -13z"/>
<path d="M8089 1450 c-11 -7 -10 -10 4 -16 16 -6 94 3 86 10 -11 9 -78 13 -90
6z"/>
<path d="M1470 1440 c0 -5 9 -10 20 -10 11 0 20 5 20 10 0 6 -9 10 -20 10 -11
0 -20 -4 -20 -10z"/>
<path d="M1575 1440 c3 -5 12 -10 20 -10 8 0 17 5 20 10 4 6 -5 10 -20 10 -15
0 -24 -4 -20 -10z"/>
<path d="M4530 1429 c0 -18 2 -19 15 -9 8 7 15 16 15 21 0 5 -7 9 -15 9 -9 0
-15 -9 -15 -21z"/>
<path d="M6255 1440 c-3 -6 1 -13 10 -16 19 -8 30 0 20 15 -8 14 -22 14 -30 1z"/>
<path d="M6327 1444 c-13 -13 -7 -24 14 -24 11 0 19 5 17 12 -5 14 -22 21 -31
12z"/>
<path d="M8460 1440 c0 -5 18 -11 40 -11 22 -1 45 -2 52 -3 6 -1 13 5 16 12 3
9 -12 12 -52 12 -31 0 -56 -4 -56 -10z"/>
<path d="M6787 1434 c-10 -10 -9 -44 2 -44 13 0 23 32 13 42 -5 5 -11 5 -15 2z"/>
<path d="M7202 1421 c2 -7 7 -12 11 -12 12 1 9 15 -3 20 -7 2 -11 -2 -8 -8z"/>
<path d="M7619 1413 c-1 -5 -2 -15 -3 -23 -2 -20 -36 -26 -36 -6 0 23 -17 20
-67 -14 -34 -23 -55 -30 -93 -30 -54 0 -61 -5 -49 -37 5 -14 14 -20 26 -17 10
3 30 1 44 -4 22 -9 25 -15 21 -47 -2 -20 -11 -39 -18 -42 -23 -9 -62 6 -66 24
-3 15 -7 13 -28 -9 -14 -14 -34 -28 -45 -30 -11 -2 -21 -11 -23 -21 -2 -10
-14 -28 -26 -41 -17 -20 -25 -22 -41 -14 -14 8 -20 8 -23 0 -7 -21 -53 -14
-59 8 -7 25 -36 26 -104 4 -54 -18 -59 -29 -29 -62 20 -21 31 -22 178 -24 190
-3 208 -3 297 4 39 3 84 1 100 -4 46 -13 1003 -20 1043 -7 21 7 37 7 45 1 26
-21 132 -6 166 24 12 11 -27 34 -57 34 -20 0 -50 5 -68 12 -26 9 -36 9 -49 -2
-30 -25 -97 -13 -115 21 -6 11 -21 19 -36 19 -24 0 -26 -3 -22 -40 3 -36 1
-40 -19 -40 -12 0 -28 8 -35 19 -11 15 -68 51 -82 51 -2 0 -6 -10 -8 -22 -4
-31 -26 -34 -40 -4 -21 47 -88 48 -88 1 0 -16 -6 -25 -15 -25 -8 0 -15 -4 -15
-10 0 -14 -74 -12 -88 2 -10 10 -17 10 -34 -1 -29 -18 -51 5 -52 56 -1 35 -3
38 -33 41 -22 2 -42 -4 -63 -20 -30 -22 -31 -22 -79 -5 -57 20 -88 22 -93 5
-2 -6 -31 -13 -64 -16 -32 -3 -62 -10 -66 -16 -4 -6 -44 -12 -89 -15 -68 -3
-84 0 -91 13 -13 24 -58 21 -58 -4 0 -31 -38 -26 -51 7 -17 44 -6 53 64 53 45
0 68 5 77 15 7 8 18 15 25 15 7 0 15 9 18 20 7 28 35 25 43 -5 4 -17 13 -25
28 -25 11 0 32 -3 46 -6 24 -5 24 -5 7 10 -13 10 -17 21 -12 35 7 24 8 24 93
12 37 -6 75 -6 94 -1 17 5 36 6 42 2 13 -8 78 -32 89 -32 5 0 7 12 5 28 -3 23
-7 27 -30 24 -23 -3 -28 1 -28 17 0 11 9 25 20 31 21 11 40 6 40 -11 0 -6 7
-17 15 -25 8 -9 15 -29 15 -45 0 -24 4 -29 25 -29 19 0 28 8 36 28 10 26 11
26 25 8 13 -19 14 -19 34 -1 17 15 37 19 98 20 l77 0 3 34 c3 24 -2 37 -17 47
-11 8 -21 24 -23 37 -2 16 -11 23 -31 25 -25 3 -27 1 -21 -23 6 -24 4 -25 -19
-20 -19 5 -29 1 -40 -16 -14 -20 -19 -21 -46 -10 -22 10 -34 10 -50 1 -35 -18
-44 -1 -15 28 22 23 35 27 80 27 53 0 71 9 37 18 -35 9 -359 -1 -406 -13 -56
-14 -77 -9 -77 20 0 18 -19 30 -21 13z m311 -63 c0 -5 -6 -10 -14 -10 -8 0
-18 5 -21 10 -3 6 3 10 14 10 12 0 21 -4 21 -10z m-296 -45 c-4 -8 -10 -13
-15 -10 -4 3 -6 12 -3 20 4 8 10 13 15 10 4 -3 6 -12 3 -20z m138 16 c13 -5
32 -12 43 -16 20 -6 20 -7 1 -21 -44 -32 -106 -10 -90 31 7 17 15 18 46 6z
m-252 -61 c0 -21 -15 -27 -25 -10 -7 12 2 30 16 30 5 0 9 -9 9 -20z m375 -182
c11 1 34 3 50 4 24 2 30 -1 30 -17 0 -18 -7 -20 -90 -21 -49 -1 -94 1 -99 4
-5 3 2 13 15 23 17 13 32 17 49 12 14 -3 34 -6 45 -5z"/>
<path d="M2423 1384 c-24 -10 -33 -21 -33 -38 0 -13 -2 -30 -5 -38 -3 -7 1
-22 8 -32 13 -17 17 -18 45 -5 22 10 32 21 32 36 0 13 4 23 10 23 5 0 15 10
21 22 10 18 8 24 -7 35 -22 16 -30 15 -71 -3z m21 -50 c13 -5 14 -9 5 -20 -13
-16 -29 -9 -29 12 0 16 2 16 24 8z"/>
<path d="M8296 1365 c-13 -31 -13 -38 1 -67 9 -18 21 -36 26 -39 20 -14 110
-20 141 -9 25 8 41 7 62 -1 16 -7 33 -11 39 -10 5 2 44 4 85 6 41 2 84 4 94 5
36 2 42 -18 13 -48 -23 -24 -26 -31 -14 -41 8 -6 22 -8 31 -5 10 4 28 1 42 -7
34 -18 77 -2 84 31 9 46 32 70 67 70 32 0 33 1 33 45 0 44 0 45 -35 47 -19 0
-41 1 -47 2 -9 1 -12 -11 -10 -32 2 -27 -1 -33 -15 -30 -9 2 -20 14 -23 27 -9
40 -30 38 -30 -3 0 -41 -9 -45 -35 -16 -10 11 -28 20 -41 20 -12 0 -36 8 -52
17 -26 15 -33 16 -56 3 -20 -10 -31 -11 -48 -2 -13 6 -32 12 -42 14 -30 5 -32
28 -2 28 31 0 34 16 6 25 -28 9 -50 -11 -50 -47 0 -39 -22 -45 -55 -14 -15 14
-34 26 -41 26 -8 0 -14 6 -14 14 0 13 -41 26 -81 26 -12 0 -24 -13 -33 -35z
m574 -115 c0 -21 -15 -27 -25 -10 -7 12 2 30 16 30 5 0 9 -9 9 -20z"/>
<path d="M1787 1382 c-10 -2 -23 -15 -28 -29 -9 -24 -13 -25 -63 -20 -39 4
-60 1 -75 -9 -19 -14 -23 -13 -37 0 -16 17 -51 21 -70 8 -6 -4 -16 -17 -23
-30 -12 -23 -31 -22 -31 3 0 17 -45 67 -53 59 -3 -4 1 -17 10 -30 14 -22 14
-26 -1 -49 -20 -30 -32 -32 -39 -5 -4 18 -11 19 -54 14 -26 -4 -54 -11 -61
-17 -18 -15 -110 -9 -148 9 -34 17 -156 27 -279 24 -44 -1 -123 -2 -175 -3
l-95 -2 -5 -40 -5 -40 -73 -3 c-62 -2 -73 -5 -70 -20 3 -14 19 -17 122 -17 85
0 120 4 123 12 3 7 -8 15 -24 18 -54 12 -56 14 -43 30 16 20 100 20 126 0 20
-15 106 -12 154 6 19 7 36 6 61 -5 28 -12 39 -12 48 -3 10 9 16 7 28 -10 14
-21 20 -22 109 -16 67 4 98 2 108 -6 11 -9 20 -10 36 -1 24 13 499 15 511 2 4
-4 9 -22 11 -39 l3 -33 343 -3 c189 -1 346 1 348 5 3 4 -5 12 -18 17 -13 5
-36 23 -52 40 -29 30 -30 30 -47 12 -17 -18 -33 -19 -266 -16 -326 3 -303 1
-303 23 0 26 37 40 98 37 44 -2 52 0 52 15 0 10 -7 20 -15 24 -21 8 -19 33 5
46 23 12 40 6 40 -16 0 -8 7 -17 16 -21 13 -5 12 -9 -7 -29 -46 -49 3 -65 148
-48 l51 7 -18 29 c-10 16 -27 36 -39 45 -18 12 -20 18 -10 29 10 12 9 18 -2
30 -12 11 -28 12 -92 4 -42 -5 -87 -6 -99 -1 -12 4 -37 3 -56 -3 -28 -8 -37
-7 -46 5 -6 8 -19 13 -29 11z m8 -74 c32 -14 32 -24 0 -32 -16 -4 -34 -1 -46
8 -20 13 -20 15 -2 25 22 13 18 13 48 -1z m295 0 c0 -6 7 -20 17 -30 15 -17
14 -18 -30 -18 -36 0 -49 4 -57 20 -9 17 -7 22 12 30 33 13 58 12 58 -2z"/>
<path d="M5998 1384 c-1 -5 -2 -28 -2 -51 -1 -38 2 -43 22 -43 12 0 22 5 22
10 0 6 -4 10 -10 10 -5 0 -10 4 -10 9 0 5 30 12 68 16 37 3 87 8 112 11 25 2
52 0 60 -6 13 -9 12 -12 -4 -25 -12 -9 -28 -12 -40 -8 -23 7 -95 5 -108 -3 -4
-3 -3 -14 2 -25 8 -14 16 -17 28 -11 9 5 45 7 79 6 34 -2 74 1 88 6 30 11 75
-7 98 -40 12 -18 20 -19 80 -12 43 6 70 5 77 -2 7 -7 14 -6 22 2 9 9 7 12 -10
12 -17 0 -22 6 -22 25 0 16 -6 25 -15 25 -8 0 -24 6 -35 13 -17 10 -26 9 -50
-5 -17 -9 -30 -13 -30 -7 0 16 -52 31 -64 19 -24 -24 -88 2 -71 30 8 13 58 13
72 -1 8 -8 13 -8 17 0 4 6 23 11 43 11 20 0 34 3 31 6 -4 3 -55 7 -115 10
-164 6 -284 14 -310 20 -13 4 -24 2 -25 -2z"/>
<path d="M7007 1374 c-8 -8 1 -24 14 -24 5 0 9 7 9 15 0 15 -12 20 -23 9z"/>
<path d="M2165 1360 c-3 -5 7 -15 21 -23 l28 -14 -22 -12 c-29 -15 -28 -29 2
-37 17 -4 31 1 45 15 27 27 26 27 -6 56 -29 25 -58 32 -68 15z"/>
<path d="M6942 1318 l3 -53 40 -6 c54 -9 62 2 25 34 -16 15 -30 34 -30 42 0 8
-9 19 -21 25 -19 11 -20 9 -17 -42z"/>
<path d="M3560 1311 c-14 -42 -8 -75 12 -69 20 7 31 79 15 95 -11 12 -16 7
-27 -26z"/>
<path d="M7286 1333 c-3 -8 -6 -30 -6 -50 0 -27 4 -34 18 -31 9 2 19 14 20 28
2 14 8 30 12 35 5 6 -1 15 -15 21 -19 9 -25 9 -29 -3z"/>
<path d="M2293 1316 c-13 -13 -23 -34 -23 -46 0 -14 -8 -24 -21 -27 -15 -4
-17 -8 -8 -14 7 -4 21 -3 31 2 10 6 23 7 29 3 7 -4 9 0 5 14 -4 12 -2 23 6 28
6 4 14 2 16 -4 5 -17 16 -15 30 8 9 15 10 26 2 40 -14 27 -40 25 -67 -4z"/>
<path d="M2523 1333 c-7 -2 -13 -12 -13 -21 0 -8 -8 -24 -17 -34 -26 -29 -3
-41 37 -19 28 14 35 25 35 47 0 28 -16 39 -42 27z"/>
<path d="M7195 1320 c-8 -25 1 -40 25 -40 10 0 22 5 25 10 11 17 -6 50 -25 50
-10 0 -21 -9 -25 -20z"/>
<path d="M428 1305 c-9 -21 -9 -29 4 -42 25 -24 48 -9 48 32 0 28 -4 35 -20
35 -12 0 -25 -10 -32 -25z"/>
<path d="M4097 1309 c-21 -12 -22 -32 -2 -49 13 -10 19 -10 34 4 13 11 21 14
26 7 3 -6 17 -11 31 -11 32 0 42 -27 18 -45 -11 -7 -17 -16 -14 -18 4 -5 171
-11 208 -8 6 1 12 5 12 9 0 15 -49 32 -89 32 -28 0 -42 6 -52 20 -10 15 -30
22 -66 27 -29 3 -53 10 -53 14 0 16 -35 28 -53 18z"/>
<path d="M2 1289 c8 -24 51 -38 115 -38 59 1 85 10 64 24 -6 3 -38 7 -73 9
-35 3 -74 8 -87 12 -18 5 -23 4 -19 -7z"/>
<path d="M5533 1258 c2 -7 10 -13 17 -13 7 0 15 6 18 13 2 7 -5 12 -18 12 -13
0 -20 -5 -17 -12z"/>
<path d="M6175 1232 c-3 -8 -3 -18 1 -23 7 -12 41 -11 49 2 4 5 19 9 33 7 19
-2 27 2 27 12 0 20 -102 22 -110 2z"/>
<path d="M6333 1243 c-7 -3 -13 -9 -13 -14 0 -12 37 -12 44 0 7 11 -14 20 -31
14z"/>
<path d="M7168 1239 c-19 -11 -24 -54 -8 -64 6 -3 13 1 16 10 4 9 23 23 43 31
32 14 34 17 16 24 -27 12 -47 11 -67 -1z"/>
<path d="M320 1230 c-8 -6 -37 -10 -65 -9 -27 1 -96 1 -152 0 -83 -1 -103 -4
-103 -16 0 -11 27 -15 153 -17 192 -4 197 -3 197 28 0 26 -7 29 -30 14z"/>
<path d="M3980 1220 c-14 -4 -67 -5 -119 -3 -111 5 -137 0 -144 -28 -5 -17 -2
-20 16 -16 12 3 113 9 225 13 111 4 202 11 202 16 0 23 -119 35 -180 18z"/>
<path d="M4434 1215 c-15 -10 -16 -16 -7 -26 14 -15 43 -5 43 15 0 22 -15 27
-36 11z"/>
<path d="M4952 1218 c-23 -23 -12 -29 46 -26 43 2 57 7 57 18 0 19 -85 26
-103 8z"/>
<path d="M3170 1205 c0 -8 5 -15 10 -15 6 0 10 7 10 15 0 8 -4 15 -10 15 -5 0
-10 -7 -10 -15z"/>
<path d="M3482 1197 c-12 -13 -22 -26 -22 -29 0 -4 27 -7 61 -7 33 0 79 -3
102 -6 48 -6 82 8 57 25 -8 5 -29 10 -47 10 -20 0 -36 7 -42 18 -8 14 -13 15
-30 5 -13 -8 -22 -9 -26 -3 -10 16 -30 11 -53 -13z"/>
<path d="M5097 1214 c-12 -13 4 -24 34 -24 20 0 29 4 27 13 -5 13 -50 22 -61
11z"/>
<path d="M5815 1212 c14 -15 40 -19 43 -7 1 6 -10 11 -25 13 -19 2 -25 0 -18
-6z"/>
<path d="M6744 1209 c-11 -18 7 -28 40 -22 23 4 44 -1 66 -13 30 -18 32 -18
41 -1 12 20 49 23 67 5 10 -10 17 -10 32 0 11 6 40 12 65 12 34 0 45 4 45 16
0 15 -16 16 -135 4 -5 0 -56 1 -113 3 -56 3 -105 1 -108 -4z"/>
<path d="M3249 1194 c-18 -22 3 -34 64 -34 48 0 60 13 35 38 -9 9 -16 8 -31
-6 -18 -16 -19 -16 -32 1 -15 21 -19 21 -36 1z"/>
<path d="M5971 1181 c-1 -27 2 -32 11 -23 8 8 8 17 0 34 -10 22 -11 21 -11
-11z"/>
<path d="M6083 1184 c-3 -8 -1 -20 6 -27 8 -8 11 -4 11 16 0 30 -7 35 -17 11z"/>
<path d="M6664 1185 c-4 -9 -2 -21 4 -27 15 -15 44 -1 40 19 -4 23 -36 29 -44
8z"/>
<path d="M6397 1183 c-27 -7 -14 -28 19 -31 16 -1 46 -7 66 -12 30 -8 44 -7
67 5 17 8 40 15 51 15 12 0 20 5 18 12 -4 12 -182 20 -221 11z"/>
<path d="M7230 1180 c0 -5 10 -10 23 -10 18 0 19 2 7 10 -19 13 -30 13 -30 0z"/>
<path d="M8365 1170 c3 -5 15 -10 25 -10 10 0 22 5 25 10 4 6 -7 10 -25 10
-18 0 -29 -4 -25 -10z"/>
<path d="M6211 1147 c-10 -10 -271 -14 -288 -4 -14 9 -113 5 -113 -4 0 -8 17
-11 90 -14 14 0 23 -5 21 -10 -2 -6 -13 -9 -23 -7 -11 2 -25 -1 -31 -6 -7 -6
-21 -12 -32 -16 -11 -3 30 -4 90 -1 61 2 128 0 150 -5 22 -4 34 -8 28 -9 -7 0
-13 -5 -13 -11 0 -5 23 -10 50 -10 46 0 66 12 38 23 -7 3 1 10 17 16 45 17 60
27 63 43 4 19 -32 30 -47 15z"/>
<path d="M5703 1133 c9 -2 25 -2 35 0 9 3 1 5 -18 5 -19 0 -27 -2 -17 -5z"/>
<path d="M8118 1117 c-7 -34 1 -47 28 -47 28 0 30 11 8 45 -20 31 -30 32 -36
2z"/>
<path d="M267 1123 c-4 -3 -19 -8 -34 -10 -16 -1 -44 -5 -63 -8 -19 -3 -64 -6
-99 -8 -36 -1 -66 -7 -68 -13 -5 -16 280 -27 420 -15 9 0 17 8 17 16 0 15 -36
29 -61 24 -8 -2 -23 0 -34 3 -44 13 -72 17 -78 11z"/>
<path d="M848 1041 c-12 -11 -20 -22 -17 -25 3 -3 43 -11 88 -17 72 -10 84 -9
100 5 10 9 30 16 44 16 33 0 35 12 5 29 -17 9 -41 9 -92 2 -43 -6 -76 -6 -87
-1 -12 7 -24 4 -41 -9z"/>
<path d="M3465 940 c-3 -5 3 -10 15 -10 12 0 18 5 15 10 -3 6 -10 10 -15 10
-5 0 -12 -4 -15 -10z"/>
<path d="M8928 943 c-45 -4 -60 -14 -38 -28 18 -11 110 7 110 21 0 8 -6 13
-12 12 -7 -1 -34 -3 -60 -5z"/>
<path d="M2795 930 c3 -5 15 -10 26 -10 10 0 19 5 19 10 0 6 -12 10 -26 10
-14 0 -23 -4 -19 -10z"/>
<path d="M4003 928 c20 -7 35 -7 50 0 18 9 14 11 -28 11 -46 -1 -48 -1 -22
-11z"/>
<path d="M4104 932 c5 -8 76 -4 76 4 0 2 -18 4 -41 4 -22 0 -38 -4 -35 -8z"/>
<path d="M5122 913 c-32 -13 7 -23 88 -23 92 0 124 6 114 21 -5 9 -179 11
-202 2z"/>
<path d="M3170 900 c0 -5 18 -10 40 -10 22 0 40 5 40 10 0 6 -18 10 -40 10
-22 0 -40 -4 -40 -10z"/>
<path d="M5371 906 c8 -8 88 -10 95 -3 4 4 -17 7 -46 7 -29 0 -51 -2 -49 -4z"/>
<path d="M1062 875 c-14 -16 -32 -25 -52 -25 -20 0 -30 -5 -30 -15 0 -8 3 -15
6 -15 18 0 84 24 84 30 0 4 9 10 21 13 12 3 19 11 17 18 -7 22 -23 20 -46 -6z"/>
<path d="M6158 893 c-73 -4 -100 -15 -60 -26 31 -9 155 7 160 21 2 6 -2 11
-10 10 -7 -1 -48 -4 -90 -5z"/>
<path d="M6015 881 c-7 -12 12 -24 25 -16 11 7 4 25 -10 25 -5 0 -11 -4 -15
-9z"/>
<path d="M863 853 c-17 -3 -23 -11 -23 -30 0 -21 3 -23 14 -14 8 7 25 9 41 5
24 -6 26 -4 23 17 -3 24 -16 30 -55 22z"/>
<path d="M5500 845 c0 -10 7 -15 18 -13 21 4 19 22 -2 26 -10 2 -16 -3 -16
-13z"/>
<path d="M6320 846 c0 -9 7 -16 16 -16 9 0 14 5 12 12 -6 18 -28 21 -28 4z"/>
<path d="M8480 846 c0 -2 11 -6 25 -8 14 -3 25 -1 25 3 0 5 -11 9 -25 9 -14 0
-25 -2 -25 -4z"/>
<path d="M5336 821 c-10 -15 10 -22 36 -12 12 6 18 10 11 10 -6 1 -18 4 -26 7
-8 3 -18 1 -21 -5z"/>
<path d="M635 810 c-3 -6 2 -13 12 -16 10 -3 25 -9 34 -14 24 -13 32 0 12 22
-18 20 -48 24 -58 8z"/>
<path d="M1164 788 c-4 -5 -2 -14 4 -20 12 -12 44 -7 49 8 5 14 -45 25 -53 12z"/>
<path d="M4174 791 c-30 -6 -30 -6 -12 -25 10 -11 18 -14 18 -8 0 6 15 12 33
14 17 2 32 8 32 13 0 12 -30 15 -71 6z"/>
<path d="M8865 790 c-64 -7 -59 -12 15 -15 25 -1 50 -3 55 -5 27 -7 65 1 65
15 0 16 -25 17 -135 5z"/>
<path d="M5160 769 c-39 -16 -6 -29 75 -29 65 0 108 11 89 23 -20 11 -141 16
-164 6z"/>
<path d="M6073 773 c-59 -6 -57 -29 2 -38 87 -13 249 12 193 29 -22 7 -151 12
-195 9z"/>
<path d="M890 755 c0 -8 7 -15 15 -15 8 0 15 7 15 15 0 8 -7 15 -15 15 -8 0
-15 -7 -15 -15z"/>
<path d="M2592 758 c7 -19 38 -22 38 -4 0 10 -9 16 -21 16 -12 0 -19 -5 -17
-12z"/>
<path d="M2966 761 l-29 -6 38 -14 c31 -11 39 -11 46 0 7 12 -7 31 -21 28 -3
-1 -18 -4 -34 -8z"/>
<path d="M3140 751 c0 -18 17 -20 36 -6 18 14 18 14 -8 15 -16 0 -28 -4 -28
-9z"/>
<path d="M4434 729 c-8 -13 13 -29 39 -29 21 0 23 26 1 34 -23 9 -32 7 -40 -5z"/>
<path d="M4640 730 c-12 -8 -12 -10 3 -16 21 -8 35 2 21 16 -5 5 -15 6 -24 0z"/>
<path d="M4752 733 c-44 -3 -53 -7 -50 -21 3 -9 11 -15 19 -12 8 2 42 6 77 8
34 2 62 8 62 13 0 5 -6 9 -14 9 -8 0 -20 1 -28 3 -7 2 -37 2 -66 0z"/>
<path d="M690 718 c0 -14 52 -38 84 -38 32 0 10 25 -25 28 -19 2 -40 8 -46 14
-10 8 -13 6 -13 -4z"/>
<path d="M1113 700 c-33 -29 -42 -50 -23 -50 5 0 14 9 20 20 6 11 17 20 25 20
8 0 15 2 15 4 0 2 3 11 6 20 9 24 -7 19 -43 -14z"/>
<path d="M4580 720 c0 -5 7 -10 15 -10 8 0 15 5 15 10 0 6 -7 10 -15 10 -8 0
-15 -4 -15 -10z"/>
<path d="M5760 719 c0 -5 4 -9 9 -9 5 0 17 -3 27 -7 11 -4 15 -3 11 4 -9 14
-47 24 -47 12z"/>
<path d="M5830 722 c-8 -3 8 -11 35 -18 34 -8 56 -9 68 -2 10 5 16 12 13 16
-8 7 -97 11 -116 4z"/>
<path d="M1003 713 c-26 -10 -12 -23 25 -23 35 1 36 2 18 15 -21 16 -24 16
-43 8z"/>
<path d="M6895 700 c-4 -7 -3 -16 3 -22 14 -14 45 -2 40 15 -6 16 -34 21 -43
7z"/>
<path d="M7751 701 c-12 -8 -10 -12 12 -22 22 -10 30 -10 40 0 21 21 -23 40
-52 22z"/>
<path d="M7892 701 c-18 -3 -32 -10 -32 -16 1 -5 9 -8 18 -5 27 7 84 6 115 -3
21 -6 27 -4 27 8 0 8 -6 16 -12 16 -45 5 -87 5 -116 0z"/>
<path d="M8101 696 c-59 -17 -30 -22 107 -18 75 2 152 3 170 3 17 0 32 4 32 9
0 12 -270 17 -309 6z"/>
<path d="M8747 704 c-4 -4 -29 -7 -56 -5 -51 2 -79 -15 -39 -23 59 -12 83 -13
115 -4 27 7 40 6 58 -6 25 -16 78 -13 103 7 9 7 18 5 30 -7 26 -23 42 -20 42
9 l0 25 -102 0 c-57 0 -112 3 -123 6 -11 3 -24 2 -28 -2z"/>
<path d="M6480 690 c20 -13 50 -13 50 0 0 6 -15 10 -32 10 -25 0 -29 -3 -18
-10z"/>
<path d="M7465 690 c-8 -13 17 -23 63 -24 27 -1 37 3 37 14 0 18 -89 27 -100
10z"/>
<path d="M860 616 c0 -30 15 -42 24 -20 10 27 7 44 -9 44 -9 0 -15 -9 -15 -24z"/>
<path d="M925 611 c-9 -15 12 -22 40 -15 20 5 23 9 13 15 -17 12 -45 11 -53 0z"/>
<path d="M1140 610 c0 -5 9 -10 20 -10 10 0 23 -8 29 -17 8 -14 13 -15 35 -5
14 6 26 18 26 27 0 17 -14 19 -40 5 -13 -7 -21 -7 -25 0 -8 13 -45 13 -45 0z"/>
<path d="M1305 610 c-4 -6 5 -10 20 -10 15 0 24 4 20 10 -3 6 -12 10 -20 10
-8 0 -17 -4 -20 -10z"/>
<path d="M670 571 c18 -12 90 -12 90 0 0 5 -24 9 -52 9 -36 0 -48 -3 -38 -9z"/>
<path d="M5010 570 c0 -5 7 -10 15 -10 8 0 15 5 15 10 0 6 -7 10 -15 10 -8 0
-15 -4 -15 -10z"/>
<path d="M1015 549 c-9 -14 -4 -18 31 -24 33 -6 60 7 50 24 -9 14 -73 14 -81
0z"/>
<path d="M8777 554 c-14 -14 -7 -25 13 -22 12 2 21 8 21 13 0 12 -24 18 -34 9z"/>
<path d="M4270 535 c-10 -12 -9 -16 3 -21 20 -7 37 3 37 22 0 18 -24 18 -40
-1z"/>
<path d="M7785 540 c3 -5 15 -10 25 -10 10 0 22 5 25 10 4 6 -7 10 -25 10 -18
0 -29 -4 -25 -10z"/>
<path d="M957 533 c-14 -13 -6 -33 12 -33 25 0 38 20 20 31 -17 11 -24 11 -32
2z"/>
<path d="M748 519 c-10 -5 -18 -15 -18 -20 0 -6 4 -8 9 -4 5 3 18 -6 29 -20
16 -20 29 -25 68 -25 47 0 52 14 9 22 -11 2 -21 12 -24 23 -6 34 -39 45 -73
24z"/>
<path d="M1156 522 c-3 -5 8 -12 26 -16 17 -3 36 -13 43 -23 7 -9 14 -12 18
-6 4 6 1 17 -6 26 -14 18 -73 32 -81 19z"/>
<path d="M4565 520 c-4 -6 12 -10 42 -9 36 0 43 3 28 9 -28 12 -63 12 -70 0z"/>
<path d="M605 510 c-3 -5 -15 -10 -26 -10 -10 0 -19 -6 -19 -14 0 -28 19 -26
50 4 20 19 25 30 16 30 -8 0 -18 -4 -21 -10z"/>
<path d="M4778 513 c12 -2 30 -2 40 0 9 3 -1 5 -23 4 -22 0 -30 -2 -17 -4z"/>
<path d="M5305 490 c-8 -13 20 -24 40 -16 8 3 15 10 15 16 0 13 -47 13 -55 0z"/>
<path d="M7600 491 c0 -5 6 -14 14 -20 11 -9 16 -9 21 0 4 6 1 15 -6 20 -18
11 -29 11 -29 0z"/>
<path d="M703 473 c-31 -6 -29 -23 2 -23 16 0 25 6 25 15 0 8 -1 14 -2 14 -2
-1 -13 -4 -25 -6z"/>
<path d="M1351 466 c-20 -23 20 -40 47 -20 12 8 22 19 22 25 0 14 -56 11 -69
-5z"/>
<path d="M1072 459 c2 -7 10 -15 17 -17 8 -3 12 1 9 9 -2 7 -10 15 -17 17 -8
3 -12 -1 -9 -9z"/>
<path d="M1153 463 c-7 -2 -13 -9 -13 -15 0 -12 41 -6 41 7 1 12 -11 15 -28 8z"/>
<path d="M1286 454 c-3 -8 -17 -14 -31 -14 -29 0 -34 -18 -7 -27 9 -3 25 -13
35 -21 16 -14 17 -13 17 14 0 17 5 35 11 41 7 7 6 12 -5 16 -8 3 -17 -1 -20
-9z"/>
<path d="M990 450 c0 -6 -10 -15 -22 -20 -22 -8 -22 -9 -2 -9 20 -1 44 16 44
31 0 4 -4 8 -10 8 -5 0 -10 -5 -10 -10z"/>
<path d="M6563 449 c14 -8 22 -8 30 0 8 8 3 11 -18 11 -26 -1 -28 -2 -12 -11z"/>
<path d="M8820 450 c0 -12 77 -12 105 0 14 6 2 9 -42 9 -36 1 -63 -3 -63 -9z"/>
<path d="M740 426 c0 -9 7 -16 16 -16 9 0 14 5 12 12 -6 18 -28 21 -28 4z"/>
<path d="M6645 420 c3 -5 13 -10 21 -10 8 0 14 -4 14 -10 0 -5 7 -10 15 -10 8
0 15 5 15 10 0 6 -7 10 -15 10 -8 0 -15 5 -15 10 0 6 -9 10 -21 10 -11 0 -17
-4 -14 -10z"/>
<path d="M7160 420 c0 -5 7 -10 15 -10 8 0 15 5 15 10 0 6 -7 10 -15 10 -8 0
-15 -4 -15 -10z"/>
<path d="M4697 404 c-11 -12 3 -24 28 -24 13 0 26 4 29 9 10 15 -43 29 -57 15z"/>
<path d="M6350 395 c0 -8 7 -15 15 -15 8 0 15 7 15 15 0 8 -7 15 -15 15 -8 0
-15 -7 -15 -15z"/>
<path d="M8777 404 c-8 -8 3 -34 14 -34 5 0 9 9 9 20 0 19 -11 26 -23 14z"/>
<path d="M775 387 c-3 -7 -1 -24 4 -38 10 -24 10 -24 17 -2 4 15 15 23 38 25
46 4 38 22 -12 26 -29 2 -44 -1 -47 -11z"/>
<path d="M267 383 c-20 -19 -5 -33 32 -30 53 3 59 12 20 26 -37 13 -43 13 -52
4z"/>
<path d="M376 371 c-9 -14 22 -34 41 -26 17 6 17 7 -1 21 -23 16 -33 18 -40 5z"/>
<path d="M1017 366 c-4 -9 -18 -16 -32 -16 -14 0 -25 -4 -25 -10 0 -5 10 -10
23 -10 12 0 34 -8 47 -17 14 -10 39 -18 55 -19 32 -1 155 36 155 48 0 10 -60
14 -95 7 -89 -20 -94 -20 -108 8 -11 21 -15 23 -20 9z"/>
<path d="M5615 360 c-4 -6 8 -10 29 -10 19 0 38 5 41 10 4 6 -8 10 -29 10 -19
0 -38 -4 -41 -10z"/>
<path d="M6450 360 c0 -5 6 -10 14 -10 8 0 18 5 21 10 3 6 -3 10 -14 10 -12 0
-21 -4 -21 -10z"/>
<path d="M660 345 c0 -8 -9 -20 -21 -29 l-21 -14 21 -11 c22 -12 71 -5 71 10
0 4 -11 19 -25 33 -16 16 -25 20 -25 11z"/>
<path d="M856 352 c-2 -4 -1 -14 4 -22 7 -11 12 -12 21 -3 6 6 8 16 5 22 -8
13 -23 14 -30 3z"/>
<path d="M516 343 c-20 -3 -25 -7 -17 -13 16 -9 51 -1 51 11 0 5 -1 8 -2 8 -2
-1 -16 -4 -32 -6z"/>
<path d="M7966 341 c-4 -5 0 -11 6 -14 18 -5 48 3 48 14 0 12 -47 12 -54 0z"/>
<path d="M4942 318 c5 -32 28 -35 28 -4 0 17 -5 26 -16 26 -10 0 -14 -7 -12
-22z"/>
<path d="M5276 322 c-4 -13 -5 -26 -2 -29 10 -11 18 4 14 29 l-4 23 -8 -23z"/>
<path d="M1792 308 c5 -15 28 -18 29 -3 0 6 -7 12 -17 13 -10 3 -15 -1 -12
-10z"/>
<path d="M8700 310 c-12 -8 -12 -10 2 -15 20 -8 41 2 33 16 -8 11 -16 11 -35
-1z"/>
<path d="M8820 310 l-35 -7 38 -2 c20 0 37 4 37 9 0 6 -1 9 -2 9 -2 -1 -19 -5
-38 -9z"/>
<path d="M8253 303 c9 -2 25 -2 35 0 9 3 1 5 -18 5 -19 0 -27 -2 -17 -5z"/>
<path d="M745 280 c-3 -5 3 -10 15 -10 12 0 18 5 15 10 -3 6 -10 10 -15 10 -5
0 -12 -4 -15 -10z"/>
<path d="M870 240 c0 -41 3 -50 13 -43 6 6 25 13 40 17 22 5 28 12 25 28 -4
29 -24 34 -31 8 -8 -29 -26 -25 -24 6 1 15 -4 29 -10 31 -9 3 -13 -10 -13 -47z"/>
<path d="M438 268 c9 -9 15 -9 24 0 9 9 7 12 -12 12 -19 0 -21 -3 -12 -12z"/>
<path d="M1214 265 c-3 -8 -3 -19 1 -25 9 -14 35 6 35 26 0 19 -29 18 -36 -1z"/>
<path d="M202 248 c5 -15 28 -18 29 -3 0 6 -7 12 -17 13 -10 3 -15 -1 -12 -10z"/>
<path d="M595 233 c-22 -7 -43 -19 -47 -26 -10 -15 -10 -36 0 -21 12 18 63 24
69 8 11 -29 33 -15 33 21 0 39 1 38 -55 18z"/>
<path d="M1100 234 c0 -17 22 -14 28 4 2 7 -3 12 -12 12 -9 0 -16 -7 -16 -16z"/>
<path d="M1170 219 c0 -17 4 -28 10 -24 6 3 10 17 10 31 0 13 -4 24 -10 24 -5
0 -10 -14 -10 -31z"/>
<path d="M1336 235 c-3 -9 -19 -18 -36 -22 -24 -4 -29 -10 -24 -22 4 -9 10
-32 14 -51 8 -34 8 -34 9 12 1 41 5 49 31 65 29 17 39 33 21 33 -5 0 -11 -7
-15 -15z"/>
<path d="M4315 221 c-3 -5 -1 -12 4 -15 12 -8 41 3 41 15 0 12 -37 12 -45 0z"/>
<path d="M4440 220 c0 -5 9 -10 20 -10 11 0 20 5 20 10 0 6 -9 10 -20 10 -11
0 -20 -4 -20 -10z"/>
<path d="M8087 223 c-14 -13 -6 -23 18 -23 16 0 25 6 25 15 0 15 -31 21 -43 8z"/>
<path d="M1681 216 c11 -9 69 -14 69 -6 0 6 -16 10 -37 10 -20 0 -34 -2 -32
-4z"/>
<path d="M7467 209 c8 -8 16 -8 30 0 16 9 14 10 -11 11 -22 0 -27 -3 -19 -11z"/>
<path d="M8170 211 c0 -14 28 -33 39 -27 16 10 1 36 -20 36 -10 0 -19 -4 -19
-9z"/>
<path d="M450 190 c0 -5 9 -10 20 -10 11 0 20 5 20 10 0 6 -9 10 -20 10 -11 0
-20 -4 -20 -10z"/>
<path d="M806 193 c-11 -11 -6 -23 9 -23 8 0 15 4 15 9 0 13 -16 22 -24 14z"/>
<path d="M8265 190 c-8 -12 20 -24 35 -15 6 3 8 11 5 16 -8 12 -32 12 -40 -1z"/>
<path d="M4380 169 c0 -11 5 -17 10 -14 6 3 10 13 10 21 0 8 -4 14 -10 14 -5
0 -10 -9 -10 -21z"/>
<path d="M1050 170 c0 -5 -6 -10 -13 -10 -14 0 -47 -31 -47 -44 0 -10 37 2 73
24 29 18 29 18 8 29 -14 8 -21 8 -21 1z"/>
<path d="M110 155 c0 -8 5 -15 10 -15 6 0 10 7 10 15 0 8 -4 15 -10 15 -5 0
-10 -7 -10 -15z"/>
<path d="M246 161 c-7 -11 49 -25 64 -16 6 3 8 11 5 16 -8 12 -62 12 -69 0z"/>
<path d="M920 155 c0 -8 7 -15 15 -15 8 0 15 7 15 15 0 8 -7 15 -15 15 -8 0
-15 -7 -15 -15z"/>
<path d="M1145 160 c-3 -5 3 -10 14 -10 12 0 21 5 21 10 0 6 -6 10 -14 10 -8
0 -18 -4 -21 -10z"/>
<path d="M4167 164 c-7 -7 30 -44 43 -44 6 0 10 4 10 9 0 11 -46 42 -53 35z"/>
<path d="M8922 161 c-10 -6 -8 -10 9 -14 26 -7 42 0 34 14 -8 11 -26 11 -43 0z"/>
<path d="M8740 150 c19 -13 30 -13 30 0 0 6 -10 10 -22 10 -19 0 -20 -2 -8
-10z"/>
<path d="M8838 148 c9 -9 15 -9 24 0 9 9 7 12 -12 12 -19 0 -21 -3 -12 -12z"/>
<path d="M600 130 c-12 -8 -12 -10 3 -16 22 -8 50 3 42 16 -8 12 -25 13 -45 0z"/>
<path d="M705 131 c-3 -5 9 -17 27 -25 25 -13 33 -14 40 -4 12 20 10 25 -14
32 -32 8 -46 7 -53 -3z"/>
<path d="M812 131 c-10 -6 -8 -10 9 -14 24 -7 39 -1 39 14 0 11 -30 12 -48 0z"/>
<path d="M3237 134 c-11 -11 3 -24 18 -18 8 4 12 10 9 15 -6 11 -18 12 -27 3z"/>
<path d="M4016 133 c-11 -11 -6 -23 9 -23 8 0 15 4 15 9 0 13 -16 22 -24 14z"/>
<path d="M6347 122 c-10 -10 -17 -27 -17 -37 0 -18 1 -17 19 2 11 12 25 23 32
25 13 4 4 28 -10 28 -4 0 -15 -8 -24 -18z"/>
<path d="M4260 108 c0 -20 5 -23 45 -24 25 0 45 3 45 8 0 4 -7 8 -15 8 -9 0
-29 7 -45 15 -29 15 -30 15 -30 -7z"/>
<path d="M5022 110 c-10 -16 -10 -20 1 -20 14 0 37 20 37 32 0 16 -25 8 -38
-12z"/>
<path d="M2640 100 c0 -5 10 -10 23 -10 18 0 19 2 7 10 -19 13 -30 13 -30 0z"/>
<path d="M6412 99 c2 -6 8 -10 13 -10 5 0 11 4 13 10 2 6 -4 11 -13 11 -9 0
-15 -5 -13 -11z"/>
<path d="M5506 91 c-7 -11 18 -33 27 -24 4 3 7 12 7 20 0 15 -26 18 -34 4z"/>
<path d="M622 54 c14 -14 18 -14 44 0 l29 15 -45 1 c-41 0 -43 -1 -28 -16z"/>
<path d="M5345 60 c8 -13 32 -13 40 0 4 6 -5 10 -20 10 -15 0 -24 -4 -20 -10z"/>
<path d="M376 41 c-3 -5 7 -14 24 -19 30 -11 47 -2 35 18 -8 12 -52 13 -59 1z"/>
<path d="M990 36 c0 -10 9 -16 21 -16 24 0 21 23 -4 28 -10 2 -17 -3 -17 -12z"/>
<path d="M1234 35 c4 -11 55 -10 67 2 5 5 -9 8 -31 8 -23 0 -39 -4 -36 -10z"/>
<path d="M510 20 c-9 -17 -8 -20 9 -20 16 0 31 18 31 36 0 13 -31 1 -40 -16z"/>
<path d="M716 24 c-4 -9 -4 -19 -2 -21 8 -8 26 8 26 23 0 19 -16 18 -24 -2z"/>
<path d="M770 34 c0 -16 39 -33 75 -33 38 0 39 0 20 15 -11 8 -28 13 -37 10
-10 -2 -18 0 -18 5 0 5 -9 9 -20 9 -11 0 -20 -3 -20 -6z"/>
<path d="M1100 30 c0 -5 4 -10 9 -10 5 0 15 -2 23 -5 7 -3 22 1 33 9 19 14 17
15 -22 16 -24 0 -43 -4 -43 -10z"/>
<path d="M8038 28 c8 -8 17 -8 34 0 22 10 21 11 -11 11 -27 1 -32 -2 -23 -11z"/>
<path d="M8868 33 c12 -2 30 -2 40 0 9 3 -1 5 -23 4 -22 0 -30 -2 -17 -4z"/>
<path d="M210 10 c0 -5 7 -10 15 -10 8 0 15 5 15 10 0 6 -7 10 -15 10 -8 0
-15 -4 -15 -10z"/>
</g>
</svg>
