<?xml version="1.0" encoding="iso-8859-1"?>
<!-- Uploaded to: SVG Repo, www.svgrepo.com, Generator: SVG Repo Mixer Tools -->
<svg height="800px" width="800px" version="1.1" id="Layer_1" xmlns="http://www.w3.org/2000/svg" xmlns:xlink="http://www.w3.org/1999/xlink" 
	 viewBox="0 0 495 495" xml:space="preserve">
<g>
	<polygon style="fill:#BDDBFF;" points="247.5,277.92 247.5,217.08 217.179,247.5 	"/>
	<polygon style="fill:#BDDBFF;" points="160.703,247.5 247.5,160.419 247.5,0 0,0 0,495 247.5,495 247.5,334.58 	"/>
	<polygon style="fill:#9BC9FF;" points="247.5,0 247.5,160.419 291.894,115.881 320.224,144.119 247.5,217.08 247.5,277.92 
		320.224,350.881 291.894,379.119 247.5,334.58 247.5,495 495,495 495,0 	"/>
	<polygon style="fill:#2488FF;" points="247.5,334.58 291.894,379.119 320.224,350.881 247.5,277.92 217.179,247.5 247.5,217.08 
		320.224,144.119 291.894,115.881 247.5,160.419 160.703,247.5 	"/>
</g>
</svg>