<?xml version="1.0" encoding="iso-8859-1"?>
<!-- Uploaded to: SVG Repo, www.svgrepo.com, Generator: SVG Repo Mixer Tools -->
<svg height="800px" width="800px" version="1.1" id="Layer_1" xmlns="http://www.w3.org/2000/svg" xmlns:xlink="http://www.w3.org/1999/xlink" 
	 viewBox="0 0 495 495" xml:space="preserve">
<g>
	<polygon style="fill:#BDDBFF;" points="203.106,379.119 174.776,350.881 247.5,277.919 247.5,217.081 174.776,144.119 
		203.106,115.881 247.5,160.42 247.5,0 0,0 0,495 247.5,495 247.5,334.58 	"/>
	<polygon style="fill:#9BC9FF;" points="247.5,0 247.5,160.42 334.297,247.5 247.5,334.58 247.5,495 495,495 495,0 	"/>
	<polygon style="fill:#9BC9FF;" points="247.5,217.081 247.5,277.919 277.82,247.5 	"/>
	<polygon style="fill:#2488FF;" points="174.776,144.119 247.5,217.081 277.82,247.5 247.5,277.919 174.776,350.881 
		203.106,379.119 247.5,334.58 334.297,247.5 247.5,160.42 203.106,115.881 	"/>
</g>
</svg>