<?xml version="1.0" standalone="no"?>
<!DOCTYPE svg PUBLIC "-//W3C//DTD SVG 20010904//EN"
 "http://www.w3.org/TR/2001/REC-SVG-20010904/DTD/svg10.dtd">
<svg version="1.0" xmlns="http://www.w3.org/2000/svg"
 width="200.000000pt" height="193.000000pt" viewBox="0 0 200.000000 193.000000"
 preserveAspectRatio="xMidYMid meet">
<metadata>
Created by potrace 1.10, written by Peter Selinger 2001-2011
</metadata>
<g transform="translate(0.000000,193.000000) scale(0.050000,-0.050000)"
fill="#6d28d9" stroke="none">
<path d="M2962 3518 c-154 -27 -508 -148 -643 -220 -114 -61 -115 -61 -182
-26 -95 49 -266 45 -371 -9 -116 -59 -118 -72 -20 -130 127 -74 215 -171 203
-221 -17 -66 229 -520 285 -528 49 -7 77 -142 63 -313 -4 -50 -5 -91 -1 -91
113 0 309 211 334 361 12 71 25 85 130 140 394 211 880 743 880 964 0 72 -425
118 -678 73z m214 -334 c9 -60 -79 -115 -135 -85 -59 32 -56 136 4 160 56 21
122 -17 131 -75z m-280 -68 c13 -13 24 -43 24 -66 0 -23 -11 -53 -24 -66 -53
-53 -156 -15 -156 59 0 76 104 125 156 73z m-607 -171 c-14 -86 69 -232 173
-306 83 -60 43 -183 -49 -147 -82 31 -275 421 -246 496 29 76 135 39 122 -43z
m332 34 c75 -40 37 -159 -51 -159 -54 0 -90 36 -90 90 0 79 64 111 141 69z"/>
<path d="M1180 2986 c-1138 -858 -1088 -1973 89 -1965 l161 1 -151 45 c-759
225 -792 1143 -68 1881 113 116 143 153 124 152 -3 -1 -72 -52 -155 -114z"/>
<path d="M1600 2766 l-69 -30 54 -39 55 -40 -49 -64 c-27 -35 -71 -113 -99
-173 -62 -133 -60 -135 182 -155 173 -15 176 -16 182 -70 9 -74 28 -70 134 32
114 110 120 176 22 271 -46 45 -72 91 -81 148 -24 152 -151 199 -331 120z"/>
<path d="M3660 2761 c0 -46 -251 -387 -360 -488 -692 -640 -1920 -900 -2314
-490 -138 144 -167 382 -77 630 65 180 52 182 -27 6 -592 -1324 1012 -1784
2158 -621 271 275 732 982 641 982 -12 0 -21 -8 -21 -19z"/>
<path d="M400 947 c-33 -9 -44 -412 -12 -463 52 -84 80 -14 74 189 -5 218 4
240 90 218 66 -16 61 -111 -7 -141 -71 -31 -20 -179 91 -265 106 -83 124 10
21 113 l-84 84 53 50 c148 137 1 277 -226 215z"/>
<path d="M2162 796 c-2 -91 -7 -202 -8 -246 -3 -67 2 -80 35 -80 35 0 39 15
40 145 1 169 24 179 81 36 40 -102 130 -159 130 -83 0 43 84 212 105 212 10 0
15 -70 11 -155 l-6 -155 58 -7 c54 -6 56 -3 41 50 -9 32 -18 143 -20 247 -3
190 -3 190 -56 196 -37 5 -53 -3 -53 -23 0 -42 -102 -273 -120 -273 -8 0 -42
65 -75 145 -94 224 -155 221 -163 -9z"/>
<path d="M3154 927 c-8 -7 -14 -34 -14 -58 0 -25 -13 -50 -30 -56 -40 -16 -38
-53 2 -53 26 0 30 -17 24 -85 -16 -154 53 -247 154 -208 51 20 34 70 -25 77
-44 5 -56 18 -62 63 -10 88 12 154 47 140 36 -14 95 29 78 56 -6 11 -31 16
-54 13 -34 -5 -45 7 -54 52 -10 59 -40 85 -66 59z"/>
<path d="M821 767 c-137 -174 56 -412 210 -258 63 63 70 226 12 278 -58 53
-172 43 -222 -20z m169 -127 c0 -116 -37 -153 -101 -99 -30 25 -41 180 -15
207 56 56 116 0 116 -108z"/>
<path d="M1225 807 c-42 -17 -85 -120 -85 -205 0 -137 102 -189 175 -89 l39
53 13 -53 c8 -32 28 -53 48 -53 57 0 52 333 -5 349 -49 13 -151 12 -185 -2z
m135 -78 c0 -47 -50 -156 -86 -185 -67 -56 -94 114 -30 191 30 36 116 32 116
-6z"/>
<path d="M1539 811 c-7 -83 0 -314 11 -331 34 -54 79 -10 73 71 -6 88 53 189
111 189 26 0 29 -18 18 -112 -13 -118 5 -168 63 -168 24 0 28 16 18 74 -14 87
50 212 104 202 25 -5 32 -33 32 -136 1 -117 5 -131 43 -136 40 -6 52 221 17
331 -13 43 -104 28 -145 -24 l-38 -49 -23 49 c-28 62 -65 62 -140 -2 l-60 -50
-7 45 c-5 39 -74 81 -77 47z"/>
<path d="M2781 781 c-96 -96 -87 -289 14 -314 41 -10 61 -2 96 42 l44 55 13
-52 c8 -31 27 -52 48 -52 57 0 51 333 -6 349 -83 22 -171 10 -209 -28z m152
-83 c-33 -163 -143 -217 -139 -67 3 87 35 129 101 129 45 0 49 -6 38 -62z"/>
<path d="M3401 767 c-50 -63 -55 -198 -10 -263 62 -87 249 -41 249 63 0 46
-45 41 -76 -8 -35 -55 -112 -45 -120 16 -6 38 3 45 50 45 114 0 189 109 122
176 -46 46 -169 29 -215 -29z m159 -47 c0 -31 -13 -40 -60 -40 -56 0 -80 33
-47 67 32 31 107 13 107 -27z"/>
</g>
</svg>
